<?xml version="1.0" encoding="UTF-8" standalone="no"?>
<svg id="svg2" stroke-linejoin="round" xmlns:rdf="http://www.w3.org/1999/02/22-rdf-syntax-ns#" xmlns="http://www.w3.org/2000/svg" stroke-linecap="round" height="192.42mm" width="252.4mm" version="1.1" xmlns:cc="http://creativecommons.org/ns#" xmlns:dc="http://purl.org/dc/elements/1.1/" viewBox="0 0 252.39698 192.41805" fill="none">
 <metadata id="metadata2042">
  <rdf:RDF>
   <cc:Work rdf:about="">
    <dc:format>image/svg+xml</dc:format>
    <dc:type rdf:resource="http://purl.org/dc/dcmitype/StillImage"/>
    <dc:title/>
   </cc:Work>
  </rdf:RDF>
 </metadata>
 <desc id="desc4">Composer Export</desc>
 <script id="script6" type="text/ecmascript"><![CDATA[
if(typeof(top) != "undefined")
{
	top.ShowPaper = ShowPaper;
}
function ShowHotSpot(evt,hotspotid)
{
	var svgDocument = evt.target.ownerDocument;
	var strId = "hotspot."+hotspotid;
	var hotspot = svgDocument.getElementById(strId);
	if(hotspot)
		hotspot.setAttribute("opacity",".5");
}
function HideHotSpot(evt,hotspotid)
{
	var svgDocument = evt.target.ownerDocument;
	var strId = "hotspot."+hotspotid;
	var hotspot = svgDocument.getElementById(strId);
	if(hotspot)
		hotspot.setAttribute("opacity","0");
	var toolTip = svgDocument.getElementById('ToolTip');
	if(toolTip)
		toolTip.setAttribute("visibility","hidden");
}
function ShowToolTip(evt,hotspotid,strTooltip)
{
	if(strTooltip=="")
	return;
	// change text
	var svgDocument = evt.target.ownerDocument;
	var tiptext = svgDocument.getElementById('ToolTipText');
	if( !tiptext )
	return;
	tiptext.firstChild.nodeValue = " " + strTooltip + "  " ;
	// show tooltip before, else some refresh issue
	var toolTip = svgDocument.getElementById('ToolTip');
	if(!toolTip)
	return;
	toolTip.setAttribute("visibility","visible");
	toolTip.setAttribute("opacity",".95");
	// move tooltip
	// get viewbox
	var root = svgDocument.documentElement;
	var vbox = (root.getAttribute("viewBox")).split(' ');
	var x0 = parseFloat(vbox[0]);
	var y0 = parseFloat(vbox[1]);
	var vboxW = parseFloat(vbox[2]);
	var vboxH = parseFloat(vbox[3]);
	// get default width of svg
	var strW = root.getAttribute("width");
	var svgW = parseFloat(strW);
	if(strW.indexOf('mm') != -1)
	svgW *= 3.779;
	var strH = root.getAttribute("height");
	var svgH = parseFloat(strH);
	if(strH.indexOf('mm') != -1)
	svgH *= 3.779;  	// 96 dpi  -> 96/25.4 = 3.779
	// update the viewbox / width / height if svg is embedded in html with zoom fit all
	var realx0 = x0;
	var realy0 = y0;
	var realvboxW = vboxW;
	var realvboxH = vboxH;
	var realsvgW = svgW;
	var realsvgH = svgH;
	if ((typeof(top) == "undefined") || (typeof(top.svgctl1) != "undefined")) // embedded in html
	{
		// get window size in pxl
		svgW = window.innerWidth;
		svgH = window.innerHeight;
		// calculate real viewbox
		realsvgW = svgW;
		realsvgH = svgH;
		if((svgW / svgH) > (vboxW / vboxH))
		{
			realvboxW = (vboxH * svgW) / svgH;
			realvboxH = vboxH;
			realx0 = x0 - (realvboxW - vboxW)/2 ;
		}
		else
		{
			realvboxH = (vboxW * svgH) / svgW;
			realvboxW = vboxW;
			realy0 = y0 - (realvboxH - vboxH)/2 ;
		}
	}
	// get user zoom/pan
	var newScale = root.currentScale;
	var translation = root.currentTranslate;
	// transform pxl to user unit
	var xPos = (((evt.clientX+10- translation.x)/newScale) * realvboxW)/realsvgW  + realx0 ;
	var yPos = (((evt.clientY+5- translation.y)/newScale) * realvboxH)/ realsvgH  + realy0 ;
	var scaleForWidth = ( (1 / newScale) * realvboxH) / realsvgH;
	// move tooltip
	toolTip.setAttribute("transform", "translate(" + xPos + "," + yPos + ")" );
	// resize tooltip
	var fontsize = 12;
	tiptext.setAttribute("font-size",fontsize*scaleForWidth);
	tiptext.setAttribute("y", fontsize*scaleForWidth);
	var tipBG = svgDocument.getElementById('ToolTipBG');
	var outline = tiptext.getBBox();
	if(tipBG)
	{
		tipBG.setAttribute("stroke-width", 1*scaleForWidth);
		tipBG.setAttribute("width", Number(outline.width) );
		tipBG.setAttribute("height", Number(outline.height) + fontsize*.5*scaleForWidth );
	}
	var ToolTipShadow = svgDocument.getElementById('ToolTipShadow');
	if(ToolTipShadow)
	{
		ToolTipShadow.setAttribute("width", Number(outline.width) );
		ToolTipShadow.setAttribute("height", Number(outline.height) + fontsize*.5*scaleForWidth );
		ToolTipShadow.setAttribute("x", 3*scaleForWidth);
		ToolTipShadow.setAttribute("y", 3*scaleForWidth);
	}
}
function ShowPaper()
{
  var svgDocument = getDocument();
  var paper = svgDocument.getElementById("paperID");
  if(paper)
  {
    paper.setAttribute("transform","scale(1)");
    paper.setAttribute("opacity","1");
    paper.setAttribute("visibility","visible");
  }
  var svg = svgDocument.getRootElement();
  if(svg)
  {
    svg.setAttribute("width","307.000mm");
    svg.setAttribute("height","220.000mm");
    svg.setAttribute("viewBox","-5.000000 -5.000000 307.000000 220.000000");
  }
}
]]></script>
 <g id="g10" transform="translate(-19.422 .15955)">
  <path id="path12" d="m180.61 5.16v2.14l-0.34 1-1.14 1.21-5.68 3.07-1.61 0.01-6.18-1.97-0.01-0.37 13.85-7.16 0.42 0.04zm-20.66 5.74 0.67-0.39 1.14 0.01 0.04 1.81-1.75-0.43zm-11.4 0.64h-0.73l0.36-0.36h0.45zm8.85 4.71v3.85l-0.81 1.2-75.37 39.43h-0.9l-6.84-2.39 83.24-43.41zm6.38 2.38 2.4 0.96-0.03 2.19-8.41 11.72-2.17-0.75 6.21-8.62 0.5-5.83zm-3.97 2.34-0.05 0.43-1.18 0.94h-0.64l1.01-1.76h0.48zm-19.32 10.06 0.39 0.07 0.06 0.38-0.38-0.07zm130.99 3.4v2.15l-0.35 0.99-1.09 1.27-12.81 6.71 0.09 1.7 9.8 21.16v3.51l-0.68 1.01-0.32 11.12-3.19 1.86-1.35 0.13 0.37-11.2 0.76-0.25 0.03-4.16-9.46-20.49-0.09-2.71 3.73-2.04 0.11-0.36-2.02-1.33-1.38-1.33-0.12-0.98 16.87-8.83 0.4 0.05zm-127.54-1.54-0.28 0.39-1.77 0.61-0.1-1.48 1.35-0.32 0.81-0.69zm93.94 4.16-0.24-0.94 1.45-0.71 0.41 0.02v1.85zm14.75 5.82v1.09l-0.41 0.29-1.64-0.04-0.03-1.28 0.3-0.42 1.12-0.03zm-4.37 3.01 0.01 3.49-0.83 1.2-5.66 3.03 0.02 0.35 5.11 11.11 0.72 1.81-0.83 0.6-0.88-0.03-5.77-12.49-0.75-0.03-8.65 4.54-2.31 1.38-2.17 0.86-60.81 31.74-0.3 1.72-2.82 1.56-1.02 0.13v-1.83l3.4-1.67 0.43-0.29 0.01-0.36-2.7-1.74-1.14-1.67 85.82-44.79 0.46-0.02zm3.57-1.03 0.81 0.01 0.01 0.81-0.72-0.1zm-1.15 5.4-0.06 0.42-1.51 1.28-0.64 0.01 1.34-2.1h0.49zm-182.49 8.55 0.93-0.51 0.76 0.01v1.86l-1.02-0.11-0.67-0.39zm-12.12 1-0.1-0.43 0.78-0.08zm9.12 3.55 0.65 2.73 0.35 0.32 2.04 0.73 0.01 0.36-4.84 2.64h-1.61l-6.18-1.97v-0.35l8.79-4.8 0.46-0.03zm185.42 2.16h-0.45v-0.45h0.45zm-178.37 1.25-0.77 0.69-1.02 0.11v-1.18zm-22.67 1.98 0.66-0.66h1.5v1.49l-1.71-0.14zm-11.39 0.4-0.76-0.04 0.35-0.37h0.82zm9.18 4.99-0.02 2.83-0.34 1-0.97 1.05-18.57 9.73 0.03-0.62 0.34-0.4 0.33-2.45-0.79-2.77 19.18-10.06zm190.67-0.35 0.69-0.64 1.03-0.37 0.78 0.02-0.36 2.16-1.68-0.48zm-184.3 2.4 2.4 0.96-0.02 2.19-7.26 9.64 0.47 0.68 0.08 2.1-2.15-0.44-1.96 2.78-0.31 3.05-0.01 3.28h2.95l3.05-0.65 2.01-2.41 0.73-0.02 2.01 0.68-0.75 2.05-1.26 1.43-0.68 1-1.4 0.61-1.94-0.02-2.7-0.65-0.98-0.65-0.33 0.04-0.68-0.81-0.36 4.87-3.12 1.6-1.02 0.12 0.11-11.13 2.25-2.8 8.87-12.33 0.5-5.5zm191.85-0.55-1.46 0.89-2.82 0.21 3.14-1.23 1.49-1zm-4.43 1.31-1.12-0.1 1.27-0.11zm6.8-0.3-1.84 1.23 0.77 2.65-0.65 2.15-2.33 3.05-1.12 0.57-2.27-0.02-2.04-0.32-2.32-1.37-0.82-1.02-78.74 41.09 0.09 5.45-0.38 0.28 0.1 2.74 0.34-0.02v1.08l-0.38 0.64-0.76 6.98-3.02 1.7-1.02 0.12 0.1-6.09 0.26-5.13 0.39-0.28 0.35-3.83-9.83-21.51 0.42-2.23 3.74-1.99-0.33-0.48-1.69-1.04-1.74-1.68-0.11-0.62 12.65-6.44 0.27 0.32 0.67 3.08 2.4 0.96-1.42 1.12-0.64 14.84-4.84 2.27 0.1 1 3.41 7.41 0.88 0.02 90.64-47.39 0.71-0.43zm-198.22 1.84-1.19 1.41-0.65 0.11 0.34-1.15 0.36-0.68 0.8-0.03zm-24.57 2.71 1.37 1.38-0.04 0.76-4.39 2.37-1.11 0.36-0.59-1.45v-2.29l1.23-1.8 2.51 0.01zm120.66 2.74 0.67-0.39 1.14 0.01 0.04 1.8-1.75-0.42zm120.97 2.49-3.15 1.88-1.72 0.1 0.01-1.12 4.85-2.36zm-14.49 0.65-3.15 0.21-3.36 1.01-3 1.7-1.38 0.11v-1.49l2.02-0.66 4.37-2.03 1.69-0.32 2.81-0.02zm-91.51 3.88-0.03 1.15-1.78 0.35-0.29-0.41 0.04-1.28 1.05-0.45zm-121.19-0.53h-0.45v-0.45h0.45zm121.17 3.04-0.82 0.01 0.11-0.72 0.72-0.1zm-106.13-1.14-2.01 1.03-2.38 0.01 3.53-1.21 1-0.82zm72.77 1.14 1.28-0.49 0.75-0.01 0.02 1.86-1.38-0.12-0.66-0.38zm15.17 6.95v1.1l-0.75 0.26-1.38 0.11 0.1-1.72 1.37-0.13zm-4.37 3.35 0.01 2.49-1.15 1.88-5.38 3.06 0.07 0.64 5.79 12.45-0.79 0.72-1 0.09-5.95-12.89-11.67 5.93 0.41-0.93 0.48-2.31-0.32-1.72-0.41-0.66-0.07-0.64 18.53-9.83 0.75 0.03zm3.21-1.05 0.33-0.33 0.85 0.03 0.01 0.8-0.74-0.06zm-110.57 3.77-0.74 0.34-1.39 0.02 0.71-0.71zm109.75 1.28-1.19 1.41-0.65 0.11 0.33-1.15 0.37-0.68 0.8-0.03zm1.65 1.07-0.42 0.1 0.06-0.79zm-101.58 0.97-1.23 0.11v-0.42l0.88-0.05zm75.36 0.66 1.66 2.04-5.17 2.74h-0.89l-0.37-1.02v-2.62l0.71-1.31 0.86-0.48h2.17zm-57.59-7.25-13.21 6.97-1.37 0.12v-1.49l2.02-0.67 12.6-6.39zm179.76-41.71l-1.05 0.65-0.34 12.11-0.35 2.68-71.09 37.27-1.37 0.12 0.45-14.84 0.24-1.09 9.42-4.73 64.09-33.3zm-127.25 54.38 1.05 0.97 1.21 2.18 3.02-0.09 1.91-0.81 1.23 0.77 3.72 3.35 6.74 6.38 0.98 2.05 0.02 8.57-4.07 2.02-0.32-6.22-0.67-1.01-10.2-3.93-1.23-1.81-1.37-1.35-1.01 3.18-3.36 2.7-4.72 1.67-6.17 0.57h-2.92l-5.07-0.66-4.03-1.35-0.55-0.46 1.25 0.1 3.33 1.04 3.05 0.32 5.06 0.12 0.54-18.99 7.52-1.01zm29.67 6.71-0.06 0.51-0.43-0.02-0.06-0.8zm-55.91 9.43 0.43 0.58-2.16-0.95-0.08-0.32zm56.92 10.42-1.23 0.12v-0.42l0.88-0.05zm16.12 0.83-1.82 1.22-3.02 1.15v-1.49l4.39-2.08 0.43 0.04zm-22.23 5.25 0.33 5.5-0.67 3.37-1.65 2.73-2.49 1.88-10 4.47-0.67 5.73-1.01 3.36-2.7 4.04-3.33 3.39-4.54 3.54-6.94 3.5-8.51 1.91h-6.29l-7.08-0.66-2.48-0.69 3.39 0.03 1.82-0.56 1.16-0.15 1.26-0.77 1.18 0.16 0.49-0.68-1.67 0.52-0.57-0.23 0.69-0.69 1.16-0.32-0.48-0.7 2.17-0.31-1.86-0.33 1.51-0.31-0.71-0.41 0.29-0.98 1.83 0.07-0.04-0.34-1.49-0.37 0.77-0.35-0.81-0.36 0.58-0.77 1.62 0.22-1.62-0.22 0.09-0.21 1.53-0.34-1.53-0.34 1.53-0.34-1.52-0.33 1.18-0.34-1.17-0.33 1.86-0.61 0.03-0.36-0.26-0.16-0.11-0.22-1.51-0.32 1.81-0.72-1.84 0.01 0.31-0.33 1.22-0.33-1.51-0.32 1.48-0.61-1.8-0.05 3.83-1.72-1.75-5.39-0.07-0.65 0.82-0.33 0.31 0.64 1.68 5.88 5.58-3.88 2.69-2.35 2.84-2.55 2.56-2.83 3.15-4.25 3.27-5.81 1.03-3.06 0.4-0.04 1.38 1.75 1.24 0.02 2.36-1.1 0.4 0.05 1.04 2.7 0.33 4.82-0.31 2.04-0.4 0.66 0.35 3.99 0.4 0.41 1.65-3.05 0.66-3.37-0.32-5.17-1.45-4.04 11.42-5.06 1.11 0.02zm16.43-2.7-1.11 0.12-0.01-0.42 1.18-0.05zm-73.77 1.06 1.69-0.72 1.69-0.32 2.85 0.02-0.01 0.37-1.5 0.61-5.75 3.7-3.68-0.33-1 0.34-2.69 1.68-1.55 1.81-2.16 3.91-0.91 3.13-0.32 5.73-0.35 1.34-0.32 4.41-4.39-1.48-4.71-2.02-0.98-0.7-1.37-2.04-0.13-0.64 0.44-0.04 9.47 3.79h0.65l-0.34-1.38v-6.97l1.24-4.14 2.33-4.41 2.48-2.9 2.6-2.12 3.04-1.03zm12.94 3.14-1.81 1.21-4.25 3.53-0.73 0.22-0.43-0.3 0.09-0.63 5.98-4.55 0.82-0.01zm-7.88-0.11 1.77-0.76-0.18 0.61-0.6 0.1-0.77 0.91-0.57 0.1-0.68 0.7 0.66 0.01 0.59-0.81 0.96-0.39 0.41-0.62 2.13-0.93 0.86 0.23-0.55 0.11-0.45 0.59-0.56 0.11-2.35 1.69-2.04 2.03h-0.9l0.05-0.56 0.29-0.51-0.8 0.36-1.23 0.05-0.79-0.39 3.74-2.69zm9.57 0.93-3.74 2.84-2.15 1.93-0.91 0.04-0.45-0.32 0.01-0.37 5.49-4.33 1.44-0.11zm1.03 1.4-0.05 0.4-2.37 1.72-2.13 1.9h-1.61l0.03-0.53 3.27-2.83 2.17-1.35zm0.41 1.15 0.26 1.32-3.23 2.57-0.9 0.06-0.43-0.32 0.11-0.61 2.94-2.49 1.12-0.67zm-12.04 0.49 2.48-2.21 2.02-1.69 0.11-0.22 0.81-0.23 0.19-0.47 1.63 0.27-0.82 0.55-3.26 2.46-2.15 1.92-0.59 0.04zm10.1 4.15 0.1-0.61 1.93-1.52 0.15 1.86-0.81 0.56zm-26.8 12.17 0.32-2.74 1.39-3.32 1.93-2.16 0.77 0.12-1.54 1.52-1.54 4.18 0.02 5.63 0.99 4.39 0.7 1.31-0.41 0.4-0.93-0.03-0.91-1.78-0.13-1.24-0.21-0.13-0.11-1.27-0.23 1.26-0.2-0.12-0.13-1.54 0.37-1-0.38-0.36-0.11-5.64zm-0.55 3.11-0.23-0.12 0.11-1.14zm0.33 1.37-0.33-1.37 0.32 0.01zm0.67 3.02-0.21-0.14-0.13-1.22 0.34 0.01zm0.23 0.91-0.23-0.91 0.34 0.02zm23.59 0.95-1.19-0.07 1.31-0.11zm140.67-103.58-2.39 1.34v-10.46l2.27-1.18 0.44 0.05zm-8.11 4.34-1.34 0.67-1.12 0.37v-10.23l2.04-1.08 0.42 0.03zm13.66 3.32-0.02-0.36 7.82-4.13 0.43 0.04 0.04 0.42-0.73 1.38-1.46 1.91-2.37 0.32-0.87 0.47-2.04 0.27zm-21.73 0.05-0.37 0.98-1.32 0.69-1.12 0.37 0.45-10.46 2.38-1.11zm-23.56 11.13v-6.09l6.3-3.2 0.42 0.03v6.87l-0.3 2.73-6.76 3.7v-2.39l4.75-2.66v-1.14zm-9.09 6.7-2.35 1.38-0.01-10.47 1.94-1.18 0.42 0.04zm-93.99 48.01-0.81 0.23 0.45-0.59 0.55-0.11zm-3.21 0.85-0.96 0.39 0.77-0.91 0.6-0.1zm-1.55 1.2-0.66-0.01 0.68-0.7 0.57-0.1zm-2.01 0.33h-0.67l0.74-0.74h0.38zm-15.2 21.77-0.37 1-0.01-1.36zm0.3 2.67-0.34-0.01 0.23-1.26zm0.34 1.37-0.34-0.02v-1.35l0.21 0.13zm31.21 10.3-1.18 1.58-0.63 0.13 0.08-2.74 1.36-0.1zm-10.1 0-0.11-0.43 0.38-0.07zm-2.29 1.12 1.67-0.52-0.49 0.68z" fill-opacity="0.098" fill-rule="evenodd" fill="#000"/>
  <g id="Actor_.0" stroke="#000">
   <g id="g15" stroke-width=".106">
    <path id="path17" d="m52.87 59.85 0.04 0.12 0.13 0.11 0.2 0.08 1.01 0.15 1.62-0.25 1.51-0.97-0.18-0.02-0.43 0.03-0.37 0.07-0.29 0.13-0.17 0.16-0.02 0.17 0.11 0.18 0.04 0.02-0.52 0.1-0.5-0.04-0.18-0.1-0.11-0.12v-0.26"/>
    <path id="path19" d="m56.07 59.83 0.18-0.04 0.09-0.03"/>
    <path id="path21" d="m57.38 59.09 0.62-0.41-0.27-0.05-0.83-0.03-0.72 0.07"/>
    <path id="path23" d="m56.22 58.66 0.68-0.11 1.53-0.16-0.43 0.29"/>
    <path id="path25" d="m58.99 60.14 0.09-0.07 0.12-0.03"/>
    <path id="path27" d="m58.43 58.39 0.85-0.46"/>
    <path id="path29" d="m58.54 58.33 1.51-0.3 1.65 0.26 90.84 29.33 1.64 0.81 1.5 1.29 2.51 3.38 1.59 1.29 1 0.5 0.25 0.07 0.28 0.02 0.29-0.02 0.25-0.05 0.2-0.08 3.26-1.7 0.13-0.09 0.05-0.11"/>
    <path id="path31" d="m59.72 59.91 0.09-0.03"/>
    <path id="path33" d="m60.54 59.79-0.23-0.03-0.08 0.02"/>
    <path id="path35" d="m61.22 59.88-0.1-0.01"/>
    <path id="path37" d="m61.74 59.99-0.12-0.05"/>
    <path id="path39" d="m63 60.62h-0.02"/>
    <path id="path41" d="m64.22 61.75 0.02 0.03"/>
    <path id="path43" d="m68.21 59.68-0.06-0.03-0.22-0.33 0.06-0.33 0.31-0.3 0.55-0.24 0.71-0.15 0.81-0.04 0.81 0.06 0.73 0.17 0.57 0.25 0.34 0.31 0.08 0.34-0.18 0.31-0.44 0.28-0.63 0.19-0.78 0.1-0.82-0.01-0.78-0.12-0.65-0.21-0.41-0.25"/>
    <path id="path45" d="m72.6 66.82-2.66-0.86"/>
    <path id="path47" d="m144.06 89.9-0.36-0.12"/>
    <path id="path49" d="m146.38 85.04-0.47-0.28-0.22-0.33 0.05-0.33 0.31-0.3 0.55-0.24 0.71-0.15 0.81-0.04 0.38 0.03 0.43 0.03 0.73 0.17 0.57 0.25 0.34 0.31 0.09 0.33-0.19 0.32-0.43 0.27-0.64 0.2-0.77 0.1-0.82-0.01-0.78-0.12-0.65-0.21"/>
    <path id="path51" d="m149.87 89.44 0.08-0.05"/>
    <path id="path53" d="m151.68 89.17-0.53-0.08-0.21 0.05"/>
    <path id="path55" d="m152.31 89.25 0.19 0.03 0.07 0.04"/>
    <path id="path57" d="m153.09 89.58 0.02 0.01"/>
    <path id="path59" d="m154.42 90.49 0.03 0.03"/>
    <path id="path61" d="m155.55 91.84 0.02 0.02"/>
    <path id="path63" d="m156.66 94.99 0.02 0.15"/>
    <path id="path65" d="m156.54 94.01-0.01-0.04"/>
    <path id="path67" d="m163.61 93.36-0.01-0.31-0.27-0.32-0.5-0.28-0.7-0.19-0.81-0.1-0.82 0.01-0.76 0.13-0.6 0.22-0.14 0.1"/>
    <path id="path69" d="m162.18 94.1-0.72 0.03-0.42-0.05-0.44-0.11-0.73-0.35-0.63-0.57-0.41-0.73-0.15-0.77 0.03-0.36 0.1-0.32 0.16-0.25 0.22-0.18 0.28-0.09h0.32l0.36 0.09 0.38 0.14 0.82 0.43 0.8 0.52 0.69 0.54 0.48 0.47 0.18 0.26 0.1 0.21 0.01 0.32"/>
    <path id="path71" d="m159.94 93.36-0.11-0.17 0.03-0.17 0.16-0.16 0.29-0.13 0.38-0.08 0.42-0.02 0.43 0.03 0.39 0.09 0.3 0.13 0.18 0.17 0.04 0.17-0.1 0.17-0.23 0.15-0.33 0.1-0.41 0.05h-0.43l-0.42-0.07-0.34-0.11-0.25-0.15"/>
   </g>
   <g id="g73" stroke-width=".317">
    <path id="path75" d="m54.28 62.58-1.09-0.35-0.2-0.09-0.13-0.11-0.04-0.11 0.05-2.07 0.05-0.11 0.13-0.11 3.26-1.7 0.2-0.07 0.26-0.04h0.28l0.28 0.02 1.26 0.2 0.7-0.11 3.56-1.86 1.54-0.31 1.66 0.26 90.83 29.34 1.65 0.8 1.49 1.29 2.52 3.38 1.58 1.29 1.2 0.6 0.13 0.1 0.04 0.11-0.05 2.07-0.05 0.11-0.13 0.1-0.48 0.24-2.78 1.46-0.2 0.07-0.25 0.05-0.29 0.01-0.28-0.03-0.25-0.05-3.99-1.3-0.01-0.06"/>
    <path id="path77" d="m62.98 60.62-0.42-0.22"/>
    <path id="path79" d="m61.93 60.08-0.19-0.09"/>
    <path id="path81" d="m63.28 60.88-0.27-0.25"/>
    <path id="path83" d="m63.84 61.4 0.38 0.35"/>
    <path id="path85" d="m64.24 61.78 0.2 0.31"/>
    <path id="path87" d="m65.74 64.84-0.01-0.11-0.14-0.39"/>
    <path id="path89" d="m64.89 62.76 0.25 0.38 0.03 0.07"/>
    <path id="path91" d="m145.12 91.91-1.1-0.35-0.2-0.09-0.12-0.1-0.04-0.12 0.03-1.47-71.09-22.96-1.43 0.75-0.2 0.08-0.26 0.05-0.28 0.01-0.28-0.03-0.25-0.06-4-1.29-0.03-0.34"/>
    <path id="path93" d="m153.09 89.58-0.52-0.26"/>
    <path id="path95" d="m154.42 90.49-0.58-0.53-0.15-0.08"/>
    <path id="path97" d="m155.92 92.4 0.06 0.07 0.38 1.04"/>
    <path id="path99" d="m155.55 91.84-0.51-0.78-0.11-0.1"/>
    <path id="path101" d="m156.54 94.01 0.02 0.05 0.1 0.93"/>
    <path id="path103" d="m156.53 93.97-0.01-0.02"/>
   </g>
  </g>
  <g id="Actor_.1" stroke="#000">
   <g id="g106" stroke-width=".106">
    <path id="path108" d="m56.22 78.18 0.41 0.18 68.71 22.19"/>
    <path id="path110" d="m68.39 67.49 2.7 0.87 0.4 0.17 0.25 0.21 0.08 0.23-0.09 0.23-0.27 0.2-0.48 0.25"/>
    <path id="path112" d="m238.46 59.97-0.09 0.22-0.27 0.2-72.18 37.68-0.41 0.15-0.51 0.09-0.56 0.02-0.56-0.05-0.5-0.12-4.16-1.34"/>
   </g>
   <g id="g114" stroke-width=".317">
    <path id="path116" d="m125.32 101.88-68.72-22.19-0.38-0.17-0.18-0.14"/>
    <path id="path118" d="m56.23 77.36 0.39-0.22"/>
    <path id="path120" d="m66.8 68.31 4.16 1.35-4.06 2.12"/>
    <path id="path122" d="m219.06 53.32-76.32-24.64"/>
    <path id="path124" d="m233.57 58.01 4.16 1.34 0.4 0.18 0.25 0.21 0.08 0.23-0.03 1.32-0.1 0.23-0.26 0.2-72.18 37.67-0.41 0.15-0.51 0.1-0.56 0.02-0.56-0.05-0.5-0.12-4.36-1.41-0.51-0.12-0.55-0.05-0.57 0.03-0.43 0.07"/>
   </g>
  </g>
  <g id="Actor_.2" stroke="#000">
   <g id="g127" stroke-width=".106">
    <path id="path129" d="m45.78 93.49 64.93 20.97"/>
    <path id="path131" d="m132.8 121.6-13-4.2"/>
    <path id="path133" d="m248.2 74.98-0.24 0.56-0.66 0.49-91.29 47.66"/>
   </g>
   <g id="g135" stroke-width=".317">
    <path id="path137" d="m111.38 116.02-66.31-21.42"/>
    <path id="path139" d="m50.91 86.45 6.13-3.2"/>
    <path id="path141" d="m133.53 123.17-15.32-4.95"/>
    <path id="path143" d="m245.12 73.04 1.26 0.4 0.99 0.44 0.63 0.52 0.2 0.58-0.03 1.32-0.24 0.57-0.66 0.49-90.78 47.38"/>
    <path id="path145" d="m242.04 72.04-5.1-1.65"/>
   </g>
  </g>
  <g id="Actor_.3" stroke="#000">
   <g id="g148" stroke-width=".106">
    <path id="path150" d="m96.01 107.42 0.36-14.89"/>
    <path id="path152" d="m179.53 100.87 2.18 0.7-2.71 1.42 0.04-1.87"/>
    <path id="path154" d="m181.71 101.57 0.26-10.57"/>
    <path id="path156" d="m190.4 97-0.05 1.86 7.06-3.68-2.18-0.7"/>
    <path id="path158" d="m197.41 95.18 0.24-9.95-2.23 1.16"/>
    <path id="path160" d="m211.61 84.13-0.05 1.86 2.7-1.41-2.16-0.71"/>
    <path id="path162" d="m214.26 84.58 0.27-10.58"/>
    <path id="path164" d="m222.67 69.75-0.25 10.58-2.72 1.41 0.05-1.86"/>
    <path id="path166" d="m220.24 79.62 2.18 0.71"/>
    <path id="path168" d="m220.41 72.39 0.04-1.48"/>
    <path id="path170" d="m219.93 72.24 0.03-1.07"/>
    <path id="path172" d="m227.89 75.63 0.49-0.26 2.18 0.71-2.72 1.41 0.26-10.57"/>
    <path id="path174" d="m228.38 75.37 0.21-8.71"/>
    <path id="path176" d="m230.56 76.08 0.25-10.58"/>
   </g>
   <g id="g178" stroke-width=".317">
    <path id="path180" d="m57.12 79.86-0.35 14.51 0.08 0.23 0.25 0.21 0.39 0.17 52.96 17.11"/>
    <path id="path182" d="m67.22 68.45-0.08 3.2"/>
    <path id="path184" d="m131.56 118.9-9.05-2.92"/>
    <path id="path186" d="m152.02 115.02 3.87-2.02 0.41-0.15 0.51-0.09 0.56-0.02 0.56 0.05 0.5 0.11 4.36 1.41 0.5 0.12 0.56 0.05 0.56-0.02 0.51-0.09 0.41-0.15 71.1-37.11 0.26-0.2 0.1-0.23 0.35-14.48"/>
    <path id="path188" d="m179.74 92.16-0.21 8.71-0.49 0.25 0.22-8.71"/>
    <path id="path190" d="m190.4 97 0.19-8.09 4.83-2.52-0.19 8.09-4.83 2.52"/>
    <path id="path192" d="m212.31 75.16-0.21 8.71-0.49 0.26 0.21-8.71"/>
    <path id="path194" d="m219.93 72.24-0.18 7.64 0.49-0.26 0.17-7.23"/>
   </g>
  </g>
  <g id="Actor_.4" stroke="#000">
   <g id="g197" stroke-width=".106">
    <path id="path199" d="m179.05 101 0.48-0.26"/>
    <path id="path201" d="m190.44 95.05 4.83-2.52"/>
    <path id="path203" d="m211.61 84 0.49-0.25"/>
    <path id="path205" d="m219.75 79.75 0.49-0.25"/>
    <path id="path207" d="m227.89 75.5 0.49-0.25"/>
   </g>
   <g id="g209" stroke-width=".317">
    <path id="path211" d="m190.41 96.38 4.83-2.53"/>
    <path id="path213" d="m227.99 71.62 0.47 0.16"/>
   </g>
  </g>
  <g id="Actor_.5" stroke="#000">
   <g id="g216" stroke-width=".106">
    <path id="path218" d="m46.5 102.16-0.08-0.07-0.43-0.35v0.32l-0.03 0.13-0.05 0.08"/>
    <path id="path220" d="m45.99 101.74-0.34-0.29"/>
    <path id="path222" d="m46.07 101.8h0.01"/>
    <path id="path224" d="m48.55 89.68 0.46-0.09 0.89-0.04 0.88 0.08 0.78 0.19 0.61 0.28 0.35 0.34 0.07 0.36-0.22 0.35-0.49 0.29-0.71 0.21-0.85 0.1-0.9-0.02-0.84-0.14-0.71-0.23-0.36-0.24"/>
    <path id="path226" d="m52.72 102.3 0.08-0.07 0.77-0.6"/>
    <path id="path228" d="m53.16 101.96h-0.01"/>
    <path id="path230" d="m53.28 102.43-0.04-0.08-0.02-0.13v-0.32"/>
   </g>
   <g id="g232" stroke-width=".317">
    <path id="path234" d="m44.92 100.75 0.29 0.34 0.44 0.36"/>
    <path id="path236" d="m49.26 88.7 1.45 0.03 1.53 0.25 0.05 0.02 1.31 0.44 0.9 0.58 0.09 0.07 0.4 0.68 0.06 0.11 0.02 0.13-0.01 0.76-0.03 0.12"/>
    <path id="path238" d="m55.9 98.1-0.31 0.89-0.33 0.77-0.85 1.22-0.84 0.65"/>
   </g>
  </g>
  <g id="Actor_.6" stroke="#000">
   <g id="g241" stroke-width=".106">
    <path id="path243" d="m237.09 85.14-0.53-0.46"/>
    <path id="path245" d="m236.9 84.97-0.01 0.54"/>
    <path id="path247" d="m238.31 74.25 0.17 0.17 0.59 0.29 0.77 0.2 0.88 0.08 0.89-0.03 0.8-0.15 0.62-0.25 0.38-0.32 0.1-0.36-0.2-0.35-0.47-0.32-0.69-0.25-0.31-0.05-0.53-0.09-0.9-0.03-0.85 0.1-0.72 0.2-0.51 0.28-0.24 0.35 0.05 0.36 0.17 0.17"/>
    <path id="path249" d="m243.89 85.35 0.09-0.07 0.52-0.4"/>
    <path id="path251" d="m244.13 85.17-0.01 0.54"/>
    <path id="path253" d="m244.12 85.48v0.01"/>
   </g>
   <g id="g255" stroke-width=".317">
    <path id="path257" d="m236.56 84.68-0.81-0.71-0.28-0.45"/>
    <path id="path259" d="m236.88 72.64 0.92-0.37 0.08-0.01 1.44-0.27 1.59-0.06 1.59 0.16 1.48 0.37 1.09 0.53 0.08 0.07 0.64 0.65 0.06 0.11 0.13 0.89-0.03 0.12"/>
    <path id="path261" d="m246.05 78 0.46 0.74 0.45 1.72v0.1l-0.23 0.83-0.34 1.28-0.88 1.27-0.58 0.62-0.43 0.32"/>
   </g>
  </g>
  <g id="Actor_.7" stroke="#000">
   <g id="g264" stroke-width=".106">
    <path id="path266" d="m227.83 61.17-0.42 0.1h-0.09"/>
   </g>
   <g id="g268" stroke-width=".317">
    <path id="path270" d="m227.83 61.17 0.28-0.06 0.53-0.24 0.3-0.31 0.01-0.14"/>
   </g>
  </g>
  <g id="Actor_.8" stroke="#000">
   <g id="g273" stroke-width=".106">
    <path id="path275" d="m142.8 33.73-0.68 0.11-0.82 0.02-0.8-0.1-0.4-0.11"/>
    <path id="path277" d="m141.22 30.78 1.01 0.12 0.3 0.41-0.72 0.3-0.61-0.07-0.41-0.05-0.29-0.41 0.72-0.3-0.02 0.76"/>
    <path id="path279" d="m142.23 30.9-0.01 0.54"/>
   </g>
   <g id="g281" stroke-width=".317">
    <path id="path283" d="m142.8 33.73 0.07-0.01 0.59-0.22 0.38-0.28 0.13-0.33 0.03-1.41-0.01-0.08-0.15-0.32-0.03-0.07-0.06-0.05-0.38-0.28-0.58-0.23-0.04-0.01-0.7-0.13-0.76-0.04-0.73 0.07h-0.03l-0.65 0.17-0.48 0.24-0.05 0.04-0.25 0.31-0.04 0.06-0.02 0.08-0.03 1.41 0.01 0.33 0.28 0.32 0.51 0.27 0.29 0.08"/>
   </g>
  </g>
  <g id="Actor_.9" stroke="#000">
   <g id="g286" stroke-width=".106">
    <path id="path288" d="m51.79 160.51 0.06-2.39 1.14-4.57 2.05-4.29 1.85-2.39"/>
    <path id="path290" d="m64.54 172.86-0.08-0.1-0.08-0.06-0.08-0.03-0.02-0.16h0.08l0.08-0.02 0.08-0.09 0.02-0.14-0.02-0.1-0.04-0.1-0.07-0.09-0.08-0.06-0.08-0.04-0.01-0.16 0.08 0.01 0.08-0.02 0.06-0.05 0.05-0.12-0.01-0.15-0.01-0.02-0.15 0.21-0.89-1.23-0.94-3.69 0.11-4.37 1.14-4.57 2.05-4.29 2.74-3.54 3.13-2.4 3.18-1.01 2.89 0.5-4.83-1.86"/>
    <path id="path292" d="m64.83 174.74-0.02 0.09-0.05 0.07-0.07 0.04-0.08 0.01"/>
    <path id="path294" d="m64.47 174.13h0.08l0.07-0.04 0.05-0.06 0.03-0.15"/>
    <path id="path296" d="m64.6 173.03v0.12l-0.03 0.08-0.05 0.06-0.08 0.03h-0.08"/>
    <path id="path298" d="m64.52 172.4-0.08 0.09"/>
    <path id="path300" d="m64.28 172.51 0.25-0.32"/>
    <path id="path302" d="m64.49 171.36-0.1-0.17-0.08-0.07-0.08-0.05v-0.16l0.08 0.02 0.08-0.01 0.07-0.05 0.04-0.07 0.01-0.14-0.03-0.11-0.25 0.36"/>
    <path id="path304" d="m64.34 171.57-0.1 0.14"/>
    <path id="path306" d="m64.64 168.63 0.06-0.11-0.01 0.05-0.05 0.06-0.08 0.03-0.08-0.01-0.08-0.03-0.03 0.15 0.08 0.06 0.11 0.14 0.05 0.14 0.01 0.1-0.03 0.09-0.05 0.06-0.07 0.03-0.08 0.01-0.08-0.03-0.02 0.15 0.08 0.05 0.08 0.08 0.06 0.1 0.03 0.1 0.01 0.1-0.02 0.09-0.05 0.07-0.06 0.04-0.09 0.01-0.08-0.03-0.01 0.16 0.09 0.05 0.07 0.07 0.08 0.14"/>
    <path id="path308" d="m64.51 169.75-0.26 0.38"/>
    <path id="path310" d="m64.31 169.37 0.25-0.4"/>
    <path id="path312" d="m64.52 167.89 0.25-0.43 0.06 0.12 0.02 0.1-0.01 0.14-0.08 0.09-0.07 0.03-0.09-0.01-0.08-0.04-0.03 0.14 0.08 0.07 0.07 0.08 0.05 0.1 0.03 0.16-0.02 0.08"/>
    <path id="path314" d="m64.4 168.62 0.25-0.42"/>
    <path id="path316" d="m64.67 167.18 0.25-0.44 0.08 0.15 0.02 0.11-0.01 0.09-0.03 0.08-0.06 0.05-0.08 0.02-0.09-0.02-0.08-0.04-0.03 0.14 0.13 0.14"/>
    <path id="path318" d="m65.5 178.21 0.09-0.05"/>
    <path id="path320" d="m69.05 161.59-0.31 0.13-2.44 2.81-1.35 3.98-0.11 4.7 1.13 4.94 2.26 4.62 3.14 3.81 3.67 2.59 3.82 1.08 3.55-0.54 0.14-0.1-3.38 0.51-3.82-1.08-3.68-2.59-3.14-3.81-2.25-4.62-1.14-4.94 0.12-4.71 1.35-3.97 2.44-2.81 2.95-1.21 3.74 0.28 3.8 1.85 3.45 3.25 2.74 4.27 1.71 4.85 0.49 4.63-0.72 4.27-1.87 3.34-2.22 1.62-2.81 0.43-3.71-1.06-3.57-2.5-3.05-3.71-2.19-4.49-1.1-4.79 0.11-4.57 1.32-3.86 2.33-2.69 1.99-0.82 3.62 0.27 3.69 1.81 3.31 3.1"/>
    <path id="path322" d="m65.23 177.4 0.07-0.03 0.07-0.07"/>
    <path id="path324" d="m64.99 176.59 0.08-0.02 0.06-0.06 0.04-0.06"/>
    <path id="path326" d="m64.79 175.77 0.07-0.02 0.07-0.04 0.05-0.12"/>
    <path id="path328" d="m83.12 188.74-0.58 0.42-3.45 0.53-3.7-1.06-3.58-2.51-3.04-3.7-2.19-4.49-1.1-4.79 0.11-4.57 1.31-3.86 2.37-2.73 1.18-0.48"/>
    <path id="path330" d="m64.86 166.49 0.25-0.45 0.1 0.2 0.01 0.1-0.02 0.09-0.03 0.07-0.07 0.05-0.07 0.01-0.09-0.02-0.08-0.05-0.04 0.13 0.1 0.12"/>
    <path id="path332" d="m65.17 166.5 0.03-0.07"/>
    <path id="path334" d="m65.16 165.67 0.17-0.3 0.07 0.12 0.04 0.11 0.01 0.1-0.04 0.13-0.09 0.07h-0.08l-0.09-0.02-0.08-0.06 0.09-0.15-0.16-0.64 0.08-3.24 0.84-3.4 1.52-3.18 2.04-2.63 2.32-1.78 2.36-0.75 2.15 0.37 0.72 0.28-1.35 1.03-3.34 3.35-1.87 2.49-1.12 1.76 1.48-1.37 3.96-1.09 4.4 0.78 4.35 2.59 3.83 4.11 2.9 5.17 1.66 5.69 0.23 5.58-1.21 4.87-2.54 3.64-3.55 1.99-1.83 0.08"/>
    <path id="path336" d="m65.32 165.9 0.13-0.22"/>
    <path id="path338" d="m65.11 166.04-0.08-0.08 0.04-0.14"/>
    <path id="path340" d="m65.6 164.57 0.26-0.45 0.1 0.17 0.03 0.11v0.11l-0.02 0.08-0.05 0.06-0.07 0.03-0.08-0.01-0.09-0.04-0.08-0.06-0.06 0.12 0.13 0.19 0.03 0.1v0.16l-0.04 0.07-0.09 0.06h-0.08l-0.09-0.03-0.08-0.06-0.05 0.13 0.06 0.06"/>
    <path id="path342" d="m65.32 165.18 0.25-0.45"/>
    <path id="path344" d="m66.55 180.73 0.09-0.02"/>
    <path id="path346" d="m67.18 161.87-0.08 0.11 0.23-0.31-0.17 0.27-0.55 0.98-0.08 0.1 0.06 0.09 0.06 0.2v0.13l-0.03 0.07-0.06 0.05-0.07 0.02-0.08-0.02-0.09-0.05-0.07-0.07-0.08 0.11 0.07 0.09 0.07 0.2v0.11l-0.03 0.08-0.05 0.06-0.08 0.02-0.08-0.01-0.08-0.04-0.08-0.07-0.07 0.11 0.02 0.02"/>
    <path id="path348" d="m66.25 163.44 0.05-0.11-0.13 0.22"/>
    <path id="path350" d="m65.91 163.99 0.36-0.66-0.43 0.77"/>
    <path id="path352" d="m67.07 162.02 0.03-0.04-0.28 0.43-0.52 0.92"/>
    <path id="path354" d="m66.45 163.07 0.27-0.52h0.02l-0.02 0.02v-0.02l-0.09 0.14 0.09-0.12"/>
    <path id="path356" d="m66.77 162.46-0.05 0.09 0.1-0.18-0.05 0.09 0.01-0.02"/>
    <path id="path358" d="m66.72 162.55-0.09 0.14 0.04-0.06"/>
    <path id="path360" d="m66.63 162.69-0.13 0.24"/>
    <path id="path362" d="m66.41 163.08-0.14 0.25 0.19-0.35-0.07 0.15 0.04-0.08-0.02 0.04"/>
    <path id="path364" d="m66.53 163.02 0.58-1.03h-0.02"/>
    <path id="path366" d="m66.61 162.92 0.07 0.08 0.09 0.05 0.08 0.02 0.11-0.03 0.05-0.07"/>
    <path id="path368" d="m66.56 162.81-0.1 0.17"/>
    <path id="path370" d="m66.82 162.37 0.51-0.87-0.08 0.15 0.05-0.09"/>
    <path id="path372" d="m66.37 163.16-0.02 0.03"/>
    <path id="path374" d="m68.03 182.94-0.09-0.03-0.08 0.01-0.07 0.04"/>
    <path id="path376" d="m66.94 181.49 0.07-0.03h0.06"/>
    <path id="path378" d="m67.35 182.24 0.07-0.04 0.12 0.01"/>
    <path id="path380" d="m86.58 170.76 1.44-0.6 0.11-0.03 0.11 0.01 0.1 0.06 0.09 0.1 0.05 0.15-0.01 0.12-0.05 0.1-0.08 0.08-1.5 0.64-0.08 0.01-0.08-0.01-0.09-0.05-0.1-0.12-0.04-0.1-0.01-0.15 0.02-0.09 0.05-0.07 0.07-0.05-0.07-0.16 1.42-0.64 0.07-0.04 0.07-0.08 0.04-0.1 0.01-0.11-0.07-0.18-0.08-0.08-0.1-0.04-0.11-0.01-0.11 0.02-1.43 0.65-0.07-0.16-0.08 0.02h-0.08l-0.09-0.04-0.1-0.1-0.07-0.15-0.01-0.11 0.02-0.09 0.04-0.08 0.06-0.06-0.08-0.15 1.45-0.75 0.07-0.09 0.04-0.1v-0.11l-0.04-0.11-0.04-0.06-0.09-0.07-0.11-0.04-0.11-0.01-0.1 0.04-1.4 0.71-0.08-0.15 1.43-0.79 0.07-0.08 0.03-0.11-0.01-0.11-0.04-0.1-0.04-0.06-0.09-0.07-0.11-0.04h-0.11l-0.11 0.03-1.37 0.75-0.09-0.15-0.07 0.04-0.08 0.02-0.08-0.02-0.08-0.06-0.07-0.07-0.05-0.1-0.02-0.11v-0.1l0.03-0.09 0.05-0.07-0.09-0.14-0.07 0.05-0.07 0.01-0.09-0.01-0.11-0.08-0.06-0.09-0.05-0.15-0.01-0.11 0.03-0.09 0.04-0.07-0.1-0.14 1.37-0.88 0.06-0.09 0.02-0.1-0.01-0.11-0.05-0.09-0.05-0.06-0.1-0.06-0.11-0.02-0.11 0.01-0.1 0.04-1.32 0.84-0.1-0.14-0.06 0.06-0.07 0.03h-0.08l-0.12-0.07-0.09-0.13-0.04-0.1-0.01-0.11 0.02-0.1 0.03-0.08-0.1-0.12-0.06 0.06-0.07 0.03h-0.07l-0.09-0.03-0.08-0.06-0.05-0.09-0.04-0.1-0.02-0.11 0.01-0.1 0.04-0.08-0.12-0.12 1.3-0.97 0.05-0.09 0.01-0.1-0.02-0.1-0.06-0.08-0.05-0.05-0.1-0.05-0.12-0.01-0.11 0.02-0.1 0.05-1.24 0.92-0.11-0.11-0.05 0.07-0.07 0.04-0.07 0.02-0.13-0.05-0.1-0.11-0.04-0.1-0.03-0.11 0.01-0.1 0.02-0.09-0.12-0.11 1.19-0.97 0.06-0.07 0.04-0.08 0.01-0.08-0.03-0.1-0.12-0.11-0.1-0.04-0.12-0.01-0.11 0.03-0.09 0.05-1.19 0.97-0.12-0.1 1.2-1.03 0.05-0.1 0.01-0.09-0.03-0.09-0.07-0.07-0.16-0.07h-0.11l-0.12 0.03-0.09 0.05-1.16 1-0.12-0.1-0.04 0.08-0.05 0.07-0.08 0.03-0.11-0.02-0.12-0.1-0.05-0.09-0.04-0.11v-0.21l-0.12-0.08-0.03 0.08-0.05 0.07-0.07 0.03-0.08 0.01-0.12-0.07-0.09-0.12-0.04-0.11-0.01-0.21-0.13-0.08-0.03 0.09-0.04 0.07-0.07 0.04-0.08 0.01-0.08-0.03-0.07-0.07-0.06-0.08-0.05-0.11-0.01-0.21-0.13-0.07 1.09-1.11 0.04-0.1v-0.08l-0.04-0.07-0.13-0.08-0.11-0.01-0.11 0.02-0.11 0.05-0.08 0.06-1.05 1.06-0.13-0.06 1.06-1.13 0.04-0.08v-0.09l-0.04-0.07-0.08-0.05-0.16-0.02-0.11 0.02-0.12 0.05-1.09 1.14-0.13-0.06 1.03-1.13 0.03-0.09v-0.08l-0.04-0.06-0.13-0.06h-0.11l-0.11 0.02-0.18 0.12-1 1.09-0.13-0.04-0.04 0.18-0.06 0.06-0.11 0.03-0.07-0.02-0.11-0.1-0.06-0.1-0.05-0.22-0.13-0.04 0.97-1.15 0.03-0.08-0.01-0.07-0.04-0.06-0.13-0.05-0.1 0.01-0.11 0.04-0.11 0.07-1.01 1.17-0.13-0.03-0.02 0.19-0.05 0.07-0.1 0.05-0.12-0.04-0.07-0.06-0.11-0.2-0.03-0.11-0.12-0.02v0.11l-0.02 0.09-0.05 0.08-0.06 0.04-0.07 0.01-0.08-0.03-0.08-0.06-0.07-0.09-0.07-0.21-0.13-0.01-0.01 0.2-0.04 0.08-0.06 0.05-0.07 0.02-0.08-0.03-0.08-0.05-0.12-0.19-0.03-0.11h-0.12l0.85-1.17 0.03-0.07-0.01-0.06-0.05-0.04-0.07-0.01-0.15 0.04-0.2 0.13-0.89 1.19h-0.12l0.83-1.17 0.02-0.06-0.01-0.06-0.05-0.03h-0.12l-0.19 0.09-0.1 0.08-0.86 1.19-0.12 0.02 0.02 0.21-0.03 0.09-0.05 0.06-0.11 0.04-0.11-0.05-0.08-0.07-0.11-0.21-0.12 0.03 0.03 0.17-0.02 0.13-0.05 0.07-0.07 0.04h-0.07l-0.08-0.04-0.11-0.11-0.08-0.16-0.12 0.04 0.04 0.21-0.02 0.1-0.05 0.07-0.06 0.04h-0.07l-0.09-0.03-0.07-0.05-0.07-0.1-0.05-0.1-0.12 0.04 0.05 0.22-0.02 0.1-0.04 0.07-0.06 0.05-0.07 0.01-0.08-0.03-0.1-0.08-0.11-0.17-0.11 0.05 0.06 0.22-0.02 0.1-0.06 0.11-0.1 0.03-0.08-0.01-0.08-0.06-0.08-0.08-0.05-0.1-0.11 0.06 0.67-1.11 0.02-0.05-0.01-0.04h-0.04l-0.06 0.02-0.12 0.1-0.16 0.18-0.7 1.14-0.1 0.06 0.07 0.22-0.01 0.1-0.05 0.12-0.09 0.05-0.08-0.01-0.11-0.06-0.12-0.14-0.09 0.07 0.6-1.04 0.04-0.09-0.01-0.02-0.13 0.08-0.22 0.26-0.65 1.11-0.09 0.09 0.58-1.03 0.04-0.09-0.01-0.01-0.08 0.05-0.11 0.12-0.19 0.26-0.58 1.03-0.09 0.08 0.09 0.21 0.01 0.11-0.01 0.1-0.04 0.06-0.06 0.05-0.13-0.01-0.12-0.08-0.07-0.08-0.08 0.1 0.59-1.06-0.04 0.02-0.08 0.09 0.29-0.37-0.21 0.28"/>
    <path id="path382" d="m67 162.43 0.61-1.07 0.2-0.27 0.12-0.12-0.04 0.11-0.56 0.99"/>
    <path id="path384" d="m66.99 163.01 0.03-0.07 0.01-0.1-0.01-0.1-0.1-0.21"/>
    <path id="path386" d="m67.42 161.99 0.15 0.14 0.08 0.04h0.08l0.06-0.04 0.05-0.07 0.02-0.09-0.01-0.11-0.08-0.2"/>
    <path id="path388" d="m67.86 161.57 0.06 0.09 0.12 0.09 0.13 0.02 0.06-0.03 0.05-0.06 0.02-0.13-0.03-0.18-0.04-0.1"/>
    <path id="path390" d="m67.33 161.67 0.06-0.09"/>
    <path id="path392" d="m67.68 161.21 0.21-0.28-0.21 0.28"/>
    <path id="path394" d="m67.33 161.5 0.4-0.68 0.78-0.72-0.62 0.83 0.58-0.78-0.73 1.02"/>
    <path id="path396" d="m67.26 161.63-0.18 0.3 0.18-0.3"/>
    <path id="path398" d="m67.25 161.65-0.04 0.06"/>
    <path id="path400" d="m67.88 160.98 0.41-0.58"/>
    <path id="path402" d="m68.74 184.34 0.06-0.05 0.07-0.02 0.08 0.01 0.11 0.06"/>
    <path id="path404" d="m68.25 183.66 0.07-0.04 0.07-0.02 0.09 0.01 0.06 0.04"/>
    <path id="path406" d="m68.32 161.2 0.68-1.13 0.23-0.25 0.1-0.07h0.04v0.03l-0.03 0.09-0.63 1.05"/>
    <path id="path408" d="m69.21 160.62 0.06 0.21-0.01 0.11-0.03 0.08-0.05 0.06-0.07 0.02-0.13-0.04-0.11-0.11-0.06-0.09"/>
    <path id="path410" d="m69.35 159.33-0.84 0.77"/>
    <path id="path412" d="m69.76 185.63 0.06-0.06 0.07-0.04h0.08l0.08 0.03 0.1 0.1"/>
    <path id="path414" d="m69.6 185.01-0.07-0.06-0.08-0.03-0.08-0.01-0.07 0.03-0.06 0.06"/>
    <path id="path416" d="m69.32 160.56 0.72-1.15 0.08-0.1 0.17-0.13 0.11-0.05h0.04l0.01 0.04-0.04 0.1-0.68 1.08"/>
    <path id="path418" d="m69.84 160.3 0.75-1.16 0.09-0.09 0.17-0.13 0.11-0.04 0.04 0.01 0.01 0.04-0.04 0.11-0.7 1.09"/>
    <path id="path420" d="m71.29 186.86-0.04-0.08-0.08-0.07-0.12-0.04-0.07 0.01-0.07 0.05-0.05 0.07"/>
    <path id="path422" d="m70.72 186.27-0.1-0.11-0.12-0.05-0.08 0.01-0.07 0.04-0.05 0.07"/>
    <path id="path424" d="m70.83 159.95 0.73-1.12 0.04-0.1-0.01-0.04-0.05-0.02-0.11 0.03-0.11 0.07-0.16 0.14-0.77 1.18"/>
    <path id="path426" d="m70.95 159.91 0.8-1.18 0.09-0.08 0.18-0.12 0.12-0.02 0.05 0.03 0.01 0.04-0.05 0.12-0.75 1.11"/>
    <path id="path428" d="m70.83 157.96 0.94-0.41 2.36-0.88 2.58-0.18 2.71 0.53 2.71 1.22 2.62 1.86 2.41 2.43 2.1 2.88 1.71 3.23 1.25 3.45 0.74 3.52 0.19 3.44-0.35 3.23-0.9 2.89-1.39 2.42-1.84 1.86-2.2 1.23-1.61 0.61"/>
    <path id="path430" d="m72.48 187.93-0.09-0.16-0.11-0.08-0.08-0.01-0.07 0.02-0.07 0.06-0.04 0.08"/>
    <path id="path432" d="m71.88 187.41-0.1-0.16-0.07-0.04-0.09-0.02-0.08 0.02-0.06 0.05-0.04 0.07"/>
    <path id="path434" d="m71.52 159.78 0.83-1.18 0.19-0.15 0.09-0.04 0.13-0.01 0.04 0.02 0.01 0.05-0.02 0.08-0.8 1.16"/>
    <path id="path436" d="m72.11 159.69 0.04 0.11 0.13 0.17 0.08 0.05 0.08 0.01 0.07-0.02 0.05-0.06 0.04-0.09v-0.1l-0.01-0.11"/>
    <path id="path438" d="m73.09 188.41-0.02-0.07-0.08-0.11-0.12-0.09h-0.09l-0.07 0.03-0.05 0.06-0.04 0.08"/>
    <path id="path440" d="m73.2 159.64-0.01 0.21-0.03 0.08-0.06 0.05-0.07 0.02-0.08-0.01-0.08-0.05-0.12-0.18-0.04-0.11"/>
    <path id="path442" d="m74.33 189.26-0.05-0.14-0.06-0.09-0.07-0.06-0.08-0.03h-0.08l-0.07 0.05-0.05 0.07-0.02 0.09"/>
    <path id="path444" d="m73.71 188.86-0.03-0.11-0.06-0.09-0.07-0.06-0.09-0.04h-0.08l-0.07 0.03-0.05 0.07-0.03 0.09"/>
    <path id="path446" d="m73.32 159.64 0.92-1.19 0.2-0.12 0.16-0.03 0.07 0.02 0.04 0.04 0.01 0.06-0.02 0.08-0.89 1.17"/>
    <path id="path448" d="m73.94 159.68 0.95-1.18 0.2-0.12 0.1-0.02 0.13 0.02 0.05 0.05 0.01 0.07-0.03 0.07-0.91 1.17"/>
    <path id="path450" d="m74.96 189.63-0.06-0.19-0.08-0.1-0.1-0.05h-0.12l-0.06 0.05-0.05 0.07-0.02 0.09"/>
    <path id="path452" d="m75.1 189.83 0.02-0.1 0.04-0.08 0.06-0.05 0.12-0.01 0.11 0.06 0.07 0.09 0.08 0.21"/>
    <path id="path454" d="m75.7 160.01-0.01 0.11-0.03 0.09-0.05 0.06-0.07 0.04-0.07-0.01-0.08-0.03-0.08-0.07-0.07-0.13-0.05-0.18"/>
    <path id="path456" d="m74.56 159.76 0.98-1.18 0.11-0.07 0.1-0.04 0.1-0.01 0.14 0.03 0.04 0.06 0.01 0.06-0.03 0.09-0.95 1.16"/>
    <path id="path458" d="m75.73 190.11 0.02-0.1 0.03-0.08 0.06-0.06 0.11-0.02 0.12 0.06 0.07 0.08 0.06 0.09 0.03 0.16"/>
    <path id="path460" d="m76.87 190.48-0.05-0.19-0.05-0.09-0.12-0.1-0.08-0.03-0.1 0.03-0.06 0.06-0.03 0.09-0.01 0.1"/>
    <path id="path462" d="m76.33 160.22 0.99-1.13 0.05-0.11-0.01-0.07-0.04-0.06-0.07-0.05h-0.17l-0.11 0.03-0.1 0.06-1.04 1.16"/>
    <path id="path464" d="m94.65 157.74-0.35 0.31-0.87 0.37 2.85 1.12 0.51-2.09 0.21-1.89-0.12-2.1-0.34-1.42-0.74-1.66-0.81-1.09-1.29-1.14-1.49-0.8-1.78-0.51-0.47-0.08-2-0.09-2.13 0.24-2.43 0.64-2.29 0.93-0.5 0.25-2.35 1.36-2.24 1.63 2.02 0.73 0.15-0.22 0.17-0.18 1.15-0.5-1.16 1.02 0.24 0.09 1.05-0.96 1.86-1.41-0.49 0.21-0.68 0.38-0.44 0.34-0.38 0.33"/>
    <path id="path466" d="m77 190.55 0.01-0.1 0.03-0.09 0.05-0.07 0.07-0.03h0.07l0.08 0.04 0.08 0.07 0.06 0.09 0.06 0.22 0.98 0.26-0.98-0.26"/>
    <path id="path468" d="m77.1 160.51 0.03 0.22 0.05 0.1 0.07 0.08 0.07 0.05 0.08 0.02 0.08-0.02 0.06-0.05 0.04-0.08 0.02-0.09"/>
    <path id="path470" d="m76.46 160.26 0.04 0.22 0.06 0.1 0.07 0.07 0.08 0.05 0.07 0.02 0.08-0.03 0.05-0.05 0.04-0.09 0.02-0.1"/>
    <path id="path472" d="m77.03 150.7 1.2-0.91 1.59-1.05-2.04-1.74 0.7-0.3 1.9-0.61 2.26-0.36 2.46-0.1 0.92 0.01-3.68 1.46-2.52 1.64"/>
    <path id="path474" d="m78.6 190.97-0.11-0.03 0.37 0.08-0.25-0.05 0.13 0.02"/>
    <path id="path476" d="m80.11 190.91-0.01-0.21 0.04-0.09 0.05-0.06 0.11-0.02 0.12 0.06 0.07 0.08 0.1 0.2 1.16 0.28 0.1 0.04-0.04 0.03-0.14 0.01-0.32-0.02-1.24-0.3-0.12 0.01-0.09-0.21-0.07-0.08-0.12-0.07h-0.08l-0.09 0.07-0.04 0.08-0.01 0.11 0.01 0.1h-0.12l1.1 0.28 0.07 0.02 0.01 0.03-0.18-0.01-0.31-0.05-1.18-0.3-0.13-0.01-0.07-0.21-0.07-0.09-0.07-0.05-0.09-0.04-0.07 0.01-0.07 0.04-0.04 0.08-0.02 0.1v0.1l-0.12-0.02 1.09 0.3h0.03l0.01-0.01"/>
    <path id="path478" d="m78.26 190.82 1.16 0.3 0.39 0.07h0.11l-1.16-0.31"/>
    <path id="path480" d="m77.63 190.71 0.01-0.11 0.02-0.09 0.05-0.07 0.06-0.04h0.08l0.08 0.03 0.08 0.07 0.1 0.19 0.03 0.11"/>
    <path id="path482" d="m78.23 161.06-0.03 0.09-0.04 0.08-0.06 0.04-0.08 0.01-0.08-0.02-0.08-0.06-0.06-0.08-0.05-0.1-0.02-0.22"/>
    <path id="path484" d="m78.36 161.13 1.08-1.05 0.07-0.05 0.12-0.05 0.11-0.02 0.17 0.05 0.07 0.06 0.04 0.08-0.01 0.08-0.03 0.09-1.13 1.1"/>
    <path id="path486" d="m78.36 152.05 0.13-0.1-0.64 0.43"/>
    <path id="path488" d="m78.04 152.45 0.31 0.12"/>
    <path id="path490" d="m78.49 151.95 0.29-0.2 1.55-0.87"/>
    <path id="path492" d="m77.78 147-0.03-0.03"/>
    <path id="path494" d="m79.23 191.1-0.17-0.03"/>
    <path id="path496" d="m78.86 191.02-0.25-0.05"/>
    <path id="path498" d="m79.5 190.92 1.19 0.3 0.34 0.04h0.13l0.05-0.02-0.09-0.04-1.13-0.28"/>
    <path id="path500" d="m79.38 190.92-0.08-0.21-0.07-0.08-0.08-0.06-0.08-0.02-0.07 0.01-0.06 0.05-0.04 0.08-0.02 0.1 0.01 0.1"/>
    <path id="path502" d="m78.98 161.5 1.11-1.03 0.08-0.06 0.11-0.04 0.12-0.01 0.16 0.05 0.07 0.07 0.04 0.08-0.01 0.09-0.05 0.1-1.14 1.07"/>
    <path id="path504" d="m79.5 152.96-0.03 0.03-0.31-0.12 1.96-1.71 0.87-0.67 1.28-0.87 0.84-0.26-1.98 1.38-2.63 2.22 3-2.8"/>
    <path id="path506" d="m79.16 152.87-0.57-0.21"/>
    <path id="path508" d="m79.47 152.99 2.08 0.8 2.45-2.16 1.2-0.93 2.71-1.82 0.68 0.07-1.15 0.69-0.38 0.25-2.78 2.08-2.25 2"/>
    <path id="path510" d="m80.56 191.25 0.47 0.01h-0.09"/>
    <path id="path512" d="m79.92 191.19v-0.01"/>
    <path id="path514" d="m80.2 162.35-0.02 0.09 0.01 0.11 0.03 0.11 0.06 0.09 0.06 0.08 0.08 0.04 0.08 0.01 0.08-0.02 0.06-0.06 0.04-0.08"/>
    <path id="path516" d="m80.08 162.25 1.18-1.06 0.04-0.08 0.01-0.1-0.04-0.09-0.06-0.07-0.17-0.06-0.11 0.01-0.12 0.04-0.08 0.05-1.14 1.01"/>
    <path id="path518" d="m87.91 148.88-2.01 0.09-0.14 0.02-2.19 1.49-1.07 0.83-2.26 1.98"/>
    <path id="path520" d="m80.37 127.56 0.12-7.15"/>
    <path id="path522" d="m81.18 190.78 1.17 0.27 0.08 0.03 0.04 0.02-0.01 0.03-0.17 0.03-0.31-0.01-1.27-0.29-0.02-0.22 0.03-0.09 0.05-0.06 0.11-0.03 0.12 0.05 0.07 0.07 0.11 0.2 0.12-0.02-0.03-0.22 0.02-0.09 0.05-0.07 0.1-0.04 0.11 0.04 0.09 0.07 0.11 0.2 0.12-0.03-0.04-0.22 0.02-0.1 0.05-0.07 0.1-0.04 0.12 0.03 0.07 0.06 0.12 0.19 0.12-0.04-0.05-0.21 0.02-0.1 0.04-0.08 0.06-0.04 0.07-0.01 0.08 0.02 0.09 0.07 0.12 0.18 0.11-0.05-0.06-0.22 0.01-0.1 0.04-0.08 0.09-0.06 0.12 0.02 0.08 0.05 0.13 0.18 0.11-0.06 1.37 0.24 0.23-0.01 0.18-0.06 0.07-0.07-0.01-0.05-0.05-0.03-1.39-0.26 0.1-0.06-0.07-0.22v-0.1l0.03-0.09 0.05-0.06 0.07-0.02 0.08 0.01 0.09 0.04 0.14 0.17 0.09-0.08-0.07-0.21-0.01-0.11 0.05-0.12 0.09-0.06 0.08 0.01 0.09 0.04 0.14 0.15 1.36 0.2 0.13 0.06 0.01 0.05-0.05 0.09-0.07 0.04-0.11 0.04-0.22 0.03-1.42-0.21"/>
    <path id="path524" d="m81.3 190.76 1.27 0.28 0.33 0.01 0.13-0.03 0.04-0.02v-0.03l-0.09-0.05-1.23-0.27"/>
    <path id="path526" d="m80.71 190.86-0.1 0.02"/>
    <path id="path528" d="m81.38 163.34 1.22-0.95 0.09-0.05 0.11-0.02h0.12l0.1 0.05 0.06 0.04 0.06 0.08 0.02 0.1-0.01 0.09-0.05 0.1-1.26 0.99"/>
    <path id="path530" d="m81.26 163.23-0.04 0.07-0.06 0.05-0.08 0.02-0.08-0.01-0.08-0.05-0.06-0.08-0.05-0.1-0.03-0.11v-0.1l0.02-0.1"/>
    <path id="path532" d="m81.55 153.79 11.88 4.63"/>
    <path id="path534" d="m80.65 153.44 2.02-1.79 2.74-2.06 0.68-0.45 0.34-0.2"/>
    <path id="path536" d="m81.5 150.29 0.93-0.41 0.84-0.26"/>
    <path id="path538" d="m80.69 108.72 1.37 2.13 2.98 1.87 4.27 1.41 5.1 0.79 5.38 0.09 5.06-0.62 0.78-0.23"/>
    <path id="path540" d="m82.31 190.47 1.24 0.27 0.11 0.05v0.03l-0.03 0.03-0.13 0.04h-0.31l-1.32-0.27"/>
    <path id="path542" d="m82.43 190.43 1.32 0.27h0.13l0.2-0.02 0.13-0.04 0.03-0.04v-0.03l-0.12-0.06-1.26-0.25"/>
    <path id="path544" d="m87.79 178.18 0.17 1.59-0.74 4.4-1.92 3.44-2.75 2"/>
    <path id="path546" d="m82.51 164.46 1.26-0.9 0.1-0.05 0.11-0.01 0.12 0.02 0.15 0.1 0.06 0.09 0.02 0.1-0.02 0.1-0.06 0.09-1.31 0.94"/>
    <path id="path548" d="m81.95 163.88-0.03 0.09v0.1l0.01 0.11 0.05 0.1 0.06 0.09 0.07 0.05 0.09 0.03 0.08-0.01 0.06-0.04 0.05-0.06"/>
    <path id="path550" d="m82.19 130.74 3.34 1.77 4.53 1.27 5.22 0.62 5.35-0.09 4.9-0.8 3.92-1.41 2.52-1.87"/>
    <path id="path552" d="m82.42 106.66 1.14 1.78 2.69 1.69 3.86 1.27 4.6 0.72 4.85 0.08"/>
    <path id="path554" d="m82.97 190.21 1.35 0.25 0.11 0.01 0.22-0.04 0.12-0.05 0.03-0.04-0.01-0.04-0.04-0.03-0.08-0.02-1.29-0.25"/>
    <path id="path556" d="m83.89 189.7-0.14-0.17-0.07-0.05-0.09-0.01-0.07 0.02-0.05 0.05-0.04 0.08v0.11l0.06 0.21"/>
    <path id="path558" d="m83.56 165.7-0.04 0.07-0.02 0.1 0.01 0.11 0.03 0.1 0.05 0.09 0.07 0.07 0.08 0.05 0.09 0.01 0.07-0.03 0.06-0.05"/>
    <path id="path560" d="m83.46 165.56 1.34-0.91 0.06-0.08 0.02-0.11-0.02-0.1-0.05-0.09-0.15-0.11-0.11-0.02-0.12 0.01-0.1 0.05-1.29 0.86"/>
    <path id="path562" d="m83.06 154.37 2.57-2.25 1.26-0.98 2.9-1.94 0.62 0.19-1.21 0.72-0.31 0.21-2.8 2.07-2.49 2.19"/>
    <path id="path564" d="m83.99 189.64 1.4 0.22 0.22-0.02 0.11-0.03 0.11-0.07 0.02-0.05-0.01-0.04-0.05-0.04-0.08-0.03-1.33-0.21"/>
    <path id="path566" d="m84.84 188.99 0.09-0.08-0.08-0.21-0.01-0.11 0.02-0.09 0.05-0.07 0.06-0.03h0.08l0.08 0.03 0.08 0.06 0.07 0.09 0.09-0.09 1.46 0.17 0.22-0.05 0.09-0.04 0.1-0.1 0.02-0.06-0.02-0.06-0.06-0.04-0.09-0.02-1.39-0.16 0.08-0.1-0.1-0.2-0.01-0.1 0.01-0.11 0.03-0.07 0.06-0.05 0.08-0.01 0.09 0.03 0.15 0.12 0.08-0.1-0.11-0.2-0.02-0.11 0.02-0.14 0.08-0.09 0.07-0.01 0.08 0.01 0.16 0.13 0.07-0.11 1.52 0.09 0.21-0.06 0.09-0.06 0.06-0.08 0.02-0.12-0.03-0.06-0.07-0.04-0.09-0.02-1.44-0.1 0.07-0.11-0.12-0.19-0.03-0.11 0.01-0.15 0.06-0.1 0.08-0.02h0.07l0.17 0.1 0.06-0.12-0.13-0.18-0.03-0.11-0.01-0.11 0.05-0.12 0.09-0.06h0.08l0.17 0.09 0.05-0.13 1.55 0.01 0.11-0.03 0.1-0.05 0.08-0.08 0.06-0.14-0.02-0.09-0.03-0.05-0.08-0.05-0.09-0.01-1.49-0.02 0.05-0.13 1.56-0.02 0.11-0.04 0.1-0.06 0.07-0.07 0.05-0.09 0.01-0.06-0.01-0.08-0.05-0.07-0.09-0.04h-1.58l0.04-0.14-0.14-0.17-0.04-0.1-0.02-0.1 0.01-0.1 0.03-0.08 0.06-0.05 0.08-0.01 0.18 0.06 0.02-0.15-0.14-0.15-0.05-0.1-0.02-0.11v-0.1l0.03-0.08 0.06-0.05 0.07-0.02 0.09 0.01 0.08 0.04 0.03-0.15-0.15-0.15-0.05-0.1-0.03-0.16 0.01-0.09 0.07-0.09 0.08-0.03h0.08l0.08 0.03 0.02-0.15 1.59-0.15 0.1-0.05 0.09-0.07 0.06-0.09 0.03-0.1v-0.07l-0.03-0.09-0.06-0.07-0.09-0.04-0.1-0.01-1.52 0.15 0.02-0.16-0.09-0.05-0.07-0.08-0.06-0.1-0.04-0.15 0.02-0.14 0.04-0.07 0.07-0.04h0.08l0.09 0.02 0.01-0.16-0.09-0.04-0.08-0.08-0.06-0.09-0.03-0.11-0.02-0.1 0.02-0.09 0.04-0.07 0.07-0.05 0.09-0.01 0.07 0.02v-0.16l1.59-0.27 0.1-0.05 0.08-0.09 0.05-0.09 0.01-0.11v-0.07l-0.05-0.09-0.07-0.07-0.09-0.04-0.13 0.01-1.5 0.24-0.01-0.17 1.52-0.28 0.17-0.08 0.08-0.08 0.04-0.11v-0.17l-0.06-0.11-0.06-0.05-0.1-0.04-0.18 0.02-1.44 0.27-0.02-0.17-0.08-0.03-0.08-0.06-0.07-0.08-0.05-0.1-0.03-0.1 0.01-0.1 0.03-0.09 0.05-0.06 0.08-0.03 0.08 0.01-0.02-0.17-0.08-0.03-0.09-0.05-0.07-0.08-0.05-0.1-0.03-0.1v-0.1l0.03-0.08 0.05-0.07 0.07-0.03 0.08-0.01-0.03-0.17 1.58-0.41 0.09-0.07 0.06-0.09 0.04-0.11v-0.11l-0.02-0.07-0.06-0.09-0.09-0.07-0.1-0.03-0.11 0.01-1.5 0.39-0.04-0.16-0.08-0.02-0.09-0.04-0.07-0.08-0.06-0.09-0.04-0.1v-0.1l0.01-0.09 0.05-0.07 0.07-0.05 0.07-0.02-0.04-0.16-0.08-0.01-0.09-0.04-0.07-0.07-0.07-0.09-0.05-0.15 0.02-0.14 0.04-0.08 0.06-0.05 0.08-0.02-0.05-0.17 1.55-0.53 0.08-0.08 0.06-0.09 0.02-0.12-0.04-0.18-0.07-0.08-0.1-0.06-0.1-0.02-0.11 0.01-1.48 0.5-0.05-0.16h-0.08l-0.09-0.03-0.08-0.06-0.1-0.13-0.03-0.1v-0.15l0.03-0.08 0.06-0.06 0.07-0.04-0.06-0.16 1.52-0.61 0.08-0.07 0.05-0.1 0.02-0.12-0.03-0.11-0.03-0.07-0.08-0.08-0.09-0.05-0.11-0.02-0.11 0.02-1.46 0.57-0.06-0.16"/>
    <path id="path568" d="m84.54 167.04 1.36-0.78 0.1-0.03 0.11-0.01 0.11 0.04 0.1 0.07 0.04 0.05 0.05 0.11v0.1l-0.03 0.11-0.06 0.08-1.41 0.82"/>
    <path id="path570" d="m84.06 166.36 1.34-0.81 0.1-0.04 0.11-0.01 0.11 0.03 0.1 0.07 0.05 0.05 0.04 0.1 0.02 0.11-0.03 0.1-0.06 0.09-1.39 0.85"/>
    <path id="path572" d="m84.78 155.03 2.58-2.26 1.28-0.99 2.81-1.9 0.84 0.5 1.02 1.04-0.63 0.37-0.41 0.28-2.77 2.08-2.13 1.9"/>
    <path id="path574" d="m84.11 149.36 0.5-0.15 1.15-0.22"/>
    <path id="path576" d="m85.34 190.04-0.01-0.02"/>
    <path id="path578" d="m84.93 188.91 1.44 0.19 0.22-0.04 0.1-0.04 0.11-0.09 0.01-0.06-0.02-0.05-0.05-0.03-0.09-0.03-1.37-0.18"/>
    <path id="path580" d="m85.78 188.03 1.48 0.15 0.22-0.05 0.09-0.05 0.09-0.11 0.01-0.06-0.02-0.06-0.06-0.04-0.09-0.02-1.41-0.15"/>
    <path id="path582" d="m85.37 188.49-0.09-0.21-0.01-0.11 0.01-0.09 0.04-0.07 0.06-0.04 0.08-0.01 0.09 0.03 0.15 0.14"/>
    <path id="path584" d="m85.84 169.22 1.41-0.67 0.09-0.03h0.13l0.1 0.05 0.09 0.07 0.04 0.07 0.03 0.11v0.11l-0.04 0.1-0.07 0.08-1.47 0.72"/>
    <path id="path586" d="m85.76 169.07-0.07 0.03h-0.09l-0.08-0.03-0.08-0.06-0.06-0.09-0.04-0.1-0.01-0.1 0.01-0.1 0.04-0.09 0.05-0.05"/>
    <path id="path588" d="m85 167.75-0.05 0.06-0.04 0.09v0.1l0.02 0.11 0.04 0.09 0.06 0.09 0.08 0.05 0.09 0.03 0.08-0.01 0.07-0.03"/>
    <path id="path590" d="m91.99 150.21-1.04 0.61-0.33 0.22-2.8 2.08-2.43 2.15"/>
    <path id="path592" d="m86.52 187.02-0.11-0.2-0.02-0.11v-0.1l0.03-0.08 0.05-0.06 0.07-0.02 0.09 0.01 0.08 0.05 0.08 0.06"/>
    <path id="path594" d="m86.17 187.54 1.49 0.12 0.22-0.06 0.09-0.05 0.09-0.12v-0.06l-0.02-0.05-0.06-0.05-0.1-0.02-1.43-0.12"/>
    <path id="path596" d="m86.86 186.46 1.52 0.07 0.21-0.08 0.09-0.06 0.08-0.13-0.01-0.07-0.03-0.07-0.07-0.04-0.1-0.02-1.45-0.07"/>
    <path id="path598" d="m86.9 171.55-0.06 0.04-0.06 0.07-0.03 0.09v0.1l0.03 0.1 0.05 0.1 0.06 0.07 0.09 0.06 0.08 0.02 0.08-0.01"/>
    <path id="path600" d="m86.51 170.6-0.08 0.02-0.09-0.01-0.08-0.04-0.07-0.07-0.06-0.09-0.03-0.1-0.01-0.11 0.02-0.09 0.05-0.08 0.06-0.04"/>
    <path id="path602" d="m92.88 150.98-2.45 1.65-1.23 0.95-2.51 2.2"/>
    <path id="path604" d="m86.02 145.64 0.9-0.36 3.04-1.14 4.81-0.83 1.67-0.12"/>
    <path id="path606" d="m87.16 185.87 1.54 0.04 0.11-0.03 0.1-0.05 0.08-0.07 0.07-0.13-0.01-0.08-0.03-0.06-0.08-0.05-0.09-0.02-1.47-0.04"/>
    <path id="path608" d="m87.43 185.25-0.13-0.18-0.04-0.1-0.01-0.11 0.02-0.09 0.04-0.07 0.07-0.03 0.08-0.01 0.08 0.03 0.08 0.05"/>
    <path id="path610" d="m87.67 184.61-0.13-0.17-0.05-0.11-0.01-0.1 0.01-0.1 0.04-0.07 0.07-0.04 0.07-0.01 0.09 0.02 0.08 0.05"/>
    <path id="path612" d="m87.88 183.94 1.57-0.05 0.11-0.04 0.09-0.06 0.08-0.09 0.05-0.15-0.02-0.08-0.05-0.07-0.09-0.04-0.09-0.02-1.49 0.05"/>
    <path id="path614" d="m88.2 176.26-0.08-0.02-0.08-0.04-0.08-0.08-0.06-0.09-0.03-0.11v-0.1l0.02-0.09 0.05-0.06 0.07-0.05 0.08-0.01"/>
    <path id="path616" d="m87.46 175-0.02-0.14"/>
    <path id="path618" d="m87.87 174.63 1.56-0.5 0.09-0.07 0.06-0.09 0.02-0.12-0.01-0.11-0.02-0.07-0.07-0.09-0.09-0.06-0.1-0.02-0.11 0.01-1.49 0.47"/>
    <path id="path620" d="m87.91 174.79 1.5-0.42 0.1-0.01 0.11 0.02 0.09 0.06 0.06 0.09 0.03 0.07v0.12l-0.03 0.11-0.06 0.09-0.09 0.07-1.57 0.46"/>
    <path id="path622" d="m87.42 173 1.53-0.57 0.08-0.08 0.06-0.1 0.01-0.11-0.02-0.11-0.03-0.07-0.07-0.09-0.09-0.05-0.11-0.02-0.11 0.02-1.47 0.53"/>
    <path id="path624" d="m87.47 173.16-0.07 0.03-0.06 0.06-0.04 0.08-0.01 0.09 0.01 0.11 0.05 0.1 0.06 0.08 0.08 0.06 0.09 0.04h0.08"/>
    <path id="path626" d="m88.06 183.24 1.58-0.08 0.11-0.04 0.09-0.07 0.07-0.08 0.04-0.16-0.02-0.09-0.06-0.07-0.08-0.04-0.1-0.01-1.51 0.08"/>
    <path id="path628" d="m88.21 182.53 1.58-0.12 0.11-0.04 0.09-0.08 0.06-0.08 0.04-0.1v-0.07l-0.03-0.08-0.06-0.07-0.08-0.04-0.12-0.01-1.5 0.1"/>
    <path id="path630" d="m88.32 181.79-0.15-0.14-0.05-0.09-0.04-0.11v-0.1l0.03-0.08 0.05-0.07 0.07-0.03h0.08l0.08 0.03"/>
    <path id="path632" d="m88.41 181.04 1.59-0.19 0.1-0.05 0.08-0.08 0.06-0.09 0.02-0.11v-0.06l-0.03-0.09-0.06-0.07-0.1-0.04-0.1-0.01-1.52 0.18"/>
    <path id="path634" d="m88.17 180.52 1.7-0.19"/>
    <path id="path636" d="m88.47 179.65 1.53-0.21 0.11 0.01 0.08 0.03 0.07 0.07 0.04 0.09v0.07l-0.02 0.1-0.05 0.1-0.08 0.08-0.1 0.05-1.59 0.23"/>
    <path id="path638" d="m88.47 179.49-0.08-0.04-0.08-0.07-0.07-0.09-0.04-0.11-0.01-0.1 0.01-0.09 0.04-0.08 0.06-0.05 0.08-0.02 0.08 0.02"/>
    <path id="path640" d="m88.45 178.69-0.08-0.03-0.08-0.07-0.07-0.08-0.05-0.1-0.01-0.11v-0.09l0.04-0.08 0.06-0.06 0.07-0.02 0.09 0.01"/>
    <path id="path642" d="m88.4 177.89 1.59-0.34 0.09-0.06 0.08-0.09 0.04-0.1 0.01-0.11-0.02-0.07-0.05-0.09-0.08-0.07-0.11-0.04-0.09 0.01-1.52 0.32"/>
    <path id="path644" d="m88.23 176.43 1.51-0.35 0.1-0.01 0.11 0.03 0.08 0.07 0.06 0.09 0.01 0.07v0.11l-0.04 0.11-0.07 0.09-0.09 0.06-1.58 0.38"/>
    <path id="path646" d="m88.81 156.61 2.35-2.06 1.12-0.86 1.69-1.15"/>
    <path id="path648" d="m88.59 148.95 0.61 0.07 0.59 0.18"/>
    <path id="path650" d="m94.26 153.12-2.5 1.84-2.21 1.94"/>
    <path id="path652" d="m91.15 157.52 2.09-1.82 0.94-0.73 0.48-0.33"/>
    <path id="path654" d="m91.45 149.88-0.61-0.36-0.43-0.13"/>
    <path id="path656" d="m94.75 155.51-2.47 2.01-0.32 0.32"/>
    <path id="path658" d="m93.31 151.42 0.08 0.08 0.2 0.28 0.73 1.46 0.4 1.67 0.07 1.87-0.28 2.06"/>
    <path id="path660" d="m94.06 189.85 0.02 0.04 0.29 0.15 0.28 0.05 0.35-0.02 0.47-0.1 0.45-0.16 0.48-0.25 0.56-0.45 0.19-0.2 0.39-0.71 0.03-0.12-0.02-0.72-0.26-0.4-0.28-0.15-0.25-0.03-0.25 0.02-0.29 0.1-0.39 0.2-0.35 0.25-0.22 0.19-0.68 0.7-0.44 0.65-0.2 0.66 0.12 0.3"/>
    <path id="path662" d="m94.17 190.07 0.48 0.02 2.18-0.04"/>
    <path id="path664" d="m94.3 158.05-0.56 0.49"/>
    <path id="path666" d="m104.08 143.55 1.53 0.3 3.03 1.36 2.92 2.08 2.68 2.7 1.93 2.2 2.55 4.26 1.6 4.75 0.01 0.09 0.37-0.67 0.54-3.19-0.37-3.54-1.25-3.51-1.98-3.1-2.5-2.35-2.76-1.34-2.7-0.2-2.69 1.08"/>
    <path id="path668" d="m105.77 141.61 3.03-1.25 3.46 0.26 3.52 1.72 3.21 3.01 2.53 3.97 1.6 4.49 0.48 4.53-0.69 4.09-1.78 3.19-0.34 0.24"/>
    <path id="path670" d="m112.83 126.77 0.04-1.58 0.54-0.23 1.52-0.39 1.41 0.17 1.21 0.72 7.51 6.78 0.97 1.31 0.59 1.77 0.17 2.11-0.09 3.83 4.25-1.82"/>
    <path id="path672" d="m112.87 125.19 0.16-7.21"/>
    <path id="path674" d="m113 119.39 1.43-0.61"/>
    <path id="path676" d="m115.93 137.1 1.07-0.25 3.47 0.25 3.52 1.73 2.71 2.43"/>
    <path id="path678" d="m120.83 166.55-0.11-1.97-0.39-3.29"/>
    <path id="path680" d="m134.78 146.21 0.31 0.9"/>
   </g>
   <g id="g682" stroke-width=".317">
    <path id="path684" d="m78.86 191.02 0.2 0.05-0.57-0.13-1.49-0.39-0.13-0.04v-0.03l-0.63-0.18-0.01-0.06-0.5-0.13-0.13-0.06v-0.1l-0.5-0.12-0.13-0.07-0.01-0.13-0.49-0.13-0.13-0.06-0.01-0.18-0.48-0.11-0.13-0.08-0.01-0.21-0.48-0.11-0.13-0.09 0.02-0.1-0.03-0.15-0.47-0.1-0.12-0.09 0.01-0.1-0.03-0.19-0.46-0.09-0.12-0.1 0.02-0.09v-0.11l-0.04-0.13-0.44-0.08-0.12-0.1 0.02-0.09 0.01-0.11-0.06-0.17-0.43-0.06-0.11-0.12 0.03-0.08v-0.11l-0.01-0.11-0.05-0.1-0.42-0.05-0.11-0.12 0.04-0.09 0.01-0.1-0.02-0.11-0.06-0.15-0.4-0.03-0.11-0.13 0.04-0.08 0.02-0.1-0.01-0.11-0.04-0.1-0.05-0.09-0.37-0.02-0.1-0.13 0.04-0.08 0.02-0.1-0.01-0.1-0.05-0.16-0.08-0.09h-0.32l-0.1-0.13 0.04-0.08 0.03-0.09-0.01-0.11-0.02-0.1-0.05-0.09-0.09-0.09-0.29 0.01-0.09-0.14 0.04-0.07 0.03-0.09 0.01-0.1-0.03-0.11-0.04-0.09-0.07-0.08-0.07-0.04-0.24 0.02-0.09-0.15 0.05-0.06 0.04-0.09v-0.1l-0.02-0.1-0.04-0.1-0.06-0.08-0.08-0.06-0.05-0.01-0.19 0.03-0.08-0.15 0.05-0.06 0.04-0.09 0.01-0.09-0.01-0.11-0.04-0.1-0.06-0.08-0.08-0.07-0.08-0.03-0.16 0.03-0.08-0.15 0.06-0.05 0.04-0.08 0.02-0.1-0.01-0.1-0.04-0.11-0.06-0.08-0.07-0.07-0.09-0.04h-0.07l-0.09 0.02-0.07-0.15 0.06-0.05 0.05-0.08 0.02-0.09-0.01-0.1-0.03-0.11-0.06-0.09-0.07-0.07-0.09-0.04-0.08-0.01-0.08 0.02-0.07-0.16 0.07-0.04 0.05-0.08 0.02-0.09v-0.1l-0.03-0.1-0.05-0.09-0.07-0.08-0.09-0.05-0.08-0.01-0.08 0.01-0.06-0.16 0.06-0.04 0.06-0.07 0.03-0.08-0.01-0.16-0.07-0.14-0.06-0.08-0.09-0.05-0.08-0.02h-0.08l-0.06-0.16 0.13-0.1 0.03-0.08 0.01-0.1-0.03-0.1-0.04-0.1-0.07-0.08-0.08-0.06-0.09-0.03-0.08 0.01-0.05-0.17 0.14-0.1 0.03-0.06 0.01-0.1-0.02-0.1-0.04-0.1-0.06-0.09-0.08-0.06-0.09-0.03-0.08-0.01-0.05-0.16 0.18-0.15 0.02-0.1-0.02-0.1-0.03-0.1-0.14-0.16-0.09-0.03-0.08-0.01-0.04-0.17 0.19-0.18 0.01-0.1-0.02-0.1-0.08-0.14-0.07-0.07-0.09-0.05-0.08-0.01-0.04-0.17 0.22-0.22v-0.04l-0.02-0.1-0.07-0.15-0.07-0.07-0.09-0.05-0.08-0.02-0.03-0.17 0.23-0.25-0.03-0.14-0.05-0.1-0.07-0.08-0.09-0.05-0.08-0.03-0.02-0.16 0.24-0.29-0.06-0.17-7.36-2.84-2.62-1.24-1.88-2.6-0.94-3.69 0.05-1.98-0.03-0.13 0.08-3.44 0.9-3.61 1.62-3.39 2.16-2.79 0.37-0.28 0.89-1.15 3.13-2.4 3.18-1.01 2.89 0.5 5.94 2.3 2.6-1.12 1.91-0.61 2.26-0.36 2.46-0.1 13.28 0.2 1.01 0.07"/>
    <path id="path686" d="m78.92 191.04-0.31-0.08 0.34 0.08"/>
    <path id="path688" d="m79.06 191.07 1.54 0.39 2.43-0.09 2.67 0.52 3.07 0.21 4.78-0.11 3.11-0.67 4.81-1.12 4.46-2.06 2.86-1.58 3.89-2.88 2.94-2.95"/>
    <path id="path690" d="m112.83 126.77-0.03 1.33-0.83 2.13-1.46 1.15-2.28 1.7-3.56 1.28-4.45 0.72-4.86 0.08-4.75-0.56-4.11-1.15-3.03-1.61-1.28-1.1-1.79-2.09-0.05-2.18 0.14-6.06 0.2-11.69 0.39-2.16 0.21-0.26"/>
    <path id="path692" d="m96.44 143.19 1.51-0.1 4.64 0.17 1.49 0.29 1.69-1.94 10.16-4.51 0.09-3.83-0.16-2.11-0.59-1.77-0.98-1.31-1.46-1.31"/>
    <path id="path694" d="m115 181.36 1.44-1.44 0.82-1 0.86-1.22 1.02-1.6 0.4-0.85 1-3.22 0.4-3.6-0.11-1.88"/>
    <path id="path696" d="m118.21 118.23 1.18 0.7 9.98 9.01 0.98 1.3 0.59 1.77 0.17 2.12-0.16 6.31 0.5 0.58 2.54 3.96 0.79 2.23 0.28 0.67 0.03 0.23 0.49 1.37 0.48 4.53-0.69 4.08-1.78 3.19-2.68 1.95-10.08 4.32"/>
   </g>
  </g>
  <g id="Actor_.10" stroke="#000">
   <g id="g699" stroke-width=".106">
    <path id="path701" d="m21.21 86.54-0.62-1.3-0.29-1.42 0.11-1.34 0.49-1.11 0.81-0.76 1.06-0.35 1.18 0.13 1.18 0.58 1.05 0.97 0.34 0.53 0.46 0.72 0.47 1.4 0.09 1.4-0.3 1.24-0.66 0.95-0.44 0.34-0.51 0.22-1.13 0.11-1.2-0.36-1.13-0.78-0.96-1.17"/>
    <path id="path703" d="m26.58 89.31 0.53-0.4 0.8-1.15 0.36-1.49-0.11-1.68-0.57-1.68-0.96-1.5-1.26-1.16-1.41-0.7-1.42-0.15-1.27 0.41"/>
   </g>
   <g id="g705" stroke-width=".317">
    <path id="path707" d="m45.88 79.24-19.3 10.07-0.61 0.27-1.36 0.13-1.43-0.43-1.36-0.94-1.13-1.35-0.77-1.62-0.32-1.58-0.02-0.12 0.12-1.6 0.59-1.34 0.98-0.92 19.3-10.07"/>
    <path id="path709" d="m48.22 65.74 10.67-5.57"/>
    <path id="path711" d="m68.8 67.27-6.06 3.16"/>
    <path id="path713" d="m66.54 56.18 84.2-43.95"/>
    <path id="path715" d="m156.05 21.73-74.99 39.14"/>
    <path id="path717" d="m173.37 0.45-0.14 0.04-14.84 7.75"/>
    <path id="path719" d="m179.31 9.26-0.23 0.33-0.54 0.4-5.62 2.94"/>
    <path id="path721" d="m174.81 0.12-0.31-0.04-0.36 0.12"/>
    <path id="path723" d="m176.22 0.39-0.3-0.15-0.41-0.05"/>
    <path id="path725" d="m177.6 1.18-0.27-0.25-0.4-0.2"/>
    <path id="path727" d="m178.8 2.41-0.21-0.32-0.39-0.36"/>
    <path id="path729" d="m179.98 8.01-0.11 0.43-0.17 0.25"/>
    <path id="path731" d="m180.2 6.36 0.03 0.59-0.07 0.32"/>
    <path id="path733" d="m179.96 4.79 0.17 0.49 0.02 0.36"/>
    <path id="path735" d="m179.26 3.13 0.3 0.47 0.12 0.36"/>
   </g>
  </g>
  <g id="Actor_.11" stroke="#000">
   <g id="g738" stroke-width=".106">
    <path id="path740" d="m111.16 113.48 0.34 1.36 0.71 1.32 0.98 1.07 1.16 0.71 1.19 0.27 1.11-0.2 0.9-0.64 0.6-1.02 0.23-1.28-0.17-1.41-0.54-1.39-0.86-1.2-1.08-0.9-1.17-0.49-1.19-0.05-0.53 0.16-0.49 0.27-0.76 0.84-0.41 1.16-0.02 1.42"/>
    <path id="path742" d="m117.03 118.83 1.08-0.77 0.72-1.22 0.27-1.54-0.19-1.69-0.65-1.66-1.03-1.45-1.3-1.08-1.43-0.6-1.4-0.04-0.64 0.18"/>
    <path id="path744" d="m264.33 29.7 0.09-0.05"/>
   </g>
   <g id="g746" stroke-width=".317">
    <path id="path748" d="m117.68 118.49-0.65 0.34-1.33 0.24-1.43-0.33-1.39-0.85-1.18-1.28-0.85-1.58-0.43-1.7 0.04-1.63 0.5-1.4 0.92-1.01 0.58-0.33 19.31-10.08"/>
    <path id="path750" d="m117.74 118.46 18.6-9.71"/>
    <path id="path752" d="m138.98 95.12 11.11-5.8"/>
    <path id="path754" d="m147.16 103.11 12.47-6.51"/>
    <path id="path756" d="m157.3 85.56 84.64-44.18"/>
    <path id="path758" d="m246.52 51.25-81.04 42.3"/>
    <path id="path760" d="m249.15 37.62 15.27-7.97 0.64-0.19 1.28 0.04"/>
    <path id="path762" d="m257.33 45.6 11.66-6.09 1.09-0.76 0.71-1.23 0.27-1.59-0.19-1.64-0.65-1.66-1.03-1.45-1.3-1.08-1.47-0.6"/>
   </g>
  </g>
  <g id="Actor_.12" stroke="#000">
   <g id="g765" stroke-width=".106">
    <path id="path767" d="m39.94 92.9 1.16 0.38-0.83 1.15-14.85-4.8"/>
    <path id="path769" d="m28.52 89.21-1.08-0.35"/>
    <path id="path771" d="m29.54 87.76v0.14"/>
    <path id="path773" d="m29.75 89.61 8.95 2.89"/>
    <path id="path775" d="m34.5 71.67 1.46 0.47"/>
    <path id="path777" d="m39.71 91.19 0.03-1.28-0.25-0.14-0.21-0.07-0.25-0.02-0.03 1.27"/>
    <path id="path779" d="m47.58 75.89 4.36 1.41-0.1 4.15-10.82 14.89"/>
    <path id="path781" d="m41.1 93.28 9.3-12.79 0.05-2-0.54-0.17-0.24 0.5-1.33 1.18-1.68 0.88-1.71 0.49-1.89-0.25-0.4-0.21"/>
    <path id="path783" d="m46.66 80.88 1.33-1.18 0.82-1.74 1.1 0.36"/>
    <path id="path785" d="m45.67 79.34 0.03-0.01"/>
    <path id="path787" d="m46.78 78.36-0.1 0.19-0.16 0.12"/>
    <path id="path789" d="m47.25 77.52 0.08-0.16 0.04-0.2"/>
    <path id="path791" d="m56.18 79.18-4.34 2.27"/>
    <path id="path793" d="m51.94 77.3 0.08-0.04"/>
   </g>
   <g id="g795" stroke-width=".317">
    <path id="path797" d="m23.61 89.41-0.03 1.3 17.44 5.63 4.34-2.27 10.82-14.89 0.06-2.16"/>
    <path id="path799" d="m34.58 71.63-0.08 0.04-1.44 1.99"/>
    <path id="path801" d="m47.38 77.09-0.01 0.07"/>
    <path id="path803" d="m47.56 76.04 0.02-0.15"/>
   </g>
  </g>
  <g id="Actor_.13" stroke="#000">
   <g id="g806" stroke-width=".106">
    <path id="path808" d="m23.14 101.89 0.08 0.23 0.25 0.21 0.17 0.08"/>
    <path id="path810" d="m23.86 102.5 18.9 6.1 0.5 0.12 0.56 0.05 0.56-0.02 0.51-0.09 0.41-0.15 13.02-6.8 0.27-0.2 0.09-0.22"/>
    <path id="path812" d="m46.09 102.38-0.18-0.11-0.35-0.54 0.04-0.31"/>
    <path id="path814" d="m53.63 101.59 0.06 0.24-0.31 0.53-0.31 0.19"/>
   </g>
   <g id="g816" stroke-width=".317">
    <path id="path818" d="m55.23 99.79 2.72 0.88 0.4 0.17 0.25 0.22 0.08 0.23-0.04 1.65-0.09 0.23-0.27 0.2-13.02 6.79-0.41 0.16-0.51 0.09-0.56 0.02-0.29-0.03-0.27-0.02-0.5-0.12-18.9-6.1-0.39-0.17-0.09-0.08-0.16-0.13-0.09-0.23 0.05-1.66 0.09-0.23 0.27-0.19 0.08-0.05"/>
    <path id="path820" d="m46.09 102.38 0.58 0.35 1.07 0.35 1.28 0.19 1.35 0.02 1.26-0.16 1.04-0.33 0.4-0.25"/>
   </g>
  </g>
  <g id="Actor_.14" stroke="#000">
   <g id="g823" stroke-width=".106">
    <path id="path825" d="m157.91 141.58-0.09 0.23-0.27 0.2-3.25 1.7-0.41 0.15-0.51 0.09-0.56 0.02-0.56-0.05-0.5-0.12-18.9-6.1-0.39-0.17-0.25-0.21-0.08-0.23"/>
    <path id="path827" d="m156.78 132.96-0.09 0.23-0.27 0.2-0.24 0.12"/>
   </g>
   <g id="g829" stroke-width=".317">
    <path id="path831" d="m156.01 140.59 1.17 0.38 0.4 0.17 0.25 0.21 0.08 0.23-0.04 1.66-0.09 0.23-0.27 0.19-3.25 1.7-0.41 0.16-0.51 0.09-0.56 0.02-0.56-0.05-0.5-0.12-18.9-6.1-0.39-0.17-0.25-0.21-0.08-0.23 0.04-1.66 0.09-0.23 0.27-0.19 2.31-1.21"/>
    <path id="path833" d="m156.14 135.17 0.24-0.12 0.27-0.2 0.09-0.23 0.04-1.66-0.08-0.22-0.25-0.22-0.24-0.1"/>
   </g>
  </g>
  <g id="Actor_.15" stroke="#000">
   <g id="g836" stroke-width=".106">
    <path id="path838" d="m125.34 101 1.46 0.48"/>
    <path id="path840" d="m131.6 111.24 6.08 13.22-1.68 0.88-6.08-13.23"/>
    <path id="path842" d="m137.49 110.21 1.68-0.88 1.34-1.17 0.24-0.51-1.1-0.36-0.83 1.74-1.33 1.18-1.71 0.49-1.89-0.25-0.4-0.2"/>
    <path id="path844" d="m136 125.34 15.2 4.91 0.03-1.41-0.12-0.04"/>
    <path id="path846" d="m136.47 108.69 0.05-0.02 0.55-0.43"/>
    <path id="path848" d="m137.68 124.46 2.03 0.66"/>
    <path id="path850" d="m137.94 107.1-0.43 0.78-0.01 0.01"/>
    <path id="path852" d="m138.23 106.34-0.03 0.13"/>
    <path id="path854" d="m138.17 106.67v0.03l-0.02 0.03"/>
    <path id="path856" d="m142.86 106.59-0.08 0.04-4.36-1.4"/>
    <path id="path858" d="m140 123.57 0.03-1.27 0.36 0.05 0.36 0.18-0.03 1.28"/>
    <path id="path860" d="m149.87 128.4-8.92-2.88"/>
    <path id="path862" d="m140.75 107.65 1.1 0.36-0.03 1.18 0.05-0.05 0.2-0.09 0.27-0.05h0.05l-0.44-0.96-0.1-0.03"/>
    <path id="path864" d="m142.14 109.52-0.32-0.22-0.01 0.2 0.25 0.13 0.22 0.07 0.15 0.02-0.29-0.2"/>
    <path id="path866" d="m141.82 109.3v-0.11"/>
    <path id="path868" d="m150.18 126.86 0.02-0.89-7.67-16.66-0.01 0.42-0.09-0.01"/>
    <path id="path870" d="m142.53 109.31-0.14-0.31"/>
    <path id="path872" d="m152.61 132.38 0.1-4.15-9.93-21.6"/>
    <path id="path874" d="m150.2 125.97 1.05 2.28-0.02 0.59"/>
    <path id="path876" d="m152.71 128.23 4.35-2.26"/>
   </g>
   <g id="g878" stroke-width=".317">
    <path id="path880" d="m125.42 100.96-0.08 0.04-0.03 1.26"/>
    <path id="path882" d="m147.12 104.38 9.94 21.59-0.11 4.14-4.34 2.27-17.44-5.63-6.44-14.01"/>
    <path id="path884" d="m138.23 106.34 0.19-1.11"/>
   </g>
  </g>
  <g id="Actor_.16" stroke="#000">
   <g id="g887" stroke-width=".106">
    <path id="path889" d="m235.51 43.5 1.47 0.47"/>
    <path id="path891" d="m241.77 53.73 6.09 13.23-1.68 0.88-6.09-13.23"/>
    <path id="path893" d="m243.67 52.74 0.4 0.21 1.89 0.25 1.7-0.49 1.69-0.88 1.33-1.18 0.24-0.51-1.1-0.35-0.82 1.74-1.34 1.18"/>
    <path id="path895" d="m261.29 71.29 0.12 0.04-0.04 1.41-15.19-4.9"/>
    <path id="path897" d="m247.24 50.73-0.54 0.44-0.06 0.01"/>
    <path id="path899" d="m247.86 66.96 2.01 0.65"/>
    <path id="path901" d="m248.12 49.59-0.43 0.79-0.02 0.01"/>
    <path id="path903" d="m248.35 49.16-0.01 0.03-0.02 0.03"/>
    <path id="path905" d="m253.03 49.09-0.08 0.04-4.36-1.41"/>
    <path id="path907" d="m250.18 66.07 0.03-1.28 0.36 0.05 0.35 0.18-0.03 1.28"/>
    <path id="path909" d="m260.05 70.89-8.94-2.88"/>
    <path id="path911" d="m250.92 50.14 1.1 0.36-0.03 1.18 0.05-0.04 0.21-0.09 0.26-0.06h0.05l-0.44-0.96-0.1-0.03"/>
    <path id="path913" d="m251.99 51.99v-0.2l0.61 0.42-0.15-0.01-0.22-0.07-0.24-0.14"/>
    <path id="path915" d="m251.99 51.68v0.11"/>
    <path id="path917" d="m252.6 52.21 0.1 0.01 0.01-0.41 7.66 16.66-0.02 0.88"/>
    <path id="path919" d="m252.56 51.49 0.15 0.32"/>
    <path id="path921" d="m262.79 74.87 0.1-4.14-9.94-21.6"/>
    <path id="path923" d="m260.37 68.47 1.05 2.28-0.01 0.58"/>
    <path id="path925" d="m262.89 70.73 4.34-2.27"/>
   </g>
   <g id="g927" stroke-width=".317">
    <path id="path929" d="m235.59 43.46-0.08 0.04-0.03 1.25"/>
    <path id="path931" d="m238.9 55.23 6.45 14.01 17.44 5.63 4.34-2.26 0.1-4.15-9.93-21.58"/>
    <path id="path933" d="m248.4 48.83 0.19-1.11"/>
   </g>
  </g>
  <g id="Actor_.17" stroke="#000">
   <g id="g936" stroke-width=".106">
    <path id="path938" d="m231.61 85.54 0.18 0.15 0.39 0.17 8 2.58 0.5 0.12 0.56 0.05 0.56-0.02 0.51-0.09 0.41-0.15 3.25-1.7 2.04-0.76 2.54-0.46 2.81-0.11 2.8 0.25 2.51 0.59 2.18 0.7 0.5 0.12 0.56 0.05 0.56-0.02 0.51-0.09 0.41-0.15 3.25-1.7 0.27-0.2 0.09-0.23"/>
    <path id="path940" d="m236.49 84.62-0.04 0.08 0.14 0.54 0.44 0.4"/>
    <path id="path942" d="m244 85.81 0.5-0.47 0.08-0.51"/>
   </g>
   <g id="g944" stroke-width=".317">
    <path id="path946" d="m231.45 85.62-0.03 1.29 0.08 0.23 0.25 0.21 0.39 0.17 8 2.58 0.5 0.12 0.56 0.05 0.56-0.02 0.51-0.09 0.41-0.16 3.25-1.7 2.04-0.76 2.54-0.45 2.81-0.11 2.79 0.25 2.52 0.59 2.18 0.7 0.5 0.12 0.56 0.05 0.56-0.02 0.51-0.09 0.41-0.15 3.25-1.7 0.27-0.2 0.09-0.23 0.04-1.66-0.08-0.22-0.25-0.22-0.4-0.17-0.11-0.04"/>
    <path id="path948" d="m244 85.81-0.02 0.02-0.89 0.39-1.17 0.25-1.32 0.07-1.33-0.11-1.19-0.27-0.93-0.41-0.12-0.11"/>
   </g>
  </g>
  <g id="Actor_.18" stroke="#000">
   <g id="g951" stroke-width=".106">
    <path id="path953" d="m144.68 14.16 1.46 0.48"/>
    <path id="path955" d="m156.83 23.37 1.68-0.87 1.34-1.18 0.24-0.51-1.1-0.35-0.83 1.74-1.33 1.17-1.7 0.49-1.89-0.25-0.4-0.2"/>
    <path id="path957" d="m160.09 20.81 0.53 0.18-0.04 1.99-6.75 9.28"/>
    <path id="path959" d="m166.36 21.68-4.34 2.26-6.46 8.88"/>
    <path id="path961" d="m155.88 21.82-0.02 0.01-0.01 0.01"/>
    <path id="path963" d="m156.7 21.17 0.15-0.13 0.11-0.18"/>
    <path id="path965" d="m157.54 19.65-0.03 0.21-0.09 0.15"/>
    <path id="path967" d="m162.02 23.94 0.1-4.14-4.36-1.41"/>
    <path id="path969" d="m162.12 19.8 0.08-0.05"/>
   </g>
   <g id="g971" stroke-width=".317">
    <path id="path973" d="m143.23 16.15 1.45-1.99 0.08-0.04"/>
    <path id="path975" d="m166.41 19.51-0.05 2.17-8.61 11.84"/>
    <path id="path977" d="m157.54 19.65 0.02-0.08"/>
    <path id="path979" d="m157.73 18.54 0.03-0.15"/>
   </g>
  </g>
  <g id="Actor_.19" stroke="#000">
   <g id="g982" stroke-width=".106">
    <path id="path984" d="m21.35 85.33-0.25-0.7"/>
    <path id="path986" d="m20.96 83.93-0.06-0.7"/>
    <path id="path988" d="m21.09 81.94-0.14 0.63"/>
    <path id="path990" d="m21.61 85.91 0.47 0.7"/>
    <path id="path992" d="m21.42 81.14 0.09-0.11"/>
    <path id="path994" d="m22.15 80.46-0.1 0.06"/>
    <path id="path996" d="m23.07 87.64-0.52-0.47"/>
    <path id="path998" d="m22.36 79.27 0.39-0.05"/>
    <path id="path1000" d="m23.64 88.03 0.58 0.27"/>
    <path id="path1002" d="m24.12 79.21-0.41-0.11-0.37 0.05"/>
    <path id="path1004" d="m25.46 88.52-0.64-0.05"/>
    <path id="path1006" d="m25.54 79.75-0.4-0.26-0.31-0.09"/>
    <path id="path1008" d="m26.42 88.3-0.46 0.17"/>
    <path id="path1010" d="m26.84 80.78-0.32-0.37-0.31-0.21"/>
    <path id="path1012" d="m27.29 88.91-0.05 0.05"/>
    <path id="path1014" d="m27.41 81.43 0.25 0.29 0.23 0.46"/>
    <path id="path1016" d="m28.31 87.71-0.12 0.29-0.27 0.28"/>
    <path id="path1018" d="m28.77 86.29-0.02 0.35-0.16 0.39"/>
    <path id="path1020" d="m28.29 82.97 0.17 0.35 0.11 0.49"/>
    <path id="path1022" d="m28.81 85.49 0.03-0.47-0.08-0.37"/>
    <path id="path1024" d="m179.17 9.65 0.03-0.01"/>
   </g>
   <g id="g1026" stroke-width=".317">
    <path id="path1028" d="m41.08 69.5-18.72 9.77-0.24 0.15"/>
    <path id="path1030" d="m27.21 88.97 18.75-9.79"/>
    <path id="path1032" d="m48.25 65.75 11.15-5.82"/>
    <path id="path1034" d="m62.73 70.43 6.07-3.16"/>
    <path id="path1036" d="m66.57 56.19 84.68-44.2"/>
    <path id="path1038" d="m156.14 21.68-75.09 39.19"/>
    <path id="path1040" d="m174.23 0-15.81 8.25"/>
    <path id="path1042" d="m176.48 0 0.63 0.17 1.36 0.9 1.15 1.33 0.81 1.6 0.37 1.7-0.09 1.62-0.55 1.36-0.96 0.96-6.29 3.29"/>
   </g>
  </g>
  <g id="Actor_.20" stroke="#000">
   <g id="g1045" stroke-width=".106">
    <path id="path1047" d="m34.55 69.42 0.04 0.12 0.13 0.1 0.2 0.08 1.01 0.15 1.62-0.25 1.51-0.97-0.18-0.02-0.43 0.03-0.37 0.08-0.29 0.12-0.17 0.16-0.02 0.18 0.11 0.17 0.04 0.02-0.52 0.1-0.5-0.04-0.18-0.1-0.11-0.12v-0.26"/>
    <path id="path1049" d="m37.75 69.39 0.18-0.04 0.09-0.03"/>
    <path id="path1051" d="m40.97 67.5-0.86 0.45-1.53 0.17-0.72 0.11 0.72-0.07 0.83 0.03 0.27 0.05-0.62 0.41"/>
    <path id="path1053" d="m39.68 68.24 0.43-0.29"/>
    <path id="path1055" d="m40.19 67.9 1.54-0.31 1.65 0.26 90.84 29.33 1.64 0.81 1.5 1.29 2.52 3.38 1.58 1.29 1 0.5 0.25 0.07 0.28 0.02 0.29-0.01 0.25-0.06 0.2-0.07 3.26-1.7 0.13-0.1 0.05-0.11"/>
    <path id="path1057" d="m40.67 69.7 0.09-0.07 0.12-0.03"/>
    <path id="path1059" d="m41.41 69.47 0.2-0.05"/>
    <path id="path1061" d="m42.25 69.35-0.26-0.03-0.08 0.02"/>
    <path id="path1063" d="m43.06 69.47-0.26-0.04"/>
    <path id="path1065" d="m43.3 69.5 0.12 0.05"/>
    <path id="path1067" d="m44.67 70.18 0.02 0.01"/>
    <path id="path1069" d="m45.9 71.32 0.02 0.02"/>
    <path id="path1071" d="m49.85 69.22-0.24-0.34 0.06-0.33 0.31-0.3 0.55-0.24 0.71-0.15 0.81-0.04 0.81 0.06 0.73 0.17 0.57 0.25 0.34 0.31 0.09 0.33-0.19 0.32-0.44 0.28-0.63 0.19-0.78 0.1-0.82-0.01-0.78-0.12-0.65-0.21-0.45-0.27"/>
    <path id="path1073" d="m51.62 75.53 2.66 0.86"/>
    <path id="path1075" d="m125.74 99.46-0.36-0.12"/>
    <path id="path1077" d="m127.71 94.39 0.34 0.21 0.66 0.21 0.78 0.12 0.82 0.01 0.77-0.1 0.64-0.19 0.43-0.28 0.19-0.32-0.08-0.33-0.35-0.31-0.57-0.25-0.73-0.17-0.81-0.06-0.81 0.04-0.71 0.15-0.55 0.24-0.31 0.3-0.05 0.33 0.22 0.33 0.12 0.07"/>
    <path id="path1079" d="m131.55 99 0.08-0.04"/>
    <path id="path1081" d="m132.59 98.71 0.24-0.06 0.53 0.08"/>
    <path id="path1083" d="m134.25 98.88-0.07-0.04-0.19-0.02"/>
    <path id="path1085" d="m138.34 104.55 0.04 0.35"/>
    <path id="path1087" d="m138.22 103.57-0.01-0.04"/>
    <path id="path1089" d="m145.29 102.92-0.01-0.31-0.27-0.32-0.5-0.28-0.7-0.19-0.81-0.1-0.82 0.01-0.76 0.13-0.6 0.22-0.14 0.11"/>
    <path id="path1091" d="m143.86 103.66-0.72 0.03-0.42-0.05-0.44-0.11-0.73-0.35-0.63-0.57-0.41-0.72-0.15-0.78 0.03-0.35 0.1-0.33 0.16-0.25 0.22-0.18 0.28-0.09 0.32 0.01 0.36 0.08 0.38 0.14 0.82 0.43 0.8 0.53 0.69 0.53 0.48 0.47 0.18 0.26 0.1 0.21 0.01 0.31"/>
    <path id="path1093" d="m141.59 102.88 0.03 0.04 0.25 0.15 0.35 0.12 0.41 0.06h0.43l0.41-0.05 0.33-0.1 0.23-0.15 0.1-0.17-0.04-0.17-0.18-0.16-0.3-0.14-0.39-0.08-0.43-0.04-0.42 0.02-0.38 0.08-0.29 0.13-0.16 0.16-0.03 0.17 0.08 0.13"/>
   </g>
   <g id="g1095" stroke-width=".317">
    <path id="path1097" d="m35.96 72.14-1.09-0.35-0.2-0.09-0.13-0.1-0.04-0.12 0.05-2.06 0.05-0.12 0.13-0.1 3.26-1.7 0.2-0.08 0.26-0.04h0.28l0.28 0.02 1.26 0.2 0.7-0.1 3.56-1.87 1.54-0.3 1.66 0.26 90.83 29.33 1.65 0.81 1.49 1.28 2.52 3.39 1.58 1.28 1.2 0.6 0.13 0.1 0.04 0.11-0.05 2.07-0.05 0.11-0.13 0.1-2.48 1.29-0.78 0.41-0.2 0.07-0.25 0.05-0.29 0.01-0.28-0.02-0.25-0.06-3.99-1.29-0.01-0.07"/>
    <path id="path1099" d="m43.61 69.65-0.19-0.1"/>
    <path id="path1101" d="m44.67 70.18-0.43-0.22"/>
    <path id="path1103" d="m45.52 70.96 0.38 0.36"/>
    <path id="path1105" d="m44.96 70.44-0.27-0.25"/>
    <path id="path1107" d="m46.85 72.78-0.03-0.08-0.25-0.38"/>
    <path id="path1109" d="m45.92 71.34 0.2 0.31"/>
    <path id="path1111" d="m47.55 75.55 0.03 0.34 4 1.29 0.25 0.06 0.28 0.03 0.28-0.01 0.26-0.05 0.2-0.07 1.43-0.75 71.09 22.95-0.03 1.47 0.04 0.12 0.12 0.1 0.2 0.09 1.1 0.36"/>
    <path id="path1113" d="m47.42 74.41-0.01-0.12-0.14-0.39"/>
    <path id="path1115" d="m134.25 98.88 0.52 0.26"/>
    <path id="path1117" d="m136.1 100.06-0.58-0.54-0.15-0.07"/>
    <path id="path1119" d="m137.24 101.4-0.52-0.78-0.11-0.09"/>
    <path id="path1121" d="m137.6 101.95 0.06 0.08 0.38 1.04"/>
    <path id="path1123" d="m138.34 104.55-0.1-0.93-0.02-0.05"/>
    <path id="path1125" d="m138.21 103.53-0.01-0.02"/>
   </g>
  </g>
  <g id="Actor_.21" stroke="#000">
   <g id="g1128" stroke-width=".106">
    <path id="path1130" d="m117.05 117.73-0.84 0.17-1.19-0.24-1.16-0.68-1-1.05-0.73-1.3-0.39-1.41-0.01-0.17"/>
    <path id="path1132" d="m111.75 111.84 0.39-1.18 0.74-0.87 0.12-0.05"/>
    <path id="path1134" d="m113.5 108.53 0.13-0.04"/>
    <path id="path1136" d="m119.47 113.25-0.68-1.72-1.05-1.42-1.32-1.06-1.43-0.56h-1.34"/>
    <path id="path1138" d="m117.7 118.49 0.9-0.68"/>
    <path id="path1140" d="m118.71 117.73 0.05-0.04 0.63-1.14"/>
    <path id="path1142" d="m119.68 115-0.25 1.48"/>
    <path id="path1144" d="m119.48 113.31 0.21 1.63"/>
    <path id="path1146" d="m269.62 39.18 0.05-0.01"/>
   </g>
   <g id="g1148" stroke-width=".317">
    <path id="path1150" d="m117.65 118.5 18.78-9.78"/>
    <path id="path1152" d="m136.54 108.66-0.04 0.02"/>
    <path id="path1154" d="m159.64 96.6-12.48 6.52"/>
    <path id="path1156" d="m246.6 51.21-81.13 42.34"/>
    <path id="path1158" d="m246.71 51.15-0.03 0.02"/>
    <path id="path1160" d="m257.33 45.61 12.34-6.44 1.06-0.8 0.69-1.25 0.24-1.56-0.23-1.69-0.68-1.65-1.05-1.43-1.31-1.05-1.43-0.56-1.4-0.01-0.89 0.4"/>
   </g>
  </g>
  <g id="Actor_.22" stroke="#000">
   <g id="g1163" stroke-width=".106">
    <path id="path1165" d="m144.73 11.91 0.04 0.12 0.12 0.11 0.2 0.07 1.01 0.15 1.63-0.25 0.47-0.3-0.09 0.04-0.71 0.14-0.49-0.05-0.19-0.09-0.1-0.12-0.01-0.26"/>
    <path id="path1167" d="m148.2 11.81 1.04-0.67-0.19-0.01-0.42 0.02-0.38 0.08-0.29 0.13-0.16 0.16-0.03 0.17 0.12 0.17 0.03 0.02"/>
    <path id="path1169" d="m148.5 10.68-0.46 0.04 0.72-0.11 1.52-0.16-0.42 0.28-0.27-0.05-0.83-0.03-0.26 0.03"/>
    <path id="path1171" d="m149.24 11.14 0.62-0.41"/>
    <path id="path1173" d="m151.14 9.99-0.86 0.46"/>
    <path id="path1175" d="m150.36 10.39 1.54-0.3 1.66 0.26 90.83 29.33 1.65 0.81 1.5 1.28 2.51 3.39 1.59 1.28 1 0.5 0.25 0.07 0.28 0.03 0.28-0.02 0.26-0.05 0.2-0.08 3.25-1.7 0.14-0.1 0.05-0.1"/>
    <path id="path1177" d="m150.84 12.2 0.09-0.07 0.12-0.03"/>
    <path id="path1179" d="m152.09 11.83 0.08-0.02 0.23 0.04"/>
    <path id="path1181" d="m153.47 12 0.13 0.04"/>
    <path id="path1183" d="m154.85 12.68-0.01-0.01"/>
    <path id="path1185" d="m156.08 13.81 0.01 0.03"/>
    <path id="path1187" d="m160.01 11.7-0.22-0.32 0.05-0.33 0.33-0.31 0.53-0.23 0.72-0.15 0.8-0.05 0.81 0.07 0.73 0.17 0.14 0.06 0.43 0.19 0.35 0.31 0.08 0.33-0.19 0.32-0.43 0.27-0.64 0.2-0.77 0.1-0.82-0.01-0.78-0.12-0.66-0.21-0.46-0.29"/>
    <path id="path1189" d="m164.46 18.88-2.66-0.86"/>
    <path id="path1191" d="m235.91 41.96-0.36-0.12"/>
    <path id="path1193" d="m237.6 36.57-0.06-0.08 0.06-0.34 0.31-0.3 0.54-0.23 0.72-0.15 0.81-0.05 0.81 0.07 0.73 0.16 0.57 0.26 0.34 0.31 0.08 0.33-0.18 0.32-0.44 0.27-0.64 0.2-0.77 0.1-0.82-0.01-0.78-0.12-0.66-0.21-0.46-0.29-0.16-0.24"/>
    <path id="path1195" d="m241.73 41.49 0.08-0.04"/>
    <path id="path1197" d="m242.8 41.2 0.2-0.05 0.54 0.07"/>
    <path id="path1199" d="m244.43 41.38-0.08-0.04-0.18-0.03"/>
    <path id="path1201" d="m248.4 46.06-0.02-0.03"/>
    <path id="path1203" d="m254.04 46.16-0.72 0.02-0.42-0.04-0.45-0.11-0.73-0.35-0.62-0.57-0.41-0.73-0.15-0.78 0.02-0.35 0.1-0.33 0.16-0.25 0.22-0.18 0.29-0.08h0.31l0.37 0.08 0.38 0.15 0.82 0.43 0.79 0.52 0.69 0.54 0.48 0.47 0.19 0.25 0.1 0.22v0.34-0.3l-0.27-0.33-0.51-0.27-0.7-0.2-0.8-0.1-0.83 0.02-0.75 0.12-0.61 0.22-0.13 0.11"/>
    <path id="path1205" d="m252.39 45.68-0.35-0.11-0.24-0.15-0.11-0.17 0.02-0.18 0.17-0.16 0.29-0.12 0.37-0.08 0.43-0.02 0.42 0.03 0.39 0.09 0.3 0.13 0.18 0.16 0.05 0.18-0.1 0.17-0.23 0.14-0.34 0.11-0.4 0.05-0.44-0.01-0.41-0.06"/>
   </g>
   <g id="g1207" stroke-width=".317">
    <path id="path1209" d="m146.14 14.64-1.1-0.36-0.2-0.08-0.12-0.11-0.04-0.12 0.05-2.06 0.05-0.12 0.13-0.1 3.25-1.7 0.21-0.07 0.25-0.04 0.28-0.01 0.28 0.03 1.26 0.2 0.7-0.11 3.57-1.86 1.53-0.31 1.66 0.26 90.84 29.33 1.64 0.81 1.5 1.29 2.51 3.38 1.59 1.29 1.2 0.59 0.12 0.11 0.05 0.11-0.06 2.06-0.04 0.11-0.14 0.1-0.42 0.22-2.83 1.48-0.21 0.08-0.25 0.04-0.28 0.02-0.28-0.03-0.25-0.06-3.98-1.28-0.02-0.01-0.01-0.06"/>
    <path id="path1211" d="m153.8 12.15-0.2-0.11"/>
    <path id="path1213" d="m155.13 12.93-0.28-0.25"/>
    <path id="path1215" d="m154.42 12.46 0.42 0.21"/>
    <path id="path1217" d="m156.08 13.81-0.38-0.36"/>
    <path id="path1219" d="m157.02 15.27-0.02-0.08-0.26-0.38"/>
    <path id="path1221" d="m156.09 13.84 0.21 0.3"/>
    <path id="path1223" d="m236.98 43.97-1.11-0.36-0.19-0.08-0.13-0.11-0.04-0.11 0.04-1.47-71.09-22.96-1.44 0.75-0.2 0.08-0.25 0.04-0.28 0.01-0.28-0.02-0.25-0.06-4-1.29-0.05-0.4"/>
    <path id="path1225" d="m157.59 16.9-0.01-0.12-0.14-0.38"/>
    <path id="path1227" d="m157.14 15.59 0.02 0.06"/>
    <path id="path1229" d="m244.87 41.6-0.44-0.22"/>
    <path id="path1231" d="m246.28 42.55-0.59-0.53-0.15-0.08"/>
    <path id="path1233" d="m246.79 43.02 0.1 0.1 0.52 0.77"/>
    <path id="path1235" d="m248.23 45.61-0.4-1.08-0.06-0.09"/>
    <path id="path1237" d="m248.52 47.05-0.1-0.94-0.02-0.05"/>
    <path id="path1239" d="m248.38 46.03v-0.02"/>
   </g>
  </g>
  <g id="Actor_.23" stroke="#000">
   <g id="g1242" stroke-width=".106">
    <path id="path1244" d="m23.65 102.43 0.29-11.61 16.71 5.4-0.28 11.61"/>
    <path id="path1246" d="m45.08 94.22-3.8 1.98-0.28 11.61"/>
   </g>
   <g id="g1248" stroke-width=".317">
    <path id="path1250" d="m23.84 90.79-0.28 11.39 0.09 0.25 16.72 5.4 0.63-0.02 3.8-1.99 0.28-11.6"/>
   </g>
  </g>
  <g id="Actor_.24" stroke="#000">
   <g id="g1253" stroke-width=".106">
    <path id="path1255" d="m38.74 91.05 0.04 0.08 0.18 0.14 0.29 0.1 0.34 0.07 0.39 0.01"/>
    <path id="path1257" d="m39.71 91.14h-0.06l-0.28-0.05-0.22-0.09-0.15-0.1"/>
   </g>
   <g id="g1259" stroke-width=".317">
    <path id="path1261" d="m37.37 108.54-0.02 0.68 0.01 0.06 0.16 0.33 0.05 0.03 0.32 0.24 0.48 0.18h0.04l0.57 0.11 0.62 0.02 0.6-0.05 0.55-0.15 0.38-0.2 0.04-0.03"/>
    <path id="path1263" d="m39.73 90.42-0.14 0.01-0.27 0.04-0.21 0.08-0.11 0.09"/>
   </g>
  </g>
  <g id="Actor_.25" stroke="#000">
   <g id="g1266" stroke-width=".106">
    <path id="path1268" d="m28.98 88.06 0.29 0.07 0.36 0.04 0.16-0.01"/>
    <path id="path1270" d="m29.4 87.84 0.14 0.01"/>
   </g>
   <g id="g1272" stroke-width=".317">
    <path id="path1274" d="m27.2 105.25-0.01 0.57 0.04 0.27 0.01 0.06 0.03 0.06 0.24 0.25 0.05 0.04 0.42 0.2 0.57 0.15 0.61 0.06 0.62-0.02 0.55-0.11h0.04l0.45-0.18 0.04-0.03 0.11-0.1"/>
   </g>
  </g>
  <g id="Actor_.26" stroke="#000">
   <g id="g1277" stroke-width=".106">
    <path id="path1279" d="m134.83 138.34 0.29-11.61 16.71 5.4-0.28 11.6"/>
    <path id="path1281" d="m135.12 126.73-0.1-0.26"/>
    <path id="path1283" d="m152.46 132.33-0.28 11.38"/>
   </g>
   <g id="g1285" stroke-width=".317">
    <path id="path1287" d="m135.04 126.46-0.02 0.01-0.28 11.61 0.09 0.26 16.72 5.39 0.63-0.02 3.8-1.98 0.27-11.25"/>
   </g>
  </g>
  <g id="Actor_.27" stroke="#000">
   <g id="g1290" stroke-width=".106">
    <path id="path1292" d="m245.2 68.96 0.09 0.26-0.09 3.84"/>
    <path id="path1294" d="m261.72 86.23 0.28-11.61-16.71-5.4"/>
    <path id="path1296" d="m262.63 74.82-0.27 11.38"/>
   </g>
   <g id="g1298" stroke-width=".317">
    <path id="path1300" d="m245.22 68.95-0.02 0.01-0.1 4.06"/>
    <path id="path1302" d="m266.43 72.97-0.27 11.25-3.8 1.98-0.64 0.03-14.98-4.84"/>
   </g>
  </g>
  <g id="Actor_.28" stroke="#000">
   <g id="g1305" stroke-width=".106">
    <path id="path1307" d="m249.91 66.16v0.02l0.13 0.14 0.24 0.12 0.32 0.08 0.37 0.04h0.17"/>
    <path id="path1309" d="m250.89 66.25-0.2-0.02-0.25-0.07-0.19-0.09-0.07-0.07"/>
    <path id="path1311" d="m250.21 65.72-0.02 0.03"/>
   </g>
   <g id="g1313" stroke-width=".317">
    <path id="path1315" d="m250.91 65.53-0.28 0.03-0.24 0.06-0.18 0.1-0.01 0.01"/>
   </g>
  </g>
  <g id="Actor_.29" stroke="#000">
   <g id="g1318" stroke-width=".106">
    <path id="path1320" d="m260.08 69.45 0.09 0.12 0.21 0.13 0.3 0.09 0.32 0.05"/>
    <path id="path1322" d="m260.36 69.04 0.07-0.07"/>
    <path id="path1324" d="m260.35 69.28 0.03 0.04 0.17 0.1 0.24 0.08 0.06 0.01"/>
   </g>
   <g id="g1326" stroke-width=".317">
    <path id="path1328" d="m261.08 88.59-0.59-0.01-0.59-0.09h-0.03l-0.52-0.17-0.37-0.22-0.04-0.03-0.13-0.19"/>
    <path id="path1330" d="m260.41 68.98 0.02-0.01 0.15-0.06"/>
   </g>
  </g>
  <g id="Actor_.30" stroke="#000">
   <g id="g1333" stroke-width=".106">
    <path id="path1335" d="m139.74 123.67 0.04 0.07 0.18 0.14 0.27 0.11 0.35 0.06 0.37 0.02h0.03"/>
    <path id="path1337" d="m140 123.51 0.14 0.1 0.22 0.09 0.28 0.05 0.08 0.01"/>
   </g>
   <g id="g1339" stroke-width=".317">
    <path id="path1341" d="m142.17 142.38-0.01 0.01-0.04 0.03-0.39 0.2-0.56 0.14-0.6 0.05-0.62-0.03-0.61-0.12-0.47-0.18-0.31-0.23-0.05-0.04-0.03-0.06-0.11-0.27-0.01-0.06 0.01-0.67"/>
    <path id="path1343" d="m140.01 123.25 0.12-0.09 0.22-0.07 0.27-0.05h0.12"/>
   </g>
  </g>
  <g id="Actor_.31" stroke="#000">
   <g id="g1346" stroke-width=".106">
    <path id="path1348" d="m149.91 126.95v0.02l0.13 0.14 0.24 0.12 0.32 0.09 0.23 0.02"/>
    <path id="path1350" d="m150.68 127.02-0.24-0.07-0.2-0.09-0.06-0.07"/>
    <path id="path1352" d="m150.18 126.54 0.03-0.03"/>
   </g>
   <g id="g1354" stroke-width=".317">
    <path id="path1356" d="m148.56 144.44-0.01 0.55 0.02 0.27 0.01 0.07 0.03 0.05 0.24 0.26 0.04 0.03 0.41 0.21 0.58 0.15 0.6 0.07 0.62-0.02 0.59-0.11 0.46-0.17 0.25-0.2"/>
    <path id="path1358" d="m150.2 126.52 0.01-0.01 0.18-0.1h0.01"/>
   </g>
  </g>
  <g id="Actor_.32" stroke="#000">
   <g id="g1361" stroke-width=".106">
    <path id="path1363" d="m143.64 92.69v-0.07l-0.03 0.01-0.08 0.08-0.63 0.2 0.1 0.11"/>
    <path id="path1365" d="m144.11 92.44-0.07-0.05-0.64 0.09 0.24 0.14"/>
    <path id="path1367" d="m144.04 92.39 0.01 0.09"/>
    <path id="path1369" d="m143.53 92.71 0.01 0.03"/>
   </g>
   <g id="g1371" stroke-width=".317">
    <path id="path1373" d="m144.25 92.37-0.16-0.01-0.5 0.03-0.49 0.08-0.66 0.17-0.3 0.15-0.18 0.1-0.06 0.03-0.25 0.31-0.04 0.07-0.01 0.07-0.01 0.39"/>
   </g>
  </g>
 </g>
</svg>
