<svg id="svg2" stroke-linejoin="round" xmlns="http://www.w3.org/2000/svg" stroke-linecap="round" height="727.257" width="252.4mm" viewBox="0 0 252.39698 192.41805" fill="none"><desc id="desc4">Composer Export</desc><script id="script6" type="text/ecmascript"><![CDATA[
if(typeof(top) != "undefined")
{
	top.ShowPaper = ShowPaper;
}
function ShowHotSpot(evt,hotspotid)
{
	var svgDocument = evt.target.ownerDocument;
	var strId = "hotspot."+hotspotid;
	var hotspot = svgDocument.getElementById(strId);
	if(hotspot)
		hotspot.setAttribute("opacity",".5");
}
function HideHotSpot(evt,hotspotid)
{
	var svgDocument = evt.target.ownerDocument;
	var strId = "hotspot."+hotspotid;
	var hotspot = svgDocument.getElementById(strId);
	if(hotspot)
		hotspot.setAttribute("opacity","0");
	var toolTip = svgDocument.getElementById('ToolTip');
	if(toolTip)
		toolTip.setAttribute("visibility","hidden");
}
function ShowToolTip(evt,hotspotid,strTooltip)
{
	if(strTooltip=="")
	return;
	// change text
	var svgDocument = evt.target.ownerDocument;
	var tiptext = svgDocument.getElementById('ToolTipText');
	if( !tiptext )
	return;
	tiptext.firstChild.nodeValue = " " + strTooltip + "  " ;
	// show tooltip before, else some refresh issue
	var toolTip = svgDocument.getElementById('ToolTip');
	if(!toolTip)
	return;
	toolTip.setAttribute("visibility","visible");
	toolTip.setAttribute("opacity",".95");
	// move tooltip
	// get viewbox
	var root = svgDocument.documentElement;
	var vbox = (root.getAttribute("viewBox")).split(' ');
	var x0 = parseFloat(vbox[0]);
	var y0 = parseFloat(vbox[1]);
	var vboxW = parseFloat(vbox[2]);
	var vboxH = parseFloat(vbox[3]);
	// get default width of svg
	var strW = root.getAttribute("width");
	var svgW = parseFloat(strW);
	if(strW.indexOf('mm') != -1)
	svgW *= 3.779;
	var strH = root.getAttribute("height");
	var svgH = parseFloat(strH);
	if(strH.indexOf('mm') != -1)
	svgH *= 3.779;  	// 96 dpi  -> 96/25.4 = 3.779
	// update the viewbox / width / height if svg is embedded in html with zoom fit all
	var realx0 = x0;
	var realy0 = y0;
	var realvboxW = vboxW;
	var realvboxH = vboxH;
	var realsvgW = svgW;
	var realsvgH = svgH;
	if ((typeof(top) == "undefined") || (typeof(top.svgctl1) != "undefined")) // embedded in html
	{
		// get window size in pxl
		svgW = window.innerWidth;
		svgH = window.innerHeight;
		// calculate real viewbox
		realsvgW = svgW;
		realsvgH = svgH;
		if((svgW / svgH) > (vboxW / vboxH))
		{
			realvboxW = (vboxH * svgW) / svgH;
			realvboxH = vboxH;
			realx0 = x0 - (realvboxW - vboxW)/2 ;
		}
		else
		{
			realvboxH = (vboxW * svgH) / svgW;
			realvboxW = vboxW;
			realy0 = y0 - (realvboxH - vboxH)/2 ;
		}
	}
	// get user zoom/pan
	var newScale = root.currentScale;
	var translation = root.currentTranslate;
	// transform pxl to user unit
	var xPos = (((evt.clientX+10- translation.x)/newScale) * realvboxW)/realsvgW  + realx0 ;
	var yPos = (((evt.clientY+5- translation.y)/newScale) * realvboxH)/ realsvgH  + realy0 ;
	var scaleForWidth = ( (1 / newScale) * realvboxH) / realsvgH;
	// move tooltip
	toolTip.setAttribute("transform", "translate(" + xPos + "," + yPos + ")" );
	// resize tooltip
	var fontsize = 12;
	tiptext.setAttribute("font-size",fontsize*scaleForWidth);
	tiptext.setAttribute("y", fontsize*scaleForWidth);
	var tipBG = svgDocument.getElementById('ToolTipBG');
	var outline = tiptext.getBBox();
	if(tipBG)
	{
		tipBG.setAttribute("stroke-width", 1*scaleForWidth);
		tipBG.setAttribute("width", Number(outline.width) );
		tipBG.setAttribute("height", Number(outline.height) + fontsize*.5*scaleForWidth );
	}
	var ToolTipShadow = svgDocument.getElementById('ToolTipShadow');
	if(ToolTipShadow)
	{
		ToolTipShadow.setAttribute("width", Number(outline.width) );
		ToolTipShadow.setAttribute("height", Number(outline.height) + fontsize*.5*scaleForWidth );
		ToolTipShadow.setAttribute("x", 3*scaleForWidth);
		ToolTipShadow.setAttribute("y", 3*scaleForWidth);
	}
}
function ShowPaper()
{
  var svgDocument = getDocument();
  var paper = svgDocument.getElementById("paperID");
  if(paper)
  {
    paper.setAttribute("transform","scale(1)");
    paper.setAttribute("opacity","1");
    paper.setAttribute("visibility","visible");
  }
  var svg = svgDocument.getRootElement();
  if(svg)
  {
    svg.setAttribute("width","307.000mm");
    svg.setAttribute("height","220.000mm");
    svg.setAttribute("viewBox","-5.000000 -5.000000 307.000000 220.000000");
  }
}
]]></script><g id="g10" transform="translate(-19.422 .16)"><path id="path12" d="M180.61 5.16V7.3l-.34 1-1.14 1.21-5.68 3.07-1.61.01-6.18-1.97-.01-.37 13.85-7.16.42.04zm-20.66 5.74l.67-.39 1.14.01.04 1.81-1.75-.43zm-11.4.64h-.73l.36-.36h.45zm8.85 4.71v3.85l-.81 1.2-75.37 39.43h-.9l-6.84-2.39 83.24-43.41zm6.38 2.38l2.4.96-.03 2.19-8.41 11.72-2.17-.75 6.21-8.62.5-5.83zm-3.97 2.34l-.05.43-1.18.94h-.64l1.01-1.76h.48zm-19.32 10.06l.39.07.06.38-.38-.07zm130.99 3.4v2.15l-.35.99-1.09 1.27-12.81 6.71.09 1.7 9.8 21.16v3.51l-.68 1.01-.32 11.12-3.19 1.86-1.35.13.37-11.2.76-.25.03-4.16-9.46-20.49-.09-2.71 3.73-2.04.11-.36-2.02-1.33-1.38-1.33-.12-.98 16.87-8.83.4.05zm-127.54-1.54l-.28.39-1.77.61-.1-1.48 1.35-.32.81-.69zm93.94 4.16l-.24-.94 1.45-.71.41.02v1.85zm14.75 5.82v1.09l-.41.29-1.64-.04-.03-1.28.3-.42 1.12-.03zm-4.37 3.01l.01 3.49-.83 1.2-5.66 3.03.02.35 5.11 11.11.72 1.81-.83.6-.88-.03-5.77-12.49-.75-.03-8.65 4.54-2.31 1.38-2.17.86-60.81 31.74-.3 1.72-2.82 1.56-1.02.13v-1.83l3.4-1.67.43-.29.01-.36-2.7-1.74-1.14-1.67 85.82-44.79.46-.02zm3.57-1.03l.81.01.01.81-.72-.1zm-1.15 5.4l-.06.42-1.51 1.28-.64.01 1.34-2.1h.49zM68.19 58.8l.93-.51.76.01v1.86l-1.02-.11-.67-.39zm-12.12 1l-.1-.43.78-.08zm9.12 3.55l.65 2.73.35.32 2.04.73.01.36-4.84 2.64h-1.61l-6.18-1.97v-.35l8.79-4.8.46-.03zm185.42 2.16h-.45v-.45h.45zM72.24 66.76l-.77.69-1.02.11v-1.18zm-22.67 1.98l.66-.66h1.5v1.49l-1.71-.14zm-11.39.4l-.76-.04.35-.37h.82zm9.18 4.99l-.02 2.83-.34 1-.97 1.05-18.57 9.73.03-.62.34-.4.33-2.45-.79-2.77 19.18-10.06zm190.67-.35l.69-.64 1.03-.37.78.02-.36 2.16-1.68-.48zm-184.3 2.4l2.4.96-.02 2.19-7.26 9.64.47.68.08 2.1-2.15-.44-1.96 2.78-.31 3.05-.01 3.28h2.95l3.05-.65 2.01-2.41.73-.02 2.01.68-.75 2.05-1.26 1.43-.68 1-1.4.61-1.94-.02-2.7-.65-.98-.65-.33.04-.68-.81-.36 4.87-3.12 1.6-1.02.12.11-11.13 2.25-2.8 8.87-12.33.5-5.5zm191.85-.55l-1.46.89-2.82.21 3.14-1.23 1.49-1zm-4.43 1.31l-1.12-.1 1.27-.11zm6.8-.3l-1.84 1.23.77 2.65-.65 2.15-2.33 3.05-1.12.57-2.27-.02-2.04-.32-2.32-1.37-.82-1.02-78.74 41.09.09 5.45-.38.28.1 2.74.34-.02v1.08l-.38.64-.76 6.98-3.02 1.7-1.02.12.1-6.09.26-5.13.39-.28.35-3.83-9.83-21.51.42-2.23 3.74-1.99-.33-.48-1.69-1.04-1.74-1.68-.11-.62 12.65-6.44.27.32.67 3.08 2.4.96-1.42 1.12-.64 14.84-4.84 2.27.1 1 3.41 7.41.88.02 90.64-47.39.71-.43zM49.73 78.48l-1.19 1.41-.65.11.34-1.15.36-.68.8-.03zm-24.57 2.71l1.37 1.38-.04.76-4.39 2.37-1.11.36-.59-1.45v-2.29l1.23-1.8 2.51.01zm120.66 2.74l.67-.39 1.14.01.04 1.8-1.75-.42zm120.97 2.49l-3.15 1.88-1.72.1.01-1.12 4.85-2.36zm-14.49.65l-3.15.21-3.36 1.01-3 1.7-1.38.11v-1.49l2.02-.66 4.37-2.03 1.69-.32 2.81-.02zm-91.51 3.88l-.03 1.15-1.78.35-.29-.41.04-1.28 1.05-.45zM39.6 90.42h-.45v-.45h.45zm121.17 3.04l-.82.01.11-.72.72-.1zM54.64 92.32l-2.01 1.03-2.38.01 3.53-1.21 1-.82zm72.77 1.14l1.28-.49.75-.01.02 1.86-1.38-.12-.66-.38zm15.17 6.95v1.1l-.75.26-1.38.11.1-1.72 1.37-.13zm-4.37 3.35l.01 2.49-1.15 1.88-5.38 3.06.07.64 5.79 12.45-.79.72-1 .09-5.95-12.89-11.67 5.93.41-.93.48-2.31-.32-1.72-.41-.66-.07-.64 18.53-9.83.75.03zm3.21-1.05l.33-.33.85.03.01.8-.74-.06zm-110.57 3.77l-.74.34-1.39.02.71-.71zm109.75 1.28l-1.19 1.41-.65.11.33-1.15.37-.68.8-.03zm1.65 1.07l-.42.1.06-.79zm-101.58.97l-1.23.11v-.42l.88-.05zm75.36.66l1.66 2.04-5.17 2.74h-.89l-.37-1.02v-2.62l.71-1.31.86-.48H115zm-57.59-7.25l-13.21 6.97-1.37.12v-1.49l2.02-.67 12.6-6.39zM238.2 61.5l-1.05.65-.34 12.11-.35 2.68-71.09 37.27-1.37.12.45-14.84.24-1.09 9.42-4.73 64.09-33.3zm-127.25 54.38l1.05.97 1.21 2.18 3.02-.09 1.91-.81 1.23.77 3.72 3.35 6.74 6.38.98 2.05.02 8.57-4.07 2.02-.32-6.22-.67-1.01-10.2-3.93-1.23-1.81-1.37-1.35-1.01 3.18-3.36 2.7-4.72 1.67-6.17.57h-2.92l-5.07-.66-4.03-1.35-.55-.46 1.25.1 3.33 1.04 3.05.32 5.06.12.54-18.99 7.52-1.01zm29.67 6.71l-.06.51-.43-.02-.06-.8zm-55.91 9.43l.43.58-2.16-.95-.08-.32zm56.92 10.42l-1.23.12v-.42l.88-.05zm16.12.83l-1.82 1.22-3.02 1.15v-1.49l4.39-2.08.43.04zm-22.23 5.25l.33 5.5-.67 3.37-1.65 2.73-2.49 1.88-10 4.47-.67 5.73-1.01 3.36-2.7 4.04-3.33 3.39-4.54 3.54-6.94 3.5-8.51 1.91h-6.29l-7.08-.66-2.48-.69 3.39.03 1.82-.56 1.16-.15 1.26-.77 1.18.16.49-.68-1.67.52-.57-.23.69-.69 1.16-.32-.48-.7 2.17-.31-1.86-.33 1.51-.31-.71-.41.29-.98 1.83.07-.04-.34-1.49-.37.77-.35-.81-.36.58-.77 1.62.22-1.62-.22.09-.21 1.53-.34-1.53-.34 1.53-.34-1.52-.33 1.18-.34-1.17-.33 1.86-.61.03-.36-.26-.16-.11-.22-1.51-.32 1.81-.72-1.84.01.31-.33 1.22-.33-1.51-.32 1.48-.61-1.8-.05 3.83-1.72-1.75-5.39-.07-.65.82-.33.31.64 1.68 5.88 5.58-3.88 2.69-2.35 2.84-2.55 2.56-2.83 3.15-4.25 3.27-5.81 1.03-3.06.4-.04 1.38 1.75 1.24.02 2.36-1.1.4.05 1.04 2.7.33 4.82-.31 2.04-.4.66.35 3.99.4.41 1.65-3.05.66-3.37-.32-5.17-1.45-4.04 11.42-5.06 1.11.02zm16.43-2.7l-1.11.12-.01-.42 1.18-.05zm-73.77 1.06l1.69-.72 1.69-.32 2.85.02-.01.37-1.5.61-5.75 3.7-3.68-.33-1 .34-2.69 1.68-1.55 1.81-2.16 3.91-.91 3.13-.32 5.73-.35 1.34-.32 4.41-4.39-1.48-4.71-2.02-.98-.7-1.37-2.04-.13-.64.44-.04 9.47 3.79h.65l-.34-1.38v-6.97l1.24-4.14 2.33-4.41 2.48-2.9 2.6-2.12 3.04-1.03zm12.94 3.14l-1.81 1.21-4.25 3.53-.73.22-.43-.3.09-.63 5.98-4.55.82-.01zm-7.88-.11l1.77-.76-.18.61-.6.1-.77.91-.57.1-.68.7.66.01.59-.81.96-.39.41-.62 2.13-.93.86.23-.55.11-.45.59-.56.11-2.35 1.69-2.04 2.03h-.9l.05-.56.29-.51-.8.36-1.23.05-.79-.39 3.74-2.69zm9.57.93l-3.74 2.84-2.15 1.93-.91.04-.45-.32.01-.37 5.49-4.33 1.44-.11zm1.03 1.4l-.05.4-2.37 1.72-2.13 1.9h-1.61l.03-.53 3.27-2.83 2.17-1.35zm.41 1.15l.26 1.32-3.23 2.57-.9.06-.43-.32.11-.61 2.94-2.49 1.12-.67zm-12.04.49l2.48-2.21 2.02-1.69.11-.22.81-.23.19-.47 1.63.27-.82.55-3.26 2.46-2.15 1.92-.59.04zm10.1 4.15l.1-.61 1.93-1.52.15 1.86-.81.56zm-26.8 12.17l.32-2.74 1.39-3.32 1.93-2.16.77.12-1.54 1.52-1.54 4.18.02 5.63.99 4.39.7 1.31-.41.4-.93-.03-.91-1.78-.13-1.24-.21-.13-.11-1.27-.23 1.26-.2-.12-.13-1.54.37-1-.38-.36-.11-5.64zm-.55 3.11l-.23-.12.11-1.14zm.33 1.37l-.33-1.37.32.01zm.67 3.02l-.21-.14-.13-1.22.34.01zm.23.91l-.23-.91.34.02zm23.59.95l-1.19-.07 1.31-.11zM230.45 75.98l-2.39 1.34V66.86l2.27-1.18.44.05zm-8.11 4.34l-1.34.67-1.12.37V71.13l2.04-1.08.42.03zM236 83.64l-.02-.36 7.82-4.13.43.04.04.42-.73 1.38-1.46 1.91-2.37.32-.87.47-2.04.27zm-21.73.05l-.37.98-1.32.69-1.12.37.45-10.46 2.38-1.11zm-23.56 11.13v-6.09l6.3-3.2.42.03v6.87l-.3 2.73-6.76 3.7v-2.39l4.75-2.66v-1.14zm-9.09 6.7l-2.35 1.38-.01-10.47 1.94-1.18.42.04zm-93.99 48.01l-.81.23.45-.59.55-.11zm-3.21.85l-.96.39.77-.91.6-.1zm-1.55 1.2l-.66-.01.68-.7.57-.1zm-2.01.33h-.67l.74-.74h.38zm-15.2 21.77l-.37 1-.01-1.36zm.3 2.67l-.34-.01.23-1.26zm.34 1.37l-.34-.02v-1.35l.21.13zm31.21 10.3l-1.18 1.58-.63.13.08-2.74 1.36-.1zm-10.1 0l-.11-.43.38-.07zm-2.29 1.12l1.67-.52-.49.68z" fill-opacity=".098" fill-rule="evenodd" fill="#000"/><g id="Actor_.0" stroke="#000"><g id="g15" stroke-width=".106"><path id="path17" d="M52.87 59.85l.04.12.13.11.2.08 1.01.15 1.62-.25 1.51-.97-.18-.02-.43.03-.37.07-.29.13-.17.16-.02.17.11.18.04.02-.52.1-.5-.04-.18-.1-.11-.12v-.26"/><path id="path19" d="M56.07 59.83l.18-.04.09-.03"/><path id="path21" d="M57.38 59.09l.62-.41-.27-.05-.83-.03-.72.07"/><path id="path23" d="M56.22 58.66l.68-.11 1.53-.16-.43.29"/><path id="path25" d="M58.99 60.14l.09-.07.12-.03"/><path id="path27" d="M58.43 58.39l.85-.46"/><path id="path29" d="M58.54 58.33l1.51-.3 1.65.26 90.84 29.33 1.64.81 1.5 1.29 2.51 3.38 1.59 1.29 1 .5.25.07.28.02.29-.02.25-.05.2-.08 3.26-1.7.13-.09.05-.11"/><path id="path31" d="M59.72 59.91l.09-.03"/><path id="path33" d="M60.54 59.79l-.23-.03-.08.02"/><path id="path35" d="M61.22 59.88l-.1-.01"/><path id="path37" d="M61.74 59.99l-.12-.05"/><path id="path39" d="M63 60.62h-.02"/><path id="path41" d="M64.22 61.75l.02.03"/><path id="path43" d="M68.21 59.68l-.06-.03-.22-.33.06-.33.31-.3.55-.24.71-.15.81-.04.81.06.73.17.57.25.34.31.08.34-.18.31-.44.28-.63.19-.78.1-.82-.01-.78-.12-.65-.21-.41-.25"/><path id="path45" d="M72.6 66.82l-2.66-.86"/><path id="path47" d="M144.06 89.9l-.36-.12"/><path id="path49" d="M146.38 85.04l-.47-.28-.22-.33.05-.33.31-.3.55-.24.71-.15.81-.04.38.03.43.03.73.17.57.25.34.31.09.33-.19.32-.43.27-.64.2-.77.1-.82-.01-.78-.12-.65-.21"/><path id="path51" d="M149.87 89.44l.08-.05"/><path id="path53" d="M151.68 89.17l-.53-.08-.21.05"/><path id="path55" d="M152.31 89.25l.19.03.07.04"/><path id="path57" d="M153.09 89.58l.02.01"/><path id="path59" d="M154.42 90.49l.03.03"/><path id="path61" d="M155.55 91.84l.02.02"/><path id="path63" d="M156.66 94.99l.02.15"/><path id="path65" d="M156.54 94.01l-.01-.04"/><path id="path67" d="M163.61 93.36l-.01-.31-.27-.32-.5-.28-.7-.19-.81-.1-.82.01-.76.13-.6.22-.14.1"/><path id="path69" d="M162.18 94.1l-.72.03-.42-.05-.44-.11-.73-.35-.63-.57-.41-.73-.15-.77.03-.36.1-.32.16-.25.22-.18.28-.09h.32l.36.09.38.14.82.43.8.52.69.54.48.47.18.26.1.21.01.32"/><path id="path71" d="M159.94 93.36l-.11-.17.03-.17.16-.16.29-.13.38-.08.42-.02.43.03.39.09.3.13.18.17.04.17-.1.17-.23.15-.33.1-.41.05h-.43l-.42-.07-.34-.11-.25-.15"/></g><g id="g73" stroke-width=".317"><path id="path75" d="M54.28 62.58l-1.09-.35-.2-.09-.13-.11-.04-.11.05-2.07.05-.11.13-.11 3.26-1.7.2-.07.26-.04h.28l.28.02 1.26.2.7-.11 3.56-1.86 1.54-.31 1.66.26 90.83 29.34 1.65.8 1.49 1.29 2.52 3.38 1.58 1.29 1.2.6.13.1.04.11-.05 2.07-.05.11-.13.1-.48.24-2.78 1.46-.2.07-.25.05-.29.01-.28-.03-.25-.05-3.99-1.3-.01-.06"/><path id="path77" d="M62.98 60.62l-.42-.22"/><path id="path79" d="M61.93 60.08l-.19-.09"/><path id="path81" d="M63.28 60.88l-.27-.25"/><path id="path83" d="M63.84 61.4l.38.35"/><path id="path85" d="M64.24 61.78l.2.31"/><path id="path87" d="M65.74 64.84l-.01-.11-.14-.39"/><path id="path89" d="M64.89 62.76l.25.38.03.07"/><path id="path91" d="M145.12 91.91l-1.1-.35-.2-.09-.12-.1-.04-.12.03-1.47L72.6 66.82l-1.43.75-.2.08-.26.05-.28.01-.28-.03-.25-.06-4-1.29-.03-.34"/><path id="path93" d="M153.09 89.58l-.52-.26"/><path id="path95" d="M154.42 90.49l-.58-.53-.15-.08"/><path id="path97" d="M155.92 92.4l.06.07.38 1.04"/><path id="path99" d="M155.55 91.84l-.51-.78-.11-.1"/><path id="path101" d="M156.54 94.01l.02.05.1.93"/><path id="path103" d="M156.53 93.97l-.01-.02"/></g></g><g id="Actor_.1" stroke="#000"><g id="g106" stroke-width=".106"><path id="path108" d="M56.22 78.18l.41.18 68.71 22.19"/><path id="path110" d="M68.39 67.49l2.7.87.4.17.25.21.08.23-.09.23-.27.2-.48.25"/><path id="path112" d="M238.46 59.97l-.09.22-.27.2-72.18 37.68-.41.15-.51.09-.56.02-.56-.05-.5-.12-4.16-1.34"/></g><g id="g114" stroke-width=".317"><path id="path116" d="M125.32 101.88L56.6 79.69l-.38-.17-.18-.14"/><path id="path118" d="M56.23 77.36l.39-.22"/><path id="path120" d="M66.8 68.31l4.16 1.35-4.06 2.12"/><path id="path122" d="M219.06 53.32l-76.32-24.64"/><path id="path124" d="M233.57 58.01l4.16 1.34.4.18.25.21.08.23-.03 1.32-.1.23-.26.2-72.18 37.67-.41.15-.51.1-.56.02-.56-.05-.5-.12-4.36-1.41-.51-.12-.55-.05-.57.03-.43.07"/></g></g><g id="Actor_.2" stroke="#000"><g id="g127" stroke-width=".106"><path id="path129" d="M45.78 93.49l64.93 20.97"/><path id="path131" d="M132.8 121.6l-13-4.2"/><path id="path133" d="M248.2 74.98l-.24.56-.66.49-91.29 47.66"/></g><g id="g135" stroke-width=".317"><path id="path137" d="M111.38 116.02L45.07 94.6"/><path id="path139" d="M50.91 86.45l6.13-3.2"/><path id="path141" d="M133.53 123.17l-15.32-4.95"/><path id="path143" d="M245.12 73.04l1.26.4.99.44.63.52.2.58-.03 1.32-.24.57-.66.49-90.78 47.38"/><path id="path145" d="M242.04 72.04l-5.1-1.65"/></g></g><g id="Actor_.3" stroke="#000"><g id="g148" stroke-width=".106"><path id="path150" d="M96.01 107.42l.36-14.89"/><path id="path152" d="M179.53 100.87l2.18.7-2.71 1.42.04-1.87"/><path id="path154" d="M181.71 101.57l.26-10.57"/><path id="path156" d="M190.4 97l-.05 1.86 7.06-3.68-2.18-.7"/><path id="path158" d="M197.41 95.18l.24-9.95-2.23 1.16"/><path id="path160" d="M211.61 84.13l-.05 1.86 2.7-1.41-2.16-.71"/><path id="path162" d="M214.26 84.58l.27-10.58"/><path id="path164" d="M222.67 69.75l-.25 10.58-2.72 1.41.05-1.86"/><path id="path166" d="M220.24 79.62l2.18.71"/><path id="path168" d="M220.41 72.39l.04-1.48"/><path id="path170" d="M219.93 72.24l.03-1.07"/><path id="path172" d="M227.89 75.63l.49-.26 2.18.71-2.72 1.41.26-10.57"/><path id="path174" d="M228.38 75.37l.21-8.71"/><path id="path176" d="M230.56 76.08l.25-10.58"/></g><g id="g178" stroke-width=".317"><path id="path180" d="M57.12 79.86l-.35 14.51.08.23.25.21.39.17 52.96 17.11"/><path id="path182" d="M67.22 68.45l-.08 3.2"/><path id="path184" d="M131.56 118.9l-9.05-2.92"/><path id="path186" d="M152.02 115.02l3.87-2.02.41-.15.51-.09.56-.02.56.05.5.11 4.36 1.41.5.12.56.05.56-.02.51-.09.41-.15 71.1-37.11.26-.2.1-.23.35-14.48"/><path id="path188" d="M179.74 92.16l-.21 8.71-.49.25.22-8.71"/><path id="path190" d="M190.4 97l.19-8.09 4.83-2.52-.19 8.09L190.4 97"/><path id="path192" d="M212.31 75.16l-.21 8.71-.49.26.21-8.71"/><path id="path194" d="M219.93 72.24l-.18 7.64.49-.26.17-7.23"/></g></g><g id="Actor_.4" stroke="#000"><g id="g197" stroke-width=".106"><path id="path199" d="M179.05 101l.48-.26"/><path id="path201" d="M190.44 95.05l4.83-2.52"/><path id="path203" d="M211.61 84l.49-.25"/><path id="path205" d="M219.75 79.75l.49-.25"/><path id="path207" d="M227.89 75.5l.49-.25"/></g><g id="g209" stroke-width=".317"><path id="path211" d="M190.41 96.38l4.83-2.53"/><path id="path213" d="M227.99 71.62l.47.16"/></g></g><g id="Actor_.5" stroke="#000"><g id="g216" stroke-width=".106"><path id="path218" d="M46.5 102.16l-.08-.07-.43-.35v.32l-.03.13-.05.08"/><path id="path220" d="M45.99 101.74l-.34-.29"/><path id="path222" d="M46.07 101.8h.01"/><path id="path224" d="M48.55 89.68l.46-.09.89-.04.88.08.78.19.61.28.35.34.07.36-.22.35-.49.29-.71.21-.85.1-.9-.02-.84-.14-.71-.23-.36-.24"/><path id="path226" d="M52.72 102.3l.08-.07.77-.6"/><path id="path228" d="M53.16 101.96h-.01"/><path id="path230" d="M53.28 102.43l-.04-.08-.02-.13v-.32"/></g><g id="g232" stroke-width=".317"><path id="path234" d="M44.92 100.75l.29.34.44.36"/><path id="path236" d="M49.26 88.7l1.45.03 1.53.25.05.02 1.31.44.9.58.09.07.4.68.06.11.02.13-.01.76-.03.12"/><path id="path238" d="M55.9 98.1l-.31.89-.33.77-.85 1.22-.84.65"/></g></g><g id="Actor_.6" stroke="#000"><g id="g241" stroke-width=".106"><path id="path243" d="M237.09 85.14l-.53-.46"/><path id="path245" d="M236.9 84.97l-.01.54"/><path id="path247" d="M238.31 74.25l.17.17.59.29.77.2.88.08.89-.03.8-.15.62-.25.38-.32.1-.36-.2-.35-.47-.32-.69-.25-.31-.05-.53-.09-.9-.03-.85.1-.72.2-.51.28-.24.35.05.36.17.17"/><path id="path249" d="M243.89 85.35l.09-.07.52-.4"/><path id="path251" d="M244.13 85.17l-.01.54"/><path id="path253" d="M244.12 85.48v.01"/></g><g id="g255" stroke-width=".317"><path id="path257" d="M236.56 84.68l-.81-.71-.28-.45"/><path id="path259" d="M236.88 72.64l.92-.37.08-.01 1.44-.27 1.59-.06 1.59.16 1.48.37 1.09.53.08.07.64.65.06.11.13.89-.03.12"/><path id="path261" d="M246.05 78l.46.74.45 1.72v.1l-.23.83-.34 1.28-.88 1.27-.58.62-.43.32"/></g></g><g id="Actor_.7" stroke="#000"><g id="g264" stroke-width=".106"><path id="path266" d="M227.83 61.17l-.42.1h-.09"/></g><g id="g268" stroke-width=".317"><path id="path270" d="M227.83 61.17l.28-.06.53-.24.3-.31.01-.14"/></g></g><g id="Actor_.8" stroke="#000"><g id="g273" stroke-width=".106"><path id="path275" d="M142.8 33.73l-.68.11-.82.02-.8-.1-.4-.11"/><path id="path277" d="M141.22 30.78l1.01.12.3.41-.72.3-.61-.07-.41-.05-.29-.41.72-.3-.02.76"/><path id="path279" d="M142.23 30.9l-.01.54"/></g><g id="g281" stroke-width=".317"><path id="path283" d="M142.8 33.73l.07-.01.59-.22.38-.28.13-.33.03-1.41-.01-.08-.15-.32-.03-.07-.06-.05-.38-.28-.58-.23-.04-.01-.7-.13-.76-.04-.73.07h-.03l-.65.17-.48.24-.05.04-.25.31-.04.06-.02.08-.03 1.41.01.33.28.32.51.27.29.08"/></g></g><g id="Actor_.9" stroke="#000"><g id="g286" stroke-width=".106"><path id="path288" d="M51.79 160.51l.06-2.39 1.14-4.57 2.05-4.29 1.85-2.39"/><path id="path290" d="M64.54 172.86l-.08-.1-.08-.06-.08-.03-.02-.16h.08l.08-.02.08-.09.02-.14-.02-.1-.04-.1-.07-.09-.08-.06-.08-.04-.01-.16.08.01.08-.02.06-.05.05-.12-.01-.15-.01-.02-.15.21-.89-1.23-.94-3.69.11-4.37 1.14-4.57 2.05-4.29 2.74-3.54 3.13-2.4 3.18-1.01 2.89.5-4.83-1.86"/><path id="path292" d="M64.83 174.74l-.02.09-.05.07-.07.04-.08.01"/><path id="path294" d="M64.47 174.13h.08l.07-.04.05-.06.03-.15"/><path id="path296" d="M64.6 173.03v.12l-.03.08-.05.06-.08.03h-.08"/><path id="path298" d="M64.52 172.4l-.08.09"/><path id="path300" d="M64.28 172.51l.25-.32"/><path id="path302" d="M64.49 171.36l-.1-.17-.08-.07-.08-.05v-.16l.08.02.08-.01.07-.05.04-.07.01-.14-.03-.11-.25.36"/><path id="path304" d="M64.34 171.57l-.1.14"/><path id="path306" d="M64.64 168.63l.06-.11-.01.05-.05.06-.08.03-.08-.01-.08-.03-.03.15.08.06.11.14.05.14.01.1-.03.09-.05.06-.07.03-.08.01-.08-.03-.02.15.08.05.08.08.06.1.03.1.01.1-.02.09-.05.07-.06.04-.09.01-.08-.03-.01.16.09.05.07.07.08.14"/><path id="path308" d="M64.51 169.75l-.26.38"/><path id="path310" d="M64.31 169.37l.25-.4"/><path id="path312" d="M64.52 167.89l.25-.43.06.12.02.1-.01.14-.08.09-.07.03-.09-.01-.08-.04-.03.14.08.07.07.08.05.1.03.16-.02.08"/><path id="path314" d="M64.4 168.62l.25-.42"/><path id="path316" d="M64.67 167.18l.25-.44.08.15.02.11-.01.09-.03.08-.06.05-.08.02-.09-.02-.08-.04-.03.14.13.14"/><path id="path318" d="M65.5 178.21l.09-.05"/><path id="path320" d="M69.05 161.59l-.31.13-2.44 2.81-1.35 3.98-.11 4.7 1.13 4.94 2.26 4.62 3.14 3.81 3.67 2.59 3.82 1.08 3.55-.54.14-.1-3.38.51-3.82-1.08-3.68-2.59-3.14-3.81-2.25-4.62-1.14-4.94.12-4.71 1.35-3.97 2.44-2.81 2.95-1.21 3.74.28 3.8 1.85 3.45 3.25 2.74 4.27 1.71 4.85.49 4.63-.72 4.27-1.87 3.34-2.22 1.62-2.81.43-3.71-1.06-3.57-2.5-3.05-3.71-2.19-4.49-1.1-4.79.11-4.57 1.32-3.86 2.33-2.69 1.99-.82 3.62.27 3.69 1.81 3.31 3.1"/><path id="path322" d="M65.23 177.4l.07-.03.07-.07"/><path id="path324" d="M64.99 176.59l.08-.02.06-.06.04-.06"/><path id="path326" d="M64.79 175.77l.07-.02.07-.04.05-.12"/><path id="path328" d="M83.12 188.74l-.58.42-3.45.53-3.7-1.06-3.58-2.51-3.04-3.7-2.19-4.49-1.1-4.79.11-4.57 1.31-3.86 2.37-2.73 1.18-.48"/><path id="path330" d="M64.86 166.49l.25-.45.1.2.01.1-.02.09-.03.07-.07.05-.07.01-.09-.02-.08-.05-.04.13.1.12"/><path id="path332" d="M65.17 166.5l.03-.07"/><path id="path334" d="M65.16 165.67l.17-.3.07.12.04.11.01.1-.04.13-.09.07h-.08l-.09-.02-.08-.06.09-.15-.16-.64.08-3.24.84-3.4 1.52-3.18 2.04-2.63 2.32-1.78 2.36-.75 2.15.37.72.28-1.35 1.03-3.34 3.35-1.87 2.49-1.12 1.76 1.48-1.37 3.96-1.09 4.4.78 4.35 2.59 3.83 4.11 2.9 5.17 1.66 5.69.23 5.58-1.21 4.87-2.54 3.64-3.55 1.99-1.83.08"/><path id="path336" d="M65.32 165.9l.13-.22"/><path id="path338" d="M65.11 166.04l-.08-.08.04-.14"/><path id="path340" d="M65.6 164.57l.26-.45.1.17.03.11v.11l-.02.08-.05.06-.07.03-.08-.01-.09-.04-.08-.06-.06.12.13.19.03.1v.16l-.04.07-.09.06h-.08l-.09-.03-.08-.06-.05.13.06.06"/><path id="path342" d="M65.32 165.18l.25-.45"/><path id="path344" d="M66.55 180.73l.09-.02"/><path id="path346" d="M67.18 161.87l-.08.11.23-.31-.17.27-.55.98-.08.1.06.09.06.2v.13l-.03.07-.06.05-.07.02-.08-.02-.09-.05-.07-.07-.08.11.07.09.07.2v.11l-.03.08-.05.06-.08.02-.08-.01-.08-.04-.08-.07-.07.11.02.02"/><path id="path348" d="M66.25 163.44l.05-.11-.13.22"/><path id="path350" d="M65.91 163.99l.36-.66-.43.77"/><path id="path352" d="M67.07 162.02l.03-.04-.28.43-.52.92"/><path id="path354" d="M66.45 163.07l.27-.52h.02l-.02.02v-.02l-.09.14.09-.12"/><path id="path356" d="M66.77 162.46l-.05.09.1-.18-.05.09.01-.02"/><path id="path358" d="M66.72 162.55l-.09.14.04-.06"/><path id="path360" d="M66.63 162.69l-.13.24"/><path id="path362" d="M66.41 163.08l-.14.25.19-.35-.07.15.04-.08-.02.04"/><path id="path364" d="M66.53 163.02l.58-1.03h-.02"/><path id="path366" d="M66.61 162.92l.07.08.09.05.08.02.11-.03.05-.07"/><path id="path368" d="M66.56 162.81l-.1.17"/><path id="path370" d="M66.82 162.37l.51-.87-.08.15.05-.09"/><path id="path372" d="M66.37 163.16l-.02.03"/><path id="path374" d="M68.03 182.94l-.09-.03-.08.01-.07.04"/><path id="path376" d="M66.94 181.49l.07-.03h.06"/><path id="path378" d="M67.35 182.24l.07-.04.12.01"/><path id="path380" d="M86.58 170.76l1.44-.6.11-.03.11.01.1.06.09.1.05.15-.01.12-.05.1-.08.08-1.5.64-.08.01-.08-.01-.09-.05-.1-.12-.04-.1-.01-.15.02-.09.05-.07.07-.05-.07-.16 1.42-.64.07-.04.07-.08.04-.1.01-.11-.07-.18-.08-.08-.1-.04-.11-.01-.11.02-1.43.65-.07-.16-.08.02h-.08l-.09-.04-.1-.1-.07-.15-.01-.11.02-.09.04-.08.06-.06-.08-.15 1.45-.75.07-.09.04-.1v-.11l-.04-.11-.04-.06-.09-.07-.11-.04-.11-.01-.1.04-1.4.71-.08-.15 1.43-.79.07-.08.03-.11-.01-.11-.04-.1-.04-.06-.09-.07-.11-.04h-.11l-.11.03-1.37.75-.09-.15-.07.04-.08.02-.08-.02-.08-.06-.07-.07-.05-.1-.02-.11v-.1l.03-.09.05-.07-.09-.14-.07.05-.07.01-.09-.01-.11-.08-.06-.09-.05-.15-.01-.11.03-.09.04-.07-.1-.14 1.37-.88.06-.09.02-.1-.01-.11-.05-.09-.05-.06-.1-.06-.11-.02-.11.01-.1.04-1.32.84-.1-.14-.06.06-.07.03h-.08l-.12-.07-.09-.13-.04-.1-.01-.11.02-.1.03-.08-.1-.12-.06.06-.07.03h-.07l-.09-.03-.08-.06-.05-.09-.04-.1-.02-.11.01-.1.04-.08-.12-.12 1.3-.97.05-.09.01-.1-.02-.1-.06-.08-.05-.05-.1-.05-.12-.01-.11.02-.1.05-1.24.92-.11-.11-.05.07-.07.04-.07.02-.13-.05-.1-.11-.04-.1-.03-.11.01-.1.02-.09-.12-.11 1.19-.97.06-.07.04-.08.01-.08-.03-.1-.12-.11-.1-.04-.12-.01-.11.03-.09.05-1.19.97-.12-.1 1.2-1.03.05-.1.01-.09-.03-.09-.07-.07-.16-.07h-.11l-.12.03-.09.05-1.16 1-.12-.1-.04.08-.05.07-.08.03-.11-.02-.12-.1-.05-.09-.04-.11v-.21l-.12-.08-.03.08-.05.07-.07.03-.08.01-.12-.07-.09-.12-.04-.11-.01-.21-.13-.08-.03.09-.04.07-.07.04-.08.01-.08-.03-.07-.07-.06-.08-.05-.11-.01-.21-.13-.07 1.09-1.11.04-.1v-.08l-.04-.07-.13-.08-.11-.01-.11.02-.11.05-.08.06-1.05 1.06-.13-.06 1.06-1.13.04-.08v-.09l-.04-.07-.08-.05-.16-.02-.11.02-.12.05-1.09 1.14-.13-.06 1.03-1.13.03-.09v-.08l-.04-.06-.13-.06h-.11l-.11.02-.18.12-1 1.09-.13-.04-.04.18-.06.06-.11.03-.07-.02-.11-.1-.06-.1-.05-.22-.13-.04.97-1.15.03-.08-.01-.07-.04-.06-.13-.05-.1.01-.11.04-.11.07-1.01 1.17-.13-.03-.02.19-.05.07-.1.05-.12-.04-.07-.06-.11-.2-.03-.11-.12-.02v.11l-.02.09-.05.08-.06.04-.07.01-.08-.03-.08-.06-.07-.09-.07-.21-.13-.01-.01.2-.04.08-.06.05-.07.02-.08-.03-.08-.05-.12-.19-.03-.11h-.12l.85-1.17.03-.07-.01-.06-.05-.04-.07-.01-.15.04-.2.13-.89 1.19h-.12l.83-1.17.02-.06-.01-.06-.05-.03h-.12l-.19.09-.1.08-.86 1.19-.12.02.02.21-.03.09-.05.06-.11.04-.11-.05-.08-.07-.11-.21-.12.03.03.17-.02.13-.05.07-.07.04h-.07l-.08-.04-.11-.11-.08-.16-.12.04.04.21-.02.1-.05.07-.06.04h-.07l-.09-.03-.07-.05-.07-.1-.05-.1-.12.04.05.22-.02.1-.04.07-.06.05-.07.01-.08-.03-.1-.08-.11-.17-.11.05.06.22-.02.1-.06.11-.1.03-.08-.01-.08-.06-.08-.08-.05-.1-.11.06.67-1.11.02-.05-.01-.04h-.04l-.06.02-.12.1-.16.18-.7 1.14-.1.06.07.22-.01.1-.05.12-.09.05-.08-.01-.11-.06-.12-.14-.09.07.6-1.04.04-.09-.01-.02-.13.08-.22.26-.65 1.11-.09.09.58-1.03.04-.09-.01-.01-.08.05-.11.12-.19.26-.58 1.03-.09.08.09.21.01.11-.01.1-.04.06-.06.05-.13-.01-.12-.08-.07-.08-.08.1.59-1.06-.04.02-.08.09.29-.37-.21.28"/><path id="path382" d="M67 162.43l.61-1.07.2-.27.12-.12-.04.11-.56.99"/><path id="path384" d="M66.99 163.01l.03-.07.01-.1-.01-.1-.1-.21"/><path id="path386" d="M67.42 161.99l.15.14.08.04h.08l.06-.04.05-.07.02-.09-.01-.11-.08-.2"/><path id="path388" d="M67.86 161.57l.06.09.12.09.13.02.06-.03.05-.06.02-.13-.03-.18-.04-.1"/><path id="path390" d="M67.33 161.67l.06-.09"/><path id="path392" d="M67.68 161.21l.21-.28-.21.28"/><path id="path394" d="M67.33 161.5l.4-.68.78-.72-.62.83.58-.78-.73 1.02"/><path id="path396" d="M67.26 161.63l-.18.3.18-.3"/><path id="path398" d="M67.25 161.65l-.04.06"/><path id="path400" d="M67.88 160.98l.41-.58"/><path id="path402" d="M68.74 184.34l.06-.05.07-.02.08.01.11.06"/><path id="path404" d="M68.25 183.66l.07-.04.07-.02.09.01.06.04"/><path id="path406" d="M68.32 161.2l.68-1.13.23-.25.1-.07h.04v.03l-.03.09-.63 1.05"/><path id="path408" d="M69.21 160.62l.06.21-.01.11-.03.08-.05.06-.07.02-.13-.04-.11-.11-.06-.09"/><path id="path410" d="M69.35 159.33l-.84.77"/><path id="path412" d="M69.76 185.63l.06-.06.07-.04h.08l.08.03.1.1"/><path id="path414" d="M69.6 185.01l-.07-.06-.08-.03-.08-.01-.07.03-.06.06"/><path id="path416" d="M69.32 160.56l.72-1.15.08-.1.17-.13.11-.05h.04l.01.04-.04.1-.68 1.08"/><path id="path418" d="M69.84 160.3l.75-1.16.09-.09.17-.13.11-.04.04.01.01.04-.04.11-.7 1.09"/><path id="path420" d="M71.29 186.86l-.04-.08-.08-.07-.12-.04-.07.01-.07.05-.05.07"/><path id="path422" d="M70.72 186.27l-.1-.11-.12-.05-.08.01-.07.04-.05.07"/><path id="path424" d="M70.83 159.95l.73-1.12.04-.1-.01-.04-.05-.02-.11.03-.11.07-.16.14-.77 1.18"/><path id="path426" d="M70.95 159.91l.8-1.18.09-.08.18-.12.12-.02.05.03.01.04-.05.12-.75 1.11"/><path id="path428" d="M70.83 157.96l.94-.41 2.36-.88 2.58-.18 2.71.53 2.71 1.22 2.62 1.86 2.41 2.43 2.1 2.88 1.71 3.23 1.25 3.45.74 3.52.19 3.44-.35 3.23-.9 2.89-1.39 2.42-1.84 1.86-2.2 1.23-1.61.61"/><path id="path430" d="M72.48 187.93l-.09-.16-.11-.08-.08-.01-.07.02-.07.06-.04.08"/><path id="path432" d="M71.88 187.41l-.1-.16-.07-.04-.09-.02-.08.02-.06.05-.04.07"/><path id="path434" d="M71.52 159.78l.83-1.18.19-.15.09-.04.13-.01.04.02.01.05-.02.08-.8 1.16"/><path id="path436" d="M72.11 159.69l.04.11.13.17.08.05.08.01.07-.02.05-.06.04-.09v-.1l-.01-.11"/><path id="path438" d="M73.09 188.41l-.02-.07-.08-.11-.12-.09h-.09l-.07.03-.05.06-.04.08"/><path id="path440" d="M73.2 159.64l-.01.21-.03.08-.06.05-.07.02-.08-.01-.08-.05-.12-.18-.04-.11"/><path id="path442" d="M74.33 189.26l-.05-.14-.06-.09-.07-.06-.08-.03h-.08l-.07.05-.05.07-.02.09"/><path id="path444" d="M73.71 188.86l-.03-.11-.06-.09-.07-.06-.09-.04h-.08l-.07.03-.05.07-.03.09"/><path id="path446" d="M73.32 159.64l.92-1.19.2-.12.16-.03.07.02.04.04.01.06-.02.08-.89 1.17"/><path id="path448" d="M73.94 159.68l.95-1.18.2-.12.1-.02.13.02.05.05.01.07-.03.07-.91 1.17"/><path id="path450" d="M74.96 189.63l-.06-.19-.08-.1-.1-.05h-.12l-.06.05-.05.07-.02.09"/><path id="path452" d="M75.1 189.83l.02-.1.04-.08.06-.05.12-.01.11.06.07.09.08.21"/><path id="path454" d="M75.7 160.01l-.01.11-.03.09-.05.06-.07.04-.07-.01-.08-.03-.08-.07-.07-.13-.05-.18"/><path id="path456" d="M74.56 159.76l.98-1.18.11-.07.1-.04.1-.01.14.03.04.06.01.06-.03.09-.95 1.16"/><path id="path458" d="M75.73 190.11l.02-.1.03-.08.06-.06.11-.02.12.06.07.08.06.09.03.16"/><path id="path460" d="M76.87 190.48l-.05-.19-.05-.09-.12-.1-.08-.03-.1.03-.06.06-.03.09-.01.1"/><path id="path462" d="M76.33 160.22l.99-1.13.05-.11-.01-.07-.04-.06-.07-.05h-.17l-.11.03-.1.06-1.04 1.16"/><path id="path464" d="M94.65 157.74l-.35.31-.87.37 2.85 1.12.51-2.09.21-1.89-.12-2.1-.34-1.42-.74-1.66-.81-1.09-1.29-1.14-1.49-.8-1.78-.51-.47-.08-2-.09-2.13.24-2.43.64-2.29.93-.5.25-2.35 1.36-2.24 1.63 2.02.73.15-.22.17-.18 1.15-.5-1.16 1.02.24.09 1.05-.96 1.86-1.41-.49.21-.68.38-.44.34-.38.33"/><path id="path466" d="M77 190.55l.01-.1.03-.09.05-.07.07-.03h.07l.08.04.08.07.06.09.06.22.98.26-.98-.26"/><path id="path468" d="M77.1 160.51l.03.22.05.1.07.08.07.05.08.02.08-.02.06-.05.04-.08.02-.09"/><path id="path470" d="M76.46 160.26l.04.22.06.1.07.07.08.05.07.02.08-.03.05-.05.04-.09.02-.1"/><path id="path472" d="M77.03 150.7l1.2-.91 1.59-1.05-2.04-1.74.7-.3 1.9-.61 2.26-.36 2.46-.1.92.01-3.68 1.46-2.52 1.64"/><path id="path474" d="M78.6 190.97l-.11-.03.37.08-.25-.05.13.02"/><path id="path476" d="M80.11 190.91l-.01-.21.04-.09.05-.06.11-.02.12.06.07.08.1.2 1.16.28.1.04-.04.03-.14.01-.32-.02-1.24-.3-.12.01-.09-.21-.07-.08-.12-.07h-.08l-.09.07-.04.08-.01.11.01.1h-.12l1.1.28.07.02.01.03-.18-.01-.31-.05-1.18-.3-.13-.01-.07-.21-.07-.09-.07-.05-.09-.04-.07.01-.07.04-.04.08-.02.1v.1l-.12-.02 1.09.3h.03l.01-.01"/><path id="path478" d="M78.26 190.82l1.16.3.39.07h.11l-1.16-.31"/><path id="path480" d="M77.63 190.71l.01-.11.02-.09.05-.07.06-.04h.08l.08.03.08.07.1.19.03.11"/><path id="path482" d="M78.23 161.06l-.03.09-.04.08-.06.04-.08.01-.08-.02-.08-.06-.06-.08-.05-.1-.02-.22"/><path id="path484" d="M78.36 161.13l1.08-1.05.07-.05.12-.05.11-.02.17.05.07.06.04.08-.01.08-.03.09-1.13 1.1"/><path id="path486" d="M78.36 152.05l.13-.1-.64.43"/><path id="path488" d="M78.04 152.45l.31.12"/><path id="path490" d="M78.49 151.95l.29-.2 1.55-.87"/><path id="path492" d="M77.78 147l-.03-.03"/><path id="path494" d="M79.23 191.1l-.17-.03"/><path id="path496" d="M78.86 191.02l-.25-.05"/><path id="path498" d="M79.5 190.92l1.19.3.34.04h.13l.05-.02-.09-.04-1.13-.28"/><path id="path500" d="M79.38 190.92l-.08-.21-.07-.08-.08-.06-.08-.02-.07.01-.06.05-.04.08-.02.1.01.1"/><path id="path502" d="M78.98 161.5l1.11-1.03.08-.06.11-.04.12-.01.16.05.07.07.04.08-.01.09-.05.1-1.14 1.07"/><path id="path504" d="M79.5 152.96l-.03.03-.31-.12 1.96-1.71.87-.67 1.28-.87.84-.26-1.98 1.38-2.63 2.22 3-2.8"/><path id="path506" d="M79.16 152.87l-.57-.21"/><path id="path508" d="M79.47 152.99l2.08.8 2.45-2.16 1.2-.93 2.71-1.82.68.07-1.15.69-.38.25-2.78 2.08-2.25 2"/><path id="path510" d="M80.56 191.25l.47.01h-.09"/><path id="path512" d="M79.92 191.19v-.01"/><path id="path514" d="M80.2 162.35l-.02.09.01.11.03.11.06.09.06.08.08.04.08.01.08-.02.06-.06.04-.08"/><path id="path516" d="M80.08 162.25l1.18-1.06.04-.08.01-.1-.04-.09-.06-.07-.17-.06-.11.01-.12.04-.08.05-1.14 1.01"/><path id="path518" d="M87.91 148.88l-2.01.09-.14.02-2.19 1.49-1.07.83-2.26 1.98"/><path id="path520" d="M80.37 127.56l.12-7.15"/><path id="path522" d="M81.18 190.78l1.17.27.08.03.04.02-.01.03-.17.03-.31-.01-1.27-.29-.02-.22.03-.09.05-.06.11-.03.12.05.07.07.11.2.12-.02-.03-.22.02-.09.05-.07.1-.04.11.04.09.07.11.2.12-.03-.04-.22.02-.1.05-.07.1-.04.12.03.07.06.12.19.12-.04-.05-.21.02-.1.04-.08.06-.04.07-.01.08.02.09.07.12.18.11-.05-.06-.22.01-.1.04-.08.09-.06.12.02.08.05.13.18.11-.06 1.37.24.23-.01.18-.06.07-.07-.01-.05-.05-.03-1.39-.26.1-.06-.07-.22v-.1l.03-.09.05-.06.07-.02.08.01.09.04.14.17.09-.08-.07-.21-.01-.11.05-.12.09-.06.08.01.09.04.14.15 1.36.2.13.06.01.05-.05.09-.07.04-.11.04-.22.03-1.42-.21"/><path id="path524" d="M81.3 190.76l1.27.28.33.01.13-.03.04-.02v-.03l-.09-.05-1.23-.27"/><path id="path526" d="M80.71 190.86l-.1.02"/><path id="path528" d="M81.38 163.34l1.22-.95.09-.05.11-.02h.12l.1.05.06.04.06.08.02.1-.01.09-.05.1-1.26.99"/><path id="path530" d="M81.26 163.23l-.04.07-.06.05-.08.02-.08-.01-.08-.05-.06-.08-.05-.1-.03-.11v-.1l.02-.1"/><path id="path532" d="M81.55 153.79l11.88 4.63"/><path id="path534" d="M80.65 153.44l2.02-1.79 2.74-2.06.68-.45.34-.2"/><path id="path536" d="M81.5 150.29l.93-.41.84-.26"/><path id="path538" d="M80.69 108.72l1.37 2.13 2.98 1.87 4.27 1.41 5.1.79 5.38.09 5.06-.62.78-.23"/><path id="path540" d="M82.31 190.47l1.24.27.11.05v.03l-.03.03-.13.04h-.31l-1.32-.27"/><path id="path542" d="M82.43 190.43l1.32.27h.13l.2-.02.13-.04.03-.04v-.03l-.12-.06-1.26-.25"/><path id="path544" d="M87.79 178.18l.17 1.59-.74 4.4-1.92 3.44-2.75 2"/><path id="path546" d="M82.51 164.46l1.26-.9.1-.05.11-.01.12.02.15.1.06.09.02.1-.02.1-.06.09-1.31.94"/><path id="path548" d="M81.95 163.88l-.03.09v.1l.01.11.05.1.06.09.07.05.09.03.08-.01.06-.04.05-.06"/><path id="path550" d="M82.19 130.74l3.34 1.77 4.53 1.27 5.22.62 5.35-.09 4.9-.8 3.92-1.41 2.52-1.87"/><path id="path552" d="M82.42 106.66l1.14 1.78 2.69 1.69 3.86 1.27 4.6.72 4.85.08"/><path id="path554" d="M82.97 190.21l1.35.25.11.01.22-.04.12-.05.03-.04-.01-.04-.04-.03-.08-.02-1.29-.25"/><path id="path556" d="M83.89 189.7l-.14-.17-.07-.05-.09-.01-.07.02-.05.05-.04.08v.11l.06.21"/><path id="path558" d="M83.56 165.7l-.04.07-.02.1.01.11.03.1.05.09.07.07.08.05.09.01.07-.03.06-.05"/><path id="path560" d="M83.46 165.56l1.34-.91.06-.08.02-.11-.02-.1-.05-.09-.15-.11-.11-.02-.12.01-.1.05-1.29.86"/><path id="path562" d="M83.06 154.37l2.57-2.25 1.26-.98 2.9-1.94.62.19-1.21.72-.31.21-2.8 2.07-2.49 2.19"/><path id="path564" d="M83.99 189.64l1.4.22.22-.02.11-.03.11-.07.02-.05-.01-.04-.05-.04-.08-.03-1.33-.21"/><path id="path566" d="M84.84 188.99l.09-.08-.08-.21-.01-.11.02-.09.05-.07.06-.03h.08l.08.03.08.06.07.09.09-.09 1.46.17.22-.05.09-.04.1-.1.02-.06-.02-.06-.06-.04-.09-.02-1.39-.16.08-.1-.1-.2-.01-.1.01-.11.03-.07.06-.05.08-.01.09.03.15.12.08-.1-.11-.2-.02-.11.02-.14.08-.09.07-.01.08.01.16.13.07-.11 1.52.09.21-.06.09-.06.06-.08.02-.12-.03-.06-.07-.04-.09-.02-1.44-.1.07-.11-.12-.19-.03-.11.01-.15.06-.1.08-.02h.07l.17.1.06-.12-.13-.18-.03-.11-.01-.11.05-.12.09-.06h.08l.17.09.05-.13 1.55.01.11-.03.1-.05.08-.08.06-.14-.02-.09-.03-.05-.08-.05-.09-.01-1.49-.02.05-.13 1.56-.02.11-.04.1-.06.07-.07.05-.09.01-.06-.01-.08-.05-.07-.09-.04h-1.58l.04-.14-.14-.17-.04-.1-.02-.1.01-.1.03-.08.06-.05.08-.01.18.06.02-.15-.14-.15-.05-.1-.02-.11v-.1l.03-.08.06-.05.07-.02.09.01.08.04.03-.15-.15-.15-.05-.1-.03-.16.01-.09.07-.09.08-.03h.08l.08.03.02-.15 1.59-.15.1-.05.09-.07.06-.09.03-.1v-.07l-.03-.09-.06-.07-.09-.04-.1-.01-1.52.15.02-.16-.09-.05-.07-.08-.06-.1-.04-.15.02-.14.04-.07.07-.04h.08l.09.02.01-.16-.09-.04-.08-.08-.06-.09-.03-.11-.02-.1.02-.09.04-.07.07-.05.09-.01.07.02v-.16l1.59-.27.1-.05.08-.09.05-.09.01-.11v-.07l-.05-.09-.07-.07-.09-.04-.13.01-1.5.24-.01-.17 1.52-.28.17-.08.08-.08.04-.11v-.17l-.06-.11-.06-.05-.1-.04-.18.02-1.44.27-.02-.17-.08-.03-.08-.06-.07-.08-.05-.1-.03-.1.01-.1.03-.09.05-.06.08-.03.08.01-.02-.17-.08-.03-.09-.05-.07-.08-.05-.1-.03-.1v-.1l.03-.08.05-.07.07-.03.08-.01-.03-.17 1.58-.41.09-.07.06-.09.04-.11v-.11l-.02-.07-.06-.09-.09-.07-.1-.03-.11.01-1.5.39-.04-.16-.08-.02-.09-.04-.07-.08-.06-.09-.04-.1v-.1l.01-.09.05-.07.07-.05.07-.02-.04-.16-.08-.01-.09-.04-.07-.07-.07-.09-.05-.15.02-.14.04-.08.06-.05.08-.02-.05-.17 1.55-.53.08-.08.06-.09.02-.12-.04-.18-.07-.08-.1-.06-.1-.02-.11.01-1.48.5-.05-.16h-.08l-.09-.03-.08-.06-.1-.13-.03-.1v-.15l.03-.08.06-.06.07-.04-.06-.16 1.52-.61.08-.07.05-.1.02-.12-.03-.11-.03-.07-.08-.08-.09-.05-.11-.02-.11.02-1.46.57-.06-.16"/><path id="path568" d="M84.54 167.04l1.36-.78.1-.03.11-.01.11.04.1.07.04.05.05.11v.1l-.03.11-.06.08-1.41.82"/><path id="path570" d="M84.06 166.36l1.34-.81.1-.04.11-.01.11.03.1.07.05.05.04.1.02.11-.03.1-.06.09-1.39.85"/><path id="path572" d="M84.78 155.03l2.58-2.26 1.28-.99 2.81-1.9.84.5 1.02 1.04-.63.37-.41.28-2.77 2.08-2.13 1.9"/><path id="path574" d="M84.11 149.36l.5-.15 1.15-.22"/><path id="path576" d="M85.34 190.04l-.01-.02"/><path id="path578" d="M84.93 188.91l1.44.19.22-.04.1-.04.11-.09.01-.06-.02-.05-.05-.03-.09-.03-1.37-.18"/><path id="path580" d="M85.78 188.03l1.48.15.22-.05.09-.05.09-.11.01-.06-.02-.06-.06-.04-.09-.02-1.41-.15"/><path id="path582" d="M85.37 188.49l-.09-.21-.01-.11.01-.09.04-.07.06-.04.08-.01.09.03.15.14"/><path id="path584" d="M85.84 169.22l1.41-.67.09-.03h.13l.1.05.09.07.04.07.03.11v.11l-.04.1-.07.08-1.47.72"/><path id="path586" d="M85.76 169.07l-.07.03h-.09l-.08-.03-.08-.06-.06-.09-.04-.1-.01-.1.01-.1.04-.09.05-.05"/><path id="path588" d="M85 167.75l-.05.06-.04.09v.1l.02.11.04.09.06.09.08.05.09.03.08-.01.07-.03"/><path id="path590" d="M91.99 150.21l-1.04.61-.33.22-2.8 2.08-2.43 2.15"/><path id="path592" d="M86.52 187.02l-.11-.2-.02-.11v-.1l.03-.08.05-.06.07-.02.09.01.08.05.08.06"/><path id="path594" d="M86.17 187.54l1.49.12.22-.06.09-.05.09-.12v-.06l-.02-.05-.06-.05-.1-.02-1.43-.12"/><path id="path596" d="M86.86 186.46l1.52.07.21-.08.09-.06.08-.13-.01-.07-.03-.07-.07-.04-.1-.02-1.45-.07"/><path id="path598" d="M86.9 171.55l-.06.04-.06.07-.03.09v.1l.03.1.05.1.06.07.09.06.08.02.08-.01"/><path id="path600" d="M86.51 170.6l-.08.02-.09-.01-.08-.04-.07-.07-.06-.09-.03-.1-.01-.11.02-.09.05-.08.06-.04"/><path id="path602" d="M92.88 150.98l-2.45 1.65-1.23.95-2.51 2.2"/><path id="path604" d="M86.02 145.64l.9-.36 3.04-1.14 4.81-.83 1.67-.12"/><path id="path606" d="M87.16 185.87l1.54.04.11-.03.1-.05.08-.07.07-.13-.01-.08-.03-.06-.08-.05-.09-.02-1.47-.04"/><path id="path608" d="M87.43 185.25l-.13-.18-.04-.1-.01-.11.02-.09.04-.07.07-.03.08-.01.08.03.08.05"/><path id="path610" d="M87.67 184.61l-.13-.17-.05-.11-.01-.1.01-.1.04-.07.07-.04.07-.01.09.02.08.05"/><path id="path612" d="M87.88 183.94l1.57-.05.11-.04.09-.06.08-.09.05-.15-.02-.08-.05-.07-.09-.04-.09-.02-1.49.05"/><path id="path614" d="M88.2 176.26l-.08-.02-.08-.04-.08-.08-.06-.09-.03-.11v-.1l.02-.09.05-.06.07-.05.08-.01"/><path id="path616" d="M87.46 175l-.02-.14"/><path id="path618" d="M87.87 174.63l1.56-.5.09-.07.06-.09.02-.12-.01-.11-.02-.07-.07-.09-.09-.06-.1-.02-.11.01-1.49.47"/><path id="path620" d="M87.91 174.79l1.5-.42.1-.01.11.02.09.06.06.09.03.07v.12l-.03.11-.06.09-.09.07-1.57.46"/><path id="path622" d="M87.42 173l1.53-.57.08-.08.06-.1.01-.11-.02-.11-.03-.07-.07-.09-.09-.05-.11-.02-.11.02-1.47.53"/><path id="path624" d="M87.47 173.16l-.07.03-.06.06-.04.08-.01.09.01.11.05.1.06.08.08.06.09.04h.08"/><path id="path626" d="M88.06 183.24l1.58-.08.11-.04.09-.07.07-.08.04-.16-.02-.09-.06-.07-.08-.04-.1-.01-1.51.08"/><path id="path628" d="M88.21 182.53l1.58-.12.11-.04.09-.08.06-.08.04-.1v-.07l-.03-.08-.06-.07-.08-.04-.12-.01-1.5.1"/><path id="path630" d="M88.32 181.79l-.15-.14-.05-.09-.04-.11v-.1l.03-.08.05-.07.07-.03h.08l.08.03"/><path id="path632" d="M88.41 181.04l1.59-.19.1-.05.08-.08.06-.09.02-.11v-.06l-.03-.09-.06-.07-.1-.04-.1-.01-1.52.18"/><path id="path634" d="M88.17 180.52l1.7-.19"/><path id="path636" d="M88.47 179.65l1.53-.21.11.01.08.03.07.07.04.09v.07l-.02.1-.05.1-.08.08-.1.05-1.59.23"/><path id="path638" d="M88.47 179.49l-.08-.04-.08-.07-.07-.09-.04-.11-.01-.1.01-.09.04-.08.06-.05.08-.02.08.02"/><path id="path640" d="M88.45 178.69l-.08-.03-.08-.07-.07-.08-.05-.1-.01-.11v-.09l.04-.08.06-.06.07-.02.09.01"/><path id="path642" d="M88.4 177.89l1.59-.34.09-.06.08-.09.04-.1.01-.11-.02-.07-.05-.09-.08-.07-.11-.04-.09.01-1.52.32"/><path id="path644" d="M88.23 176.43l1.51-.35.1-.01.11.03.08.07.06.09.01.07v.11l-.04.11-.07.09-.09.06-1.58.38"/><path id="path646" d="M88.81 156.61l2.35-2.06 1.12-.86 1.69-1.15"/><path id="path648" d="M88.59 148.95l.61.07.59.18"/><path id="path650" d="M94.26 153.12l-2.5 1.84-2.21 1.94"/><path id="path652" d="M91.15 157.52l2.09-1.82.94-.73.48-.33"/><path id="path654" d="M91.45 149.88l-.61-.36-.43-.13"/><path id="path656" d="M94.75 155.51l-2.47 2.01-.32.32"/><path id="path658" d="M93.31 151.42l.08.08.2.28.73 1.46.4 1.67.07 1.87-.28 2.06"/><path id="path660" d="M94.06 189.85l.02.04.29.15.28.05.35-.02.47-.1.45-.16.48-.25.56-.45.19-.2.39-.71.03-.12-.02-.72-.26-.4-.28-.15-.25-.03-.25.02-.29.1-.39.2-.35.25-.22.19-.68.7-.44.65-.2.66.12.3"/><path id="path662" d="M94.17 190.07l.48.02 2.18-.04"/><path id="path664" d="M94.3 158.05l-.56.49"/><path id="path666" d="M104.08 143.55l1.53.3 3.03 1.36 2.92 2.08 2.68 2.7 1.93 2.2 2.55 4.26 1.6 4.75.01.09.37-.67.54-3.19-.37-3.54-1.25-3.51-1.98-3.1-2.5-2.35-2.76-1.34-2.7-.2-2.69 1.08"/><path id="path668" d="M105.77 141.61l3.03-1.25 3.46.26 3.52 1.72 3.21 3.01 2.53 3.97 1.6 4.49.48 4.53-.69 4.09-1.78 3.19-.34.24"/><path id="path670" d="M112.83 126.77l.04-1.58.54-.23 1.52-.39 1.41.17 1.21.72 7.51 6.78.97 1.31.59 1.77.17 2.11-.09 3.83 4.25-1.82"/><path id="path672" d="M112.87 125.19l.16-7.21"/><path id="path674" d="M113 119.39l1.43-.61"/><path id="path676" d="M115.93 137.1l1.07-.25 3.47.25 3.52 1.73 2.71 2.43"/><path id="path678" d="M120.83 166.55l-.11-1.97-.39-3.29"/><path id="path680" d="M134.78 146.21l.31.9"/></g><g id="g682" stroke-width=".317"><path id="path684" d="M78.86 191.02l.2.05-.57-.13-1.49-.39-.13-.04v-.03l-.63-.18-.01-.06-.5-.13-.13-.06v-.1l-.5-.12-.13-.07-.01-.13-.49-.13-.13-.06-.01-.18-.48-.11-.13-.08-.01-.21-.48-.11-.13-.09.02-.1-.03-.15-.47-.1-.12-.09.01-.1-.03-.19-.46-.09-.12-.1.02-.09v-.11l-.04-.13-.44-.08-.12-.1.02-.09.01-.11-.06-.17-.43-.06-.11-.12.03-.08v-.11l-.01-.11-.05-.1-.42-.05-.11-.12.04-.09.01-.1-.02-.11-.06-.15-.4-.03-.11-.13.04-.08.02-.1-.01-.11-.04-.1-.05-.09-.37-.02-.1-.13.04-.08.02-.1-.01-.1-.05-.16-.08-.09h-.32l-.1-.13.04-.08.03-.09-.01-.11-.02-.1-.05-.09-.09-.09-.29.01-.09-.14.04-.07.03-.09.01-.1-.03-.11-.04-.09-.07-.08-.07-.04-.24.02-.09-.15.05-.06.04-.09v-.1l-.02-.1-.04-.1-.06-.08-.08-.06-.05-.01-.19.03-.08-.15.05-.06.04-.09.01-.09-.01-.11-.04-.1-.06-.08-.08-.07-.08-.03-.16.03-.08-.15.06-.05.04-.08.02-.1-.01-.1-.04-.11-.06-.08-.07-.07-.09-.04h-.07l-.09.02-.07-.15.06-.05.05-.08.02-.09-.01-.1-.03-.11-.06-.09-.07-.07-.09-.04-.08-.01-.08.02-.07-.16.07-.04.05-.08.02-.09v-.1l-.03-.1-.05-.09-.07-.08-.09-.05-.08-.01-.08.01-.06-.16.06-.04.06-.07.03-.08-.01-.16-.07-.14-.06-.08-.09-.05-.08-.02h-.08l-.06-.16.13-.1.03-.08.01-.1-.03-.1-.04-.1-.07-.08-.08-.06-.09-.03-.08.01-.05-.17.14-.1.03-.06.01-.1-.02-.1-.04-.1-.06-.09-.08-.06-.09-.03-.08-.01-.05-.16.18-.15.02-.1-.02-.1-.03-.1-.14-.16-.09-.03-.08-.01-.04-.17.19-.18.01-.1-.02-.1-.08-.14-.07-.07-.09-.05-.08-.01-.04-.17.22-.22v-.04l-.02-.1-.07-.15-.07-.07-.09-.05-.08-.02-.03-.17.23-.25-.03-.14-.05-.1-.07-.08-.09-.05-.08-.03-.02-.16.24-.29-.06-.17-7.36-2.84-2.62-1.24-1.88-2.6-.94-3.69.05-1.98-.03-.13.08-3.44.9-3.61 1.62-3.39 2.16-2.79.37-.28.89-1.15 3.13-2.4 3.18-1.01 2.89.5 5.94 2.3 2.6-1.12 1.91-.61 2.26-.36 2.46-.1 13.28.2 1.01.07"/><path id="path686" d="M78.92 191.04l-.31-.08.34.08"/><path id="path688" d="M79.06 191.07l1.54.39 2.43-.09 2.67.52 3.07.21 4.78-.11 3.11-.67 4.81-1.12 4.46-2.06 2.86-1.58 3.89-2.88 2.94-2.95"/><path id="path690" d="M112.83 126.77l-.03 1.33-.83 2.13-1.46 1.15-2.28 1.7-3.56 1.28-4.45.72-4.86.08-4.75-.56-4.11-1.15-3.03-1.61-1.28-1.1-1.79-2.09-.05-2.18.14-6.06.2-11.69.39-2.16.21-.26"/><path id="path692" d="M96.44 143.19l1.51-.1 4.64.17 1.49.29 1.69-1.94 10.16-4.51.09-3.83-.16-2.11-.59-1.77-.98-1.31-1.46-1.31"/><path id="path694" d="M115 181.36l1.44-1.44.82-1 .86-1.22 1.02-1.6.4-.85 1-3.22.4-3.6-.11-1.88"/><path id="path696" d="M118.21 118.23l1.18.7 9.98 9.01.98 1.3.59 1.77.17 2.12-.16 6.31.5.58 2.54 3.96.79 2.23.28.67.03.23.49 1.37.48 4.53-.69 4.08-1.78 3.19-2.68 1.95-10.08 4.32"/></g></g><g id="Actor_.10" stroke="#000"><g id="g699" stroke-width=".106"><path id="path701" d="M21.21 86.54l-.62-1.3-.29-1.42.11-1.34.49-1.11.81-.76 1.06-.35 1.18.13 1.18.58 1.05.97.34.53.46.72.47 1.4.09 1.4-.3 1.24-.66.95-.44.34-.51.22-1.13.11-1.2-.36-1.13-.78-.96-1.17"/><path id="path703" d="M26.58 89.31l.53-.4.8-1.15.36-1.49-.11-1.68-.57-1.68-.96-1.5-1.26-1.16-1.41-.7-1.42-.15-1.27.41"/></g><g id="g705" stroke-width=".317"><path id="path707" d="M45.88 79.24l-19.3 10.07-.61.27-1.36.13-1.43-.43-1.36-.94-1.13-1.35-.77-1.62-.32-1.58-.02-.12.12-1.6.59-1.34.98-.92 19.3-10.07"/><path id="path709" d="M48.22 65.74l10.67-5.57"/><path id="path711" d="M68.8 67.27l-6.06 3.16"/><path id="path713" d="M66.54 56.18l84.2-43.95"/><path id="path715" d="M156.05 21.73L81.06 60.87"/><path id="path717" d="M173.37.45l-.14.04-14.84 7.75"/><path id="path719" d="M179.31 9.26l-.23.33-.54.4-5.62 2.94"/><path id="path721" d="M174.81.12l-.31-.04-.36.12"/><path id="path723" d="M176.22.39l-.3-.15-.41-.05"/><path id="path725" d="M177.6 1.18l-.27-.25-.4-.2"/><path id="path727" d="M178.8 2.41l-.21-.32-.39-.36"/><path id="path729" d="M179.98 8.01l-.11.43-.17.25"/><path id="path731" d="M180.2 6.36l.03.59-.07.32"/><path id="path733" d="M179.96 4.79l.17.49.02.36"/><path id="path735" d="M179.26 3.13l.3.47.12.36"/></g></g><g id="Actor_.11" stroke="#000"><g id="g738" stroke-width=".106"><path id="path740" d="M111.16 113.48l.34 1.36.71 1.32.98 1.07 1.16.71 1.19.27 1.11-.2.9-.64.6-1.02.23-1.28-.17-1.41-.54-1.39-.86-1.2-1.08-.9-1.17-.49-1.19-.05-.53.16-.49.27-.76.84-.41 1.16-.02 1.42"/><path id="path742" d="M117.03 118.83l1.08-.77.72-1.22.27-1.54-.19-1.69-.65-1.66-1.03-1.45-1.3-1.08-1.43-.6-1.4-.04-.64.18"/><path id="path744" d="M264.33 29.7l.09-.05"/></g><g id="g746" stroke-width=".317"><path id="path748" d="M117.68 118.49l-.65.34-1.33.24-1.43-.33-1.39-.85-1.18-1.28-.85-1.58-.43-1.7.04-1.63.5-1.4.92-1.01.58-.33 19.31-10.08"/><path id="path750" d="M117.74 118.46l18.6-9.71"/><path id="path752" d="M138.98 95.12l11.11-5.8"/><path id="path754" d="M147.16 103.11l12.47-6.51"/><path id="path756" d="M157.3 85.56l84.64-44.18"/><path id="path758" d="M246.52 51.25l-81.04 42.3"/><path id="path760" d="M249.15 37.62l15.27-7.97.64-.19 1.28.04"/><path id="path762" d="M257.33 45.6l11.66-6.09 1.09-.76.71-1.23.27-1.59-.19-1.64-.65-1.66-1.03-1.45-1.3-1.08-1.47-.6"/></g></g><g id="Actor_.12" stroke="#000"><g id="g765" stroke-width=".106"><path id="path767" d="M39.94 92.9l1.16.38-.83 1.15-14.85-4.8"/><path id="path769" d="M28.52 89.21l-1.08-.35"/><path id="path771" d="M29.54 87.76v.14"/><path id="path773" d="M29.75 89.61l8.95 2.89"/><path id="path775" d="M34.5 71.67l1.46.47"/><path id="path777" d="M39.71 91.19l.03-1.28-.25-.14-.21-.07-.25-.02-.03 1.27"/><path id="path779" d="M47.58 75.89l4.36 1.41-.1 4.15-10.82 14.89"/><path id="path781" d="M41.1 93.28l9.3-12.79.05-2-.54-.17-.24.5L48.34 80l-1.68.88-1.71.49-1.89-.25-.4-.21"/><path id="path783" d="M46.66 80.88l1.33-1.18.82-1.74 1.1.36"/><path id="path785" d="M45.67 79.34l.03-.01"/><path id="path787" d="M46.78 78.36l-.1.19-.16.12"/><path id="path789" d="M47.25 77.52l.08-.16.04-.2"/><path id="path791" d="M56.18 79.18l-4.34 2.27"/><path id="path793" d="M51.94 77.3l.08-.04"/></g><g id="g795" stroke-width=".317"><path id="path797" d="M23.61 89.41l-.03 1.3 17.44 5.63 4.34-2.27 10.82-14.89.06-2.16"/><path id="path799" d="M34.58 71.63l-.08.04-1.44 1.99"/><path id="path801" d="M47.38 77.09l-.01.07"/><path id="path803" d="M47.56 76.04l.02-.15"/></g></g><g id="Actor_.13" stroke="#000"><g id="g806" stroke-width=".106"><path id="path808" d="M23.14 101.89l.08.23.25.21.17.08"/><path id="path810" d="M23.86 102.5l18.9 6.1.5.12.56.05.56-.02.51-.09.41-.15 13.02-6.8.27-.2.09-.22"/><path id="path812" d="M46.09 102.38l-.18-.11-.35-.54.04-.31"/><path id="path814" d="M53.63 101.59l.06.24-.31.53-.31.19"/></g><g id="g816" stroke-width=".317"><path id="path818" d="M55.23 99.79l2.72.88.4.17.25.22.08.23-.04 1.65-.09.23-.27.2-13.02 6.79-.41.16-.51.09-.56.02-.29-.03-.27-.02-.5-.12-18.9-6.1-.39-.17-.09-.08-.16-.13-.09-.23.05-1.66.09-.23.27-.19.08-.05"/><path id="path820" d="M46.09 102.38l.58.35 1.07.35 1.28.19 1.35.02 1.26-.16 1.04-.33.4-.25"/></g></g><g id="Actor_.14" stroke="#000"><g id="g823" stroke-width=".106"><path id="path825" d="M157.91 141.58l-.09.23-.27.2-3.25 1.7-.41.15-.51.09-.56.02-.56-.05-.5-.12-18.9-6.1-.39-.17-.25-.21-.08-.23"/><path id="path827" d="M156.78 132.96l-.09.23-.27.2-.24.12"/></g><g id="g829" stroke-width=".317"><path id="path831" d="M156.01 140.59l1.17.38.4.17.25.21.08.23-.04 1.66-.09.23-.27.19-3.25 1.7-.41.16-.51.09-.56.02-.56-.05-.5-.12-18.9-6.1-.39-.17-.25-.21-.08-.23.04-1.66.09-.23.27-.19 2.31-1.21"/><path id="path833" d="M156.14 135.17l.24-.12.27-.2.09-.23.04-1.66-.08-.22-.25-.22-.24-.1"/></g></g><g id="Actor_.15" stroke="#000"><g id="g836" stroke-width=".106"><path id="path838" d="M125.34 101l1.46.48"/><path id="path840" d="M131.6 111.24l6.08 13.22-1.68.88-6.08-13.23"/><path id="path842" d="M137.49 110.21l1.68-.88 1.34-1.17.24-.51-1.1-.36-.83 1.74-1.33 1.18-1.71.49-1.89-.25-.4-.2"/><path id="path844" d="M136 125.34l15.2 4.91.03-1.41-.12-.04"/><path id="path846" d="M136.47 108.69l.05-.02.55-.43"/><path id="path848" d="M137.68 124.46l2.03.66"/><path id="path850" d="M137.94 107.1l-.43.78-.01.01"/><path id="path852" d="M138.23 106.34l-.03.13"/><path id="path854" d="M138.17 106.67v.03l-.02.03"/><path id="path856" d="M142.86 106.59l-.08.04-4.36-1.4"/><path id="path858" d="M140 123.57l.03-1.27.36.05.36.18-.03 1.28"/><path id="path860" d="M149.87 128.4l-8.92-2.88"/><path id="path862" d="M140.75 107.65l1.1.36-.03 1.18.05-.05.2-.09.27-.05h.05l-.44-.96-.1-.03"/><path id="path864" d="M142.14 109.52l-.32-.22-.01.2.25.13.22.07.15.02-.29-.2"/><path id="path866" d="M141.82 109.3v-.11"/><path id="path868" d="M150.18 126.86l.02-.89-7.67-16.66-.01.42-.09-.01"/><path id="path870" d="M142.53 109.31l-.14-.31"/><path id="path872" d="M152.61 132.38l.1-4.15-9.93-21.6"/><path id="path874" d="M150.2 125.97l1.05 2.28-.02.59"/><path id="path876" d="M152.71 128.23l4.35-2.26"/></g><g id="g878" stroke-width=".317"><path id="path880" d="M125.42 100.96l-.08.04-.03 1.26"/><path id="path882" d="M147.12 104.38l9.94 21.59-.11 4.14-4.34 2.27-17.44-5.63-6.44-14.01"/><path id="path884" d="M138.23 106.34l.19-1.11"/></g></g><g id="Actor_.16" stroke="#000"><g id="g887" stroke-width=".106"><path id="path889" d="M235.51 43.5l1.47.47"/><path id="path891" d="M241.77 53.73l6.09 13.23-1.68.88-6.09-13.23"/><path id="path893" d="M243.67 52.74l.4.21 1.89.25 1.7-.49 1.69-.88 1.33-1.18.24-.51-1.1-.35-.82 1.74-1.34 1.18"/><path id="path895" d="M261.29 71.29l.12.04-.04 1.41-15.19-4.9"/><path id="path897" d="M247.24 50.73l-.54.44-.06.01"/><path id="path899" d="M247.86 66.96l2.01.65"/><path id="path901" d="M248.12 49.59l-.43.79-.02.01"/><path id="path903" d="M248.35 49.16l-.01.03-.02.03"/><path id="path905" d="M253.03 49.09l-.08.04-4.36-1.41"/><path id="path907" d="M250.18 66.07l.03-1.28.36.05.35.18-.03 1.28"/><path id="path909" d="M260.05 70.89l-8.94-2.88"/><path id="path911" d="M250.92 50.14l1.1.36-.03 1.18.05-.04.21-.09.26-.06h.05l-.44-.96-.1-.03"/><path id="path913" d="M251.99 51.99v-.2l.61.42-.15-.01-.22-.07-.24-.14"/><path id="path915" d="M251.99 51.68v.11"/><path id="path917" d="M252.6 52.21l.1.01.01-.41 7.66 16.66-.02.88"/><path id="path919" d="M252.56 51.49l.15.32"/><path id="path921" d="M262.79 74.87l.1-4.14-9.94-21.6"/><path id="path923" d="M260.37 68.47l1.05 2.28-.01.58"/><path id="path925" d="M262.89 70.73l4.34-2.27"/></g><g id="g927" stroke-width=".317"><path id="path929" d="M235.59 43.46l-.08.04-.03 1.25"/><path id="path931" d="M238.9 55.23l6.45 14.01 17.44 5.63 4.34-2.26.1-4.15-9.93-21.58"/><path id="path933" d="M248.4 48.83l.19-1.11"/></g></g><g id="Actor_.17" stroke="#000"><g id="g936" stroke-width=".106"><path id="path938" d="M231.61 85.54l.18.15.39.17 8 2.58.5.12.56.05.56-.02.51-.09.41-.15 3.25-1.7 2.04-.76 2.54-.46 2.81-.11 2.8.25 2.51.59 2.18.7.5.12.56.05.56-.02.51-.09.41-.15 3.25-1.7.27-.2.09-.23"/><path id="path940" d="M236.49 84.62l-.04.08.14.54.44.4"/><path id="path942" d="M244 85.81l.5-.47.08-.51"/></g><g id="g944" stroke-width=".317"><path id="path946" d="M231.45 85.62l-.03 1.29.08.23.25.21.39.17 8 2.58.5.12.56.05.56-.02.51-.09.41-.16 3.25-1.7 2.04-.76 2.54-.45 2.81-.11 2.79.25 2.52.59 2.18.7.5.12.56.05.56-.02.51-.09.41-.15 3.25-1.7.27-.2.09-.23.04-1.66-.08-.22-.25-.22-.4-.17-.11-.04"/><path id="path948" d="M244 85.81l-.02.02-.89.39-1.17.25-1.32.07-1.33-.11-1.19-.27-.93-.41-.12-.11"/></g></g><g id="Actor_.18" stroke="#000"><g id="g951" stroke-width=".106"><path id="path953" d="M144.68 14.16l1.46.48"/><path id="path955" d="M156.83 23.37l1.68-.87 1.34-1.18.24-.51-1.1-.35-.83 1.74-1.33 1.17-1.7.49-1.89-.25-.4-.2"/><path id="path957" d="M160.09 20.81l.53.18-.04 1.99-6.75 9.28"/><path id="path959" d="M166.36 21.68l-4.34 2.26-6.46 8.88"/><path id="path961" d="M155.88 21.82l-.02.01-.01.01"/><path id="path963" d="M156.7 21.17l.15-.13.11-.18"/><path id="path965" d="M157.54 19.65l-.03.21-.09.15"/><path id="path967" d="M162.02 23.94l.1-4.14-4.36-1.41"/><path id="path969" d="M162.12 19.8l.08-.05"/></g><g id="g971" stroke-width=".317"><path id="path973" d="M143.23 16.15l1.45-1.99.08-.04"/><path id="path975" d="M166.41 19.51l-.05 2.17-8.61 11.84"/><path id="path977" d="M157.54 19.65l.02-.08"/><path id="path979" d="M157.73 18.54l.03-.15"/></g></g><g id="Actor_.19" stroke="#000"><g id="g982" stroke-width=".106"><path id="path984" d="M21.35 85.33l-.25-.7"/><path id="path986" d="M20.96 83.93l-.06-.7"/><path id="path988" d="M21.09 81.94l-.14.63"/><path id="path990" d="M21.61 85.91l.47.7"/><path id="path992" d="M21.42 81.14l.09-.11"/><path id="path994" d="M22.15 80.46l-.1.06"/><path id="path996" d="M23.07 87.64l-.52-.47"/><path id="path998" d="M22.36 79.27l.39-.05"/><path id="path1000" d="M23.64 88.03l.58.27"/><path id="path1002" d="M24.12 79.21l-.41-.11-.37.05"/><path id="path1004" d="M25.46 88.52l-.64-.05"/><path id="path1006" d="M25.54 79.75l-.4-.26-.31-.09"/><path id="path1008" d="M26.42 88.3l-.46.17"/><path id="path1010" d="M26.84 80.78l-.32-.37-.31-.21"/><path id="path1012" d="M27.29 88.91l-.05.05"/><path id="path1014" d="M27.41 81.43l.25.29.23.46"/><path id="path1016" d="M28.31 87.71l-.12.29-.27.28"/><path id="path1018" d="M28.77 86.29l-.02.35-.16.39"/><path id="path1020" d="M28.29 82.97l.17.35.11.49"/><path id="path1022" d="M28.81 85.49l.03-.47-.08-.37"/><path id="path1024" d="M179.17 9.65l.03-.01"/></g><g id="g1026" stroke-width=".317"><path id="path1028" d="M41.08 69.5l-18.72 9.77-.24.15"/><path id="path1030" d="M27.21 88.97l18.75-9.79"/><path id="path1032" d="M48.25 65.75l11.15-5.82"/><path id="path1034" d="M62.73 70.43l6.07-3.16"/><path id="path1036" d="M66.57 56.19l84.68-44.2"/><path id="path1038" d="M156.14 21.68L81.05 60.87"/><path id="path1040" d="M174.23 0l-15.81 8.25"/><path id="path1042" d="M176.48 0l.63.17 1.36.9 1.15 1.33.81 1.6.37 1.7-.09 1.62-.55 1.36-.96.96-6.29 3.29"/></g></g><g id="Actor_.20" stroke="#000"><g id="g1045" stroke-width=".106"><path id="path1047" d="M34.55 69.42l.04.12.13.1.2.08 1.01.15 1.62-.25 1.51-.97-.18-.02-.43.03-.37.08-.29.12-.17.16-.02.18.11.17.04.02-.52.1-.5-.04-.18-.1-.11-.12v-.26"/><path id="path1049" d="M37.75 69.39l.18-.04.09-.03"/><path id="path1051" d="M40.97 67.5l-.86.45-1.53.17-.72.11.72-.07.83.03.27.05-.62.41"/><path id="path1053" d="M39.68 68.24l.43-.29"/><path id="path1055" d="M40.19 67.9l1.54-.31 1.65.26 90.84 29.33 1.64.81 1.5 1.29 2.52 3.38 1.58 1.29 1 .5.25.07.28.02.29-.01.25-.06.2-.07 3.26-1.7.13-.1.05-.11"/><path id="path1057" d="M40.67 69.7l.09-.07.12-.03"/><path id="path1059" d="M41.41 69.47l.2-.05"/><path id="path1061" d="M42.25 69.35l-.26-.03-.08.02"/><path id="path1063" d="M43.06 69.47l-.26-.04"/><path id="path1065" d="M43.3 69.5l.12.05"/><path id="path1067" d="M44.67 70.18l.02.01"/><path id="path1069" d="M45.9 71.32l.02.02"/><path id="path1071" d="M49.85 69.22l-.24-.34.06-.33.31-.3.55-.24.71-.15.81-.04.81.06.73.17.57.25.34.31.09.33-.19.32-.44.28-.63.19-.78.1-.82-.01-.78-.12-.65-.21-.45-.27"/><path id="path1073" d="M51.62 75.53l2.66.86"/><path id="path1075" d="M125.74 99.46l-.36-.12"/><path id="path1077" d="M127.71 94.39l.34.21.66.21.78.12.82.01.77-.1.64-.19.43-.28.19-.32-.08-.33-.35-.31-.57-.25-.73-.17-.81-.06-.81.04-.71.15-.55.24-.31.3-.05.33.22.33.12.07"/><path id="path1079" d="M131.55 99l.08-.04"/><path id="path1081" d="M132.59 98.71l.24-.06.53.08"/><path id="path1083" d="M134.25 98.88l-.07-.04-.19-.02"/><path id="path1085" d="M138.34 104.55l.04.35"/><path id="path1087" d="M138.22 103.57l-.01-.04"/><path id="path1089" d="M145.29 102.92l-.01-.31-.27-.32-.5-.28-.7-.19-.81-.1-.82.01-.76.13-.6.22-.14.11"/><path id="path1091" d="M143.86 103.66l-.72.03-.42-.05-.44-.11-.73-.35-.63-.57-.41-.72-.15-.78.03-.35.1-.33.16-.25.22-.18.28-.09.32.01.36.08.38.14.82.43.8.53.69.53.48.47.18.26.1.21.01.31"/><path id="path1093" d="M141.59 102.88l.03.04.25.15.35.12.41.06h.43l.41-.05.33-.1.23-.15.1-.17-.04-.17-.18-.16-.3-.14-.39-.08-.43-.04-.42.02-.38.08-.29.13-.16.16-.03.17.08.13"/></g><g id="g1095" stroke-width=".317"><path id="path1097" d="M35.96 72.14l-1.09-.35-.2-.09-.13-.1-.04-.12.05-2.06.05-.12.13-.1 3.26-1.7.2-.08.26-.04h.28l.28.02 1.26.2.7-.1 3.56-1.87 1.54-.3 1.66.26 90.83 29.33 1.65.81 1.49 1.28 2.52 3.39 1.58 1.28 1.2.6.13.1.04.11-.05 2.07-.05.11-.13.1-2.48 1.29-.78.41-.2.07-.25.05-.29.01-.28-.02-.25-.06-3.99-1.29-.01-.07"/><path id="path1099" d="M43.61 69.65l-.19-.1"/><path id="path1101" d="M44.67 70.18l-.43-.22"/><path id="path1103" d="M45.52 70.96l.38.36"/><path id="path1105" d="M44.96 70.44l-.27-.25"/><path id="path1107" d="M46.85 72.78l-.03-.08-.25-.38"/><path id="path1109" d="M45.92 71.34l.2.31"/><path id="path1111" d="M47.55 75.55l.03.34 4 1.29.25.06.28.03.28-.01.26-.05.2-.07 1.43-.75 71.09 22.95-.03 1.47.04.12.12.1.2.09 1.1.36"/><path id="path1113" d="M47.42 74.41l-.01-.12-.14-.39"/><path id="path1115" d="M134.25 98.88l.52.26"/><path id="path1117" d="M136.1 100.06l-.58-.54-.15-.07"/><path id="path1119" d="M137.24 101.4l-.52-.78-.11-.09"/><path id="path1121" d="M137.6 101.95l.06.08.38 1.04"/><path id="path1123" d="M138.34 104.55l-.1-.93-.02-.05"/><path id="path1125" d="M138.21 103.53l-.01-.02"/></g></g><g id="Actor_.21" stroke="#000"><g id="g1128" stroke-width=".106"><path id="path1130" d="M117.05 117.73l-.84.17-1.19-.24-1.16-.68-1-1.05-.73-1.3-.39-1.41-.01-.17"/><path id="path1132" d="M111.75 111.84l.39-1.18.74-.87.12-.05"/><path id="path1134" d="M113.5 108.53l.13-.04"/><path id="path1136" d="M119.47 113.25l-.68-1.72-1.05-1.42-1.32-1.06-1.43-.56h-1.34"/><path id="path1138" d="M117.7 118.49l.9-.68"/><path id="path1140" d="M118.71 117.73l.05-.04.63-1.14"/><path id="path1142" d="M119.68 115l-.25 1.48"/><path id="path1144" d="M119.48 113.31l.21 1.63"/><path id="path1146" d="M269.62 39.18l.05-.01"/></g><g id="g1148" stroke-width=".317"><path id="path1150" d="M117.65 118.5l18.78-9.78"/><path id="path1152" d="M136.54 108.66l-.04.02"/><path id="path1154" d="M159.64 96.6l-12.48 6.52"/><path id="path1156" d="M246.6 51.21l-81.13 42.34"/><path id="path1158" d="M246.71 51.15l-.03.02"/><path id="path1160" d="M257.33 45.61l12.34-6.44 1.06-.8.69-1.25.24-1.56-.23-1.69-.68-1.65-1.05-1.43-1.31-1.05-1.43-.56-1.4-.01-.89.4"/></g></g><g id="Actor_.22" stroke="#000"><g id="g1163" stroke-width=".106"><path id="path1165" d="M144.73 11.91l.04.12.12.11.2.07 1.01.15 1.63-.25.47-.3-.09.04-.71.14-.49-.05-.19-.09-.1-.12-.01-.26"/><path id="path1167" d="M148.2 11.81l1.04-.67-.19-.01-.42.02-.38.08-.29.13-.16.16-.03.17.12.17.03.02"/><path id="path1169" d="M148.5 10.68l-.46.04.72-.11 1.52-.16-.42.28-.27-.05-.83-.03-.26.03"/><path id="path1171" d="M149.24 11.14l.62-.41"/><path id="path1173" d="M151.14 9.99l-.86.46"/><path id="path1175" d="M150.36 10.39l1.54-.3 1.66.26 90.83 29.33 1.65.81 1.5 1.28 2.51 3.39 1.59 1.28 1 .5.25.07.28.03.28-.02.26-.05.2-.08 3.25-1.7.14-.1.05-.1"/><path id="path1177" d="M150.84 12.2l.09-.07.12-.03"/><path id="path1179" d="M152.09 11.83l.08-.02.23.04"/><path id="path1181" d="M153.47 12l.13.04"/><path id="path1183" d="M154.85 12.68l-.01-.01"/><path id="path1185" d="M156.08 13.81l.01.03"/><path id="path1187" d="M160.01 11.7l-.22-.32.05-.33.33-.31.53-.23.72-.15.8-.05.81.07.73.17.14.06.43.19.35.31.08.33-.19.32-.43.27-.64.2-.77.1-.82-.01-.78-.12-.66-.21-.46-.29"/><path id="path1189" d="M164.46 18.88l-2.66-.86"/><path id="path1191" d="M235.91 41.96l-.36-.12"/><path id="path1193" d="M237.6 36.57l-.06-.08.06-.34.31-.3.54-.23.72-.15.81-.05.81.07.73.16.57.26.34.31.08.33-.18.32-.44.27-.64.2-.77.1-.82-.01-.78-.12-.66-.21-.46-.29-.16-.24"/><path id="path1195" d="M241.73 41.49l.08-.04"/><path id="path1197" d="M242.8 41.2l.2-.05.54.07"/><path id="path1199" d="M244.43 41.38l-.08-.04-.18-.03"/><path id="path1201" d="M248.4 46.06l-.02-.03"/><path id="path1203" d="M254.04 46.16l-.72.02-.42-.04-.45-.11-.73-.35-.62-.57-.41-.73-.15-.78.02-.35.1-.33.16-.25.22-.18.29-.08h.31l.37.08.38.15.82.43.79.52.69.54.48.47.19.25.1.22v.34-.3l-.27-.33-.51-.27-.7-.2-.8-.1-.83.02-.75.12-.61.22-.13.11"/><path id="path1205" d="M252.39 45.68l-.35-.11-.24-.15-.11-.17.02-.18.17-.16.29-.12.37-.08.43-.02.42.03.39.09.3.13.18.16.05.18-.1.17-.23.14-.34.11-.4.05-.44-.01-.41-.06"/></g><g id="g1207" stroke-width=".317"><path id="path1209" d="M146.14 14.64l-1.1-.36-.2-.08-.12-.11-.04-.12.05-2.06.05-.12.13-.1 3.25-1.7.21-.07.25-.04.28-.01.28.03 1.26.2.7-.11 3.57-1.86 1.53-.31 1.66.26 90.84 29.33 1.64.81 1.5 1.29 2.51 3.38 1.59 1.29 1.2.59.12.11.05.11-.06 2.06-.04.11-.14.1-.42.22-2.83 1.48-.21.08-.25.04-.28.02-.28-.03-.25-.06-3.98-1.28-.02-.01-.01-.06"/><path id="path1211" d="M153.8 12.15l-.2-.11"/><path id="path1213" d="M155.13 12.93l-.28-.25"/><path id="path1215" d="M154.42 12.46l.42.21"/><path id="path1217" d="M156.08 13.81l-.38-.36"/><path id="path1219" d="M157.02 15.27l-.02-.08-.26-.38"/><path id="path1221" d="M156.09 13.84l.21.3"/><path id="path1223" d="M236.98 43.97l-1.11-.36-.19-.08-.13-.11-.04-.11.04-1.47-71.09-22.96-1.44.75-.2.08-.25.04-.28.01-.28-.02-.25-.06-4-1.29-.05-.4"/><path id="path1225" d="M157.59 16.9l-.01-.12-.14-.38"/><path id="path1227" d="M157.14 15.59l.02.06"/><path id="path1229" d="M244.87 41.6l-.44-.22"/><path id="path1231" d="M246.28 42.55l-.59-.53-.15-.08"/><path id="path1233" d="M246.79 43.02l.1.1.52.77"/><path id="path1235" d="M248.23 45.61l-.4-1.08-.06-.09"/><path id="path1237" d="M248.52 47.05l-.1-.94-.02-.05"/><path id="path1239" d="M248.38 46.03v-.02"/></g></g><g id="Actor_.23" stroke="#000"><g id="g1242" stroke-width=".106"><path id="path1244" d="M23.65 102.43l.29-11.61 16.71 5.4-.28 11.61"/><path id="path1246" d="M45.08 94.22l-3.8 1.98-.28 11.61"/></g><g id="g1248" stroke-width=".317"><path id="path1250" d="M23.84 90.79l-.28 11.39.09.25 16.72 5.4.63-.02 3.8-1.99.28-11.6"/></g></g><g id="Actor_.24" stroke="#000"><g id="g1253" stroke-width=".106"><path id="path1255" d="M38.74 91.05l.04.08.18.14.29.1.34.07.39.01"/><path id="path1257" d="M39.71 91.14h-.06l-.28-.05-.22-.09-.15-.1"/></g><g id="g1259" stroke-width=".317"><path id="path1261" d="M37.37 108.54l-.02.68.01.06.16.33.05.03.32.24.48.18h.04l.57.11.62.02.6-.05.55-.15.38-.2.04-.03"/><path id="path1263" d="M39.73 90.42l-.14.01-.27.04-.21.08-.11.09"/></g></g><g id="Actor_.25" stroke="#000"><g id="g1266" stroke-width=".106"><path id="path1268" d="M28.98 88.06l.29.07.36.04.16-.01"/><path id="path1270" d="M29.4 87.84l.14.01"/></g><g id="g1272" stroke-width=".317"><path id="path1274" d="M27.2 105.25l-.01.57.04.27.01.06.03.06.24.25.05.04.42.2.57.15.61.06.62-.02.55-.11h.04l.45-.18.04-.03.11-.1"/></g></g><g id="Actor_.26" stroke="#000"><g id="g1277" stroke-width=".106"><path id="path1279" d="M134.83 138.34l.29-11.61 16.71 5.4-.28 11.6"/><path id="path1281" d="M135.12 126.73l-.1-.26"/><path id="path1283" d="M152.46 132.33l-.28 11.38"/></g><g id="g1285" stroke-width=".317"><path id="path1287" d="M135.04 126.46l-.02.01-.28 11.61.09.26 16.72 5.39.63-.02 3.8-1.98.27-11.25"/></g></g><g id="Actor_.27" stroke="#000"><g id="g1290" stroke-width=".106"><path id="path1292" d="M245.2 68.96l.09.26-.09 3.84"/><path id="path1294" d="M261.72 86.23l.28-11.61-16.71-5.4"/><path id="path1296" d="M262.63 74.82l-.27 11.38"/></g><g id="g1298" stroke-width=".317"><path id="path1300" d="M245.22 68.95l-.02.01-.1 4.06"/><path id="path1302" d="M266.43 72.97l-.27 11.25-3.8 1.98-.64.03-14.98-4.84"/></g></g><g id="Actor_.28" stroke="#000"><g id="g1305" stroke-width=".106"><path id="path1307" d="M249.91 66.16v.02l.13.14.24.12.32.08.37.04h.17"/><path id="path1309" d="M250.89 66.25l-.2-.02-.25-.07-.19-.09-.07-.07"/><path id="path1311" d="M250.21 65.72l-.02.03"/></g><g id="g1313" stroke-width=".317"><path id="path1315" d="M250.91 65.53l-.28.03-.24.06-.18.1-.01.01"/></g></g><g id="Actor_.29" stroke="#000"><g id="g1318" stroke-width=".106"><path id="path1320" d="M260.08 69.45l.09.12.21.13.3.09.32.05"/><path id="path1322" d="M260.36 69.04l.07-.07"/><path id="path1324" d="M260.35 69.28l.03.04.17.1.24.08.06.01"/></g><g id="g1326" stroke-width=".317"><path id="path1328" d="M261.08 88.59l-.59-.01-.59-.09h-.03l-.52-.17-.37-.22-.04-.03-.13-.19"/><path id="path1330" d="M260.41 68.98l.02-.01.15-.06"/></g></g><g id="Actor_.30" stroke="#000"><g id="g1333" stroke-width=".106"><path id="path1335" d="M139.74 123.67l.04.07.18.14.27.11.35.06.37.02h.03"/><path id="path1337" d="M140 123.51l.14.1.22.09.28.05.08.01"/></g><g id="g1339" stroke-width=".317"><path id="path1341" d="M142.17 142.38l-.01.01-.04.03-.39.2-.56.14-.6.05-.62-.03-.61-.12-.47-.18-.31-.23-.05-.04-.03-.06-.11-.27-.01-.06.01-.67"/><path id="path1343" d="M140.01 123.25l.12-.09.22-.07.27-.05h.12"/></g></g><g id="Actor_.31" stroke="#000"><g id="g1346" stroke-width=".106"><path id="path1348" d="M149.91 126.95v.02l.13.14.24.12.32.09.23.02"/><path id="path1350" d="M150.68 127.02l-.24-.07-.2-.09-.06-.07"/><path id="path1352" d="M150.18 126.54l.03-.03"/></g><g id="g1354" stroke-width=".317"><path id="path1356" d="M148.56 144.44l-.01.55.02.27.01.07.03.05.24.26.04.03.41.21.58.15.6.07.62-.02.59-.11.46-.17.25-.2"/><path id="path1358" d="M150.2 126.52l.01-.01.18-.1h.01"/></g></g><g id="Actor_.32" stroke="#000"><g id="g1361" stroke-width=".106"><path id="path1363" d="M143.64 92.69v-.07l-.03.01-.08.08-.63.2.1.11"/><path id="path1365" d="M144.11 92.44l-.07-.05-.64.09.24.14"/><path id="path1367" d="M144.04 92.39l.01.09"/><path id="path1369" d="M143.53 92.71l.01.03"/></g><g id="g1371" stroke-width=".317"><path id="path1373" d="M144.25 92.37l-.16-.01-.5.03-.49.08-.66.17-.3.15-.18.1-.06.03-.25.31-.04.07-.01.07-.01.39"/></g></g></g></svg>