<?xml version="1.0" encoding="UTF-8" standalone="no"?>
<!-- Created with Inkscape (http://www.inkscape.org/) -->

<svg
   xmlns:dc="http://purl.org/dc/elements/1.1/"
   xmlns:cc="http://creativecommons.org/ns#"
   xmlns:rdf="http://www.w3.org/1999/02/22-rdf-syntax-ns#"
   xmlns:svg="http://www.w3.org/2000/svg"
   xmlns="http://www.w3.org/2000/svg"
   xmlns:sodipodi="http://sodipodi.sourceforge.net/DTD/sodipodi-0.dtd"
   xmlns:inkscape="http://www.inkscape.org/namespaces/inkscape"
   version="1.1"
   id="svg834"
   xml:space="preserve"
   width="76.276001"
   height="56.551998"
   viewBox="0 0 76.276001 56.552"
   sodipodi:docname="arrow-blue-top.svg"
   inkscape:version="0.92.2 (5c3e80d, 2017-08-06)"><metadata
     id="metadata840"><rdf:RDF><cc:Work
         rdf:about=""><dc:format>image/svg+xml</dc:format><dc:type
           rdf:resource="http://purl.org/dc/dcmitype/StillImage" /><dc:title></dc:title></cc:Work></rdf:RDF></metadata><defs
     id="defs838"><clipPath
       clipPathUnits="userSpaceOnUse"
       id="clipPath852"><path
         d="M 54,787 H 540.996 V 76.301 H 54 Z"
         id="path850"
         inkscape:connector-curvature="0" /></clipPath><clipPath
       clipPathUnits="userSpaceOnUse"
       id="clipPath860"><path
         d="m 60.906,463.477 h 108.5 v -43.398 h -108.5 z"
         id="path858"
         inkscape:connector-curvature="0" /></clipPath><clipPath
       clipPathUnits="userSpaceOnUse"
       id="clipPath872"><path
         d="m 261.492,367.801 h 57.207 v -42.414 h -57.207 z"
         id="path870"
         inkscape:connector-curvature="0" /></clipPath><clipPath
       clipPathUnits="userSpaceOnUse"
       id="clipPath878"><path
         d="m 264.055,367.801 h 52.078 c 1.418,0 2.566,-1.149 2.566,-2.563 v -37.285 c 0,-1.414 -1.148,-2.562 -2.566,-2.562 h -52.078 c -1.414,0 -2.563,1.148 -2.563,2.562 v 37.285 c 0,1.414 1.149,2.563 2.563,2.563 z"
         id="path876"
         inkscape:connector-curvature="0" /></clipPath><clipPath
       clipPathUnits="userSpaceOnUse"
       id="clipPath888"><path
         d="M 54,787 H 540.996 V 76.301 H 54 Z"
         id="path886"
         inkscape:connector-curvature="0" /></clipPath><clipPath
       clipPathUnits="userSpaceOnUse"
       id="clipPath896"><path
         d="M 279.875,359.91 H 300.59 V 333.277 H 279.875 Z"
         id="path894"
         inkscape:connector-curvature="0" /></clipPath><clipPath
       clipPathUnits="userSpaceOnUse"
       id="clipPath908"><path
         d="m 261.492,316.02 h 57.207 v -42.414 h -57.207 z"
         id="path906"
         inkscape:connector-curvature="0" /></clipPath><clipPath
       clipPathUnits="userSpaceOnUse"
       id="clipPath914"><path
         d="m 264.055,316.02 h 52.078 c 1.418,0 2.566,-1.149 2.566,-2.567 v -37.281 c 0,-1.418 -1.148,-2.567 -2.566,-2.567 h -52.078 c -1.414,0 -2.563,1.149 -2.563,2.567 v 37.281 c 0,1.418 1.149,2.567 2.563,2.567 z"
         id="path912"
         inkscape:connector-curvature="0" /></clipPath><clipPath
       clipPathUnits="userSpaceOnUse"
       id="clipPath924"><path
         d="M 54,787 H 540.996 V 76.301 H 54 Z"
         id="path922"
         inkscape:connector-curvature="0" /></clipPath><clipPath
       clipPathUnits="userSpaceOnUse"
       id="clipPath932"><path
         d="M 279.875,307.633 H 300.59 V 281.988 H 279.875 Z"
         id="path930"
         inkscape:connector-curvature="0" /></clipPath><clipPath
       clipPathUnits="userSpaceOnUse"
       id="clipPath944"><path
         d="m 113.539,264.234 h 57.207 V 221.82 h -57.207 z"
         id="path942"
         inkscape:connector-curvature="0" /></clipPath><clipPath
       clipPathUnits="userSpaceOnUse"
       id="clipPath950"><path
         d="m 116.102,264.234 h 52.082 c 1.414,0 2.562,-1.148 2.562,-2.562 v -37.285 c 0,-1.414 -1.148,-2.567 -2.562,-2.567 h -52.082 c -1.414,0 -2.563,1.153 -2.563,2.567 v 37.285 c 0,1.414 1.149,2.562 2.563,2.562 z"
         id="path948"
         inkscape:connector-curvature="0" /></clipPath><clipPath
       clipPathUnits="userSpaceOnUse"
       id="clipPath960"><path
         d="M 54,787 H 540.996 V 76.301 H 54 Z"
         id="path958"
         inkscape:connector-curvature="0" /></clipPath><clipPath
       clipPathUnits="userSpaceOnUse"
       id="clipPath968"><path
         d="m 131.922,256.344 h 20.715 v -26.633 h -20.715 z"
         id="path966"
         inkscape:connector-curvature="0" /></clipPath><clipPath
       clipPathUnits="userSpaceOnUse"
       id="clipPath980"><path
         d="m 187.516,264.234 h 57.207 V 221.82 h -57.207 z"
         id="path978"
         inkscape:connector-curvature="0" /></clipPath><clipPath
       clipPathUnits="userSpaceOnUse"
       id="clipPath986"><path
         d="m 190.078,264.234 h 52.082 c 1.414,0 2.563,-1.148 2.563,-2.562 v -37.285 c 0,-1.414 -1.149,-2.567 -2.563,-2.567 h -52.082 c -1.414,0 -2.562,1.153 -2.562,2.567 v 37.285 c 0,1.414 1.148,2.562 2.562,2.562 z"
         id="path984"
         inkscape:connector-curvature="0" /></clipPath><clipPath
       clipPathUnits="userSpaceOnUse"
       id="clipPath996"><path
         d="M 54,787 H 540.996 V 76.301 H 54 Z"
         id="path994"
         inkscape:connector-curvature="0" /></clipPath><clipPath
       clipPathUnits="userSpaceOnUse"
       id="clipPath1004"><path
         d="m 205.898,256.344 h 20.715 v -26.633 h -20.715 z"
         id="path1002"
         inkscape:connector-curvature="0" /></clipPath><clipPath
       clipPathUnits="userSpaceOnUse"
       id="clipPath1016"><path
         d="m 261.492,264.234 h 57.207 V 221.82 h -57.207 z"
         id="path1014"
         inkscape:connector-curvature="0" /></clipPath><clipPath
       clipPathUnits="userSpaceOnUse"
       id="clipPath1022"><path
         d="m 264.055,264.234 h 52.078 c 1.418,0 2.566,-1.148 2.566,-2.562 v -37.285 c 0,-1.414 -1.148,-2.567 -2.566,-2.567 h -52.078 c -1.414,0 -2.563,1.153 -2.563,2.567 v 37.285 c 0,1.414 1.149,2.562 2.563,2.562 z"
         id="path1020"
         inkscape:connector-curvature="0" /></clipPath><clipPath
       clipPathUnits="userSpaceOnUse"
       id="clipPath1032"><path
         d="M 54,787 H 540.996 V 76.301 H 54 Z"
         id="path1030"
         inkscape:connector-curvature="0" /></clipPath><clipPath
       clipPathUnits="userSpaceOnUse"
       id="clipPath1040"><path
         d="m 280.859,256.344 h 18.742 v -26.633 h -18.742 z"
         id="path1038"
         inkscape:connector-curvature="0" /></clipPath><clipPath
       clipPathUnits="userSpaceOnUse"
       id="clipPath1052"><path
         d="m 335.469,264.234 h 57.207 V 221.82 h -57.207 z"
         id="path1050"
         inkscape:connector-curvature="0" /></clipPath><clipPath
       clipPathUnits="userSpaceOnUse"
       id="clipPath1058"><path
         d="m 338.031,264.234 h 52.078 c 1.418,0 2.567,-1.148 2.567,-2.562 v -37.285 c 0,-1.414 -1.149,-2.567 -2.567,-2.567 h -52.078 c -1.414,0 -2.562,1.153 -2.562,2.567 v 37.285 c 0,1.414 1.148,2.562 2.562,2.562 z"
         id="path1056"
         inkscape:connector-curvature="0" /></clipPath><clipPath
       clipPathUnits="userSpaceOnUse"
       id="clipPath1068"><path
         d="M 54,787 H 540.996 V 76.301 H 54 Z"
         id="path1066"
         inkscape:connector-curvature="0" /></clipPath><clipPath
       clipPathUnits="userSpaceOnUse"
       id="clipPath1076"><path
         d="m 353.852,256.344 h 20.715 v -26.633 h -20.715 z"
         id="path1074"
         inkscape:connector-curvature="0" /></clipPath><clipPath
       clipPathUnits="userSpaceOnUse"
       id="clipPath1088"><path
         d="m 409.441,264.234 h 57.207 V 221.82 h -57.207 z"
         id="path1086"
         inkscape:connector-curvature="0" /></clipPath><clipPath
       clipPathUnits="userSpaceOnUse"
       id="clipPath1094"><path
         d="m 412.008,264.234 h 52.078 c 1.418,0 2.566,-1.148 2.566,-2.562 v -37.285 c 0,-1.414 -1.148,-2.567 -2.566,-2.567 h -52.078 c -1.414,0 -2.567,1.153 -2.567,2.567 v 37.285 c 0,1.414 1.153,2.562 2.567,2.562 z"
         id="path1092"
         inkscape:connector-curvature="0" /></clipPath><clipPath
       clipPathUnits="userSpaceOnUse"
       id="clipPath1104"><path
         d="M 54,787 H 540.996 V 76.301 H 54 Z"
         id="path1102"
         inkscape:connector-curvature="0" /></clipPath><clipPath
       clipPathUnits="userSpaceOnUse"
       id="clipPath1112"><path
         d="m 427.824,256.344 h 20.715 v -26.633 h -20.715 z"
         id="path1110"
         inkscape:connector-curvature="0" /></clipPath><clipPath
       clipPathUnits="userSpaceOnUse"
       id="clipPath1124"><path
         d="m 261.492,212.453 h 57.207 v -42.414 h -57.207 z"
         id="path1122"
         inkscape:connector-curvature="0" /></clipPath><clipPath
       clipPathUnits="userSpaceOnUse"
       id="clipPath1130"><path
         d="m 264.055,212.453 h 52.078 c 1.418,0 2.566,-1.148 2.566,-2.566 v -37.285 c 0,-1.414 -1.148,-2.563 -2.566,-2.563 h -52.078 c -1.414,0 -2.563,1.149 -2.563,2.563 v 37.285 c 0,1.418 1.149,2.566 2.563,2.566 z"
         id="path1128"
         inkscape:connector-curvature="0" /></clipPath><clipPath
       clipPathUnits="userSpaceOnUse"
       id="clipPath1140"><path
         d="M 54,787 H 540.996 V 76.301 H 54 Z"
         id="path1138"
         inkscape:connector-curvature="0" /></clipPath><clipPath
       clipPathUnits="userSpaceOnUse"
       id="clipPath1148"><path
         d="M 279.875,204.066 H 300.59 V 178.421 H 279.875 Z"
         id="path1146"
         inkscape:connector-curvature="0" /></clipPath><clipPath
       clipPathUnits="userSpaceOnUse"
       id="clipPath1160"><path
         d="m 261.492,160.668 h 57.207 v -42.414 h -57.207 z"
         id="path1158"
         inkscape:connector-curvature="0" /></clipPath><clipPath
       clipPathUnits="userSpaceOnUse"
       id="clipPath1166"><path
         d="m 264.055,160.668 h 52.078 c 1.418,0 2.566,-1.148 2.566,-2.563 V 120.82 c 0,-1.414 -1.148,-2.566 -2.566,-2.566 h -52.078 c -1.414,0 -2.563,1.152 -2.563,2.566 v 37.285 c 0,1.415 1.149,2.563 2.563,2.563 z"
         id="path1164"
         inkscape:connector-curvature="0" /></clipPath><clipPath
       clipPathUnits="userSpaceOnUse"
       id="clipPath1176"><path
         d="M 54,787 H 540.996 V 76.301 H 54 Z"
         id="path1174"
         inkscape:connector-curvature="0" /></clipPath><clipPath
       clipPathUnits="userSpaceOnUse"
       id="clipPath1184"><path
         d="M 279.875,152.777 H 300.59 V 126.144 H 279.875 Z"
         id="path1182"
         inkscape:connector-curvature="0" /></clipPath><clipPath
       clipPathUnits="userSpaceOnUse"
       id="clipPath1196"><path
         d="M 54,787 H 540.996 V 76.301 H 54 Z"
         id="path1194"
         inkscape:connector-curvature="0" /></clipPath><clipPath
       clipPathUnits="userSpaceOnUse"
       id="clipPath1202"><path
         d="m 60.906,408.242 h 45.371 V 381.609 H 60.906 Z"
         id="path1200"
         inkscape:connector-curvature="0" /></clipPath><clipPath
       clipPathUnits="userSpaceOnUse"
       id="clipPath1214"><path
         d="M 228.41,412.68 H 528.902 V 377.172 H 228.41 Z"
         id="path1212"
         inkscape:connector-curvature="0" /></clipPath><clipPath
       clipPathUnits="userSpaceOnUse"
       id="clipPath1220"><path
         d="m 230.977,412.68 h 295.359 c 1.418,0 2.566,-1.149 2.566,-2.563 v -30.379 c 0,-1.418 -1.148,-2.566 -2.566,-2.566 H 230.977 c -1.418,0 -2.567,1.148 -2.567,2.566 v 30.379 c 0,1.414 1.149,2.563 2.567,2.563 z"
         id="path1218"
         inkscape:connector-curvature="0" /></clipPath><clipPath
       clipPathUnits="userSpaceOnUse"
       id="clipPath1230"><path
         d="M 54,787 H 540.996 V 76.301 H 54 Z"
         id="path1228"
         inkscape:connector-curvature="0" /></clipPath><clipPath
       clipPathUnits="userSpaceOnUse"
       id="clipPath1240"><path
         d="M 246.164,403.805 H 511.148 V 386.051 H 246.164 Z"
         id="path1238"
         inkscape:connector-curvature="0" /></clipPath><clipPath
       clipPathUnits="userSpaceOnUse"
       id="clipPath1246"><path
         d="m 244.367,407.254 h 55.234 v -24.66 h -55.234 z"
         id="path1244"
         inkscape:connector-curvature="0" /></clipPath><clipPath
       clipPathUnits="userSpaceOnUse"
       id="clipPath1258"><path
         d="M 54,787 H 540.996 V 747.055 H 54 Z"
         id="path1256"
         inkscape:connector-curvature="0" /></clipPath><clipPath
       clipPathUnits="userSpaceOnUse"
       id="clipPath1268"><path
         d="M 54,787 H 540.996 V 76.301 H 54 Z"
         id="path1266"
         inkscape:connector-curvature="0" /></clipPath><clipPath
       clipPathUnits="userSpaceOnUse"
       id="clipPath1274"><path
         d="M 61.891,780.094 H 80.633 V 753.461 H 61.891 Z"
         id="path1272"
         inkscape:connector-curvature="0" /></clipPath><clipPath
       clipPathUnits="userSpaceOnUse"
       id="clipPath1286"><path
         d="M 54,787 H 540.996 V 76.301 H 54 Z"
         id="path1284"
         inkscape:connector-curvature="0" /></clipPath><clipPath
       clipPathUnits="userSpaceOnUse"
       id="clipPath1292"><path
         d="m 71.754,780.094 h 81.867 V 753.461 H 71.754 Z"
         id="path1290"
         inkscape:connector-curvature="0" /></clipPath><clipPath
       clipPathUnits="userSpaceOnUse"
       id="clipPath1304"><path
         d="M 54,787 H 540.996 V 76.301 H 54 Z"
         id="path1302"
         inkscape:connector-curvature="0" /></clipPath><clipPath
       clipPathUnits="userSpaceOnUse"
       id="clipPath1314"><path
         d="m 497.105,777.137 h 22.191 v -22.191 h -22.191 z"
         id="path1312"
         inkscape:connector-curvature="0" /></clipPath><clipPath
       clipPathUnits="userSpaceOnUse"
       id="clipPath1324"><path
         d="M 54,116.543 H 540.996 V 76.301 H 54 Z"
         id="path1322"
         inkscape:connector-curvature="0" /></clipPath><clipPath
       clipPathUnits="userSpaceOnUse"
       id="clipPath1334"><path
         d="M 54,787 H 540.996 V 76.301 H 54 Z"
         id="path1332"
         inkscape:connector-curvature="0" /></clipPath><clipPath
       clipPathUnits="userSpaceOnUse"
       id="clipPath1340"><path
         d="m 72.742,108.391 h 81.867 V 85.703 H 72.742 Z"
         id="path1338"
         inkscape:connector-curvature="0" /></clipPath><clipPath
       clipPathUnits="userSpaceOnUse"
       id="clipPath1352"><path
         d="M 54,787 H 540.996 V 76.301 H 54 Z"
         id="path1350"
         inkscape:connector-curvature="0" /></clipPath><clipPath
       clipPathUnits="userSpaceOnUse"
       id="clipPath1358"><path
         d="m 145.73,108.391 h 40.441 V 85.703 H 145.73 Z"
         id="path1356"
         inkscape:connector-curvature="0" /></clipPath><clipPath
       clipPathUnits="userSpaceOnUse"
       id="clipPath1370"><path
         d="M 185.48,104.016 H 456.8 V 86.457 H 185.48 Z"
         id="path1368"
         inkscape:connector-curvature="0" /></clipPath><clipPath
       clipPathUnits="userSpaceOnUse"
       id="clipPath1376"><path
         d="M 188.438,104.016 H 453.84 c 1.633,0 2.961,-1.328 2.961,-2.961 V 89.418 c 0,-1.633 -1.328,-2.961 -2.961,-2.961 H 188.438 c -1.633,0 -2.958,1.328 -2.958,2.961 v 11.637 c 0,1.633 1.325,2.961 2.958,2.961 z"
         id="path1374"
         inkscape:connector-curvature="0" /></clipPath><clipPath
       clipPathUnits="userSpaceOnUse"
       id="clipPath1386"><path
         d="M 54,787 H 540.996 V 76.301 H 54 Z"
         id="path1384"
         inkscape:connector-curvature="0" /></clipPath><clipPath
       clipPathUnits="userSpaceOnUse"
       id="clipPath1392"><path
         d="M 186.172,106.418 H 456.43 V 84.719 H 186.172 Z"
         id="path1390"
         inkscape:connector-curvature="0" /></clipPath><clipPath
       clipPathUnits="userSpaceOnUse"
       id="clipPath1404"><path
         d="M 54,787 H 540.996 V 76.301 H 54 Z"
         id="path1402"
         inkscape:connector-curvature="0" /></clipPath><clipPath
       clipPathUnits="userSpaceOnUse"
       id="clipPath1418"><path
         d="m 241.406,680.473 h 31.562 v -43.398 h -31.562 z"
         id="path1416"
         inkscape:connector-curvature="0" /></clipPath><clipPath
       clipPathUnits="userSpaceOnUse"
       id="clipPath1430"><path
         d="M 54,787 H 540.996 V 76.301 H 54 Z"
         id="path1428"
         inkscape:connector-curvature="0" /></clipPath><clipPath
       clipPathUnits="userSpaceOnUse"
       id="clipPath1436"><path
         d="M 264.094,680.473 H 371.606 V 637.075 H 264.094 Z"
         id="path1434"
         inkscape:connector-curvature="0" /></clipPath><clipPath
       clipPathUnits="userSpaceOnUse"
       id="clipPath1448"><path
         d="M 54,787 H 540.996 V 76.301 H 54 Z"
         id="path1446"
         inkscape:connector-curvature="0" /></clipPath><clipPath
       clipPathUnits="userSpaceOnUse"
       id="clipPath1454"><path
         d="M 241.406,633.129 H 371.605 V 589.731 H 241.406 Z"
         id="path1452"
         inkscape:connector-curvature="0" /></clipPath><clipPath
       clipPathUnits="userSpaceOnUse"
       id="clipPath1466"><path
         d="M 54,787 H 540.996 V 76.301 H 54 Z"
         id="path1464"
         inkscape:connector-curvature="0" /></clipPath><clipPath
       clipPathUnits="userSpaceOnUse"
       id="clipPath1472"><path
         d="m 264.094,585.785 h 75.949 v -43.398 h -75.949 z"
         id="path1470"
         inkscape:connector-curvature="0" /></clipPath></defs><sodipodi:namedview
     pagecolor="#ffffff"
     bordercolor="#666666"
     borderopacity="1"
     objecttolerance="10"
     gridtolerance="10"
     guidetolerance="10"
     inkscape:pageopacity="0"
     inkscape:pageshadow="2"
     inkscape:window-width="1865"
     inkscape:window-height="1025"
     id="namedview836"
     showgrid="false"
     inkscape:zoom="7.1849958"
     inkscape:cx="9.067179"
     inkscape:cy="25.696508"
     inkscape:window-x="55"
     inkscape:window-y="27"
     inkscape:window-maximized="1"
     inkscape:current-layer="g920"
     fit-margin-top="0"
     fit-margin-left="0"
     fit-margin-right="0"
     fit-margin-bottom="0" /><g
     id="g842"
     inkscape:groupmode="layer"
     inkscape:label="mozilla"
     transform="matrix(1.3333333,0,0,-1.3333333,-348.65599,421.35999)"><g
       id="g844" /><g
       id="g902"><g
         id="g904"
         clip-path="url(#clipPath908)"><g
           id="g910"
           clip-path="url(#clipPath914)"><path
             d="m 260.504,317.004 h 59.18 v -44.387 h -59.18 z"
             style="fill:#0275d8;fill-opacity:1;fill-rule:nonzero;stroke:none"
             id="path916"
             inkscape:connector-curvature="0" /></g></g></g><g
       id="g918"><g
         id="g920"
         clip-path="url(#clipPath924)"><g
           id="g928"
           clip-path="url(#clipPath932)"
           style="fill:#ffffff"><g
             aria-label="▲"
             transform="matrix(1,0,0,-1,284.3987,289.88029)"
             style="font-variant:normal;font-weight:normal;font-size:14.79522896px;font-family:'DejaVu Sans';-inkscape-font-specification:DejaVuSans;writing-mode:lr-tb;fill:#ffffff;fill-opacity:1;fill-rule:nonzero;stroke:none"
             id="text936"><path
               d="M 0.0433454,1.8205067 5.6854713,-9.5070905 11.334821,1.8205067 Z"
               style="fill:#ffffff"
               id="path6154" /></g></g></g></g></g></svg>