<svg id="svg2" stroke-linejoin="round" xmlns="http://www.w3.org/2000/svg" stroke-linecap="round" height="572.334" width="558.274" viewBox="0 0 147.70698 151.427" fill="none"><desc id="desc4">Composer Export</desc><script id="script6" type="text/ecmascript"><![CDATA[
if(typeof(top) != "undefined")
{
	top.ShowPaper = ShowPaper;
}
function ShowHotSpot(evt,hotspotid)
{
	var svgDocument = evt.target.ownerDocument;
	var strId = "hotspot."+hotspotid;
	var hotspot = svgDocument.getElementById(strId);
	if(hotspot)
		hotspot.setAttribute("opacity",".5");
}
function HideHotSpot(evt,hotspotid)
{
	var svgDocument = evt.target.ownerDocument;
	var strId = "hotspot."+hotspotid;
	var hotspot = svgDocument.getElementById(strId);
	if(hotspot)
		hotspot.setAttribute("opacity","0");
	var toolTip = svgDocument.getElementById('ToolTip');
	if(toolTip)
		toolTip.setAttribute("visibility","hidden");
}
function ShowToolTip(evt,hotspotid,strTooltip)
{
	if(strTooltip=="")
	return;
	// change text
	var svgDocument = evt.target.ownerDocument;
	var tiptext = svgDocument.getElementById('ToolTipText');
	if( !tiptext )
	return;
	tiptext.firstChild.nodeValue = " " + strTooltip + "  " ;
	// show tooltip before, else some refresh issue
	var toolTip = svgDocument.getElementById('ToolTip');
	if(!toolTip)
	return;
	toolTip.setAttribute("visibility","visible");
	toolTip.setAttribute("opacity",".95");
	// move tooltip
	// get viewbox
	var root = svgDocument.documentElement;
	var vbox = (root.getAttribute("viewBox")).split(' ');
	var x0 = parseFloat(vbox[0]);
	var y0 = parseFloat(vbox[1]);
	var vboxW = parseFloat(vbox[2]);
	var vboxH = parseFloat(vbox[3]);
	// get default width of svg
	var strW = root.getAttribute("width");
	var svgW = parseFloat(strW);
	if(strW.indexOf('mm') != -1)
	svgW *= 3.779;
	var strH = root.getAttribute("height");
	var svgH = parseFloat(strH);
	if(strH.indexOf('mm') != -1)
	svgH *= 3.779;  	// 96 dpi  -> 96/25.4 = 3.779
	// update the viewbox / width / height if svg is embedded in html with zoom fit all
	var realx0 = x0;
	var realy0 = y0;
	var realvboxW = vboxW;
	var realvboxH = vboxH;
	var realsvgW = svgW;
	var realsvgH = svgH;
	if ((typeof(top) == "undefined") || (typeof(top.svgctl1) != "undefined")) // embedded in html
	{
		// get window size in pxl
		svgW = window.innerWidth;
		svgH = window.innerHeight;
		// calculate real viewbox
		realsvgW = svgW;
		realsvgH = svgH;
		if((svgW / svgH) > (vboxW / vboxH))
		{
			realvboxW = (vboxH * svgW) / svgH;
			realvboxH = vboxH;
			realx0 = x0 - (realvboxW - vboxW)/2 ;
		}
		else
		{
			realvboxH = (vboxW * svgH) / svgW;
			realvboxW = vboxW;
			realy0 = y0 - (realvboxH - vboxH)/2 ;
		}
	}
	// get user zoom/pan
	var newScale = root.currentScale;
	var translation = root.currentTranslate;
	// transform pxl to user unit
	var xPos = (((evt.clientX+10- translation.x)/newScale) * realvboxW)/realsvgW  + realx0 ;
	var yPos = (((evt.clientY+5- translation.y)/newScale) * realvboxH)/ realsvgH  + realy0 ;
	var scaleForWidth = ( (1 / newScale) * realvboxH) / realsvgH;
	// move tooltip
	toolTip.setAttribute("transform", "translate(" + xPos + "," + yPos + ")" );
	// resize tooltip
	var fontsize = 12;
	tiptext.setAttribute("font-size",fontsize*scaleForWidth);
	tiptext.setAttribute("y", fontsize*scaleForWidth);
	var tipBG = svgDocument.getElementById('ToolTipBG');
	var outline = tiptext.getBBox();
	if(tipBG)
	{
		tipBG.setAttribute("stroke-width", 1*scaleForWidth);
		tipBG.setAttribute("width", Number(outline.width) );
		tipBG.setAttribute("height", Number(outline.height) + fontsize*.5*scaleForWidth );
	}
	var ToolTipShadow = svgDocument.getElementById('ToolTipShadow');
	if(ToolTipShadow)
	{
		ToolTipShadow.setAttribute("width", Number(outline.width) );
		ToolTipShadow.setAttribute("height", Number(outline.height) + fontsize*.5*scaleForWidth );
		ToolTipShadow.setAttribute("x", 3*scaleForWidth);
		ToolTipShadow.setAttribute("y", 3*scaleForWidth);
	}
}
function ShowPaper()
{
  var svgDocument = getDocument();
  var paper = svgDocument.getElementById("paperID");
  if(paper)
  {
    paper.setAttribute("transform","scale(1)");
    paper.setAttribute("opacity","1");
    paper.setAttribute("visibility","visible");
  }
  var svg = svgDocument.getRootElement();
  if(svg)
  {
    svg.setAttribute("width","307.000mm");
    svg.setAttribute("height","220.000mm");
    svg.setAttribute("viewBox","-5.000000 -5.000000 307.000000 220.000000");
  }
}
]]></script><g id="g10" transform="translate(-38.267 -9.31)"><path id="path12" d="M135.13 16.138l1.67 2.24.98 2.42.25 3.19-.25 2.26-.32.89-1.36 2.04-1.94 1.71-3.28 1.84-5.28 1.78-6.32 1.22-6.41.4-.13 38.57-1.01.47-.22-39.04-5.85-.23-3.25-.27-1.19.77-1.99-.02 1.5-.22 1.04-.91.25-.48-.03-2.94.5-.1 1.21.77.51.95.14 1.32 5.85-.09 4.72-.4.15-1.79 7.3-2.18 5.32-2.47 3.54-2.31 2.18-1.71 1.87-2.51.56-1.9-.24-1.78-1.05-1.72zm-42.62 16.36l4.17 1.19.28.26-.04.32-1.02-.06-3.63-1.23-3.4-1.72-.31-.51zm7.53.97l-1.67 1.29-.27-.28.01-1.67.4-.34.82.01zm36.69 29.2l-1.46.34v-1.08l1.55-.73zm-61.08.93l.58.05.01.31-.54-.08zm2.53 1.6l-.57.4-.99.08v-1.08l1.56-.47zm35.51 12.9l1.14-.87.56.02v.82l-.56.17-1.22.94.32.76.28 1.31-.59.42-.91-.01-.24-1.48-.74-.23-.08-4.4 1.26-.2.55-.52zm56.44.2l-.32-.08.36-.2zm-63.76.27l.41-.35 1.08.01v.82l-1.5-.09zm-5.78 1.32l-.14-.45.59.01.04.55zm71.67.07l-1.4.31-.06-1.06 1.53-.51zm-55.74 0l2.18-1.75.36-.46v.82l-2.06 1.87h-.41zm68.06 1.34l-.24.76.16-.92zm-67.94 1.01l-.14-.41.86-.01v.56zm-63.62 1.27l.61-.21-.04.54-.51-.06zm71.39-.14l-.36.38-1.42 1-1.02.06.01-.54 1.95-.76.73-1 .11.03zm-18.28 1.22l1.88-1.59.57.01v.82l-.57.18-1.24.97-.64.01zm-50.92.64l-1.22.34.01-1.08 1.31-.48zm58.74-1.41l-1.31.43-3.15 2.45-1.02.06.01-.54 1.59-.64 2.4-1.98.64-.34.85.02zm34.09 14.37h-.89v-.3h.89zm1.41 1.47l-.28.19-1.02.06.09-.99 1.23-.56zm-60.06 1.2h-.89v-.29h.89zm1.68 1.25l-.33.39-1.24.08.01-.8 1.56-.74zm-26.05 9.64l6.57 3.16 4.61 1.71 4.88 1.21 4.62.73 4.87.49 9.25.23-.74.82-28.92 25.09-.84.39-3.64 2.43-.15 1.07-1.46 1.46-1.79 1.38-.74.08v-39.03l1.31-.63 1.94-1.57zm23.01 40.36l.24-.24.62.02v.58l-.54-.04zm96.32-69.87l-.35 1.1-.23 47.71-.31 1.16-2.13 2.73-14.57 12.68-2.77 2.1-5.04 2.5-5.12 1.45-6.32 1.23-6.42.49v-49.74l7.15-.64 6.32-1.22 5.04-1.53 3.38-1.49 1.95-1.21 2.07-1.58 12.39-10.73 3.79-3.51 1.16-1.75zm-67.73 74.37l-1.25.21-2.74 2.37-.97.1v-39.03l1.09-.37 2.62-2.24 1.25-.07zm68.86-20.68l-.26.71-1.21 2.68-2.19 2.92-2.17 1.97-3.04 2.31-3.62 2.22-6.02 2.75-6.08 2.19-5.41 1.64-9.92 2.25-11.43 1.71-11.45.98-.08-1.32 12.74-1.12 10.95-1.71 8.94-2.01 9.97-3.17 5.43-2.36 4.4-2.41 4.51-3.04 3.25-3.31 1.95-3.16.74-2.04zm-120.69-15.22v19.36l-.61.65-.45.09.08-19.98.77-.34zm50.12 26.41l-.27.7-1.2.77v-19.97l.4-.33 1.1-.23z" fill-rule="evenodd" fill-opacity=".098" fill="#000"/><g transform="translate(-37.104 -17.722)"><g id="Actor_.0" stroke="#000"><g id="g15" stroke-width=".106"><path id="path17" d="M75.53 149.23l.1 2.39.67 2.37 1.23 2.31 1.82 2.33 2.35 2.22 2.88 2.14 3.39 2.04 3.87 1.92 4.31 1.79"/><path id="path19" d="M145.6 176.93l-3.42-.06-6.46-.33-6.35-.54-6.2-.75-5.99-.94-5.74-1.13-5.45-1.31-5.11-1.49-1.69-.58"/><path id="path21" d="M125.22 169.79l.17-.13.28-.1.35-.07.39-.02.38.03.34.08.25.11.15.13.02.14-.12.14-.22.12-.32.08-.38.04h-.39l-.37-.05-.3-.1-.2-.12-.08-.14.05-.14"/><path id="path23" d="M222.92 149.62l-.19 2.38-.76 2.37-1.34 2.34-1.89 2.28-2.44 2.21-2.97 2.13-3.13 1.83-.33.19-3.94 1.9-4.38 1.77-4.8 1.61-5.16 1.46-5.5 1.28-5.78 1.1-6.03.91-6.23.72-6.37.5-3.23.18-3.24.12-5.46.08"/></g><g id="g25" stroke-width=".317"><path id="path27" d="M221.02 144.03l.56.84.96 2.36.38 2.39v1.32l-.19 2.37-.76 2.37-1.34 2.33-1.89 2.29-2.54 2.28-2.87 2.05-3.46 2.02-3.94 1.91-4.38 1.76-4.8 1.62-5.16 1.46-5.5 1.28-5.78 1.1-6.03.91-6.23.71-6.37.51-3.23.17-3.24.13-6.52.09-6.51-.13-6.46-.33-6.35-.54-5.98-.72-6.21-.96-5.74-1.13-5.45-1.31-5.11-1.49-4.73-1.64-4.31-1.79-3.87-1.92-3.39-2.04-2.88-2.14-2.35-2.23-1.81-2.29-1.23-2.33-.68-2.38-.1-2.39v-1.31l.48-2.38 1.05-2.35.35-.5"/></g></g><g id="Actor_.1" stroke="#000"><g id="g30" stroke-width=".106"><path id="path32" d="M80.44 117.56l1.12.84 2.27 1.26 1.38.67"/><path id="path34" d="M148.62 135.44l-.94.04v.14"/><path id="path36" d="M201.83 127.85l-.83.61-2.32 1.26-2.74 1.13-3.12.99-3.45.83-3.71.66-3.92.48-4.32.3"/></g><g id="g38" stroke-width=".317"><path id="path40" d="M80.44 117.56l-.69-.52-1.31-1.43-.78-1.48-.25-1.51v-7.42"/><path id="path42" d="M85.21 120.33l16.91 8.15v1.04l6.22 3 2.71 1.14 3.09 1.01 3.43.84 3.69.68 3.91.49 4.05.31 4.12.1 4.13-.09 9.1-.42"/><path id="path44" d="M148.62 135.44l28.8-1.33"/><path id="path46" d="M221.02 101.49v7.53l-.29 1.51-.83 1.48-1.35 1.43-15.7 13.67-1.02.74"/></g></g><g id="Actor_.2" stroke="#000"><g id="g49" stroke-width=".106"><path id="path51" d="M96.15 164.8v-35.2l.1-.13 2.36-2.05.14-.19.01-.2-.15-.2-.27-.17-14.5-7-2.28-1.26-1.81-1.36-1.31-1.43-.78-1.48-.25-1.51"/><path id="path53" d="M102.02 128.43l-2.2 1.91-.22.13-.31.11-.38.06-.42.02-.41-.03-.37-.07-.3-.11-.98-.47-.18-.11-.1-.13"/><path id="path55" d="M100.84 138.86l-.06.15-.02.17.01 19.79"/><path id="path57" d="M100.78 159.01l-.02-.07"/><path id="path59" d="M102.09 137.78l-1.27 1.13"/><path id="path61" d="M102.64 129.77v36.16"/><path id="path63" d="M102.62 137l-.04.21"/><path id="path65" d="M145.54 137.54l.02.15.14.15.26.12.34.09.4.05h.41l1.61-.08.36-.03.31-.07.26-.09.19-.12 2.36-2.05.27-.17.39-.14.48-.1.53-.05 23.81-1.1 4.06-.29 3.92-.48 3.71-.66 3.45-.83 3.12-.99 2.79-1.16 2.27-1.23 1.85-1.35 15.7-13.67 1.35-1.43.83-1.48.29-1.51"/><path id="path67" d="M150.47 166.59v-19.75l.01-.17.06-.16"/><path id="path69" d="M150.47 166.57l.01.06"/><path id="path71" d="M151.65 145.54l-1.12.99"/><path id="path73" d="M151.51 145.66l.1-.04"/><path id="path75" d="M151.86 145.32l.07.13.08.26.04.36v18.65l-.03.34-.08.46-.09.29"/><path id="path77" d="M152.03 145.84l.17-10.18"/></g><g id="g79" stroke-width=".317"><path id="path81" d="M137.21 137.01l-29.76 25.89-.42.27-.6.22-3.79 2.54v1.1l-.15.19-2.67 2.33-.22.13-.31.1-.38.06-.42.02-.41-.03-.37-.07-.3-.1-.98-.47-.18-.12-.1-.13v-4.14l-12.32-5.93-2.27-1.26-1.81-1.36-1.31-1.44-.78-1.48-.25-1.51v-39.2"/><path id="path83" d="M147.84 135.48l-2.2 1.91-.1.15v39.2l.02.16.14.14.26.12.34.09.4.05h.41l1.61-.07.36-.04.31-.06.26-.1.19-.11 2.36-2.05.27-.18.39-.14.48-.1.53-.05 23.81-1.1 4.06-.29 3.92-.47 3.71-.67 3.45-.83 3.12-.99 2.74-1.13.33-.18 1.99-1.08 1.85-1.35 15.7-13.67 1.35-1.43.83-1.48.29-1.51v-39.2"/></g></g><g id="Actor_.3" stroke="#000"><g id="g86" stroke-width=".106"><path id="path88" d="M173.11 80.67l-.06.02-.59.08-.64.01-.61-.06-.19-.06"/><path id="path90" d="M171.43 78.88l-.17-.13.45-.24.81.02v.46l-.1.05-.81-.02-.18-.14"/><path id="path92" d="M171.71 79.02v-.51"/><path id="path94" d="M172.52 78.99l.36-.19-.36-.27"/></g><g id="g96" stroke-width=".317"><path id="path98" d="M171.02 80.66l-.32-.08-.37-.19-.18-.22v-1.11l.03-.24.01-.06.03-.05.23-.21.04-.03.39-.17.04-.02.5-.1.58-.05.58.03.53.09.03.01.43.16.27.2.04.04.03.05.08.23.01.06v1.11l-.14.23-.32.2-.43.13"/></g></g><g id="Actor_.4" stroke="#000"><g id="g101" stroke-width=".106"><path id="path103" d="M127.41 120.45l-.52.09-.63.03-.62-.05-.33-.08"/><path id="path105" d="M125.75 118.7l.46.15.76-.1.16-.29-.62-.2-.76.1-.16.29.16.05v-.34"/><path id="path107" d="M126.51 118.26v.55"/></g><g id="g109" stroke-width=".317"><path id="path111" d="M127.41 120.45l.06-.01.45-.16.29-.21.08-.23v-1.11l-.01-.06-.15-.28-.05-.04-.3-.19-.49-.15-.55-.08-.58-.01-.57.05-.48.13-.04.01-.36.18-.04.04-.18.21-.03.06-.01.06v1.11l.02.23.22.22.41.18.21.04"/></g></g><g id="Actor_.5" stroke="#000"><g id="g114" stroke-width=".106"><path id="path116" d="M135.23 98.58v-.01"/><path id="path118" d="M135.33 98.8l.27.2.41.17.51.11 5.43.84.56.12.42.19.06.05-.01.01-2.06 1.79-.14.2.02.2.18.2.33.17.45.13 1.47.27 1.56.2.54.03.57-.04.42-.07.1-.02.42-.14.29-.18 2.28-1.98.36-.21.54-.17.65-.1.71-.02.69.06 5.42.84.53.05.57-.01.55-.07.46-.12.36-.16.72-.54.55-.57.07-.2-.08-.21"/><path id="path120" d="M135.99 96.96l-.54.57-.08.2.09.2.25.19.38.16.49.11 5.42.83.6.13.45.2.27.24.05.26-.17.25-.23.2"/><path id="path122" d="M135.23 97.86l.1.22.26.2.41.17.52.11 5.43.84.56.12.42.19.25.22.05.24-.16.24-.08.07"/><path id="path124" d="M135.6 99l.11.11"/><path id="path126" d="M137.43 97.42l-.03-.12.08-.11.17-.1.25-.08.3-.05.33-.01.32.03 3.9.6.28.07.21.09.12.11.02.12-.07.11-.18.1-.25.08-.3.05-.32.01-.32-.03-3.9-.6-.28-.07-.21-.09-.12-.11"/><path id="path128" d="M140.64 102.6l.02.22.19.22.36.18.48.14 1.49.27 1.57.2.59.03.6-.04.56-.09.45-.15.31-.19 2.28-1.99.34-.2.5-.16.62-.09.66-.02.64.06 5.42.83.58.06.61-.01.58-.07.5-.13.38-.17.73-.55.55-.57.08-.22"/><path id="path130" d="M140.85 103.76l.36.18.48.14 1.49.27 1.57.2.59.03.6-.04.55-.09.46-.16.31-.19"/><path id="path132" d="M143.85 102.9l-.27-.06-.21-.09-.12-.11-.03-.12.08-.12 1.64-1.42.17-.1.25-.08.3-.05.33-.01.33.04.26.06.22.09.12.11.02.12-.08.11-.55.48"/><path id="path134" d="M145.56 98.52l.09-.07.04-.08.5-1.41"/><path id="path136" d="M146.19 97.03l.02-.1v-.03"/><path id="path138" d="M146.2 92.49l.14.27.36.24.57.18.51.08.18.03.75.02.72-.07.62-.16.46-.22.23-.26"/><path id="path140" d="M150.35 91.96l.24.24.01.26-.22.25-.42.2-.59.15-.68.06-.7-.01-.65-.1-.53-.17-.34-.23-.13-.25.11-.26"/><path id="path142" d="M147.12 92.26l-.04.05.05.17.19.15.32.13.41.07.46.03.45-.03.4-.08.31-.13.18-.16.03-.17-.04-.05"/><path id="path144" d="M149.42 102.23l.12-.11.34-.2.5-.16.62-.09.66-.02.64.06 5.42.83.58.06.61-.01.58-.07.5-.13.38-.18.73-.54"/><path id="path146" d="M151.39 98.55l-.05-.08-.54-1.47"/><path id="path148" d="M150.76 96.89l-.01-.02.01.07.01.11"/><path id="path150" d="M150.75 96.87v-2.7"/><path id="path152" d="M150.75 95.92l.99-.86.18-.1.24-.08.31-.05h.32l.32.02.28.07.21.09.12.11.02.12-.07.11-.56.48"/><path id="path154" d="M153.96 99.53l-.13.04-.17.11-.08.11.03.12.12.11.21.09.28.07 3.9.6.32.02.32-.01.3-.04.25-.08.18-.1.07-.11-.02-.12-.12-.11-.21-.1-.28-.06-3.9-.6-.32-.03-.33.01-.3.05-.12.03"/><path id="path156" d="M155.99 94.88l.18.19.02.21-.14.2-2.28 1.98-.17.25.05.26.28.24-.14-.12-.05-.24.16-.24 2.28-1.98.15-.21"/><path id="path158" d="M153.93 98.21l.07.03"/></g><g id="g164" stroke-width=".317"><path id="path166" d="M147.12 91.75l-.35.12-.39.28-.06.07-.12.27.01 4.41-.02.06-.19.03-.7.02-.69-.06-5.42-.84-.55-.05-.57.01-.54.07-.47.12-.34.16-.73.54-.13.11-.55.57-.08.22v.72l.1.22.13.12.25.19.39.15.48.11 5.42.83.6.14.37.16-2.18 1.89-.15.21v.72l.02.22.19.22.13.1.33.17.45.13 1.47.27 1.56.2.54.03.57-.04.52-.09.42-.14.29-.18 2.29-1.98.35-.21.54-.17.65-.1.71-.02.69.06 5.42.84.53.05.57-.01.55-.07.46-.12.36-.16.72-.54.13-.11.55-.57.08-.22v-.72l-.09-.22-.13-.12-.25-.18-.38-.16-.49-.11-5.42-.83-.59-.13-.38-.17 2.18-1.89.15-.21v-.72l-.02-.22-.2-.22-.12-.1-.33-.18-.45-.12-1.48-.27-1.55-.2-.55-.03-.56.03-.32.06"/><path id="path168" d="M144.13 102.93l-.28-.03 1.09-.94.17-.1.25-.08.3-.05.33-.01.32.03-1.09.95-.17.1-.25.08-.3.04-.32.01h-.05"/><path id="path170" d="M149.84 91.75l.07.01.44.2.12.11.26.26.01.27.01 1.57"/><path id="path172" d="M150.98 97.01l-.18-.01-.04-.11.98-.85.18-.1.24-.08.31-.05h.32l.32.02-1.08.95-.18.1-.25.08-.3.04-.32.01"/></g></g><g id="Actor_.6"><g id="g175" stroke-width=".317" stroke="#000"><path id="path177" d="M147.12 53.87v38.56"/><path id="path179" d="M149.84 53.87v38.6"/></g></g><g id="Actor_.7" stroke="#000"><g id="g182" stroke-width=".106"><path id="path184" d="M122.1 42.49l.02.05"/><path id="path186" d="M122.93 43.85l.04.06.04.03"/><path id="path188" d="M122.87 43.75l.04.06"/><path id="path190" d="M123.96 44.84l.43.4.09.06"/><path id="path192" d="M126.27 46.46l.14.07"/><path id="path194" d="M127.75 47.16l1 .46.08.03"/><path id="path196" d="M131.03 48.41l.64.22"/><path id="path198" d="M134.51 49.48l-.17-.11-.04-.02-.31-.1-2.28-.61"/><path id="path200" d="M141.59 50.49l-.4.01-.39.05-.37.1-.26.15-.43.36-.13.07-.19.05-.22.02h-.24l-.16-.02-.68-.11.13.54-.05.53-.21.45-.36.34-.46.18-.52.01-.53-.18-.46-.33-.36-.45-.21-.52-.05-.54.13-.5-.68-.11-.17-.04-.17-.07-.07-.05-.03-.08-.07.55.11.9.18.45"/><path id="path202" d="M134.05 50.35l.04-.09.05-.04"/><path id="path204" d="M137.13 51.19l-.02-.02.31.19.27.11.36.12.18.04"/><path id="path206" d="M136.55 50.19l.01.01-.01-.04.06.33.08.19.07.13.18.22.17.14"/><path id="path208" d="M136.55 50.06l-.01.03"/><path id="path210" d="M136.54 50.07v-.02"/><path id="path212" d="M136.55 50.16v-.03"/><path id="path214" d="M139.7 53.17l-.09.05.23-.15"/><path id="path216" d="M139.54 53.28l.07-.06.05-.01h-.04"/><path id="path218" d="M144.6 50.71l-2.81-.21"/><path id="path220" d="M146.32 50.76l-1.67-.05"/><path id="path222" d="M148.6 50.81l.99-.02"/><path id="path224" d="M152.43 50.7l.24-.01"/><path id="path226" d="M152.87 50.67l-.17.02"/><path id="path228" d="M158.33 50.1l-1.96.28"/><path id="path230" d="M156.26 50.39l.1-.01"/><path id="path232" d="M159.93 49.87l.24-.05"/><path id="path234" d="M160.51 49.75l-.27.06"/><path id="path236" d="M163.34 49.16l.14-.03"/><path id="path238" d="M163.79 49.04l-.3.08"/><path id="path240" d="M167.06 48.03l-.54.22-.08.02"/><path id="path242" d="M169.26 47.17l-.12.06"/><path id="path244" d="M169.53 47.03l-.23.12"/><path id="path246" d="M171.39 46.05l.06-.03.16-.12"/><path id="path248" d="M172.52 45.23l-.89.66"/><path id="path250" d="M173.15 44.76l.08-.07"/><path id="path252" d="M174.4 43.36l-.02.04"/><path id="path254" d="M175.04 41.98l.01-.07"/></g><g id="g256" stroke-width=".317"><path id="path258" d="M175.13 40.87l.03 1.43-.13 1.03-.14.8-.41 1-.39.7-.7.97-.96.94-.57.48-1.2.88-1.44.82-1.67.76-1.88.7-2.53.76-2.16.52-2.31.43-2.41.35-2.49.25-2.56.15-2.58.06-2.59-.05-2.56-.14-2.51-.24-1.43-.19-.7.58-.7.35-.1.04-.79.11-.82-.13-.83-.38-.67-.55-.52-.7-.14-.35-.21-.05-2.54-.75-1.9-.69-1.7-.75-1.46-.82-1.23-.87-.57-.48-.99-.94-.73-.96-.39-.7-.45-1-.29-1.82v-1.34"/></g></g><g id="Actor_.8" stroke="#000"><g id="g261" stroke-width=".106"><path id="path263" d="M121.81 41.21v-.01"/><path id="path265" d="M126.39 46.62l-.01-.01"/><path id="path267" d="M127.75 47.25l-1.07-.49"/><path id="path269" d="M128.81 47.74l1.13.39"/><path id="path271" d="M134.34 49.46l-.35-.11-2.34-.63"/><path id="path275" d="M134.3 50.64l-.02-.01"/><path id="path277" d="M136.01 50.1l-.13.02-.42.27-.29.41"/><path id="path279" d="M134.49 50.69l-.02-.01"/><path id="path281" d="M134.31 50.64l.01.01"/><path id="path283" d="M134.38 49.49l.08.05.48-.55.59-.48"/><path id="path285" d="M134.46 49.54l-.09.12"/><path id="path287" d="M136.67 50.07l-.29-.04-.16.03"/><path id="path289" d="M138.96 51.4l-.01-.01"/><path id="path291" d="M139.19 51.4h.01"/><path id="path293" d="M139.02 51.4h.02"/><path id="path295" d="M138.8 51.38h.02"/><path id="path297" d="M140.69 50.68l.01-.01"/><path id="path299" d="M141.14 50.6l-.12.02"/><path id="path301" d="M144.68 50.81l-2.86-.21"/><path id="path303" d="M141.58 50.59h-.23"/><path id="path305" d="M146.32 50.85l2.25.06"/><path id="path307" d="M152.57 50.79l-.14.01-1.75.05"/><path id="path309" d="M156.32 50.48l-1.27.11"/><path id="path311" d="M160.04 49.95l-.11.02-2.43.34"/><path id="path313" d="M161.6 49.62l1.78-.37"/><path id="path315" d="M164.88 48.82l1.59-.46"/><path id="path317" d="M169.16 47.32l-1.01.39"/><path id="path319" d="M171.44 46.12l-.01.01"/><path id="path321" d="M173.17 44.84l.02-.01"/><path id="path323" d="M174.39 43.48v-.01"/><path id="path325" d="M175.04 42.08v-.01"/></g><g id="g327" stroke-width=".317"><path id="path329" d="M122.12 42.63l.17.29"/><path id="path331" d="M121.88 41.56l-.07-.35v-.66l.27-2.17.41-1.09.41-.99.66-.94.67-.95.94-.91.82-.7 1.15-.84 1.39-.79 2.4-1.1 1.73-.64 1.9-.57 2.06-.49 2.18-.41 2.29-.33 2.38-.24 2.42-.15 2.46-.05 2.46.04 2.43.14 2.38.23 2.3.32 2.2.4 2.07.48 1.92.57 1.75.63 2.41 1.09 1.42.78 1.18.84.81.69.97.91.7.94.65.94.45.99.41 1.09.16 1.01.14 1.16-.11 1.57"/><path id="path333" d="M123.86 44.84l-.86-.81"/><path id="path335" d="M125.57 46.1l-1.15-.73"/><path id="path337" d="M126.39 46.62l.29.14"/><path id="path339" d="M134.28 50.63l-.11-.04"/><path id="path341" d="M134.3 50.64h.01"/><path id="path343" d="M134.37 49.66l-.03.04-.26.65"/><path id="path345" d="M136.22 50.06l-.21.04-.84.7-.68-.11"/><path id="path347" d="M134.32 50.65l.15.03"/><path id="path349" d="M138.8 51.38l-.68-.11-.29-.5-.42-.4-.5-.26-.24-.04v.08l-.12-.02"/><path id="path351" d="M139.02 51.4h-.06"/><path id="path353" d="M139.19 51.4h-.15"/><path id="path355" d="M138.95 51.39l-.13-.01"/><path id="path357" d="M171.43 46.13l-1.09.57"/><path id="path359" d="M173.17 44.84l-.65.49"/><path id="path361" d="M173.61 44.35l.78-.87"/><path id="path363" d="M174.71 42.8l.33-.72v-.02"/></g></g><g id="Actor_.9" stroke="#000"><g id="g366" stroke-width=".106"><path id="path368" d="M112.51 83.37l.45.09.62.03.63-.04.4-.08"/><path id="path370" d="M114.13 81.27v.36l.21-.07-.21-.29-.78-.08v.53"/><path id="path372" d="M113.35 81.19l-.57.21.21.29.78.08.36-.14"/></g><g id="g374" stroke-width=".317"><path id="path376" d="M112.51 83.37l-.12-.02-.43-.17-.27-.21-.06-.23v-1.11l.01-.06.03-.06.15-.22.04-.04.32-.18.05-.02.46-.13.55-.07.59-.01.56.07.46.13.05.01.34.19.04.03.16.22.03.06.01.06v1.11l-.04.23-.25.21-.43.18-.15.03"/></g></g><g id="Actor_.10" stroke="#000"><g id="g379" stroke-width=".106"><path id="path381" d="M206.67 97.85l.2.05.61.07.63-.01.59-.08.07-.02"/><path id="path383" d="M207.37 95.69l.81.03v.45l-.1.06-.81-.02-.36-.27.46-.25v.52"/><path id="path385" d="M208.18 95.72l.35.26-.35.19"/></g><g id="g387" stroke-width=".317"><path id="path389" d="M208.77 97.86l.42-.13.33-.2.13-.23v-1.11l-.01-.06-.08-.23-.02-.05-.05-.04-.26-.2-.43-.16-.04-.01-.52-.1-.59-.02-.57.04-.51.11-.03.01-.4.17-.04.04-.23.21-.03.05-.01.06-.02.23v1.11l.17.23.37.19.32.08"/></g></g><g id="Actor_.11" stroke="#000"><g id="g392" stroke-width=".106"><path id="path394" d="M185.92 117.74l-.26.06-.62.06-.63-.02-.58-.09"/><path id="path396" d="M184.37 115.62l-.3.27.3.14v-.41l.8-.05.5.24-.3.27-.8.05-.2-.1"/><path id="path398" d="M185.17 115.57v.52"/></g><g id="g400" stroke-width=".317"><path id="path402" d="M183.83 117.75l-.48-.16-.3-.2-.11-.23v-1.11l.01-.06.1-.23.03-.05.04-.04.29-.19.44-.15.03-.01.54-.09.58-.02.57.05.5.12.04.01.37.17.05.04.2.21.03.06.01.06.01.23v1.11l-.21.22-.38.18-.27.07"/></g></g><g id="Actor_.12" stroke="#000"><g id="g405" stroke-width=".106"><path id="path407" d="M89.66 103.26l.41.08.63.04.62-.04.43-.08"/><path id="path409" d="M89.95 101.48l.12-.29v.32l-.12-.03"/><path id="path411" d="M90.07 101.19l.75-.11v.55"/><path id="path413" d="M90.82 101.08l.64.18-.12.29-.75.11-.52-.15"/></g><g id="g415" stroke-width=".317"><path id="path417" d="M89.66 103.26l-.15-.03-.43-.17-.25-.21-.05-.24v-1.11l.01-.06.03-.05.16-.22.04-.04.33-.18.05-.02.46-.13.56-.07h.59l.55.08.46.13.05.01.33.19.04.03.15.23.03.05.01.06v1.11l-.06.23-.25.21-.44.17-.13.03"/></g></g><g id="Actor_.13" stroke="#000"><g id="g420" stroke-width=".106"><path id="path422" d="M221.72 98.17l-.3 1.55-.84 1.51-1.38 1.46-5.66 4.93-10.05 8.74-1.89 1.38-2.36 1.28-2.8 1.16-3.19 1.01-3.53.86-3.8.67-4 .49-4.15.3-40.22 1.85-4.21.1-4.22-.11-4.14-.31-3.99-.51-3.78-.69-3.5-.86-3.16-1.03-2.77-1.16-21.4-10.32-3.1-1.5-2.33-1.29-1.85-1.39-1.34-1.46-.8-1.52-.26-1.54"/><path id="path424" d="M146.21 95.88l-.34-.07-.57-.05-.57.03-.52.09-.41.15-.25.19-.07.21.12.21.3.18.1.03"/><path id="path426" d="M145.25 102.68l-.05-.09.05-.12.14-.11.35-.11"/></g><g id="g428" stroke-width=".317"><path id="path430" d="M149.84 75.09l11.03-.51 4.22-.09 4.21.1 4.14.31 4 .51 3.78.69 3.5.87 3.16 1.02 2.77 1.17 24.5 11.81 2.33 1.29 1.85 1.39 1.34 1.46.8 1.52.25 1.54v1.05l-.3 1.54-.84 1.52-1.38 1.46-15.71 13.67-1.89 1.38-2.36 1.28-2.8 1.16-3.19 1.01-3.53.85-3.8.68-4 .49-4.15.29-40.22 1.86-4.21.09-4.22-.11-4.14-.31-3.99-.5-3.78-.69-3.5-.87-3.16-1.02-2.77-1.17-21.3-10.27-3.2-1.54-2.33-1.29-1.85-1.39-1.34-1.47-.8-1.51-.26-1.55v-1.04l.3-1.54.85-1.52 1.38-1.46 15.7-13.67 1.89-1.38 2.37-1.28 2.8-1.16 3.19-1.01 3.53-.85 3.79-.68 4.01-.49 4.15-.29 26.46-1.23"/><path id="path432" d="M144.34 96.9l.39-.07.57-.02.57.04.33.08-.28.06"/></g></g></g></g></svg>