<svg xmlns="http://www.w3.org/2000/svg" height="322.662" viewBox="0 0 73360.827 33610.16" width="704.277"><title>SVG Picture created as camera.sch.svg date 2017/09/21 18:48:16</title><desc>Picture generated by Eeschema-SVG</desc><rect rx="0" height="3000" width="3000" y="31000" x="19000" fill-opacity=".6" transform="translate(-18210 -10420)" fill="#ffffc2"/><g stroke-linejoin="round" stroke-linecap="round"><rect rx="0" height="3000" width="3000" y="31000" x="19000" fill="none" stroke="#840000" stroke-width="120" transform="translate(-18210 -10420)"/><g stroke="#840000" stroke-width="120" fill="#840000" transform="translate(-18210 -10420)"><circle cy="33000" cx="21500" r="250"/><circle cy="32000" cx="21500" r="250"/></g><g fill-opacity="0" fill="none"><g stroke-width="60"><path d="M3790 22580h2000" stroke="#840000"/><path d="M1890 22620h380" stroke="#008484"/><path d="M4930 22460h-280m140 0v-500l-50 70-50 50-40 20m-860-520h2000" stroke="#840000"/><path d="M1890 21620h380m-190 190v-380" stroke="#008484"/><path d="M4650 21000l20-20 50-20h120l40 20 30 20 20 50v50l-20 70-290 290h310" stroke="#840000"/><path d="M2120 19760v350l-20 70-50 50-70 30h-50m690 0h-280m140 0v-500l-50 70-50 50-40 20m-890 4020l330 500m0-500l-330 500m460-500h280m-140 500v-500m520 0h-90l-50 20-20 20-50 80-20 90v190l20 50 20 20 50 30h100l40-30 30-20 20-50v-120l-20-50-30-20-40-20h-100l-50 20-20 20-20 50m590-280h50l50 20 20 20 30 50 20 100v120l-20 90-30 50-20 20-50 30h-50l-40-30-30-20-20-50-20-90v-120l20-100 20-50 30-20 40-20" stroke="#008484"/></g><g stroke="#840000"><path d="M19570 21620h380m-190 190v-380m430 380v-500m240 500v-500l280 500v-500" stroke-width="60"/><path d="M19290 21580v460h1670l250-460-250-460h-1670v460" stroke-width="100"/><path d="M19570 22620h380m240 190v-500m240 500v-500l280 500v-500" stroke-width="60"/><path d="M19290 22580v460h1670l250-460-250-460h-1670v460" stroke-width="100"/><path d="M24150 21310h100l50 20 40 50 30 90v170l-30 90-40 50-50 30h-100l-40-30-50-50-20-90v-170l20-90 50-50 40-20m430 0v400l20 50 30 20 40 30h100l50-30 20-20 20-50v-400m170 0h280m-140 500v-500m310 310h380m-190 190v-380" stroke-width="60"/><path d="M26290 21580l-250-460h-2330v920h2330l250-460" stroke-width="100"/><path d="M24150 22310h100l50 20 40 50 30 90v170l-30 90-40 50-50 30h-100l-40-30-50-50-20-90v-170l20-90 50-50 40-20m430 0v400l20 50 30 20 40 30h100l50-30 20-20 20-50v-400m170 0h280m-140 500v-500m310 310h380" stroke-width="60"/><path d="M26290 22580l-250-460h-2330v920h2330l250-460" stroke-width="100"/><path d="M17290 21080v-1000" stroke-width="60"/><path d="M17290 20080l-250 500m250-500l250 500" stroke-width="120"/></g><path d="M16410 19570h380m-190 190v-380m410-80l20-20 50-20h120l40 20 30 20 20 50v50l-20 70-290 290h310m430-340v340m-120-530l-110 360h300m130-330l160 500 170-500" stroke-width="60" stroke="#008484"/></g></g><path fill-rule="evenodd" d="M16790 23580h1000l-500 500-500-500" fill-opacity=".6" fill="#ffffc2"/><g stroke-linejoin="round" fill-opacity="0" stroke-linecap="round" fill="none"><path d="M16790 23580h1000l-500 500-500-500" stroke-width="120" stroke="#840000"/><path d="M17290 23080v500" stroke-width="60" stroke="#840000"/><path d="M16910 24440l-50-20h-70l-70 20-50 50-20 50-20 90v70l20 100 20 40 50 50 70 30h50l70-30 20-20v-170h-90m310 220v-500l280 500v-500m240 500v-500h120l70 20 50 50 20 50 20 90v70l-20 100-20 40-50 50-70 30h-120" stroke-width="60" stroke="#008484"/></g><circle cy="32000" cx="50500" r="500" fill="#ffffc2" transform="translate(-18210 -10420)"/><g stroke-linejoin="round" fill-opacity="0" stroke-linecap="round" fill="none"><g stroke-width="120" stroke="#840000" transform="translate(-18210 -10420)"><circle cy="32000" cx="50500" r="500"/><circle cy="32000" cx="50500" r="200"/></g><g stroke-width="60"><path d="M32290 22080v500" stroke="#840000"/><path d="M32120 20260v350l-20 70-50 50-70 30h-50m410-460l20-20 50-20h120l40 20 30 20 20 50v50l-20 70-290 290h310" stroke="#008484"/><path d="M33550 22730h-500v-190l20-50 20-20 50-20h70l50 20 20 20 30 50v190m-260-590v-100l20-50 50-40 90-30h170l90 30 50 40 30 50v100l-30 40-50 50-90 20h-170l-90-20-50-50-20-40m0-380l500-120-360-100 360-90-500-120m230-190v-170m270-70v240h-500v-240m500-490l-240 160m240 120h-500v-190l20-50 20-20 50-20h70l50 20 20 20 30 50v190" stroke="#840084"/></g></g><path fill-rule="evenodd" d="M27790 23580h1000l-500 500-500-500" fill-opacity=".6" fill="#ffffc2"/><g stroke-linejoin="round" fill-opacity="0" stroke-linecap="round" fill="none"><path d="M27790 23580h1000l-500 500-500-500" stroke-width="120" stroke="#840000"/><g stroke-width="60"><path d="M28290 23080v500" stroke="#840000"/><path d="M27910 24440l-50-20h-70l-70 20-50 50-20 50-20 90v70l20 100 20 40 50 50 70 30h50l70-30 20-20v-170h-90m310 220v-500l280 500v-500m240 500v-500h120l70 20 50 50 20 50 20 90v70l-20 100-20 40-50 50-70 30h-120" stroke="#008484"/><path d="M28290 21080v-1000" stroke="#840000"/></g><path d="M28290 20080l-250 500m250-500l250 500" stroke-width="120" stroke="#840000"/><path d="M27410 19570h380m-190 190v-380m690 380h-280m140 0v-500l-50 70-50 50-40 20m480-100l20-20 50-20h120l40 20 30 20 20 50v50l-20 70-290 290h310m150-500l160 500 170-500" stroke-width="60" stroke="#008484"/></g><rect rx="0" height="9000" width="6000" y="17000" x="48500" fill-opacity=".6" transform="translate(-18210 -10420)" fill="#ffffc2"/><g stroke-linejoin="round" stroke-linecap="round"><rect rx="0" height="9000" width="6000" y="17000" x="48500" fill="none" stroke="#840000" stroke-width="120" transform="translate(-18210 -10420)"/><g stroke="#840000" stroke-width="120" fill="#840000" transform="translate(-18210 -10420)"><circle cy="25000" cx="49000" r="250"/><circle cy="24000" cx="49000" r="250"/><circle cy="23000" cx="49000" r="250"/><circle cy="22000" cx="49000" r="250"/><circle cy="21000" cx="49000" r="250"/><circle cy="20000" cx="49000" r="250"/><circle cy="19000" cx="49000" r="250"/><circle cy="18000" cx="49000" r="250"/></g><g fill-opacity="0" fill="none"><g stroke-width="60"><path d="M30290 7580h-2000" stroke="#840000"/><path d="M31740 7310h280m-140 500v-500m260 0l330 500m0-500l-330 500m530-190h380m-190 190v-380m790-150l-430 650m590-120v-500h120l70 20 50 50 20 50 20 90v70l-20 100-20 40-50 50-70 30h-120m480-150h230m-280 150l160-500 170 500m170-190h380m-190 190v-380" stroke="#008484"/><path d="M29430 7460h-280m140 0v-500l-50 70-50 50-40 20m1140 1480h-2000" stroke="#840000"/><path d="M31740 8310h280m-140 500v-500m260 0l330 500m0-500l-330 500m530-190h380m600-340l-430 650m590-120v-500h120l70 20 50 50 20 50 20 90v70l-20 100-20 40-50 50-70 30h-120m480-150h230m-280 150l160-500 170 500m170-190h380" stroke="#008484"/><path d="M29150 8000l20-20 50-20h120l40 20 30 20 20 50v50l-20 70-290 290h310m860 1120h-2000" stroke="#840000"/><path d="M32090 9810l-160-240m-120 240v-500h190l50 20 20 20 20 50v70l-20 50-20 20-50 30h-190m450-260l330 500m0-500l-330 500m530-190h380m-190 190v-380m790-150l-430 650m590-120v-500h120l70 20 50 50 20 50 20 90v70l-20 100-20 40-50 50-70 30h-120m670-270l70 30 20 20 20 50v70l-20 50-20 20-50 30h-190v-500h170l40 20 30 20 20 50v50l-20 50-30 20-40 20h-170m500 80h380m-190 190v-380" stroke="#008484"/><path d="M29120 8960h310l-170 190h80l40 20 30 20 20 50v120l-20 50-30 20-40 30h-150l-40-30-30-20m1170 1170h-2000" stroke="#840000"/><path d="M31810 10810v-500h120l70 20 50 50 20 50 20 90v70l-20 100-20 40-50 50-70 30h-120m780-50l-20 20-70 30h-50l-70-30-50-50-20-40-20-100v-70l20-90 20-50 50-50 70-20h50l70 20 20 20m220 270h380m-190 190v-380" stroke="#008484"/><path d="M29380 10120v340m-120-530l-110 360h300m840 1290h-2000" stroke="#840000"/><path d="M31810 11810v-500h120l70 20 50 50 20 50 20 90v70l-20 100-20 40-50 50-70 30h-120m780-50l-20 20-70 30h-50l-70-30-50-50-20-40-20-100v-70l20-90 20-50 50-50 70-20h50l70 20 20 20m220 270h380" stroke="#008484"/><path d="M29410 10960h-240l-20 230 20-20 50-20h120l40 20 30 20 20 50v120l-20 50-30 20-40 30h-120l-50-30-20-20m1140 1170h-2000" stroke="#840000"/><path d="M32090 12810l-160-240m-120 240v-500h190l50 20 20 20 20 50v70l-20 50-20 20-50 30h-190m450-260l330 500m0-500l-330 500m530-190h380m600-340l-430 650m590-120v-500h120l70 20 50 50 20 50 20 90v70l-20 100-20 40-50 50-70 30h-120m670-270l70 30 20 20 20 50v70l-20 50-20 20-50 30h-190v-500h170l40 20 30 20 20 50v50l-20 50-30 20-40 20h-170m500 80h380" stroke="#008484"/><path d="M29380 11960h-90l-50 20-20 20-50 80-20 90v190l20 50 20 20 50 30h100l40-30 30-20 20-50v-120l-20-50-30-20-40-20h-100l-50 20-20 20-20 50m1140 1340h-2000" stroke="#840000"/><path d="M31810 13810v-500h120l70 20 50 50 20 50 20 90v70l-20 100-20 40-50 50-70 30h-120m500 0v-500h120l70 20 50 50 20 50 20 90v70l-20 100-20 40-50 50-70 30h-120m500-190h380m-190 190v-380" stroke="#008484"/><path d="M29120 12960h330l-210 500m1050 1120h-2000" stroke="#840000"/><path d="M31810 14810v-500h120l70 20 50 50 20 50 20 90v70l-20 100-20 40-50 50-70 30h-120m500 0v-500h120l70 20 50 50 20 50 20 90v70l-20 100-20 40-50 50-70 30h-120m500-190h380" stroke="#008484"/><path d="M29240 14170l-50-20-20-30-20-40v-30l20-50 20-20 50-20h100l40 20 30 20 20 50v30l-20 40-30 30-40 20h-100l-50 20-20 30-20 50v90l20 50 20 20 50 30h100l40-30 30-20 20-50v-90l-20-50-30-30-40-20" stroke="#840000"/><path d="M33120 5760v350l-20 70-50 50-70 30h-50m380-500h310l-170 190h80l40 20 30 20 20 50v120l-20 50-30 20-40 30h-150l-40-30-30-20m-850 10210l-160-240m-120 240v-500h190l50 20 20 20 20 50v70l-20 50-20 20-50 30h-190m640-260v350l-20 70-50 50-70 30h-50m430-190h380m450-150v340m-120-530l-110 360h300m440-330h-240l-20 230 20-20 50-20h120l40 20 30 20 20 50v120l-20 50-30 20-40 30h-120l-50-30-20-20" stroke="#008484"/><path d="M36710 12770v-170m270-70v240h-500v-240m0-140v-280m500 140h-500m500-310h-500m230 0v-280m270 0h-500m230-240v-170m270-70v240h-500v-240m500-490l-240 160m240 120h-500v-190l20-50 20-20 50-20h70l50 20 20 20 30 50v190m240-500h-500l500-280h-500m230-240v-170m270-70v240h-500v-240m0-140v-280m500 140h-500" stroke="#840084"/><path d="M24340 6960h280m-140 500v-500m260 0l330 500m0-500l-330 500m530-190h380m-190 190v-380m-1120 880h280m-140 500v-500m260 0l330 500m0-500l-330 500m530-190h380m-960 1190l-160-240m-120 240v-500h190l50 20 20 20 20 50v70l-20 50-20 20-50 30h-190m450-260l330 500m0-500l-330 500m530-190h380m-190 190v-380m-890 3380l-160-240m-120 240v-500h190l50 20 20 20 20 50v70l-20 50-20 20-50 30h-190m450-260l330 500m0-500l-330 500m530-190h380" stroke="#000"/><path d="M22790 6580l1000 1000m-1000 0l1000 1000m-1000 0l1000 1000m-1000 2000l1000 1000" stroke="#008400"/><path d="M28050 10340l480 480m0-480l-480 480m0 520l480 480m0-480l-480 480m0 1520l480 480m0-480l-480 480m0 520l480 480m0-480l-480 480" stroke="#000084"/><path d="M3530 4510h330m140 520h-470V4030h470m290 340h380m-240-340v860l50 90 90 50h100m330 0V4030m430 1000v-520l-50-100-100-40h-140l-90 40-50 50m1280 520l-100 50h-190l-90-50-50-90v-380l50-100 90-40h190l100 40 50 100v90l-480 100m910 330v-660m0 190l50-100 40-50 100-40h90m340 0v660m0-570l50-50 90-40h140l100 40 50 100v520m850-50l-100 50h-190l-90-50-50-90v-380l50-100 90-40h190l100 40 50 100v90l-480 100m770-330h380m-240-340v860l50 90 90 50h100M30 19030v-1000h380l90 50 50 50 50 90v150l-50 90-50 50-90 50H30m1140 470l-90-50-50-40-50-100v-280l50-100 50-50 90-40h140l100 40 50 50 40 100v280l-40 100-50 40-100 50h-140m660-660l190 660 190-470 190 470 190-660m770 610l-100 50h-190l-90-50-50-90v-380l50-100 90-40h190l100 40 50 100v90l-480 100m910 330v-660m0 190l50-100 40-50 100-40h90M31030 3030V2030l570 1000V2030m340 0l330 1000 330-1000m340 1000V2030m480 1000V2030h240l140 50 90 100 50 90 50 190v140l-50 190-50 100-90 90-140 50h-240m1000 0V2030m430 720h480m-570 280l330-1000 330 1000m1380-1000v720l-40 140-100 90-140 50h-100m1240-50l-100 50h-190l-90-50-50-90v-380l50-100 90-40h190l100 40 50 100v90l-480 100m770-330h380m-240-340v860l50 90 90 50h100m280-50l100 50h190l90-50 50-90v-50l-50-90-90-50h-150l-90-50-50-90v-50l50-100 90-40h150l90 40m620 620l-90-50-50-40-50-100v-280l50-100 50-50 90-40h140l100 40 50 50 40 100v280l-40 100-50 40-100 50h-140m760-660v660m0-570l50-50 90-40h140l100 40 50 100v520m1090-1000h570m-290 1000V2030m620 1000V2030m570 1000l-430-570m430-430l-570 570m1520 430h-570m290 0V2030l-100 150-90 90-100 50" stroke="#0000c2"/><path d="M37520 25650h-340m50 0l-20-20-30-50v-70l30-50 40-20h270m-270 0l-40-30-30-40v-80l30-40 40-30h270m0-240h-340m-160 0l20 20 20-20-20-20-20 20h40m120-240h340m-290 0l-20-20-30-50v-70l30-50 40-20h270m0-240h-340m-160 0l20 20 20-20-20-20-20 20h40m460-240h-500v-190l20-50 20-20 50-20h70l50 20 20 20 30 50v190m190-780l20 20 30 70v50l-30 70-50 50-40 20-100 20h-70l-90-20-50-20-50-50-20-70v-50l20-70 20-20m460-220h-500m470-430l30 50v90l-30 50-50 20h-190l-40-20-30-50v-90l30-50 40-20h50l50 230" stroke="#840000"/></g><path d="M37290 26080l460-250v-3560l-460-250-460 250v3560l460 250" stroke-width="100" stroke="#840000"/></g></g><rect rx="0" height="5000" width="2000" y="32000" x="70500" fill-opacity=".6" transform="translate(-18210 -10420)" fill="#ffffc2"/><g stroke-linejoin="round" stroke-linecap="round"><rect rx="0" height="5000" width="2000" y="32000" x="70500" fill="none" stroke="#840000" stroke-width="120" transform="translate(-18210 -10420)"/><path d="M53540 25330h500v500h-500v-500m0-1000h500v500h-500v-500m0-1000h500v500h-500v-500m0-1000h500v500h-500v-500" fill-rule="evenodd" stroke="#840000" stroke-width="120" fill="#840000"/><g fill-opacity="0" stroke-width="60" fill="none"><path d="M54290 22580h2000m-860-120h-280m140 0v-500l-50 70-50 50-40 20m-860 1480h2000m-1140-580l20-20 50-20h120l40 20 30 20 20 50v50l-20 70-290 290h310m-1140 1120h2000m-1170-620h310l-170 190h80l40 20 30 20 20 50v120l-20 50-30 20-40 30h-150l-40-30-30-20m-830 1170h2000m-910-460v340m-120-530l-110 360h300" stroke="#840000"/><path d="M53120 20760v350l-20 70-50 50-70 30h-50m670-500h-240l-20 230 20-20 50-20h120l40 20 30 20 20 50v120l-20 50-30 20-40 30h-120l-50-30-20-20m-4160 5910h-240l-20 230 20-20 50-20h120l40 20 30 20 20 50v120l-20 50-30 20-40 30h-120l-50-30-20-20m760 50h-280m140 0v-500l-50 70-50 50-40 20m590-140h50l50 20 20 20 30 50 20 100v120l-20 90-30 50-20 20-50 30h-50l-40-30-30-20-20-50-20-90v-120l20-100 20-50 30-20 40-20m370 40l20-20 50-20h120l40 20 30 20 20 50v50l-20 70-290 290h310m480 0h-280m140 0v-500l-50 70-50 50-40 20m500 170h380m330-310h50l50 20 20 20 30 50 20 100v120l-20 90-30 50-20 20-50 30h-50l-40-30-30-20-20-50-20-90v-120l20-100 20-50 30-20 40-20m600 160v340m-120-530l-110 360h300m290-330h50l50 20 20 20 30 50 20 100v120l-20 90-30 50-20 20-50 30h-50l-40-30-30-20-20-50-20-90v-120l20-100 20-50 30-20 40-20m480 0h50l50 20 20 20 30 50 20 100v120l-20 90-30 50-20 20-50 30h-50l-40-30-30-20-20-50-20-90v-120l20-100 20-50 30-20 40-20" stroke="#008484"/><path d="M53000 24390l20 20 30 70v50l-30 70-50 50-40 20-100 20h-70l-90-20-50-20-50-50-20-70v-50l20-70 20-20m310-200v-230m150 280l-500-160 500-170m0-170h-500l500-280h-500" stroke="#840084"/><path d="M37030 19030v-1000m480 340v660m0-570l50-50 90-40h140l100 40 50 100v520m470-660v660m0-570l50-50 90-40h140l100 40 50 100v520m610 0l-90-50-50-40-50-100v-280l50-100 50-50 90-40h140l100 40 50 50 40 100v280l-40 100-50 40-100 50h-140m1190 0v-1000m0 950l-100 50h-190l-90-50-50-40-50-100v-280l50-100 50-50 90-40h190l100 40m470 620v-660m0-340l-50 50 50 50 50-50-50-50v100m430 850l100 50h190l90-50 50-90v-50l-50-90-90-50h-150l-90-50-50-90v-50l50-100 90-40h150l90 40m480 620v-1000m90 620l290 380m0-660l-380 380m1570-240h330m140 520h-470v-1000h470m430 1000v-1000l330 720 330-720v1000m480-1000v810l50 100 40 40 100 50h190l90-50 50-40 50-100v-810m1050 910l-50 40-140 50h-100l-140-50-90-90-50-100-50-190v-140l50-190 50-90 90-100 140-50h100l140 50 50 50m430 520h760m810-140l140 50 50 40 50 100v140l-50 100-50 40-90 50h-380v-1000h330l100 50 40 50 50 90v100l-50 90-40 50-100 50h-330m950-380l50-50 90-50h240l100 50 40 50 50 90v100l-50 140-570 570h620m620-1000h90l100 50 50 50 40 90 50 190v240l-50 190-40 100-50 40-100 50h-90l-100-50-40-40-50-100-50-190v-240l50-190 50-90 40-50 100-50m1280 1000h-570m290 0v-1000l-100 150-90 90-100 50" stroke="#0000c2"/></g></g><rect rx="0" height="8000" width="9000" y="17000" x="63500" fill-opacity=".6" transform="translate(-18210 -10420)" fill="#ffffc2"/><g stroke-linejoin="round" stroke-linecap="round"><rect rx="0" height="8000" width="9000" y="17000" x="63500" fill="none" stroke="#840000" stroke-width="120" transform="translate(-18210 -10420)"/><g stroke="#840000" stroke-width="120" fill="#840000" transform="translate(-18210 -10420)"><circle cy="24500" cx="68000" r="250"/><circle cy="17500" cx="68000" r="250"/><circle cy="23000" cx="72000" r="250"/><circle cy="22000" cx="72000" r="250"/><circle cy="21000" cx="72000" r="250"/><circle cy="20000" cx="72000" r="250"/><circle cy="19000" cx="72000" r="250"/></g><g fill-opacity="0" stroke-width="60" fill="none"><path d="M54290 8580h2000" stroke="#840000"/><path d="M51010 8310l160 500 170-500m340 230l70 30 20 20 20 50v70l-20 50-20 20-50 30h-190v-500h170l40 20 30 20 20 50v50l-20 50-30 20-40 20h-170m500-230v400l20 50 30 20 40 30h100l50-30 20-20 20-50v-400m220 470l70 30h120l40-30 30-20 20-50v-50l-20-40-30-30-40-20-100-30-50-20-20-20-20-50v-50l20-50 20-20 50-20h120l70 20" stroke="#008484"/><path d="M55430 8460h-280m140 0v-500l-50 70-50 50-40 20m-860 1480h2000" stroke="#840000"/><path d="M51890 9810v-500h120l70 20 50 50 20 50 20 90v70l-20 100-20 40-50 50-70 30h-120m500-190h380" stroke="#008484"/><path d="M55150 9000l20-20 50-20h120l40 20 30 20 20 50v50l-20 70-290 290h310m-1140 1120h2000" stroke="#840000"/><path d="M51890 10810v-500h120l70 20 50 50 20 50 20 90v70l-20 100-20 40-50 50-70 30h-120m500-190h380m-190 190v-380" stroke="#008484"/><path d="M55120 9960h310l-170 190h80l40 20 30 20 20 50v120l-20 50-30 20-40 30h-150l-40-30-30-20m-830 1170h2000" stroke="#840000"/><path d="M52270 11810v-500m240 500v-500h120l70 20 50 50 20 50 20 90v70l-20 100-20 40-50 50-70 30h-120" stroke="#008484"/><path d="M55380 11120v340m-120-530l-110 360h300m-1160 1290h2000" stroke="#840000"/><path d="M51750 12330l-50-20h-70l-70 20-50 50-20 50-20 90v70l20 100 20 40 50 50 70 30h50l70-30 20-20v-170h-90m310 220v-500l280 500v-500m240 500v-500h120l70 20 50 50 20 50 20 90v70l-20 100-20 40-50 50-70 30h-120" stroke="#008484"/><path d="M55410 11960h-240l-20 230 20-20 50-20h120l40 20 30 20 20 50v120l-20 50-30 20-40 30h-120l-50-30-20-20m-5360-5830V4580" stroke="#840000"/><path d="M49970 9440l20 20 30 70v50l-30 70-50 50-40 20-100 20h-70l-90-20-50-20-50-50-20-70v-50l20-70 20-20m310-200v-230m150 280l-500-160 500-170m-30-150l30-70v-120l-30-40-20-30-50-20h-50l-40 20-30 30-20 40-30 100-20 50-20 20-50 20h-50l-50-20-20-20-20-50v-120l20-70m210-220v-170m270-70v240h-500v-240" stroke="#008484"/><path d="M49170 5750v-330l500 210m120 8950v2000" stroke="#840000"/><path d="M49970 12780l20 20 30 70v50l-30 70-50 50-40 20-100 20h-70l-90-20-50-20-50-50-20-70v-50l20-70 20-20m310-200v-230m150 280l-500-160 500-170m-30-150l30-70v-120l-30-40-20-30-50-20h-50l-40 20-30 30-20 40-30 100-20 50-20 20-50 20h-50l-50-20-20-20-20-50v-120l20-70m210-220v-170m270-70v240h-500v-240" stroke="#008484"/><path d="M49380 15630l-20 50-30 20-40 20h-30l-50-20-20-20-20-50v-100l20-40 20-30 50-20h30l40 20 30 30 20 40v100l20 50 30 20 50 20h90l50-20 20-20 30-50v-100l-30-40-20-30-50-20h-90l-50 20-30 30-20 40" stroke="#840000"/><path d="M45550 5760v350l-20 70-50 50-70 30h-50m640-340v340m-120-530l-110 360h300m4140 9330v-340m0 50l20-20 50-30h70l50 30 20 40v270m0-270l30-40 40-30h80l40 30 30 40v270m240 0v-340m0-160l-20 20 20 20 20-20-20-20v40m450 430l-40 30h-100l-50-30-20-20-20-50v-140l20-50 20-20 50-30h100l40 30m220 310v-340m0 100l20-50 30-20 40-30h50m240 340l-50-30-20-20-20-50v-140l20-50 20-20 50-30h70l50 30 20 20 30 50v140l-30 50-20 20-50 30h-70m380-190h380m240-310v400l20 50 30 20 40 30h100l50-30 20-20 20-50v-400m220 470l70 30h120l40-30 30-20 20-50v-50l-20-40-30-30-40-20-100-30-50-20-20-20-20-50v-50l20-50 20-20 50-20h120l70 20m390 210l70 30 20 20 20 50v70l-20 50-20 20-50 30h-190v-500h170l40 20 30 20 20 50v50l-20 50-30 20-40 20h-170" stroke="#008484"/><path d="M47050 12790h400l50-20 20-30 30-40v-100l-30-50-20-20-50-20h-400m470-220l30-70v-120l-30-40-20-30-50-20h-50l-40 20-30 30-20 40-30 100-20 50-20 20-50 20h-50l-50-20-20-20-20-50v-120l20-70m210-390l30-70 20-20 50-20h70l50 20 20 20 30 50v190h-500v-170l20-40 20-30 50-20h50l50 20 20 30 20 40v170m80-500v-380m190-240h-500v-120l20-70 50-50 50-20 90-20h70l100 20 40 20 50 50 30 70v120m-270-500v-170m270-70v240h-500v-240m0-140l500-160-500-170m500-170h-500m450-520l20 20 30 70v50l-30 70-50 50-40 20-100 20h-70l-90-20-50-20-50-50-20-70v-50l20-70 20-20m190-220v-170m270-70v240h-500v-240" stroke="#840084"/><path d="M49550 4340l480 480m0-480l-480 480m0 11520l480 480m0-480l-480 480m6500-5480l480 480m0-480l-480 480m0-3480l480 480m0-480l-480 480" stroke="#000084"/></g></g><rect rx="0" height="4000" width="2000" y="33000" x="82500" fill-opacity=".6" transform="translate(-18210 -10420)" fill="#ffffc2"/><g stroke-linejoin="round" stroke-linecap="round"><rect rx="0" height="4000" width="2000" y="33000" x="82500" fill="none" stroke="#840000" stroke-width="120" transform="translate(-18210 -10420)"/><path d="M65040 25330h-500v500h500v-500m0-1000h-500v500h500v-500m0-1000h-500v500h500v-500" fill-rule="evenodd" stroke="#840000" stroke-width="120" fill="#840000"/><g fill-opacity="0" stroke-width="60" fill="none"><path d="M64290 23580h-2000m1140-120h-280m140 0v-500l-50 70-50 50-40 20m1140 1480h-2000m860-580l20-20 50-20h120l40 20 30 20 20 50v50l-20 70-290 290h310m860 1120h-2000m830-620h310l-170 190h80l40 20 30 20 20 50v120l-20 50-30 20-40 30h-150l-40-30-30-20" stroke="#840000"/><path d="M65120 21760v350l-20 70-50 50-70 30h-50m380-500h330l-210 500m1800 5270l30-70v-120l-30-40-20-30-50-20h-50l-40 20-30 30-20 40-30 100-20 50-20 20-50 20h-50l-50-20-20-20-20-50v-120l20-70m480-220h-500l350-170-350-160h500m-500-330v-50l20-50 20-20 50-30 100-20h120l90 20 50 30 20 20 30 50v50l-30 40-20 30-50 20-90 20h-120l-100-20-50-20-20-30-20-40m0-340v-310l190 170v-80l20-40 20-30 50-20h120l50 20 20 30 30 40v150l-30 40-20 30m-220-700l30-70 20-20 50-20h70l50 20 20 20 30 50v190h-500v-170l20-40 20-30 50-20h50l50 20 20 30 20 40v170m80-500v-380m-290-500l-20 50v70l20 70 50 50 50 20 90 20h70l100-20 40-20 50-50 30-70v-50l-30-70-20-20h-170v90m220-310h-500m230 0v-280m270 0h-500m470-220l30-70v-120l-30-40-20-30-50-20h-50l-40 20-30 30-20 40-30 100-20 50-20 20-50 20h-50l-50-20-20-20-20-50v-120l20-70m290-220v-380m-310-170v-280m500 140h-500m230-480l30-70 20-20 50-20h70l50 20 20 20 30 50v190h-500v-170l20-40 20-30 50-20h50l50 20 20 30 20 40v170" stroke="#008484"/><path d="M65930 24890l20 20 30 70v50l-30 70-50 50-40 20-100 20h-70l-90-20-50-20-50-50-20-70v-50l20-70 20-20m310-200v-230m150 280l-500-160 500-170m0-170h-500l500-280h-500" stroke="#840084"/></g></g><rect rx="0" height="8000" width="2000" y="14000" x="82500" fill-opacity=".6" transform="translate(-18210 -10420)" fill="#ffffc2"/><g stroke-linejoin="round" stroke-linecap="round"><rect rx="0" height="8000" width="2000" y="14000" x="82500" fill="none" stroke="#840000" stroke-width="120" transform="translate(-18210 -10420)"/><path d="M65040 10330h-500v500h500v-500m0-1000h-500v500h500v-500m0-1000h-500v500h500v-500m0-1000h-500v500h500v-500m0-1000h-500v500h500v-500m0-1000h-500v500h500v-500m0-1000h-500v500h500v-500" fill-rule="evenodd" stroke="#840000" stroke-width="120" fill="#840000"/><g fill-opacity="0" fill="none"><g stroke-width="60"><path d="M64290 4580h-2000m1140-120h-280m140 0v-500l-50 70-50 50-40 20m1140 1480h-2000m860-580l20-20 50-20h120l40 20 30 20 20 50v50l-20 70-290 290h310m860 1120h-2000m830-620h310l-170 190h80l40 20 30 20 20 50v120l-20 50-30 20-40 30h-150l-40-30-30-20m1170 1170h-2000m1090-460v340m-120-530l-110 360h300m840 1290h-2000m1120-620h-240l-20 230 20-20 50-20h120l40 20 30 20 20 50v120l-20 50-30 20-40 30h-120l-50-30-20-20m1140 1170h-2000m1090-620h-90l-50 20-20 20-50 80-20 90v190l20 50 20 20 50 30h100l40-30 30-20 20-50v-120l-20-50-30-20-40-20h-100l-50 20-20 20-20 50m1140 1340h-2000m830-620h330l-210 500" stroke="#840000"/><path d="M65120 2760v350l-20 70-50 50-70 30h-50m640-500h-90l-50 20-20 20-50 80-20 90v190l20 50 20 20 50 30h100l40-30 30-20 20-50v-120l-20-50-30-20-40-20h-100l-50 20-20 20-20 50m1890 6990l30-70v-120l-30-40-20-30-50-20h-50l-40 20-30 30-20 40-30 100-20 50-20 20-50 20h-50l-50-20-20-20-20-50v-120l20-70m480-220h-500l350-170-350-160h500m-500-330v-50l20-50 20-20 50-30 100-20h120l90 20 50 30 20 20 30 50v50l-30 40-20 30-50 20-90 20h-120l-100-20-50-20-20-30-20-40m0-340v-330l500 210m-270-580l30-70 20-20 50-20h70l50 20 20 20 30 50v190h-500v-170l20-40 20-30 50-20h50l50 20 20 30 20 40v170m80-500v-380m-290-500l-20 50v70l20 70 50 50 50 20 90 20h70l100-20 40-20 50-50 30-70v-50l-30-70-20-20h-170v90m220-310h-500m230 0v-280m270 0h-500m470-220l30-70v-120l-30-40-20-30-50-20h-50l-40 20-30 30-20 40-30 100-20 50-20 20-50 20h-50l-50-20-20-20-20-50v-120l20-70m290-220v-380m-310-170v-280m500 140h-500m230-480l30-70 20-20 50-20h70l50 20 20 20 30 50v190h-500v-170l20-40 20-30 50-20h50l50 20 20 30 20 40v170" stroke="#008484"/><path d="M65480 8600l500-160-500-170m500-170h-500m500-240h-500v-120l20-70 50-50 50-20 90-20h70l100 20 40 20 50 50 30 70v120m-270-500v-170m270-70v240h-500v-240m0-300v-100l20-50 50-40 90-30h170l90 30 50 40 30 50v100l-30 40-50 50-90 20h-170l-90-20-50-50-20-40" stroke="#840084"/><path d="M59190 23410l-20 20-70 30h-50l-70-30-50-50-20-40-20-100v-70l20-90 20-50 50-50 70-20h50l70 20 20 20m200 310h230m-280 150l160-500 170 500m170 0v-500l280 500v-500m120 540h380m360-40h-240v-500m-1550 1450l-20 20-70 30h-50l-70-30-50-50-20-40-20-100v-70l20-90 20-50 50-50 70-20h50l70 20 20 20m200 310h230m-280 150l160-500 170 500m170 0v-500l280 500v-500m120 540h380m120-40v-500m0 230h280m0 270v-500m-2110-13500v-500h120l70 20 50 50 20 50 20 90v70l-20 100-20 40-50 50-70 30h-120m430-500l160 500 170-500m150 470l70 30h120l40-30 30-20 20-50v-50l-20-40-30-30-40-20-100-30-50-20-20-20-20-50v-50l20-50 20-20 50-20h120l70 20m390 210l70 30 20 20 20 50v70l-20 50-20 20-50 30h-190v-500h170l40 20 30 20 20 50v50l-20 50-30 20-40 20h-170m500 80h380m-190 190v-380m-2100-620v-500h120l70 20 50 50 20 50 20 90v70l-20 100-20 40-50 50-70 30h-120m430-500l160 500 170-500m150 470l70 30h120l40-30 30-20 20-50v-50l-20-40-30-30-40-20-100-30-50-20-20-20-20-50v-50l20-50 20-20 50-20h120l70 20m390 210l70 30 20 20 20 50v70l-20 50-20 20-50 30h-190v-500h170l40 20 30 20 20 50v50l-20 50-30 20-40 20h-170m500 80h380" stroke="#000"/><path d="M57790 12580h-1500m1500-4000v4000m4500-4000h-4500m-1500 2000h6000m-6000-1000h6000m0 15000h-4000m4000-1000h-4000" stroke="#008400"/></g><path d="M37790 19580v9000m-1000-9000v9000m17500-9000H36790M54290 3580H30290m24000 25000V3580M30290 28580h24000M30290 3580v25000" stroke-width="60" stroke-dasharray="136.85, 158.425" stroke="#0000c2"/><path d="M22790 5580H2790m20000 0v1000m0 0v1000m0 0v1000m0 0v3000m0 0v2000" stroke-width="120" stroke="#000084"/><path d="M23790 12580h4500m-4500-3000h4500m-4500-1000h4500m-4500-1000h4500" stroke-width="60" stroke="#008400"/></g><g stroke="#008400"><circle cy="32000" cx="46500" r="200" stroke-width="100" fill="#008400" transform="translate(-18210 -10420)"/><path d="M28290 21080v500" fill="none" stroke-width="60"/><circle cy="33000" cx="46500" r="200" stroke-width="100" fill="#008400" transform="translate(-18210 -10420)"/><path d="M28290 23080v-500m-2000 0h2000m0 0h4000m-6000-1000h2000m0 0h4000" stroke-width="60" fill="none"/><circle cy="33000" cx="35500" r="200" stroke-width="100" fill="#008400" transform="translate(-18210 -10420)"/><path d="M17290 22580v500" fill="none" stroke-width="60"/><circle cy="32000" cx="35500" r="200" stroke-width="100" fill="#008400" transform="translate(-18210 -10420)"/></g><g fill-opacity="0" stroke-width="60" fill="none"><path d="M17290 21580v-500M5790 22580h7500m0 0h4000m0 0h2000m-9500-1000h4500m0 0h3000m0 0h2000" stroke="#008400"/><path d="M26290 20580h-7000m7000 3000v-3000m-7000 3000h7000m-7000-3000v3000" stroke-dasharray="136.85, 158.425" stroke="#0000c2"/><path d="M59170 7980l-50-20h-70l-70 20-50 50-20 50-20 90v70l20 100 20 40 50 50 70 30h50l70-30 20-20v-170h-90m310 220v-500l280 500v-500m240 500v-500h120l70 20 50 50 20 50 20 90v70l-20 100-20 40-50 50-70 30h-120m-760 16520l-50-20h-70l-70 20-50 50-20 50-20 90v70l20 100 20 40 50 50 70 30h50l70-30 20-20v-170h-90m310 220v-500l280 500v-500m240 500v-500h120l70 20 50 50 20 50 20 90v70l-20 100-20 40-50 50-70 30h-120" stroke="#000"/><path d="M56290 25580h6000m-6000-2000h1000m0 0l1000 1000m-2000 0h1000m0 0l1000-1000" stroke="#008400"/><path d="M56050 22340l480 480m0-480l-480 480m6000-18480l480 480m0-480l-480 480m0 520l480 480m0-480l-480 480m0 520l480 480m0-480l-480 480m0 520l480 480m0-480l-480 480" stroke="#000084"/><path d="M13290 31580h51000" stroke="#008400"/></g><g stroke="#008400"><circle cy="33000" cx="31500" r="200" stroke-width="100" fill="#008400" transform="translate(-18210 -10420)"/><path d="M64290 30580H14290m0 0v-9000" stroke-width="60" fill="none"/><circle cy="32000" cx="32500" r="200" stroke-width="100" fill="#008400" transform="translate(-18210 -10420)"/></g><g fill-opacity="0" fill="none"><g stroke-width="60" stroke="#0000c2"><path d="M64290 1580v32000m0 0h4000m0 0V1580m0 0h-4000" stroke-dasharray="136.85, 158.425"/><path d="M59030 1030V30h240l140 50 90 100 50 90 50 190v140l-50 190-50 100-90 90-140 50h-240M60310 30v720l-40 140-100 90-140 50h-100m860 0V30m1240 1000V30l330 720 330-720v1000m620 0l-90-50-50-40-50-100V560l50-100 50-50 90-40h140l100 40 50 50 40 100v280l-40 100-50 40-100 50h-140m1190-660v660m-430-660v520l50 90 90 50h140l100-50 50-40m470-570v660m0-570l50-50 90-40h140l100 40 50 100v520m330-660h380m-240-340v860l50 90 90 50h100m330 0V370m0-340l-50 50 50 50 50-50-50-50v100m480 240v660m0-570l50-50 90-40h140l100 40 50 100v520m900-660v810l-50 90-50 50-90 50h-150l-90-50"/><path d="M68250 980l-100 50h-190l-90-50-50-40-50-100V560l50-100 50-50 90-40h190l100 40m1560 100l140 50 50 40 50 100v140l-50 100-50 40-90 50h-380V30h330l100 50 40 50 50 90v100l-50 90-40 50-100 50h-330m1140 520l-90-50-50-40-50-100V560l50-100 50-50 90-40h140l100 40 50 50 40 100v280l-40 100-50 40-100 50h-140m1190 0V510l-50-100-100-40h-190l-90 40"/><path d="M71810 980l-100 50h-240l-90-50-50-90V790l50-90 90-50h240l100-50m470 430V370m0 190l50-100 40-50 100-40h90m770 660V30m0 950l-100 50h-190l-90-50-50-40-50-100V560l50-100 50-50 90-40h190l100 40M20530 20030v-1000h240l140 50 90 100 50 90 50 190v140l-50 190-50 100-90 90-140 50h-240m1570-90l-50 40-140 50h-100l-140-50-90-90-50-100-50-190v-140l50-190 50-90 90-100 140-50h100l140 50 50 50m430 520h760m480 380v-1000h240l140 50 90 100 50 90 50 190v140l-50 190-50 100-90 90-140 50h-240m1570-90l-50 40-140 50h-100l-140-50-90-90-50-100-50-190v-140l50-190 50-90 90-100 140-50h100l140 50 50 50"/></g><g stroke="#840000"><path d="M64570 30620h380m-190 190v-380m430 380v-500h190l50 20 20 20 20 50v70l-20 50-20 20-50 30h-190m590-260h100l50 20 40 50 30 90v170l-30 90-40 50-50 30h-100l-40-30-50-50-20-90v-170l20-90 50-50 40-20m380 0l120 500 100-360 90 360 120-500m190 230h170m70 270h-240v-500h240m490 500l-160-240m-120 240v-500h190l50 20 20 20 20 50v70l-20 50-20 20-50 30h-190" stroke-width="60"/><path d="M64290 30580v460h3450l250-460-250-460h-3450v460" stroke-width="100"/><path d="M64570 31620h380m240 190v-500h190l50 20 20 20 20 50v70l-20 50-20 20-50 30h-190m590-260h100l50 20 40 50 30 90v170l-30 90-40 50-50 30h-100l-40-30-50-50-20-90v-170l20-90 50-50 40-20m380 0l120 500 100-360 90 360 120-500m190 230h170m70 270h-240v-500h240m490 500l-160-240m-120 240v-500h190l50 20 20 20 20 50v70l-20 50-20 20-50 30h-190" stroke-width="60"/><path d="M64290 31580v460h3450l250-460-250-460h-3450v460" stroke-width="100"/></g></g></g><path fill-rule="evenodd" d="M8390 21080l800 500-800 500v-1000" fill-opacity=".6" fill="#ffffc2"/><g stroke-linejoin="round" fill-opacity="0" stroke-linecap="round" fill="none"><path d="M8390 21080l800 500-800 500v-1000m600 1000v-200m200 200h-200m200-1000v1000m0-1000h200m0 0v200" stroke-width="120" stroke="#840000"/><g stroke-width="60"><path d="M9190 21580h600m-1400 0h-600" stroke="#840000"/><path d="M8420 20760v-500h120l70 20 50 50 20 50 20 90v70l-20 100-20 40-50 50-70 30h-120m760 0h-280m140 0v-500l-50 70-50 50-40 20m-3760 2720l160 500 170-500m340 230h-170m0 270v-500h240m120 0h280m-140 500v-500m520 160v340m-120-530l-110 360h300m290-330h50l50 20 20 20 30 50 20 100v120l-20 90-30 50-20 20-50 30h-50l-40-30-30-20-20-50-20-90v-120l20-100 20-50 30-20 40-20m600 160v340m-120-530l-110 360h300m440-330h-240l-20 230 20-20 50-20h120l40 20 30 20 20 50v120l-20 50-30 20-40 30h-120l-50-30-20-20m670-220l70 30 20 20 20 50v70l-20 50-20 20-50 30h-190v-500h170l40 20 30 20 20 50v50l-20 50-30 20-40 20h-170m500 270v-500h190l50 20 20 20 20 50v70l-20 50-20 20-50 30h-190m500 50h380m240 190v-500l170 350 160-350v500m190-500h310l-170 190h80l40 20 30 20 20 50v120l-20 50-30 20-40 30h-150l-40-30-30-20m890-480l-430 650m800-460v340m-120-530l-110 360h300m150-330l120 500 100-360 90 360 120-500" stroke="#008484"/><path d="M5790 21580h2000m5500 10000v-9000" stroke="#008400"/></g></g></svg>