<?xml version="1.0" encoding="UTF-8" standalone="no"?>
<svg id="svg2" xmlns:rdf="http://www.w3.org/1999/02/22-rdf-syntax-ns#" xmlns="http://www.w3.org/2000/svg" height="8.5371cm" viewBox="0 0 73360.827 33610.16" width="18.634cm" version="1.1" xmlns:cc="http://creativecommons.org/ns#" xmlns:dc="http://purl.org/dc/elements/1.1/">
 <metadata id="metadata3976">
  <rdf:RDF>
   <cc:Work rdf:about="">
    <dc:format>image/svg+xml</dc:format>
    <dc:type rdf:resource="http://purl.org/dc/dcmitype/StillImage"/>
    <dc:title>SVG Picture created as camera.sch.svg date 2017/09/21 18:48:16</dc:title>
   </cc:Work>
  </rdf:RDF>
 </metadata>
 <title id="title4">SVG Picture created as camera.sch.svg date 2017/09/21 18:48:16</title>
 <desc id="desc6">Picture generated by Eeschema-SVG</desc>
 <g id="g1002" fill-opacity=".6" transform="translate(-18210 -10420)" stroke-width="0" fill="#ffffc2">
  <rect id="rect1004" rx="0" height="3e3" width="3e3" y="31000" x="19000"/>
 </g>
 <g stroke-linejoin="round" stroke-linecap="round">
  <g id="g1008" fill-opacity="0" transform="translate(-18210 -10420)" stroke="#840000" stroke-width="120">
   <rect id="rect1010" rx="0" height="3e3" width="3e3" y="31000" x="19000"/>
  </g>
  <g id="g1012" transform="translate(-18210 -10420)" stroke="#840000" stroke-width="120" fill="#840000">
   <circle id="circle1014" cy="33000" cx="21500" r="250"/>
   <circle id="circle1016" cy="32000" cx="21500" r="250"/>
  </g>
  <g id="g7800" fill-opacity="0" transform="translate(-18210 -10420)">
   <g id="g7802" stroke-width="60">
    <g id="g1020" stroke="#840000">
     <path id="path1022" d="m22000 33000h2e3"/>
    </g>
    <g id="g1024" stroke="#008484">
     <path id="path1026" d="m20100 33040h380"/>
    </g>
    <g id="g1028" stroke="#840000">
     <path id="path1030" d="m23140 32880h-280"/>
     <path id="path1032" d="m23000 32880v-500l-50 70-50 50-40 20"/>
     <path id="path1034" d="m22000 32000h2e3"/>
    </g>
    <g id="g1036" stroke="#008484">
     <path id="path1038" d="m20100 32040h380"/>
     <path id="path1040" d="m20290 32230v-380"/>
    </g>
    <g id="g1042" stroke="#840000">
     <path id="path1044" d="m22860 31420 20-20 50-20h120l40 20 30 20 20 50v50l-20 70-290 290h310"/>
    </g>
    <g id="g1046" stroke="#008484">
     <path id="path1048" d="m20330 30180v350l-20 70-50 50-70 30h-50"/>
     <path id="path1050" d="m20830 30680h-280"/>
     <path id="path1052" d="m20690 30680v-500l-50 70-50 50-40 20"/>
     <path id="path1054" d="m19660 34340 330 500"/>
     <path id="path1056" d="m19990 34340-330 500"/>
     <path id="path1058" d="m20120 34340h280"/>
     <path id="path1060" d="m20260 34840v-500"/>
     <path id="path1062" d="m20780 34340h-90l-50 20-20 20-50 80-20 90v190l20 50 20 20 50 30h100l40-30 30-20 20-50v-120l-20-50-30-20-40-20h-100l-50 20-20 20-20 50"/>
     <path id="path1064" d="m21140 34340h50l50 20 20 20 30 50 20 100v120l-20 90-30 50-20 20-50 30h-50l-40-30-30-20-20-50-20-90v-120l20-100 20-50 30-20 40-20"/>
    </g>
   </g>
   <g id="g8273" stroke="#840000">
    <g id="g1958" stroke-width="60">
     <path id="path1960" d="m37780 32040h380"/>
     <path id="path1962" d="m37970 32230v-380"/>
     <path id="path1964" d="m38400 32230v-500"/>
     <path id="path1966" d="m38640 32230v-500l280 500v-500"/>
    </g>
    <g id="g1968" stroke-width="100">
     <polyline id="polyline1970" points="37500 32000 37500 32460 39170 32460 39420 32000 39170 31540 37500 31540 37500 32000" fill="none;"/>
    </g>
    <g id="g1972" stroke-width="60">
     <path id="path1974" d="m37780 33040h380"/>
     <path id="path1976" d="m38400 33230v-500"/>
     <path id="path1978" d="m38640 33230v-500l280 500v-500"/>
    </g>
    <g id="g1980" stroke-width="100">
     <polyline id="polyline1982" points="37500 33000 37500 33460 39170 33460 39420 33000 39170 32540 37500 32540 37500 33000" fill="none;"/>
    </g>
    <g id="g1984" stroke-width="60">
     <path id="path1986" d="m42360 31730h100l50 20 40 50 30 90v170l-30 90-40 50-50 30h-100l-40-30-50-50-20-90v-170l20-90 50-50 40-20"/>
     <path id="path1988" d="m42790 31730v400l20 50 30 20 40 30h100l50-30 20-20 20-50v-400"/>
     <path id="path1990" d="m43240 31730h280"/>
     <path id="path1992" d="m43380 32230v-500"/>
     <path id="path1994" d="m43690 32040h380"/>
     <path id="path1996" d="m43880 32230v-380"/>
    </g>
    <g id="g1998" stroke-width="100">
     <polyline id="polyline2000" points="44500 32000 44250 31540 41920 31540 41920 32000 41920 32460 44250 32460 44500 32000" fill="none;"/>
    </g>
    <g id="g2002" stroke-width="60">
     <path id="path2004" d="m42360 32730h100l50 20 40 50 30 90v170l-30 90-40 50-50 30h-100l-40-30-50-50-20-90v-170l20-90 50-50 40-20"/>
     <path id="path2006" d="m42790 32730v400l20 50 30 20 40 30h100l50-30 20-20 20-50v-400"/>
     <path id="path2008" d="m43240 32730h280"/>
     <path id="path2010" d="m43380 33230v-500"/>
     <path id="path2012" d="m43690 33040h380"/>
    </g>
    <g id="g2014" stroke-width="100">
     <polyline id="polyline2016" points="44500 33000 44250 32540 41920 32540 41920 33000 41920 33460 44250 33460 44500 33000" fill="none;"/>
    </g>
    <g id="g2020" stroke-width="60">
     <polyline id="polyline2022" points="35500 31500 35500 30500" fill="none;"/>
    </g>
    <g id="g2024" stroke-width="120" fill="none;">
     <polyline id="polyline2026" points="35500 30500 35250 31000"/>
     <polyline id="polyline2028" points="35500 30500 35750 31000"/>
    </g>
   </g>
   <g id="g2032" stroke-width="60" stroke="#008484">
    <path id="path2034" d="m34620 29990h380"/>
    <path id="path2036" d="m34810 30180v-380"/>
    <path id="path2038" d="m35220 29720 20-20 50-20h120l40 20 30 20 20 50v50l-20 70-290 290h310"/>
    <path id="path2040" d="m35930 29840v340"/>
    <path id="path2042" d="m35810 29650-110 360h300"/>
    <path id="path2044" d="m36130 29680 160 500 170-500"/>
   </g>
  </g>
 </g>
 <g id="g2052" fill-opacity=".6" transform="translate(-18210 -10420)" stroke-width="0" fill="#ffffc2">
  <polyline id="polyline2054" points="35000 34000 36000 34000 35500 34500 35000 34000" fill-rule="evenodd"/>
 </g>
 <g id="g8319" stroke-linejoin="round" fill-opacity="0" transform="translate(-18210 -10420)" stroke-linecap="round">
  <g id="g2058" stroke-width="120" stroke="#840000">
   <polyline id="polyline2060" points="35000 34000 36000 34000 35500 34500 35000 34000" fill="none;"/>
  </g>
  <g id="g2062" stroke-width="60" stroke="#840000">
   <polyline id="polyline2064" points="35500 33500 35500 34000" fill="none;"/>
  </g>
  <g id="g2066" stroke-width="60" stroke="#008484">
   <path id="path2068" d="m35120 34860-50-20h-70l-70 20-50 50-20 50-20 90v70l20 100 20 40 50 50 70 30h50l70-30 20-20v-170h-90"/>
   <path id="path2070" d="m35360 35340v-500l280 500v-500"/>
   <path id="path2072" d="m35880 35340v-500h120l70 20 50 50 20 50 20 90v70l-20 100-20 40-50 50-70 30h-120"/>
  </g>
 </g>
 <g id="g2080" stroke-width="0" fill="#ffffc2" transform="translate(-18210 -10420)">
  <circle id="circle2082" cy="32000" cx="50500" r="500"/>
 </g>
 <g id="g8331" stroke-linejoin="round" fill-opacity="0" transform="translate(-18210 -10420)" stroke-linecap="round">
  <g id="g2086" stroke-width="120" stroke="#840000">
   <circle id="circle2088" cy="32000" cx="50500" r="500"/>
   <circle id="circle2090" cy="32000" cx="50500" r="200"/>
  </g>
  <g id="g8336" stroke-width="60">
   <g id="g2092" stroke="#840000">
    <path id="path2094" d="m50500 32500v500"/>
   </g>
   <g id="g2096" stroke="#008484">
    <path id="path2098" d="m50330 30680v350l-20 70-50 50-70 30h-50"/>
    <path id="path2100" d="m50550 30720 20-20 50-20h120l40 20 30 20 20 50v50l-20 70-290 290h310"/>
   </g>
   <g id="g2102" stroke="#840084">
    <path id="path2104" d="m51760 33150h-500v-190l20-50 20-20 50-20h70l50 20 20 20 30 50v190"/>
    <path id="path2106" d="m51260 32560v-100l20-50 50-40 90-30h170l90 30 50 40 30 50v100l-30 40-50 50-90 20h-170l-90-20-50-50-20-40"/>
    <path id="path2108" d="m51260 32180 500-120-360-100 360-90-500-120"/>
    <path id="path2110" d="m51490 31560v-170"/>
    <path id="path2112" d="m51760 31320v240h-500v-240"/>
    <path id="path2114" d="m51760 30830-240 160"/>
    <path id="path2116" d="m51760 31110h-500v-190l20-50 20-20 50-20h70l50 20 20 20 30 50v190"/>
   </g>
  </g>
 </g>
 <g id="g2124" fill-opacity=".6" transform="translate(-18210 -10420)" stroke-width="0" fill="#ffffc2">
  <polyline id="polyline2126" points="46000 34000 47000 34000 46500 34500 46000 34000" fill-rule="evenodd"/>
 </g>
 <g id="g8353" stroke-linejoin="round" fill-opacity="0" transform="translate(-18210 -10420)" stroke-linecap="round">
  <g id="g2130" stroke-width="120" stroke="#840000">
   <polyline id="polyline2132" points="46000 34000 47000 34000 46500 34500 46000 34000" fill="none;"/>
  </g>
  <g id="g8357" stroke-width="60">
   <g id="g2134" stroke="#840000">
    <polyline id="polyline2136" points="46500 33500 46500 34000" fill="none;"/>
   </g>
   <g id="g2138" stroke="#008484">
    <path id="path2140" d="m46120 34860-50-20h-70l-70 20-50 50-20 50-20 90v70l20 100 20 40 50 50 70 30h50l70-30 20-20v-170h-90"/>
    <path id="path2142" d="m46360 35340v-500l280 500v-500"/>
    <path id="path2144" d="m46880 35340v-500h120l70 20 50 50 20 50 20 90v70l-20 100-20 40-50 50-70 30h-120"/>
   </g>
   <g id="g2150" stroke="#840000">
    <polyline id="polyline2152" points="46500 31500 46500 30500" fill="none;"/>
   </g>
  </g>
  <g id="g2154" stroke-width="120" stroke="#840000" fill="none;">
   <polyline id="polyline2156" points="46500 30500 46250 31000"/>
   <polyline id="polyline2158" points="46500 30500 46750 31000"/>
  </g>
  <g id="g2162" stroke-width="60" stroke="#008484">
   <path id="path2164" d="m45620 29990h380"/>
   <path id="path2166" d="m45810 30180v-380"/>
   <path id="path2168" d="m46500 30180h-280"/>
   <path id="path2170" d="m46360 30180v-500l-50 70-50 50-40 20"/>
   <path id="path2172" d="m46700 29720 20-20 50-20h120l40 20 30 20 20 50v50l-20 70-290 290h310"/>
   <path id="path2174" d="m47130 29680 160 500 170-500"/>
  </g>
 </g>
 <g id="g2182" fill-opacity=".6" transform="translate(-18210 -10420)" stroke-width="0" fill="#ffffc2">
  <rect id="rect2184" rx="0" height="9e3" width="6e3" y="17000" x="48500"/>
 </g>
 <g stroke-linejoin="round" stroke-linecap="round">
  <g id="g2188" fill-opacity="0" transform="translate(-18210 -10420)" stroke="#840000" stroke-width="120">
   <rect id="rect2190" rx="0" height="9e3" width="6e3" y="17000" x="48500"/>
  </g>
  <g id="g2192" transform="translate(-18210 -10420)" stroke="#840000" stroke-width="120" fill="#840000">
   <circle id="circle2194" cy="25000" cx="49000" r="250"/>
   <circle id="circle2196" cy="24000" cx="49000" r="250"/>
   <circle id="circle2198" cy="23000" cx="49000" r="250"/>
   <circle id="circle2200" cy="22000" cx="49000" r="250"/>
   <circle id="circle2202" cy="21000" cx="49000" r="250"/>
   <circle id="circle2204" cy="2e4" cx="49000" r="250"/>
   <circle id="circle2206" cy="19000" cx="49000" r="250"/>
   <circle id="circle2208" cy="18000" cx="49000" r="250"/>
  </g>
  <g id="g8390" fill-opacity="0" transform="translate(-18210 -10420)">
   <g id="g8392" stroke-width="60">
    <g id="g2212" stroke="#840000">
     <path id="path2214" d="m48500 18000h-2e3"/>
    </g>
    <g id="g2216" stroke="#008484">
     <path id="path2218" d="m49950 17730h280"/>
     <path id="path2220" d="m50090 18230v-500"/>
     <path id="path2222" d="m50350 17730 330 500"/>
     <path id="path2224" d="m50680 17730-330 500"/>
     <path id="path2226" d="m50880 18040h380"/>
     <path id="path2228" d="m51070 18230v-380"/>
     <path id="path2230" d="m51860 17700-430 650"/>
     <path id="path2232" d="m52020 18230v-500h120l70 20 50 50 20 50 20 90v70l-20 100-20 40-50 50-70 30h-120"/>
     <path id="path2234" d="m52500 18080h230"/>
     <path id="path2236" d="m52450 18230 160-500 170 500"/>
     <path id="path2238" d="m52950 18040h380"/>
     <path id="path2240" d="m53140 18230v-380"/>
    </g>
    <g id="g2242" stroke="#840000">
     <path id="path2244" d="m47640 17880h-280"/>
     <path id="path2246" d="m47500 17880v-500l-50 70-50 50-40 20"/>
     <path id="path2248" d="m48500 19000h-2e3"/>
    </g>
    <g id="g2250" stroke="#008484">
     <path id="path2252" d="m49950 18730h280"/>
     <path id="path2254" d="m50090 19230v-500"/>
     <path id="path2256" d="m50350 18730 330 500"/>
     <path id="path2258" d="m50680 18730-330 500"/>
     <path id="path2260" d="m50880 19040h380"/>
     <path id="path2262" d="m51860 18700-430 650"/>
     <path id="path2264" d="m52020 19230v-500h120l70 20 50 50 20 50 20 90v70l-20 100-20 40-50 50-70 30h-120"/>
     <path id="path2266" d="m52500 19080h230"/>
     <path id="path2268" d="m52450 19230 160-500 170 500"/>
     <path id="path2270" d="m52950 19040h380"/>
    </g>
    <g id="g2272" stroke="#840000">
     <path id="path2274" d="m47360 18420 20-20 50-20h120l40 20 30 20 20 50v50l-20 70-290 290h310"/>
     <path id="path2276" d="m48500 2e4h-2e3"/>
    </g>
    <g id="g2278" stroke="#008484">
     <path id="path2280" d="m50300 20230-160-240"/>
     <path id="path2282" d="m50020 20230v-500h190l50 20 20 20 20 50v70l-20 50-20 20-50 30h-190"/>
     <path id="path2284" d="m50470 19730 330 500"/>
     <path id="path2286" d="m50800 19730-330 500"/>
     <path id="path2288" d="m51000 20040h380"/>
     <path id="path2290" d="m51190 20230v-380"/>
     <path id="path2292" d="m51980 19700-430 650"/>
     <path id="path2294" d="m52140 20230v-500h120l70 20 50 50 20 50 20 90v70l-20 100-20 40-50 50-70 30h-120"/>
     <path id="path2296" d="m52810 19960 70 30 20 20 20 50v70l-20 50-20 20-50 30h-190v-500h170l40 20 30 20 20 50v50l-20 50-30 20-40 20h-170"/>
     <path id="path2298" d="m53140 20040h380"/>
     <path id="path2300" d="m53330 20230v-380"/>
    </g>
    <g id="g2302" stroke="#840000">
     <path id="path2304" d="m47330 19380h310l-170 190h80l40 20 30 20 20 50v120l-20 50-30 20-40 30h-150l-40-30-30-20"/>
     <path id="path2306" d="m48500 21000h-2e3"/>
    </g>
    <g id="g2308" stroke="#008484">
     <path id="path2310" d="m50020 21230v-500h120l70 20 50 50 20 50 20 90v70l-20 100-20 40-50 50-70 30h-120"/>
     <path id="path2312" d="m50800 21180-20 20-70 30h-50l-70-30-50-50-20-40-20-100v-70l20-90 20-50 50-50 70-20h50l70 20 20 20"/>
     <path id="path2314" d="m51020 21040h380"/>
     <path id="path2316" d="m51210 21230v-380"/>
    </g>
    <g id="g2318" stroke="#840000">
     <path id="path2320" d="m47590 20540v340"/>
     <path id="path2322" d="m47470 20350-110 360h300"/>
     <path id="path2324" d="m48500 22000h-2e3"/>
    </g>
    <g id="g2326" stroke="#008484">
     <path id="path2328" d="m50020 22230v-500h120l70 20 50 50 20 50 20 90v70l-20 100-20 40-50 50-70 30h-120"/>
     <path id="path2330" d="m50800 22180-20 20-70 30h-50l-70-30-50-50-20-40-20-100v-70l20-90 20-50 50-50 70-20h50l70 20 20 20"/>
     <path id="path2332" d="m51020 22040h380"/>
    </g>
    <g id="g2334" stroke="#840000">
     <path id="path2336" d="m47620 21380h-240l-20 230 20-20 50-20h120l40 20 30 20 20 50v120l-20 50-30 20-40 30h-120l-50-30-20-20"/>
     <path id="path2338" d="m48500 23000h-2e3"/>
    </g>
    <g id="g2340" stroke="#008484">
     <path id="path2342" d="m50300 23230-160-240"/>
     <path id="path2344" d="m50020 23230v-500h190l50 20 20 20 20 50v70l-20 50-20 20-50 30h-190"/>
     <path id="path2346" d="m50470 22730 330 500"/>
     <path id="path2348" d="m50800 22730-330 500"/>
     <path id="path2350" d="m51000 23040h380"/>
     <path id="path2352" d="m51980 22700-430 650"/>
     <path id="path2354" d="m52140 23230v-500h120l70 20 50 50 20 50 20 90v70l-20 100-20 40-50 50-70 30h-120"/>
     <path id="path2356" d="m52810 22960 70 30 20 20 20 50v70l-20 50-20 20-50 30h-190v-500h170l40 20 30 20 20 50v50l-20 50-30 20-40 20h-170"/>
     <path id="path2358" d="m53140 23040h380"/>
    </g>
    <g id="g2360" stroke="#840000">
     <path id="path2362" d="m47590 22380h-90l-50 20-20 20-50 80-20 90v190l20 50 20 20 50 30h100l40-30 30-20 20-50v-120l-20-50-30-20-40-20h-100l-50 20-20 20-20 50"/>
     <path id="path2364" d="m48500 24000h-2e3"/>
    </g>
    <g id="g2366" stroke="#008484">
     <path id="path2368" d="m50020 24230v-500h120l70 20 50 50 20 50 20 90v70l-20 100-20 40-50 50-70 30h-120"/>
     <path id="path2370" d="m50520 24230v-500h120l70 20 50 50 20 50 20 90v70l-20 100-20 40-50 50-70 30h-120"/>
     <path id="path2372" d="m51020 24040h380"/>
     <path id="path2374" d="m51210 24230v-380"/>
    </g>
    <g id="g2376" stroke="#840000">
     <path id="path2378" d="m47330 23380h330l-210 500"/>
     <path id="path2380" d="m48500 25000h-2e3"/>
    </g>
    <g id="g2382" stroke="#008484">
     <path id="path2384" d="m50020 25230v-500h120l70 20 50 50 20 50 20 90v70l-20 100-20 40-50 50-70 30h-120"/>
     <path id="path2386" d="m50520 25230v-500h120l70 20 50 50 20 50 20 90v70l-20 100-20 40-50 50-70 30h-120"/>
     <path id="path2388" d="m51020 25040h380"/>
    </g>
    <g id="g2390" stroke="#840000">
     <path id="path2392" d="m47450 24590-50-20-20-30-20-40v-30l20-50 20-20 50-20h100l40 20 30 20 20 50v30l-20 40-30 30-40 20h-100l-50 20-20 30-20 50v90l20 50 20 20 50 30h100l40-30 30-20 20-50v-90l-20-50-30-30-40-20"/>
    </g>
    <g id="g2394" stroke="#008484">
     <path id="path2396" d="m51330 16180v350l-20 70-50 50-70 30h-50"/>
     <path id="path2398" d="m51520 16180h310l-170 190h80l40 20 30 20 20 50v120l-20 50-30 20-40 30h-150l-40-30-30-20"/>
     <path id="path2400" d="m50670 26840-160-240"/>
     <path id="path2402" d="m50390 26840v-500h190l50 20 20 20 20 50v70l-20 50-20 20-50 30h-190"/>
     <path id="path2404" d="m51030 26340v350l-20 70-50 50-70 30h-50"/>
     <path id="path2406" d="m51270 26650h380"/>
     <path id="path2408" d="m52100 26500v340"/>
     <path id="path2410" d="m51980 26310-110 360h300"/>
     <path id="path2412" d="m52610 26340h-240l-20 230 20-20 50-20h120l40 20 30 20 20 50v120l-20 50-30 20-40 30h-120l-50-30-20-20"/>
    </g>
    <g id="g2414" stroke="#840084">
     <path id="path2416" d="m54920 23190v-170"/>
     <path id="path2418" d="m55190 22950v240h-500v-240"/>
     <path id="path2420" d="m54690 22810v-280"/>
     <path id="path2422" d="m55190 22670h-500"/>
     <path id="path2424" d="m55190 22360h-500"/>
     <path id="path2426" d="m54920 22360v-280"/>
     <path id="path2428" d="m55190 22080h-500"/>
     <path id="path2430" d="m54920 21840v-170"/>
     <path id="path2432" d="m55190 21600v240h-500v-240"/>
     <path id="path2434" d="m55190 21110-240 160"/>
     <path id="path2436" d="m55190 21390h-500v-190l20-50 20-20 50-20h70l50 20 20 20 30 50v190"/>
     <path id="path2438" d="m55190 20890h-500l500-280h-500"/>
     <path id="path2440" d="m54920 20370v-170"/>
     <path id="path2442" d="m55190 20130v240h-500v-240"/>
     <path id="path2444" d="m54690 19990v-280"/>
     <path id="path2446" d="m55190 19850h-500"/>
    </g>
    <g id="g2448" stroke="#000">
     <path id="path2450" d="m42550 17380h280"/>
     <path id="path2452" d="m42690 17880v-500"/>
     <path id="path2454" d="m42950 17380 330 500"/>
     <path id="path2456" d="m43280 17380-330 500"/>
     <path id="path2458" d="m43480 17690h380"/>
     <path id="path2460" d="m43670 17880v-380"/>
     <path id="path2462" d="m42550 18380h280"/>
     <path id="path2464" d="m42690 18880v-500"/>
     <path id="path2466" d="m42950 18380 330 500"/>
     <path id="path2468" d="m43280 18380-330 500"/>
     <path id="path2470" d="m43480 18690h380"/>
     <path id="path2472" d="m42900 19880-160-240"/>
     <path id="path2474" d="m42620 19880v-500h190l50 20 20 20 20 50v70l-20 50-20 20-50 30h-190"/>
     <path id="path2476" d="m43070 19380 330 500"/>
     <path id="path2478" d="m43400 19380-330 500"/>
     <path id="path2480" d="m43600 19690h380"/>
     <path id="path2482" d="m43790 19880v-380"/>
     <path id="path2484" d="m42900 22880-160-240"/>
     <path id="path2486" d="m42620 22880v-500h190l50 20 20 20 20 50v70l-20 50-20 20-50 30h-190"/>
     <path id="path2488" d="m43070 22380 330 500"/>
     <path id="path2490" d="m43400 22380-330 500"/>
     <path id="path2492" d="m43600 22690h380"/>
    </g>
    <g id="g2494" stroke="#008400">
     <path id="path2496" d="m41000 17000 1e3 1e3"/>
     <path id="path2498" d="m41000 18000 1e3 1e3"/>
     <path id="path2500" d="m41000 19000 1e3 1e3"/>
     <path id="path2502" d="m41000 22000 1e3 1e3"/>
    </g>
    <g id="g2504" stroke="#000084">
     <path id="path2506" d="m46260 20760 480 480"/>
     <path id="path2508" d="m46740 20760-480 480"/>
     <path id="path2510" d="m46260 21760 480 480"/>
     <path id="path2512" d="m46740 21760-480 480"/>
     <path id="path2514" d="m46260 23760 480 480"/>
     <path id="path2516" d="m46740 23760-480 480"/>
     <path id="path2518" d="m46260 24760 480 480"/>
     <path id="path2520" d="m46740 24760-480 480"/>
    </g>
    <g id="g2522" stroke="#0000c2">
     <path id="path2524" d="m21740 14930h330"/>
     <path id="path2526" d="m22210 15450h-470v-1e3h470"/>
     <path id="path2528" d="m22500 14790h380"/>
     <path id="path2530" d="m22640 14450v860l50 90 90 50h100"/>
     <path id="path2532" d="m23210 15450v-1e3"/>
     <path id="path2534" d="m23640 15450v-520l-50-100-100-40h-140l-90 40-50 50"/>
     <path id="path2536" d="m24490 15400-100 50h-190l-90-50-50-90v-380l50-100 90-40h190l100 40 50 100v90l-480 100"/>
     <path id="path2538" d="m24970 15450v-660"/>
     <path id="path2540" d="m24970 14980 50-100 40-50 100-40h90"/>
     <path id="path2542" d="m25590 14790v660"/>
     <path id="path2544" d="m25590 14880 50-50 90-40h140l100 40 50 100v520"/>
     <path id="path2546" d="m26870 15400-100 50h-190l-90-50-50-90v-380l50-100 90-40h190l100 40 50 100v90l-480 100"/>
     <path id="path2548" d="m27210 14790h380"/>
     <path id="path2550" d="m27350 14450v860l50 90 90 50h100"/>
     <path id="path2552" d="m18240 29450v-1e3h380l90 50 50 50 50 90v150l-50 90-50 50-90 50h-380"/>
     <path id="path2554" d="m19380 29450-90-50-50-40-50-100v-280l50-100 50-50 90-40h140l100 40 50 50 40 100v280l-40 100-50 40-100 50h-140"/>
     <path id="path2556" d="m20040 28790 190 660 190-470 190 470 190-660"/>
     <path id="path2558" d="m21570 29400-100 50h-190l-90-50-50-90v-380l50-100 90-40h190l100 40 50 100v90l-480 100"/>
     <path id="path2560" d="m22050 29450v-660"/>
     <path id="path2562" d="m22050 28980 50-100 40-50 100-40h90"/>
     <path id="path2564" d="m49240 13450v-1e3l570 1e3v-1e3"/>
     <path id="path2566" d="m50150 12450 330 1e3 330-1e3"/>
     <path id="path2568" d="m51150 13450v-1e3"/>
     <path id="path2570" d="m51630 13450v-1e3h240l140 50 90 100 50 90 50 190v140l-50 190-50 100-90 90-140 50h-240"/>
     <path id="path2572" d="m52630 13450v-1e3"/>
     <path id="path2574" d="m53060 13170h480"/>
     <path id="path2576" d="m52970 13450 330-1e3 330 1e3"/>
     <path id="path2578" d="m55010 12450v720l-40 140-100 90-140 50h-100"/>
     <path id="path2580" d="m55870 13400-100 50h-190l-90-50-50-90v-380l50-100 90-40h190l100 40 50 100v90l-480 100"/>
     <path id="path2582" d="m56210 12790h380"/>
     <path id="path2584" d="m56350 12450v860l50 90 90 50h100"/>
     <path id="path2586" d="m56870 13400 100 50h190l90-50 50-90v-50l-50-90-90-50h-150l-90-50-50-90v-50l50-100 90-40h150l90 40"/>
     <path id="path2588" d="m57870 13450-90-50-50-40-50-100v-280l50-100 50-50 90-40h140l100 40 50 50 40 100v280l-40 100-50 40-100 50h-140"/>
     <path id="path2590" d="m58630 12790v660"/>
     <path id="path2592" d="m58630 12880 50-50 90-40h140l100 40 50 100v520"/>
     <path id="path2594" d="m60150 12450h570"/>
     <path id="path2596" d="m60430 13450v-1e3"/>
     <path id="path2598" d="m61050 13450v-1e3"/>
     <path id="path2600" d="m61620 13450-430-570"/>
     <path id="path2602" d="m61620 12450-570 570"/>
     <path id="path2604" d="m62570 13450h-570"/>
     <path id="path2606" d="m62290 13450v-1e3l-100 150-90 90-100 50"/>
    </g>
    <g id="g2608" stroke="#840000">
     <path id="path2610" d="m55730 36070h-340"/>
     <path id="path2612" d="m55440 36070-20-20-30-50v-70l30-50 40-20h270"/>
     <path id="path2614" d="m55460 35860-40-30-30-40v-80l30-40 40-30h270"/>
     <path id="path2616" d="m55730 35400h-340"/>
     <path id="path2618" d="m55230 35400 20 20 20-20-20-20-20 20h40"/>
     <path id="path2620" d="m55390 35160h340"/>
     <path id="path2622" d="m55440 35160-20-20-30-50v-70l30-50 40-20h270"/>
     <path id="path2624" d="m55730 34710h-340"/>
     <path id="path2626" d="m55230 34710 20 20 20-20-20-20-20 20h40"/>
     <path id="path2628" d="m55730 34470h-500v-190l20-50 20-20 50-20h70l50 20 20 20 30 50v190"/>
     <path id="path2630" d="m55680 33690 20 20 30 70v50l-30 70-50 50-40 20-100 20h-70l-90-20-50-20-50-50-20-70v-50l20-70 20-20"/>
     <path id="path2632" d="m55730 33470h-500"/>
     <path id="path2634" d="m55700 33040 30 50v90l-30 50-50 20h-190l-40-20-30-50v-90l30-50 40-20h50l50 230"/>
    </g>
   </g>
   <g id="g2636" stroke-width="100" stroke="#840000">
    <polyline id="polyline2638" points="55500 36500 55960 36250 55960 32690 55500 32440 55040 32690 55040 36250 55500 36500" fill="none;"/>
   </g>
  </g>
 </g>
 <g id="g2644" fill-opacity=".6" transform="translate(-18210 -10420)" stroke-width="0" fill="#ffffc2">
  <rect id="rect2646" rx="0" height="5e3" width="2e3" y="32000" x="70500"/>
 </g>
 <g stroke-linejoin="round" stroke-linecap="round">
  <g id="g2650" fill-opacity="0" transform="translate(-18210 -10420)" stroke="#840000" stroke-width="120">
   <rect id="rect2652" rx="0" height="5e3" width="2e3" y="32000" x="70500"/>
  </g>
  <g id="g2654" fill-rule="evenodd" transform="translate(-18210 -10420)" stroke="#840000" stroke-width="120" fill="#840000">
   <polyline id="polyline2656" points="71750 35750 72250 35750 72250 36250 71750 36250 71750 35750"/>
   <polyline id="polyline2658" points="71750 34750 72250 34750 72250 35250 71750 35250 71750 34750"/>
   <polyline id="polyline2660" points="71750 33750 72250 33750 72250 34250 71750 34250 71750 33750"/>
   <polyline id="polyline2662" points="71750 32750 72250 32750 72250 33250 71750 33250 71750 32750"/>
  </g>
  <g id="g8617" fill-opacity="0" transform="translate(-18210 -10420)" stroke-width="60">
   <g id="g2666" stroke="#840000">
    <path id="path2668" d="m72500 33000h2e3"/>
    <path id="path2670" d="m73640 32880h-280"/>
    <path id="path2672" d="m73500 32880v-500l-50 70-50 50-40 20"/>
    <path id="path2674" d="m72500 34000h2e3"/>
    <path id="path2676" d="m73360 33420 20-20 50-20h120l40 20 30 20 20 50v50l-20 70-290 290h310"/>
    <path id="path2678" d="m72500 35000h2e3"/>
    <path id="path2680" d="m73330 34380h310l-170 190h80l40 20 30 20 20 50v120l-20 50-30 20-40 30h-150l-40-30-30-20"/>
    <path id="path2682" d="m72500 36000h2e3"/>
    <path id="path2684" d="m73590 35540v340"/>
    <path id="path2686" d="m73470 35350-110 360h300"/>
   </g>
   <g id="g2688" stroke="#008484">
    <path id="path2690" d="m71330 31180v350l-20 70-50 50-70 30h-50"/>
    <path id="path2692" d="m71810 31180h-240l-20 230 20-20 50-20h120l40 20 30 20 20 50v120l-20 50-30 20-40 30h-120l-50-30-20-20"/>
    <path id="path2694" d="m67390 37540h-240l-20 230 20-20 50-20h120l40 20 30 20 20 50v120l-20 50-30 20-40 30h-120l-50-30-20-20"/>
    <path id="path2696" d="m67890 38040h-280"/>
    <path id="path2698" d="m67750 38040v-500l-50 70-50 50-40 20"/>
    <path id="path2700" d="m68200 37540h50l50 20 20 20 30 50 20 100v120l-20 90-30 50-20 20-50 30h-50l-40-30-30-20-20-50-20-90v-120l20-100 20-50 30-20 40-20"/>
    <path id="path2702" d="m68570 37580 20-20 50-20h120l40 20 30 20 20 50v50l-20 70-290 290h310"/>
    <path id="path2704" d="m69330 38040h-280"/>
    <path id="path2706" d="m69190 38040v-500l-50 70-50 50-40 20"/>
    <path id="path2708" d="m69550 37850h380"/>
    <path id="path2710" d="m70260 37540h50l50 20 20 20 30 50 20 100v120l-20 90-30 50-20 20-50 30h-50l-40-30-30-20-20-50-20-90v-120l20-100 20-50 30-20 40-20"/>
    <path id="path2712" d="m70860 37700v340"/>
    <path id="path2714" d="m70740 37510-110 360h300"/>
    <path id="path2716" d="m71220 37540h50l50 20 20 20 30 50 20 100v120l-20 90-30 50-20 20-50 30h-50l-40-30-30-20-20-50-20-90v-120l20-100 20-50 30-20 40-20"/>
    <path id="path2718" d="m71700 37540h50l50 20 20 20 30 50 20 100v120l-20 90-30 50-20 20-50 30h-50l-40-30-30-20-20-50-20-90v-120l20-100 20-50 30-20 40-20"/>
   </g>
   <g id="g2720" stroke="#840084">
    <path id="path2722" d="m71210 34810 20 20 30 70v50l-30 70-50 50-40 20-100 20h-70l-90-20-50-20-50-50-20-70v-50l20-70 20-20"/>
    <path id="path2724" d="m71110 34610v-230"/>
    <path id="path2726" d="m71260 34660-500-160 500-170"/>
    <path id="path2728" d="m71260 34160h-500l500-280h-500"/>
   </g>
   <g id="g2730" stroke="#0000c2">
    <path id="path2732" d="m55240 29450v-1e3"/>
    <path id="path2734" d="m55720 28790v660"/>
    <path id="path2736" d="m55720 28880 50-50 90-40h140l100 40 50 100v520"/>
    <path id="path2738" d="m56620 28790v660"/>
    <path id="path2740" d="m56620 28880 50-50 90-40h140l100 40 50 100v520"/>
    <path id="path2742" d="m57660 29450-90-50-50-40-50-100v-280l50-100 50-50 90-40h140l100 40 50 50 40 100v280l-40 100-50 40-100 50h-140"/>
    <path id="path2744" d="m58850 29450v-1e3"/>
    <path id="path2746" d="m58850 29400-100 50h-190l-90-50-50-40-50-100v-280l50-100 50-50 90-40h190l100 40"/>
    <path id="path2748" d="m59320 29450v-660"/>
    <path id="path2750" d="m59320 28450-50 50 50 50 50-50-50-50v100"/>
    <path id="path2752" d="m59750 29400 100 50h190l90-50 50-90v-50l-50-90-90-50h-150l-90-50-50-90v-50l50-100 90-40h150l90 40"/>
    <path id="path2754" d="m60610 29450v-1e3"/>
    <path id="path2756" d="m60700 29070 290 380"/>
    <path id="path2758" d="m60990 28790-380 380"/>
    <path id="path2760" d="m62180 28930h330"/>
    <path id="path2762" d="m62650 29450h-470v-1e3h470"/>
    <path id="path2764" d="m63080 29450v-1e3l330 720 330-720v1e3"/>
    <path id="path2766" d="m64220 28450v810l50 100 40 40 100 50h190l90-50 50-40 50-100v-810"/>
    <path id="path2768" d="m65840 29360-50 40-140 50h-100l-140-50-90-90-50-100-50-190v-140l50-190 50-90 90-100 140-50h100l140 50 50 50"/>
    <path id="path2770" d="m66270 29070h760"/>
    <path id="path2772" d="m67840 28930 140 50 50 40 50 100v140l-50 100-50 40-90 50h-380v-1e3h330l100 50 40 50 50 90v100l-50 90-40 50-100 50h-330"/>
    <path id="path2774" d="m68460 28550 50-50 90-50h240l100 50 40 50 50 90v100l-50 140-570 570h620"/>
    <path id="path2776" d="m69650 28450h90l100 50 50 50 40 90 50 190v240l-50 190-40 100-50 40-100 50h-90l-100-50-40-40-50-100-50-190v-240l50-190 50-90 40-50 100-50"/>
    <path id="path2778" d="m70930 29450h-570"/>
    <path id="path2780" d="m70650 29450v-1e3l-100 150-90 90-100 50"/>
   </g>
  </g>
 </g>
 <g id="g2788" fill-opacity=".6" transform="translate(-18210 -10420)" stroke-width="0" fill="#ffffc2">
  <rect id="rect2790" rx="0" height="8e3" width="9e3" y="17000" x="63500"/>
 </g>
 <g stroke-linejoin="round" stroke-linecap="round">
  <g id="g2794" fill-opacity="0" transform="translate(-18210 -10420)" stroke="#840000" stroke-width="120">
   <rect id="rect2796" rx="0" height="8e3" width="9e3" y="17000" x="63500"/>
  </g>
  <g id="g2798" transform="translate(-18210 -10420)" stroke="#840000" stroke-width="120" fill="#840000">
   <circle id="circle2800" cy="24500" cx="68000" r="250"/>
   <circle id="circle2802" cy="17500" cx="68000" r="250"/>
   <circle id="circle2804" cy="23000" cx="72000" r="250"/>
   <circle id="circle2806" cy="22000" cx="72000" r="250"/>
   <circle id="circle2808" cy="21000" cx="72000" r="250"/>
   <circle id="circle2810" cy="2e4" cx="72000" r="250"/>
   <circle id="circle2812" cy="19000" cx="72000" r="250"/>
  </g>
  <g id="g8689" fill-opacity="0" transform="translate(-18210 -10420)" stroke-width="60">
   <g id="g2816" stroke="#840000">
    <path id="path2818" d="m72500 19000h2e3"/>
   </g>
   <g id="g2820" stroke="#008484">
    <path id="path2822" d="m69220 18730 160 500 170-500"/>
    <path id="path2824" d="m69890 18960 70 30 20 20 20 50v70l-20 50-20 20-50 30h-190v-500h170l40 20 30 20 20 50v50l-20 50-30 20-40 20h-170"/>
    <path id="path2826" d="m70220 18730v400l20 50 30 20 40 30h100l50-30 20-20 20-50v-400"/>
    <path id="path2828" d="m70720 19200 70 30h120l40-30 30-20 20-50v-50l-20-40-30-30-40-20-100-30-50-20-20-20-20-50v-50l20-50 20-20 50-20h120l70 20"/>
   </g>
   <g id="g2830" stroke="#840000">
    <path id="path2832" d="m73640 18880h-280"/>
    <path id="path2834" d="m73500 18880v-500l-50 70-50 50-40 20"/>
    <path id="path2836" d="m72500 2e4h2e3"/>
   </g>
   <g id="g2838" stroke="#008484">
    <path id="path2840" d="m70100 20230v-500h120l70 20 50 50 20 50 20 90v70l-20 100-20 40-50 50-70 30h-120"/>
    <path id="path2842" d="m70600 20040h380"/>
   </g>
   <g id="g2844" stroke="#840000">
    <path id="path2846" d="m73360 19420 20-20 50-20h120l40 20 30 20 20 50v50l-20 70-290 290h310"/>
    <path id="path2848" d="m72500 21000h2e3"/>
   </g>
   <g id="g2850" stroke="#008484">
    <path id="path2852" d="m70100 21230v-500h120l70 20 50 50 20 50 20 90v70l-20 100-20 40-50 50-70 30h-120"/>
    <path id="path2854" d="m70600 21040h380"/>
    <path id="path2856" d="m70790 21230v-380"/>
   </g>
   <g id="g2858" stroke="#840000">
    <path id="path2860" d="m73330 20380h310l-170 190h80l40 20 30 20 20 50v120l-20 50-30 20-40 30h-150l-40-30-30-20"/>
    <path id="path2862" d="m72500 22000h2e3"/>
   </g>
   <g id="g2864" stroke="#008484">
    <path id="path2866" d="m70480 22230v-500"/>
    <path id="path2868" d="m70720 22230v-500h120l70 20 50 50 20 50 20 90v70l-20 100-20 40-50 50-70 30h-120"/>
   </g>
   <g id="g2870" stroke="#840000">
    <path id="path2872" d="m73590 21540v340"/>
    <path id="path2874" d="m73470 21350-110 360h300"/>
    <path id="path2876" d="m72500 23000h2e3"/>
   </g>
   <g id="g2878" stroke="#008484">
    <path id="path2880" d="m69960 22750-50-20h-70l-70 20-50 50-20 50-20 90v70l20 100 20 40 50 50 70 30h50l70-30 20-20v-170h-90"/>
    <path id="path2882" d="m70200 23230v-500l280 500v-500"/>
    <path id="path2884" d="m70720 23230v-500h120l70 20 50 50 20 50 20 90v70l-20 100-20 40-50 50-70 30h-120"/>
   </g>
   <g id="g2886" stroke="#840000">
    <path id="path2888" d="m73620 22380h-240l-20 230 20-20 50-20h120l40 20 30 20 20 50v120l-20 50-30 20-40 30h-120l-50-30-20-20"/>
    <path id="path2890" d="m68000 17000v-2e3"/>
   </g>
   <g id="g2892" stroke="#008484">
    <path id="path2894" d="m68180 19860 20 20 30 70v50l-30 70-50 50-40 20-100 20h-70l-90-20-50-20-50-50-20-70v-50l20-70 20-20"/>
    <path id="path2896" d="m68080 19660v-230"/>
    <path id="path2898" d="m68230 19710-500-160 500-170"/>
    <path id="path2900" d="m68200 19230 30-70v-120l-30-40-20-30-50-20h-50l-40 20-30 30-20 40-30 100-20 50-20 20-50 20h-50l-50-20-20-20-20-50v-120l20-70"/>
    <path id="path2902" d="m67960 18730v-170"/>
    <path id="path2904" d="m68230 18490v240h-500v-240"/>
   </g>
   <g id="g2906" stroke="#840000">
    <path id="path2908" d="m67380 16170v-330l500 210"/>
    <path id="path2910" d="m68000 25000v2e3"/>
   </g>
   <g id="g2912" stroke="#008484">
    <path id="path2914" d="m68180 23200 20 20 30 70v50l-30 70-50 50-40 20-100 20h-70l-90-20-50-20-50-50-20-70v-50l20-70 20-20"/>
    <path id="path2916" d="m68080 23000v-230"/>
    <path id="path2918" d="m68230 23050-500-160 500-170"/>
    <path id="path2920" d="m68200 22570 30-70v-120l-30-40-20-30-50-20h-50l-40 20-30 30-20 40-30 100-20 50-20 20-50 20h-50l-50-20-20-20-20-50v-120l20-70"/>
    <path id="path2922" d="m67960 22070v-170"/>
    <path id="path2924" d="m68230 21830v240h-500v-240"/>
   </g>
   <g id="g2926" stroke="#840000">
    <path id="path2928" d="m67590 26050-20 50-30 20-40 20h-30l-50-20-20-20-20-50v-100l20-40 20-30 50-20h30l40 20 30 30 20 40v100l20 50 30 20 50 20h90l50-20 20-20 30-50v-100l-30-40-20-30-50-20h-90l-50 20-30 30-20 40"/>
   </g>
   <g id="g2930" stroke="#008484">
    <path id="path2932" d="m63760 16180v350l-20 70-50 50-70 30h-50"/>
    <path id="path2934" d="m64210 16340v340"/>
    <path id="path2936" d="m64090 16150-110 360h300"/>
    <path id="path2938" d="m68420 25840v-340"/>
    <path id="path2940" d="m68420 25550 20-20 50-30h70l50 30 20 40v270"/>
    <path id="path2942" d="m68630 25570 30-40 40-30h80l40 30 30 40v270"/>
    <path id="path2944" d="m69090 25840v-340"/>
    <path id="path2946" d="m69090 25340-20 20 20 20 20-20-20-20v40"/>
    <path id="path2948" d="m69540 25810-40 30h-100l-50-30-20-20-20-50v-140l20-50 20-20 50-30h100l40 30"/>
    <path id="path2950" d="m69760 25840v-340"/>
    <path id="path2952" d="m69760 25600 20-50 30-20 40-30h50"/>
    <path id="path2954" d="m70140 25840-50-30-20-20-20-50v-140l20-50 20-20 50-30h70l50 30 20 20 30 50v140l-30 50-20 20-50 30h-70"/>
    <path id="path2956" d="m70520 25650h380"/>
    <path id="path2958" d="m71140 25340v400l20 50 30 20 40 30h100l50-30 20-20 20-50v-400"/>
    <path id="path2960" d="m71640 25810 70 30h120l40-30 30-20 20-50v-50l-20-40-30-30-40-20-100-30-50-20-20-20-20-50v-50l20-50 20-20 50-20h120l70 20"/>
    <path id="path2962" d="m72310 25570 70 30 20 20 20 50v70l-20 50-20 20-50 30h-190v-500h170l40 20 30 20 20 50v50l-20 50-30 20-40 20h-170"/>
   </g>
   <g id="g2964" stroke="#840084">
    <path id="path2966" d="m65260 23210h400l50-20 20-30 30-40v-100l-30-50-20-20-50-20h-400"/>
    <path id="path2968" d="m65730 22710 30-70v-120l-30-40-20-30-50-20h-50l-40 20-30 30-20 40-30 100-20 50-20 20-50 20h-50l-50-20-20-20-20-50v-120l20-70"/>
    <path id="path2970" d="m65490 22040 30-70 20-20 50-20h70l50 20 20 20 30 50v190h-500v-170l20-40 20-30 50-20h50l50 20 20 30 20 40v170"/>
    <path id="path2972" d="m65570 21710v-380"/>
    <path id="path2974" d="m65760 21090h-500v-120l20-70 50-50 50-20 90-20h70l100 20 40 20 50 50 30 70v120"/>
    <path id="path2976" d="m65490 20590v-170"/>
    <path id="path2978" d="m65760 20350v240h-500v-240"/>
    <path id="path2980" d="m65260 20210 500-160-500-170"/>
    <path id="path2982" d="m65760 19710h-500"/>
    <path id="path2984" d="m65710 19190 20 20 30 70v50l-30 70-50 50-40 20-100 20h-70l-90-20-50-20-50-50-20-70v-50l20-70 20-20"/>
    <path id="path2986" d="m65490 18970v-170"/>
    <path id="path2988" d="m65760 18730v240h-500v-240"/>
   </g>
   <g id="g2990" stroke="#000084">
    <path id="path2992" d="m67760 14760 480 480"/>
    <path id="path2994" d="m68240 14760-480 480"/>
    <path id="path2996" d="m67760 26760 480 480"/>
    <path id="path2998" d="m68240 26760-480 480"/>
    <path id="path3000" d="m74260 21760 480 480"/>
    <path id="path3002" d="m74740 21760-480 480"/>
    <path id="path3004" d="m74260 18760 480 480"/>
    <path id="path3006" d="m74740 18760-480 480"/>
   </g>
  </g>
 </g>
 <g id="g3014" fill-opacity=".6" transform="translate(-18210 -10420)" stroke-width="0" fill="#ffffc2">
  <rect id="rect3016" rx="0" height="4e3" width="2e3" y="33000" x="82500"/>
 </g>
 <g stroke-linejoin="round" stroke-linecap="round">
  <g id="g3020" fill-opacity="0" transform="translate(-18210 -10420)" stroke="#840000" stroke-width="120">
   <rect id="rect3022" rx="0" height="4e3" width="2e3" y="33000" x="82500"/>
  </g>
  <g id="g3024" fill-rule="evenodd" transform="translate(-18210 -10420)" stroke="#840000" stroke-width="120" fill="#840000">
   <polyline id="polyline3026" points="83250 35750 82750 35750 82750 36250 83250 36250 83250 35750"/>
   <polyline id="polyline3028" points="83250 34750 82750 34750 82750 35250 83250 35250 83250 34750"/>
   <polyline id="polyline3030" points="83250 33750 82750 33750 82750 34250 83250 34250 83250 33750"/>
  </g>
  <g id="g8795" fill-opacity="0" transform="translate(-18210 -10420)" stroke-width="60">
   <g id="g3034" stroke="#840000">
    <path id="path3036" d="m82500 34000h-2e3"/>
    <path id="path3038" d="m81640 33880h-280"/>
    <path id="path3040" d="m81500 33880v-500l-50 70-50 50-40 20"/>
    <path id="path3042" d="m82500 35000h-2e3"/>
    <path id="path3044" d="m81360 34420 20-20 50-20h120l40 20 30 20 20 50v50l-20 70-290 290h310"/>
    <path id="path3046" d="m82500 36000h-2e3"/>
    <path id="path3048" d="m81330 35380h310l-170 190h80l40 20 30 20 20 50v120l-20 50-30 20-40 30h-150l-40-30-30-20"/>
   </g>
   <g id="g3050" stroke="#008484">
    <path id="path3052" d="m83330 32180v350l-20 70-50 50-70 30h-50"/>
    <path id="path3054" d="m83520 32180h330l-210 500"/>
    <path id="path3056" d="m85440 37950 30-70v-120l-30-40-20-30-50-20h-50l-40 20-30 30-20 40-30 100-20 50-20 20-50 20h-50l-50-20-20-20-20-50v-120l20-70"/>
    <path id="path3058" d="m85470 37450h-500l350-170-350-160h500"/>
    <path id="path3060" d="m84970 36790v-50l20-50 20-20 50-30 100-20h120l90 20 50 30 20 20 30 50v50l-30 40-20 30-50 20-90 20h-120l-100-20-50-20-20-30-20-40"/>
    <path id="path3062" d="m84970 36450v-310l190 170v-80l20-40 20-30 50-20h120l50 20 20 30 30 40v150l-30 40-20 30"/>
    <path id="path3064" d="m85200 35750 30-70 20-20 50-20h70l50 20 20 20 30 50v190h-500v-170l20-40 20-30 50-20h50l50 20 20 30 20 40v170"/>
    <path id="path3066" d="m85280 35420v-380"/>
    <path id="path3068" d="m84990 34540-20 50v70l20 70 50 50 50 20 90 20h70l100-20 40-20 50-50 30-70v-50l-30-70-20-20h-170v90"/>
    <path id="path3070" d="m85470 34300h-500"/>
    <path id="path3072" d="m85200 34300v-280"/>
    <path id="path3074" d="m85470 34020h-500"/>
    <path id="path3076" d="m85440 33800 30-70v-120l-30-40-20-30-50-20h-50l-40 20-30 30-20 40-30 100-20 50-20 20-50 20h-50l-50-20-20-20-20-50v-120l20-70"/>
    <path id="path3078" d="m85280 33300v-380"/>
    <path id="path3080" d="m84970 32750v-280"/>
    <path id="path3082" d="m85470 32610h-500"/>
    <path id="path3084" d="m85200 32130 30-70 20-20 50-20h70l50 20 20 20 30 50v190h-500v-170l20-40 20-30 50-20h50l50 20 20 30 20 40v170"/>
   </g>
   <g id="g3086" stroke="#840084">
    <path id="path3088" d="m84140 35310 20 20 30 70v50l-30 70-50 50-40 20-100 20h-70l-90-20-50-20-50-50-20-70v-50l20-70 20-20"/>
    <path id="path3090" d="m84040 35110v-230"/>
    <path id="path3092" d="m84190 35160-500-160 500-170"/>
    <path id="path3094" d="m84190 34660h-500l500-280h-500"/>
   </g>
  </g>
 </g>
 <g id="g3102" fill-opacity=".6" transform="translate(-18210 -10420)" stroke-width="0" fill="#ffffc2">
  <rect id="rect3104" rx="0" height="8e3" width="2e3" y="14000" x="82500"/>
 </g>
 <g stroke-linejoin="round" stroke-linecap="round">
  <g id="g3108" fill-opacity="0" transform="translate(-18210 -10420)" stroke="#840000" stroke-width="120">
   <rect id="rect3110" rx="0" height="8e3" width="2e3" y="14000" x="82500"/>
  </g>
  <g id="g3112" fill-rule="evenodd" transform="translate(-18210 -10420)" stroke="#840000" stroke-width="120" fill="#840000">
   <polyline id="polyline3114" points="83250 20750 82750 20750 82750 21250 83250 21250 83250 20750"/>
   <polyline id="polyline3116" points="83250 19750 82750 19750 82750 20250 83250 20250 83250 19750"/>
   <polyline id="polyline3118" points="83250 18750 82750 18750 82750 19250 83250 19250 83250 18750"/>
   <polyline id="polyline3120" points="83250 17750 82750 17750 82750 18250 83250 18250 83250 17750"/>
   <polyline id="polyline3122" points="83250 16750 82750 16750 82750 17250 83250 17250 83250 16750"/>
   <polyline id="polyline3124" points="83250 15750 82750 15750 82750 16250 83250 16250 83250 15750"/>
   <polyline id="polyline3126" points="83250 14750 82750 14750 82750 15250 83250 15250 83250 14750"/>
  </g>
  <g id="g8840" fill-opacity="0" transform="translate(-18210 -10420)">
   <g id="g8842" stroke-width="60">
    <g id="g3130" stroke="#840000">
     <path id="path3132" d="m82500 15000h-2e3"/>
     <path id="path3134" d="m81640 14880h-280"/>
     <path id="path3136" d="m81500 14880v-500l-50 70-50 50-40 20"/>
     <path id="path3138" d="m82500 16000h-2e3"/>
     <path id="path3140" d="m81360 15420 20-20 50-20h120l40 20 30 20 20 50v50l-20 70-290 290h310"/>
     <path id="path3142" d="m82500 17000h-2e3"/>
     <path id="path3144" d="m81330 16380h310l-170 190h80l40 20 30 20 20 50v120l-20 50-30 20-40 30h-150l-40-30-30-20"/>
     <path id="path3146" d="m82500 18000h-2e3"/>
     <path id="path3148" d="m81590 17540v340"/>
     <path id="path3150" d="m81470 17350-110 360h300"/>
     <path id="path3152" d="m82500 19000h-2e3"/>
     <path id="path3154" d="m81620 18380h-240l-20 230 20-20 50-20h120l40 20 30 20 20 50v120l-20 50-30 20-40 30h-120l-50-30-20-20"/>
     <path id="path3156" d="m82500 2e4h-2e3"/>
     <path id="path3158" d="m81590 19380h-90l-50 20-20 20-50 80-20 90v190l20 50 20 20 50 30h100l40-30 30-20 20-50v-120l-20-50-30-20-40-20h-100l-50 20-20 20-20 50"/>
     <path id="path3160" d="m82500 21000h-2e3"/>
     <path id="path3162" d="m81330 20380h330l-210 500"/>
    </g>
    <g id="g3164" stroke="#008484">
     <path id="path3166" d="m83330 13180v350l-20 70-50 50-70 30h-50"/>
     <path id="path3168" d="m83780 13180h-90l-50 20-20 20-50 80-20 90v190l20 50 20 20 50 30h100l40-30 30-20 20-50v-120l-20-50-30-20-40-20h-100l-50 20-20 20-20 50"/>
     <path id="path3170" d="m85440 20450 30-70v-120l-30-40-20-30-50-20h-50l-40 20-30 30-20 40-30 100-20 50-20 20-50 20h-50l-50-20-20-20-20-50v-120l20-70"/>
     <path id="path3172" d="m85470 19950h-500l350-170-350-160h500"/>
     <path id="path3174" d="m84970 19290v-50l20-50 20-20 50-30 100-20h120l90 20 50 30 20 20 30 50v50l-30 40-20 30-50 20-90 20h-120l-100-20-50-20-20-30-20-40"/>
     <path id="path3176" d="m84970 18950v-330l500 210"/>
     <path id="path3178" d="m85200 18250 30-70 20-20 50-20h70l50 20 20 20 30 50v190h-500v-170l20-40 20-30 50-20h50l50 20 20 30 20 40v170"/>
     <path id="path3180" d="m85280 17920v-380"/>
     <path id="path3182" d="m84990 17040-20 50v70l20 70 50 50 50 20 90 20h70l100-20 40-20 50-50 30-70v-50l-30-70-20-20h-170v90"/>
     <path id="path3184" d="m85470 16800h-500"/>
     <path id="path3186" d="m85200 16800v-280"/>
     <path id="path3188" d="m85470 16520h-500"/>
     <path id="path3190" d="m85440 16300 30-70v-120l-30-40-20-30-50-20h-50l-40 20-30 30-20 40-30 100-20 50-20 20-50 20h-50l-50-20-20-20-20-50v-120l20-70"/>
     <path id="path3192" d="m85280 15800v-380"/>
     <path id="path3194" d="m84970 15250v-280"/>
     <path id="path3196" d="m85470 15110h-500"/>
     <path id="path3198" d="m85200 14630 30-70 20-20 50-20h70l50 20 20 20 30 50v190h-500v-170l20-40 20-30 50-20h50l50 20 20 30 20 40v170"/>
    </g>
    <g id="g3200" stroke="#840084">
     <path id="path3202" d="m83690 19020 500-160-500-170"/>
     <path id="path3204" d="m84190 18520h-500"/>
     <path id="path3206" d="m84190 18280h-500v-120l20-70 50-50 50-20 90-20h70l100 20 40 20 50 50 30 70v120"/>
     <path id="path3208" d="m83920 17780v-170"/>
     <path id="path3210" d="m84190 17540v240h-500v-240"/>
     <path id="path3212" d="m83690 17240v-100l20-50 50-40 90-30h170l90 30 50 40 30 50v100l-30 40-50 50-90 20h-170l-90-20-50-50-20-40"/>
    </g>
    <g id="g3214" stroke="#000">
     <path id="path3216" d="m77400 33830-20 20-70 30h-50l-70-30-50-50-20-40-20-100v-70l20-90 20-50 50-50 70-20h50l70 20 20 20"/>
     <path id="path3218" d="m77600 33730h230"/>
     <path id="path3220" d="m77550 33880 160-500 170 500"/>
     <path id="path3222" d="m78050 33880v-500l280 500v-500"/>
     <path id="path3224" d="m78450 33920h380"/>
     <path id="path3226" d="m79190 33880h-240v-500"/>
     <path id="path3228" d="m77400 34830-20 20-70 30h-50l-70-30-50-50-20-40-20-100v-70l20-90 20-50 50-50 70-20h50l70 20 20 20"/>
     <path id="path3230" d="m77600 34730h230"/>
     <path id="path3232" d="m77550 34880 160-500 170 500"/>
     <path id="path3234" d="m78050 34880v-500l280 500v-500"/>
     <path id="path3236" d="m78450 34920h380"/>
     <path id="path3238" d="m78950 34880v-500"/>
     <path id="path3240" d="m78950 34610h280"/>
     <path id="path3242" d="m79230 34880v-500"/>
     <path id="path3244" d="m77120 20880v-500h120l70 20 50 50 20 50 20 90v70l-20 100-20 40-50 50-70 30h-120"/>
     <path id="path3246" d="m77550 20380 160 500 170-500"/>
     <path id="path3248" d="m78030 20850 70 30h120l40-30 30-20 20-50v-50l-20-40-30-30-40-20-100-30-50-20-20-20-20-50v-50l20-50 20-20 50-20h120l70 20"/>
     <path id="path3250" d="m78700 20610 70 30 20 20 20 50v70l-20 50-20 20-50 30h-190v-500h170l40 20 30 20 20 50v50l-20 50-30 20-40 20h-170"/>
     <path id="path3252" d="m79030 20690h380"/>
     <path id="path3254" d="m79220 20880v-380"/>
     <path id="path3256" d="m77120 19880v-500h120l70 20 50 50 20 50 20 90v70l-20 100-20 40-50 50-70 30h-120"/>
     <path id="path3258" d="m77550 19380 160 500 170-500"/>
     <path id="path3260" d="m78030 19850 70 30h120l40-30 30-20 20-50v-50l-20-40-30-30-40-20-100-30-50-20-20-20-20-50v-50l20-50 20-20 50-20h120l70 20"/>
     <path id="path3262" d="m78700 19610 70 30 20 20 20 50v70l-20 50-20 20-50 30h-190v-500h170l40 20 30 20 20 50v50l-20 50-30 20-40 20h-170"/>
     <path id="path3264" d="m79030 19690h380"/>
    </g>
    <g id="g3266" stroke="#008400">
     <path id="path3268" d="m76000 23000h-1500"/>
     <path id="path3270" d="m76000 19000v4e3"/>
     <path id="path3272" d="m80500 19000h-4500"/>
     <path id="path3274" d="m74500 21000h6e3"/>
     <path id="path3276" d="m74500 2e4h6e3"/>
     <path id="path3278" d="m80500 35000h-4e3"/>
     <path id="path3280" d="m80500 34000h-4e3"/>
    </g>
   </g>
   <g id="g8920" stroke-width="60" stroke-dasharray="136.85, 158.425" stroke="#0000c2">
    <g id="g3284">
     <path id="path3286" d="m56000 3e4v9e3"/>
    </g>
    <g id="g3290">
     <path id="path3292" d="m55000 3e4v9e3"/>
    </g>
    <g id="g3296">
     <path id="path3298" d="m72500 3e4h-17500"/>
    </g>
    <g id="g3302">
     <path id="path3304" d="m72500 14000h-24000"/>
    </g>
    <g id="g3308">
     <path id="path3310" d="m72500 39000v-25000"/>
    </g>
    <g id="g3314">
     <path id="path3316" d="m48500 39000h24000"/>
    </g>
    <g id="g3320">
     <path id="path3322" d="m48500 14000v25000"/>
    </g>
   </g>
   <g id="g3328" stroke-width="120" stroke="#000084">
    <path id="path3330" d="m41000 16000h-2e4"/>
    <path id="path3332" d="m41000 16000v1e3"/>
    <path id="path3334" d="m41000 17000v1e3"/>
    <path id="path3336" d="m41000 18000v1e3"/>
    <path id="path3338" d="m41000 19000v3e3"/>
    <path id="path3340" d="m41000 22000v2e3"/>
   </g>
   <g id="g3344" stroke-width="60" stroke="#008400">
    <path id="path3346" d="m42000 23000h4500"/>
    <path id="path3348" d="m42000 2e4h4500"/>
    <path id="path3350" d="m42000 19000h4500"/>
    <path id="path3352" d="m42000 18000h4500"/>
   </g>
  </g>
  <g id="g8948" transform="translate(-18210 -10420)" stroke="#008400">
   <g id="g3356" stroke-width="100" fill="#008400">
    <circle id="circle3358" cy="32000" cx="46500" r="200"/>
   </g>
   <g id="g3362" stroke-width="60" fill-opacity="0">
    <path id="path3364" d="m46500 31500v500"/>
   </g>
   <g id="g3368" stroke-width="100" fill="#008400">
    <circle id="circle3370" cy="33000" cx="46500" r="200"/>
   </g>
   <g id="g3374" stroke-width="60" fill-opacity="0">
    <path id="path3376" d="m46500 33500v-500"/>
    <path id="path3378" d="m44500 33000h2e3"/>
    <path id="path3380" d="m46500 33000h4e3"/>
    <path id="path3382" d="m44500 32000h2e3"/>
    <path id="path3384" d="m46500 32000h4e3"/>
   </g>
   <g id="g3388" stroke-width="100" fill="#008400">
    <circle id="circle3390" cy="33000" cx="35500" r="200"/>
   </g>
   <g id="g3394" stroke-width="60" fill-opacity="0">
    <path id="path3396" d="m35500 33000v500"/>
   </g>
   <g id="g3400" stroke-width="100" fill="#008400">
    <circle id="circle3402" cy="32000" cx="35500" r="200"/>
   </g>
  </g>
  <g id="g8968" fill-opacity="0" transform="translate(-18210 -10420)" stroke-width="60">
   <g id="g3406" stroke="#008400">
    <path id="path3408" d="m35500 32000v-500"/>
    <path id="path3410" d="m24000 33000h7500"/>
    <path id="path3412" d="m31500 33000h4e3"/>
    <path id="path3414" d="m35500 33000h2e3"/>
    <path id="path3416" d="m28000 32000h4500"/>
    <path id="path3418" d="m32500 32000h3e3"/>
    <path id="path3420" d="m35500 32000h2e3"/>
   </g>
   <g id="g8978" stroke-dasharray="136.85, 158.425" stroke="#0000c2">
    <g id="g3424">
     <path id="path3426" d="m44500 31000h-7e3"/>
    </g>
    <g id="g3430">
     <path id="path3432" d="m44500 34000v-3e3"/>
    </g>
    <g id="g3436">
     <path id="path3438" d="m37500 34000h7e3"/>
    </g>
    <g id="g3442">
     <path id="path3444" d="m37500 31000v3e3"/>
    </g>
   </g>
   <g id="g9066">
    <g id="g3670" stroke="#000">
     <path id="path3672" d="m77380 18400-50-20h-70l-70 20-50 50-20 50-20 90v70l20 100 20 40 50 50 70 30h50l70-30 20-20v-170h-90"/>
     <path id="path3674" d="m77620 18880v-500l280 500v-500"/>
     <path id="path3676" d="m78140 18880v-500h120l70 20 50 50 20 50 20 90v70l-20 100-20 40-50 50-70 30h-120"/>
     <path id="path3678" d="m77380 35400-50-20h-70l-70 20-50 50-20 50-20 90v70l20 100 20 40 50 50 70 30h50l70-30 20-20v-170h-90"/>
     <path id="path3680" d="m77620 35880v-500l280 500v-500"/>
     <path id="path3682" d="m78140 35880v-500h120l70 20 50 50 20 50 20 90v70l-20 100-20 40-50 50-70 30h-120"/>
    </g>
    <g id="g3684" stroke="#008400">
     <path id="path3686" d="m74500 36000h6e3"/>
     <path id="path3688" d="m74500 34000h1e3"/>
     <path id="path3690" d="m75500 34000 1e3 1e3"/>
     <path id="path3692" d="m74500 35000h1e3"/>
     <path id="path3694" d="m75500 35000 1e3 -1e3"/>
    </g>
    <g id="g3696" stroke="#000084">
     <path id="path3698" d="m74260 32760 480 480"/>
     <path id="path3700" d="m74740 32760-480 480"/>
     <path id="path3702" d="m80260 14760 480 480"/>
     <path id="path3704" d="m80740 14760-480 480"/>
     <path id="path3706" d="m80260 15760 480 480"/>
     <path id="path3708" d="m80740 15760-480 480"/>
     <path id="path3710" d="m80260 16760 480 480"/>
     <path id="path3712" d="m80740 16760-480 480"/>
     <path id="path3714" d="m80260 17760 480 480"/>
     <path id="path3716" d="m80740 17760-480 480"/>
    </g>
    <g id="g3718" stroke="#008400">
     <path id="path3720" d="m31500 42000h51000"/>
    </g>
   </g>
  </g>
  <g id="g9094" transform="translate(-18210 -10420)" stroke="#008400">
   <g id="g3724" stroke-width="100" fill="#008400">
    <circle id="circle3726" cy="33000" cx="31500" r="200"/>
   </g>
   <g id="g3730" stroke-width="60" fill-opacity="0">
    <path id="path3732" d="m82500 41000h-5e4"/>
    <path id="path3734" d="m32500 41000v-9e3"/>
   </g>
   <g id="g3738" stroke-width="100" fill="#008400">
    <circle id="circle3740" cy="32000" cx="32500" r="200"/>
   </g>
  </g>
  <g id="g9103" fill-opacity="0" transform="translate(-18210 -10420)">
   <g id="g9105" stroke-width="60" stroke="#0000c2">
    <g id="g9107" stroke-dasharray="136.85, 158.425">
     <g id="g3748">
      <path id="path3750" d="m82500 12000v32000"/>
     </g>
     <g id="g3754">
      <path id="path3756" d="m82500 44000h4e3"/>
     </g>
     <g id="g3760">
      <path id="path3762" d="m86500 44000v-32000"/>
     </g>
     <g id="g3766">
      <path id="path3768" d="m86500 12000h-4e3"/>
     </g>
    </g>
    <g id="g3770">
     <path id="path3772" d="m77240 11450v-1e3h240l140 50 90 100 50 90 50 190v140l-50 190-50 100-90 90-140 50h-240"/>
     <path id="path3774" d="m78520 10450v720l-40 140-100 90-140 50h-100"/>
     <path id="path3776" d="m79000 11450v-1e3"/>
     <path id="path3778" d="m80240 11450v-1e3l330 720 330-720v1e3"/>
     <path id="path3780" d="m81520 11450-90-50-50-40-50-100v-280l50-100 50-50 90-40h140l100 40 50 50 40 100v280l-40 100-50 40-100 50h-140"/>
     <path id="path3782" d="m82710 10790v660"/>
     <path id="path3784" d="m82280 10790v520l50 90 90 50h140l100-50 50-40"/>
     <path id="path3786" d="m83180 10790v660"/>
     <path id="path3788" d="m83180 10880 50-50 90-40h140l100 40 50 100v520"/>
     <path id="path3790" d="m83940 10790h380"/>
     <path id="path3792" d="m84080 10450v860l50 90 90 50h100"/>
     <path id="path3794" d="m84650 11450v-660"/>
     <path id="path3796" d="m84650 10450-50 50 50 50 50-50-50-50v100"/>
     <path id="path3798" d="m85130 10790v660"/>
     <path id="path3800" d="m85130 10880 50-50 90-40h140l100 40 50 100v520"/>
     <path id="path3802" d="m86460 10790v810l-50 90-50 50-90 50h-150l-90-50"/>
     <path id="path3804" d="m86460 11400-100 50h-190l-90-50-50-40-50-100v-280l50-100 50-50 90-40h190l100 40"/>
     <path id="path3806" d="m88020 10930 140 50 50 40 50 100v140l-50 100-50 40-90 50h-380v-1e3h330l100 50 40 50 50 90v100l-50 90-40 50-100 50h-330"/>
     <path id="path3808" d="m88830 11450-90-50-50-40-50-100v-280l50-100 50-50 90-40h140l100 40 50 50 40 100v280l-40 100-50 40-100 50h-140"/>
     <path id="path3810" d="m90020 11450v-520l-50-100-100-40h-190l-90 40"/>
     <path id="path3812" d="m90020 11400-100 50h-240l-90-50-50-90v-100l50-90 90-50h240l100-50"/>
     <path id="path3814" d="m90490 11450v-660"/>
     <path id="path3816" d="m90490 10980 50-100 40-50 100-40h90"/>
     <path id="path3818" d="m91540 11450v-1e3"/>
     <path id="path3820" d="m91540 11400-100 50h-190l-90-50-50-40-50-100v-280l50-100 50-50 90-40h190l100 40"/>
     <path id="path3822" d="m38740 30450v-1e3h240l140 50 90 100 50 90 50 190v140l-50 190-50 100-90 90-140 50h-240"/>
     <path id="path3824" d="m40310 30360-50 40-140 50h-100l-140-50-90-90-50-100-50-190v-140l50-190 50-90 90-100 140-50h100l140 50 50 50"/>
     <path id="path3826" d="m40740 30070h760"/>
     <path id="path3828" d="m41980 30450v-1e3h240l140 50 90 100 50 90 50 190v140l-50 190-50 100-90 90-140 50h-240"/>
     <path id="path3830" d="m43550 30360-50 40-140 50h-100l-140-50-90-90-50-100-50-190v-140l50-190 50-90 90-100 140-50h100l140 50 50 50"/>
    </g>
   </g>
   <g id="g9148" stroke="#840000">
    <g id="g3832" stroke-width="60">
     <path id="path3834" d="m82780 41040h380"/>
     <path id="path3836" d="m82970 41230v-380"/>
     <path id="path3838" d="m83400 41230v-500h190l50 20 20 20 20 50v70l-20 50-20 20-50 30h-190"/>
     <path id="path3840" d="m83990 40730h100l50 20 40 50 30 90v170l-30 90-40 50-50 30h-100l-40-30-50-50-20-90v-170l20-90 50-50 40-20"/>
     <path id="path3842" d="m84370 40730 120 500 100-360 90 360 120-500"/>
     <path id="path3844" d="m84990 40960h170"/>
     <path id="path3846" d="m85230 41230h-240v-500h240"/>
     <path id="path3848" d="m85720 41230-160-240"/>
     <path id="path3850" d="m85440 41230v-500h190l50 20 20 20 20 50v70l-20 50-20 20-50 30h-190"/>
    </g>
    <g id="g3852" stroke-width="100">
     <polyline id="polyline3854" points="82500 41000 82500 41460 85950 41460 86200 41000 85950 40540 82500 40540 82500 41000" fill="none;"/>
    </g>
    <g id="g3856" stroke-width="60">
     <path id="path3858" d="m82780 42040h380"/>
     <path id="path3860" d="m83400 42230v-500h190l50 20 20 20 20 50v70l-20 50-20 20-50 30h-190"/>
     <path id="path3862" d="m83990 41730h100l50 20 40 50 30 90v170l-30 90-40 50-50 30h-100l-40-30-50-50-20-90v-170l20-90 50-50 40-20"/>
     <path id="path3864" d="m84370 41730 120 500 100-360 90 360 120-500"/>
     <path id="path3866" d="m84990 41960h170"/>
     <path id="path3868" d="m85230 42230h-240v-500h240"/>
     <path id="path3870" d="m85720 42230-160-240"/>
     <path id="path3872" d="m85440 42230v-500h190l50 20 20 20 20 50v70l-20 50-20 20-50 30h-190"/>
    </g>
    <g id="g3874" stroke-width="100">
     <polyline id="polyline3876" points="82500 42000 82500 42460 85950 42460 86200 42000 85950 41540 82500 41540 82500 42000" fill="none;"/>
    </g>
   </g>
  </g>
 </g>
 <g id="g3892" fill-opacity=".6" transform="translate(-18210 -10420)" stroke-width="0" fill="#ffffc2">
  <polyline id="polyline3894" points="26600 31500 27400 32000 26600 32500 26600 31500" fill-rule="evenodd"/>
 </g>
 <g id="g9178" stroke-linejoin="round" fill-opacity="0" transform="translate(-18210 -10420)" stroke-linecap="round">
  <g id="g3898" stroke-width="120" stroke="#840000" fill="none;">
   <polyline id="polyline3900" points="26600 31500 27400 32000 26600 32500 26600 31500"/>
   <polyline id="polyline3902" points="27200 32500 27200 32300"/>
   <polyline id="polyline3904" points="27400 32500 27200 32500"/>
   <polyline id="polyline3906" points="27400 31500 27400 32500"/>
   <polyline id="polyline3908" points="27400 31500 27600 31500"/>
   <polyline id="polyline3910" points="27600 31500 27600 31700"/>
  </g>
  <g id="g9187" stroke-width="60">
   <g id="g3912" stroke="#840000">
    <path id="path3914" d="m27400 32000h600"/>
    <path id="path3916" d="m26600 32000h-600"/>
   </g>
   <g id="g3918" stroke="#008484">
    <path id="path3920" d="m26630 31180v-500h120l70 20 50 50 20 50 20 90v70l-20 100-20 40-50 50-70 30h-120"/>
    <path id="path3922" d="m27390 31180h-280"/>
    <path id="path3924" d="m27250 31180v-500l-50 70-50 50-40 20"/>
    <path id="path3926" d="m23350 33540 160 500 170-500"/>
    <path id="path3928" d="m24020 33770h-170"/>
    <path id="path3930" d="m23850 34040v-500h240"/>
    <path id="path3932" d="m24210 33540h280"/>
    <path id="path3934" d="m24350 34040v-500"/>
    <path id="path3936" d="m24870 33700v340"/>
    <path id="path3938" d="m24750 33510-110 360h300"/>
    <path id="path3940" d="m25230 33540h50l50 20 20 20 30 50 20 100v120l-20 90-30 50-20 20-50 30h-50l-40-30-30-20-20-50-20-90v-120l20-100 20-50 30-20 40-20"/>
    <path id="path3942" d="m25830 33700v340"/>
    <path id="path3944" d="m25710 33510-110 360h300"/>
    <path id="path3946" d="m26340 33540h-240l-20 230 20-20 50-20h120l40 20 30 20 20 50v120l-20 50-30 20-40 30h-120l-50-30-20-20"/>
    <path id="path3948" d="m26750 33770 70 30 20 20 20 50v70l-20 50-20 20-50 30h-190v-500h170l40 20 30 20 20 50v50l-20 50-30 20-40 20h-170"/>
    <path id="path3950" d="m27080 34040v-500h190l50 20 20 20 20 50v70l-20 50-20 20-50 30h-190"/>
    <path id="path3952" d="m27580 33850h380"/>
    <path id="path3954" d="m28200 34040v-500l170 350 160-350v500"/>
    <path id="path3956" d="m28720 33540h310l-170 190h80l40 20 30 20 20 50v120l-20 50-30 20-40 30h-150l-40-30-30-20"/>
    <path id="path3958" d="m29610 33510-430 650"/>
    <path id="path3960" d="m29980 33700v340"/>
    <path id="path3962" d="m29860 33510-110 360h300"/>
    <path id="path3964" d="m30200 33540 120 500 100-360 90 360 120-500"/>
   </g>
   <g id="g3966" stroke="#008400">
    <path id="path3968" d="m24000 32000h2e3"/>
    <path id="path3970" d="m31500 42000v-9e3"/>
   </g>
  </g>
 </g>
</svg>
