<?xml version="1.0" encoding="UTF-8" standalone="no"?>
<svg id="svg2" xmlns:rdf="http://www.w3.org/1999/02/22-rdf-syntax-ns#" xmlns="http://www.w3.org/2000/svg" height="5.9922cm" width="7.1757cm" version="1.1" xmlns:cc="http://creativecommons.org/ns#" xmlns:dc="http://purl.org/dc/elements/1.1/" viewBox="0 0 28250.844 23591.282">
 <metadata id="metadata3976">
  <rdf:RDF>
   <cc:Work rdf:about="">
    <dc:format>image/svg+xml</dc:format>
    <dc:type rdf:resource="http://purl.org/dc/dcmitype/StillImage"/>
    <dc:title>SVG Picture created as camera.sch.svg date 2017/09/21 18:48:16</dc:title>
   </cc:Work>
  </rdf:RDF>
 </metadata>
 <title id="title4">SVG Picture created as camera.sch.svg date 2017/09/21 18:48:16</title>
 <desc id="desc6">Picture generated by Eeschema-SVG</desc>
 <g stroke-linejoin="round" stroke-linecap="round" fill-opacity="0">
  <g stroke="#0000c2" stroke-width="60">
   <g id="g772" transform="translate(-24990 -49439)">
    <path id="path774" d="m51340 65160h-200"/>
    <path id="path776" d="m51140 65470v-600h290"/>
    <path id="path778" d="m51740 65470-60-30-30-50v-520"/>
    <path id="path780" d="m52050 65470-60-30-30-30-30-50v-170l30-60 30-30 60-30h80l60 30 30 30 30 60v170l-30 50-30 30-60 30h-80"/>
    <path id="path782" d="m52590 65470-60-30-30-30-30-50v-170l30-60 30-30 60-30h80l60 30 30 30 30 60v170l-30 50-30 30-60 30h-80"/>
    <path id="path784" d="m53040 65470v-400"/>
    <path id="path786" d="m53040 65190 30-60 30-30 60-30h50"/>
    <path id="path788" d="m33810 64370v430l-20 90-60 50-90 30h-50"/>
    <path id="path790" d="m34330 64940-60 30h-110l-60-30-30-50v-230l30-60 60-30h110l60 30 30 60v50l-290 60"/>
    <path id="path792" d="m34530 64570h230"/>
    <path id="path794" d="m34610 64370v520l30 50 60 30h60"/>
    <path id="path796" d="m34920 64940 60 30h120l50-30 30-50v-30l-30-60-50-30h-90l-60-30-30-50v-30l30-60 60-30h90l50 30"/>
    <path id="path798" d="m35530 64970-60-30-30-30-30-50v-170l30-60 30-30 60-30h80l60 30 30 30 30 60v170l-30 50-30 30-60 30h-80"/>
    <path id="path800" d="m35980 64570v400"/>
    <path id="path802" d="m35980 64630 30-30 60-30h80l60 30 30 60v310"/>
    <path id="path804" d="m37360 64370h340"/>
    <path id="path806" d="m37530 64970v-600"/>
    <path id="path808" d="m37900 64970v-600"/>
    <path id="path810" d="m38250 64970-260-340"/>
    <path id="path812" d="m38250 64370-350 340"/>
    <path id="path814" d="m38820 64970h-350"/>
    <path id="path816" d="m38650 64970v-600l-60 90-60 50-60 30"/>
    <path id="path818" d="m33620 63710h170"/>
    <path id="path820" d="m33860 63980h-240v-500h240"/>
    <path id="path822" d="m34000 63480h280"/>
    <path id="path824" d="m34140 63980v-500"/>
    <path id="path826" d="m34450 63980v-500"/>
    <path id="path828" d="m34450 63710h280"/>
    <path id="path830" d="m34730 63980v-500"/>
    <path id="path832" d="m39620 63480v400l20 50 30 20 40 30h100l50-30 20-20 20-50v-400"/>
    <path id="path834" d="m40120 63950 70 30h120l40-30 30-20 20-50v-50l-20-40-30-30-40-20-100-30-50-20-20-20-20-50v-50l20-50 20-20 50-20h120l70 20"/>
    <path id="path836" d="m40790 63710 70 30 20 20 20 50v70l-20 50-20 20-50 30h-190v-500h170l40 20 30 20 20 50v50l-20 50-30 20-40 20h-170"/>
    <path id="path838" d="m51490 61970-200-280"/>
    <path id="path840" d="m51140 61970v-600h230l60 30 30 30 30 60v80l-30 60-30 30-60 30h-230"/>
    <path id="path842" d="m51830 61970-60-30-30-30-30-50v-170l30-60 30-30 60-30h80l60 30 30 30 30 60v170l-30 50-30 30-60 30h-80"/>
    <path id="path844" d="m52370 61970-60-30-30-30-30-50v-170l30-60 30-30 60-30h80l60 30 30 30 30 60v170l-30 50-30 30-60 30h-80"/>
    <path id="path846" d="m52740 61570h230"/>
    <path id="path848" d="m52820 61970v-510l30-60 60-30h60"/>
    <path id="path850" d="m35140 67070v-600h150l80 30 60 60 30 50 30 120v80l-30 120-30 60-60 50-80 30h-150"/>
    <path id="path852" d="m35910 66470v430l-20 90-60 50-90 30h-50"/>
    <path id="path854" d="m36200 67070v-600"/>
    <path id="path856" d="m36950 67070v-600l200 430 200-430v600"/>
    <path id="path858" d="m37730 67070-60-30-30-30-30-50v-170l30-60 30-30 60-30h80l60 30 30 30 30 60v170l-30 50-30 30-60 30h-80"/>
    <path id="path860" d="m38440 66670v400"/>
    <path id="path862" d="m38180 66670v320l30 50 60 30h80l60-30 30-30"/>
    <path id="path864" d="m38720 66670v400"/>
    <path id="path866" d="m38720 66730 30-30 60-30h80l60 30 30 60v310"/>
    <path id="path868" d="m39180 66670h230"/>
    <path id="path870" d="m39260 66470v520l30 50 60 30h60"/>
    <path id="path872" d="m39600 67070v-400"/>
    <path id="path874" d="m39600 66470-30 30 30 30 30-30-30-30v60"/>
    <path id="path876" d="m39890 66670v400"/>
    <path id="path878" d="m39890 66730 30-30 60-30h80l60 30 30 60v310"/>
    <path id="path880" d="m40690 66670v490l-30 50-30 30-50 30h-90l-60-30"/>
    <path id="path882" d="m40690 67040-60 30h-110l-60-30-30-30-30-50v-170l30-60 30-30 60-30h110l60 30"/>
    <path id="path884" d="m35340 67660 90 30 30 20 30 60v90l-30 50-30 30-60 30h-230v-600h200l60 30 30 30 30 60v50l-30 60-30 30-60 30h-200"/>
    <path id="path886" d="m35830 67970-60-30-30-30-30-50v-170l30-60 30-30 60-30h80l60 30 30 30 30 60v170l-30 50-30 30-60 30h-80"/>
    <path id="path888" d="m36540 67970v-310l-30-60-60-30h-110l-60 30"/>
    <path id="path890" d="m36540 67940-60 30h-140l-60-30-30-50v-60l30-60 60-30h140l60-30"/>
    <path id="path892" d="m36820 67970v-400"/>
    <path id="path894" d="m36820 67690 30-60 30-30 60-30h50"/>
    <path id="path896" d="m37450 67970v-600"/>
    <path id="path898" d="m37450 67940-60 30h-110l-60-30-30-30-30-50v-170l30-60 30-30 60-30h110l60 30"/>
    <path id="path900" d="m44120 63980v-500h190l50 20 20 20 20 50v70l-20 50-20 20-50 30h-190"/>
    <path id="path902" d="m44570 63480 120 500 100-360 90 360 120-500"/>
    <path id="path904" d="m45470 63980-160-240"/>
    <path id="path906" d="m45190 63980v-500h190l50 20 20 20 20 50v70l-20 50-20 20-50 30h-190"/>
    <path id="path908" d="m47120 61480v-500h190l50 20 20 20 20 50v70l-20 50-20 20-50 30h-190"/>
    <path id="path910" d="m47570 60980 120 500 100-360 90 360 120-500"/>
    <path id="path912" d="m48470 61480-160-240"/>
    <path id="path914" d="m48190 61480v-500h190l50 20 20 20 20 50v70l-20 50-20 20-50 30h-190"/>
    <path id="path916" d="m38400 63930-20 20-70 30h-50l-70-30-50-50-20-40-20-100v-70l20-90 20-50 50-50 70-20h50l70 20 20 20"/>
    <path id="path918" d="m38600 63830h230"/>
    <path id="path920" d="m38550 63980 160-500 170 500"/>
    <path id="path922" d="m39050 63980v-500l280 500v-500"/>
    <path id="path924" d="m47120 63480v-500h120l70 20 50 50 20 50 20 90v70l-20 100-20 40-50 50-70 30h-120"/>
    <path id="path926" d="m47900 63430-20 20-70 30h-50l-70-30-50-50-20-40-20-100v-70l20-90 20-50 50-50 70-20h50l70 20 20 20"/>
    <path id="path928" d="m48120 63290h380"/>
    <path id="path930" d="m48740 63480v-500h120l70 20 50 50 20 50 20 90v70l-20 100-20 40-50 50-70 30h-120"/>
    <path id="path932" d="m49520 63430-20 20-70 30h-50l-70-30-50-50-20-40-20-100v-70l20-90 20-50 50-50 70-20h50l70 20 20 20"/>
    <path id="path934" d="m37490 72910-30 30-90 30h-60l-80-30-60-50-30-60-30-120v-80l30-120 30-50 60-60 80-30h60l90 30 30 30"/>
    <path id="path936" d="m38000 72970v-310l-30-60-60-30h-110l-60 30"/>
    <path id="path938" d="m38000 72940-60 30h-140l-60-30-30-50v-60l30-60 60-30h140l60-30"/>
    <path id="path940" d="m38280 72970v-400"/>
    <path id="path942" d="m38280 72630 30-30 60-30h80l60 30 30 60v310"/>
    <path id="path944" d="m38540 72660 30-60 60-30h80l60 30 30 60v310"/>
    <path id="path946" d="m39310 72940-60 30h-110l-60-30-30-50v-230l30-60 60-30h110l60 30 30 60v50l-290 60"/>
    <path id="path948" d="m39590 72970v-400"/>
    <path id="path950" d="m39590 72690 30-60 30-30 60-30h50"/>
    <path id="path952" d="m40220 72970v-310l-30-60-60-30h-110l-60 30"/>
    <path id="path954" d="m40220 72940-60 30h-140l-60-30-30-50v-60l30-60 60-30h140l60-30"/>
    <path id="path956" d="m30120 49980v-500h190l50 20 20 20 20 50v70l-20 50-20 20-50 30h-190"/>
    <path id="path958" d="m30690 49980-50-30-20-20-20-50v-140l20-50 20-20 50-30h70l50 30 20 20 30 50v140l-30 50-20 20-50 30h-70"/>
    <path id="path960" d="m31020 49640 100 340 90-240 100 240 90-340"/>
    <path id="path962" d="m31780 49950-50 30h-90l-50-30-20-50v-190l20-40 50-30h90l50 30 20 40v50l-230 50"/>
    <path id="path964" d="m32020 49980v-340"/>
    <path id="path966" d="m32020 49740 20-50 30-20 40-30h50"/>
    <path id="path968" d="m25020 49710h170"/>
    <path id="path970" d="m25260 49980h-240v-500h240"/>
    <path id="path972" d="m25400 49640h190"/>
    <path id="path974" d="m25470 49480v420l20 50 50 30h50"/>
    <path id="path976" d="m25760 49980v-500"/>
    <path id="path978" d="m25970 49980v-270l-20-40-50-30h-70l-50 30-20 20"/>
    <path id="path980" d="m26400 49950-50 30h-90l-50-30-20-50v-190l20-40 50-30h90l50 30 20 40v50l-230 50"/>
    <path id="path982" d="m26640 49980v-340"/>
    <path id="path984" d="m26640 49740 20-50 30-20 40-30h50"/>
    <path id="path986" d="m26950 49640v340"/>
    <path id="path988" d="m26950 49690 20-20 50-30h70l50 30 20 40v270"/>
    <path id="path990" d="m27590 49950-50 30h-90l-50-30-20-50v-190l20-40 50-30h90l50 30 20 40v50l-230 50"/>
    <path id="path992" d="m27760 49640h190"/>
    <path id="path994" d="m27830 49480v420l20 50 50 30h50"/>
   </g>
   <g stroke-dasharray="136.85, 158.425">
    <g id="g3448" transform="translate(-24990 -49439)">
     <path id="path3450" d="m33500 62500h1500"/>
    </g>
    <g id="g3454" transform="translate(-24990 -49439)">
     <path id="path3456" d="m42000 73000v-5e3"/>
    </g>
    <g id="g3460" transform="translate(-24990 -49439)">
     <path id="path3462" d="m37000 73000v-5e3"/>
    </g>
    <g id="g3466" transform="translate(-24990 -49439)">
     <path id="path3468" d="m44000 68000v-2e3"/>
    </g>
    <g id="g3472" transform="translate(-24990 -49439)">
     <path id="path3474" d="m35000 66000v2e3"/>
    </g>
    <g id="g3478" transform="translate(-24990 -49439)">
     <path id="path3480" d="m42000 73000h-5e3"/>
    </g>
   </g>
  </g>
  <g id="g3486" transform="translate(-24990 -49439)" stroke="#000084" stroke-width="120">
   <path id="path3488" d="m43000 61000h4e3"/>
   <path id="path3490" d="m43000 66000v-5e3"/>
   <path id="path3492" d="m47000 63000h-1500"/>
   <path id="path3494" d="m42000 63000v3e3"/>
   <path id="path3496" d="m41000 63000h1e3"/>
   <path id="path3498" d="m37000 63000v3e3"/>
   <path id="path3500" d="m38000 63000h-1e3"/>
   <path id="path3502" d="m29500 60500v-11000"/>
   <path id="path3504" d="m47000 60500h-17500"/>
   <path id="path3506" d="m28500 63000v-13500"/>
   <path id="path3508" d="m33500 63000h-5e3"/>
  </g>
  <g stroke="#0000c2" stroke-dasharray="136.85, 158.425" stroke-width="60">
   <g id="g3514" transform="translate(-24990 -49439)">
    <path id="path3516" d="m5e4 63500v-1500"/>
   </g>
   <g id="g3520" transform="translate(-24990 -49439)">
    <path id="path3522" d="m47000 63500h3e3"/>
   </g>
   <g id="g3526" transform="translate(-24990 -49439)">
    <path id="path3528" d="m47000 62000v1500"/>
   </g>
   <g id="g3532" transform="translate(-24990 -49439)">
    <path id="path3534" d="m29500 65000v500"/>
   </g>
   <g id="g3538" transform="translate(-24990 -49439)">
    <path id="path3540" d="m50500 65000h-21000"/>
   </g>
   <g id="g3544" transform="translate(-24990 -49439)">
    <path id="path3546" d="m33500 64000h12000"/>
   </g>
   <g id="g3550" transform="translate(-24990 -49439)">
    <path id="path3552" d="m38000 64000v-1500"/>
   </g>
   <g id="g3556" transform="translate(-24990 -49439)">
    <path id="path3558" d="m48500 6e4h-1500"/>
   </g>
   <g id="g3562" transform="translate(-24990 -49439)">
    <path id="path3564" d="m48500 61500v-1500"/>
   </g>
   <g id="g3568" transform="translate(-24990 -49439)">
    <path id="path3570" d="m47000 6e4v1500"/>
   </g>
   <g id="g3574" transform="translate(-24990 -49439)">
    <path id="path3576" d="m45500 62500h-1500"/>
   </g>
   <g id="g3580" transform="translate(-24990 -49439)">
    <path id="path3582" d="m35000 62500v1500"/>
   </g>
   <g id="g3586" transform="translate(-24990 -49439)">
    <path id="path3588" d="m41000 62500v1500"/>
   </g>
   <g id="g3592" transform="translate(-24990 -49439)">
    <path id="path3594" d="m38000 62500h3e3"/>
   </g>
   <g id="g3598" transform="translate(-24990 -49439)">
    <path id="path3600" d="m44000 62500v1500"/>
   </g>
   <g id="g3604" transform="translate(-24990 -49439)">
    <path id="path3606" d="m39500 64000v-1500"/>
   </g>
   <g id="g3610" transform="translate(-24990 -49439)">
    <path id="path3612" d="m44000 66000h-9e3"/>
   </g>
   <g id="g3616" transform="translate(-24990 -49439)">
    <path id="path3618" d="m35000 68000h9e3"/>
   </g>
   <g id="g3622" transform="translate(-24990 -49439)">
    <path id="path3624" d="m45500 65000v-2500"/>
   </g>
   <g id="g3628" transform="translate(-24990 -49439)">
    <path id="path3630" d="m50500 65500v-500"/>
   </g>
   <g id="g3634" transform="translate(-24990 -49439)">
    <path id="path3636" d="m29500 65500h21000"/>
   </g>
   <g id="g3640" transform="translate(-24990 -49439)">
    <path id="path3642" d="m33500 62500v2500"/>
   </g>
   <g id="g3646" transform="translate(-24990 -49439)">
    <path id="path3648" d="m50500 61500h-21000"/>
   </g>
   <g id="g3652" transform="translate(-24990 -49439)">
    <path id="path3654" d="m50500 62000v-500"/>
   </g>
   <g id="g3658" transform="translate(-24990 -49439)">
    <path id="path3660" d="m29500 62000h21000"/>
   </g>
   <g id="g3664" transform="translate(-24990 -49439)">
    <path id="path3666" d="m29500 61500v500"/>
   </g>
  </g>
  <g id="g3880" transform="translate(-24990 -49439)" stroke="#000084" stroke-width="120">
   <path id="path3882" d="m48500 60500h1e3"/>
   <path id="path3884" d="m49500 60500v1500"/>
  </g>
 </g>
</svg>
