<svg xmlns="http://www.w3.org/2000/svg" viewBox="0 0 28250.844 23591.282" width="271.208" height="226.477"><title>SVG Picture created as camera.sch.svg date 2017/09/21 18:48:16</title><desc>Picture generated by Eeschema-SVG</desc><g fill-opacity="0" stroke-linecap="round" stroke-linejoin="round" fill="none"><g stroke-width="60" stroke="#0000c2"><path d="M26350 15721h-200m0 310v-600h290m310 600l-60-30-30-50v-520m400 600l-60-30-30-30-30-50v-170l30-60 30-30 60-30h80l60 30 30 30 30 60v170l-30 50-30 30-60 30h-80m540 0l-60-30-30-30-30-50v-170l30-60 30-30 60-30h80l60 30 30 30 30 60v170l-30 50-30 30-60 30h-80m450 0v-400m0 120l30-60 30-30 60-30h50m-19400-700v430l-20 90-60 50-90 30h-50m740-30l-60 30h-110l-60-30-30-50v-230l30-60 60-30h110l60 30 30 60v50l-290 60m460-200h230m-150-200v520l30 50 60 30h60m160-30l60 30h120l50-30 30-50v-30l-30-60-50-30h-90l-60-30-30-50v-30l30-60 60-30h90l50 30m380 370l-60-30-30-30-30-50v-170l30-60 30-30 60-30h80l60 30 30 30 30 60v170l-30 50-30 30-60 30h-80m450-400v400m0-340l30-30 60-30h80l60 30 30 60v310m1120-600h340m-170 600v-600m370 600v-600m350 600l-260-340m260-260l-350 340m920 260h-350m180 0v-600l-60 90-60 50-60 30m-4850-830h170m70 270h-240v-500h240m140 0h280m-140 500v-500m310 500v-500m0 230h280m0 270v-500m4890 0v400l20 50 30 20 40 30h100l50-30 20-20 20-50v-400m220 470l70 30h120l40-30 30-20 20-50v-50l-20-40-30-30-40-20-100-30-50-20-20-20-20-50v-50l20-50 20-20 50-20h120l70 20m390 210l70 30 20 20 20 50v70l-20 50-20 20-50 30h-190v-500h170l40 20 30 20 20 50v50l-20 50-30 20-40 20h-170m10870-1740l-200-280m-150 280v-600h230l60 30 30 30 30 60v80l-30 60-30 30-60 30h-230m690 280l-60-30-30-30-30-50v-170l30-60 30-30 60-30h80l60 30 30 30 30 60v170l-30 50-30 30-60 30h-80m540 0l-60-30-30-30-30-50v-170l30-60 30-30 60-30h80l60 30 30 30 30 60v170l-30 50-30 30-60 30h-80m370-400h230m-150 400v-510l30-60 60-30h60m-17830 5700v-600h150l80 30 60 60 30 50 30 120v80l-30 120-30 60-60 50-80 30h-150m770-600v430l-20 90-60 50-90 30h-50m510 0v-600m750 600v-600l200 430 200-430v600m380 0l-60-30-30-30-30-50v-170l30-60 30-30 60-30h80l60 30 30 30 30 60v170l-30 50-30 30-60 30h-80m710-400v400m-260-400v320l30 50 60 30h80l60-30 30-30m280-340v400m0-340l30-30 60-30h80l60 30 30 60v310m200-400h230m-150-200v520l30 50 60 30h60m190 0v-400m0-200l-30 30 30 30 30-30-30-30v60m290 140v400m0-340l30-30 60-30h80l60 30 30 60v310m540-400v490l-30 50-30 30-50 30h-90l-60-30"/><path d="M15700 17601l-60 30h-110l-60-30-30-30-30-50v-170l30-60 30-30 60-30h110l60 30m-5350 960l90 30 30 20 30 60v90l-30 50-30 30-60 30h-230v-600h200l60 30 30 30 30 60v50l-30 60-30 30-60 30h-200m690 310l-60-30-30-30-30-50v-170l30-60 30-30 60-30h80l60 30 30 30 30 60v170l-30 50-30 30-60 30h-80m710 0v-310l-30-60-60-30h-110l-60 30"/><path d="M11550 18501l-60 30h-140l-60-30-30-50v-60l30-60 60-30h140l60-30m280 260v-400m0 120l30-60 30-30 60-30h50m460 400v-600m0 570l-60 30h-110l-60-30-30-30-30-50v-170l30-60 30-30 60-30h110l60 30m6670-3620v-500h190l50 20 20 20 20 50v70l-20 50-20 20-50 30h-190m450-260l120 500 100-360 90 360 120-500m470 500l-160-240m-120 240v-500h190l50 20 20 20 20 50v70l-20 50-20 20-50 30h-190m1930-2260v-500h190l50 20 20 20 20 50v70l-20 50-20 20-50 30h-190m450-260l120 500 100-360 90 360 120-500m470 500l-160-240m-120 240v-500h190l50 20 20 20 20 50v70l-20 50-20 20-50 30h-190m-9790 2690l-20 20-70 30h-50l-70-30-50-50-20-40-20-100v-70l20-90 20-50 50-50 70-20h50l70 20 20 20m200 310h230m-280 150l160-500 170 500m170 0v-500l280 500v-500m7790 0v-500h120l70 20 50 50 20 50 20 90v70l-20 100-20 40-50 50-70 30h-120m780-50l-20 20-70 30h-50l-70-30-50-50-20-40-20-100v-70l20-90 20-50 50-50 70-20h50l70 20 20 20m220 270h380m240 190v-500h120l70 20 50 50 20 50 20 90v70l-20 100-20 40-50 50-70 30h-120m780-50l-20 20-70 30h-50l-70-30-50-50-20-40-20-100v-70l20-90 20-50 50-50 70-20h50l70 20 20 20m-12030 9890l-30 30-90 30h-60l-80-30-60-50-30-60-30-120v-80l30-120 30-50 60-60 80-30h60l90 30 30 30m510 540v-310l-30-60-60-30h-110l-60 30"/><path d="M13010 23501l-60 30h-140l-60-30-30-50v-60l30-60 60-30h140l60-30m280 260v-400m0 60l30-30 60-30h80l60 30 30 60v310m0-310l30-60 60-30h80l60 30 30 60v310m510-30l-60 30h-110l-60-30-30-50v-230l30-60 60-30h110l60 30 30 60v50l-290 60m540 200v-400m0 120l30-60 30-30 60-30h50m460 400v-310l-30-60-60-30h-110l-60 30"/><path d="M15230 23501l-60 30h-140l-60-30-30-50v-60l30-60 60-30h140l60-30M5130 541V41h190l50 20 20 20 20 50v70l-20 50-20 20-50 30h-190m570 240l-50-30-20-20-20-50V301l20-50 20-20 50-30h70l50 30 20 20 30 50v140l-30 50-20 20-50 30h-70m330-340l100 340 90-240 100 240 90-340m380 310l-50 30h-90l-50-30-20-50V271l20-40 50-30h90l50 30 20 40v50l-230 50m450 170V201m0 100l20-50 30-20 40-30h50M30 271h170m70 270H30V41h240m140 160h190M480 41v420l20 50 50 30h50m170 0V41m210 500V271l-20-40-50-30h-70l-50 30-20 20m640 260l-50 30h-90l-50-30-20-50V271l20-40 50-30h90l50 30 20 40v50l-230 50m450 170V201m0 100l20-50 30-20 40-30h50m170 0v340m0-290l20-20 50-30h70l50 30 20 40v270m430-30l-50 30h-90l-50-30-20-50V271l20-40 50-30h90l50 30 20 40v50l-230 50m380-170h190M2840 41v420l20 50 50 30h50"/><path d="M8510 13061h1500m7000 10500v-5000m-5000 5000v-5000m7000 0v-2000m-9000 0v2000m7000 5000h-5000" stroke-dasharray="136.85, 158.425"/></g><path d="M18010 11561h4000m-4000 5000v-5000m4000 2000h-1500m-3500 0v3000m-1000-3000h1000m-5000 0v3000m1000-3000h-1000m-7500-2500V61m17500 11000H4510m-1000 2500V61m5000 13500H3510" stroke-width="120" stroke="#000084"/><path d="M25010 14061v-1500m-3000 1500h3000m-3000-1500v1500M4510 15561v500m21000-500H4510m4000-1000h12000m-7500 0v-1500m10500-2500h-1500m1500 1500v-1500m-1500 0v1500m-1500 1000h-1500m-9000 0v1500m6000-1500v1500m-3000-1500h3000m3000 0v1500m-4500 0v-1500m4500 3500h-9000m0 2000h9000m1500-3000v-2500m5000 3000v-500m-21000 500h21000M8510 13061v2500m17000-3500H4510m21000 500v-500m-21000 500h21000m-21000-500v500" stroke-width="60" stroke-dasharray="136.85, 158.425" stroke="#0000c2"/><path d="M23510 11061h1000m0 0v1500" stroke-width="120" stroke="#000084"/></g></svg>