<?xml version="1.0" encoding="UTF-8" standalone="no"?>
<svg xmlns:dc="http://purl.org/dc/elements/1.1/" xmlns:cc="http://creativecommons.org/ns#" xmlns:rdf="http://www.w3.org/1999/02/22-rdf-syntax-ns#" xmlns:svg="http://www.w3.org/2000/svg" xmlns="http://www.w3.org/2000/svg" viewBox="0 0 600 500" height="500" width="600" xml:space="preserve" version="1.1" id="svg4206"><metadata id="metadata4212"><rdf:RDF><cc:Work rdf:about=""><dc:format>image/svg+xml</dc:format><dc:type rdf:resource="http://purl.org/dc/dcmitype/StillImage"/><dc:title/></cc:Work></rdf:RDF></metadata><defs id="defs4210"><clipPath id="clipPath4222" clipPathUnits="userSpaceOnUse"><path id="path4224" d="m 90,20 4710,0 0,3910 -4710,0 0,-3910 z"/></clipPath><clipPath id="clipPath4232" clipPathUnits="userSpaceOnUse"><path id="path4234" d="M 2204.69,3815.7 123.398,398.09 c -39.9175,-65.281 -39.9175,-145.899 0,-211.211 39.18,-64.5 112.891,-105.1993 192.774,-105.1993 l 4162.578,0 c 79.1,0 152.85,40.6993 192.77,105.1993 39.18,65.312 39.18,145.93 0,211.211 L 2590.23,3815.7 c -39.96,65.28 -113.67,106.02 -192.77,106.02 -79.1,0 -152.85,-40.74 -192.77,-106.02 z"/></clipPath><linearGradient id="linearGradient4236" spreadMethod="pad" gradientTransform="matrix(36.4541,0,0,34.5202,299.981,-18068.2)" gradientUnits="userSpaceOnUse" y2="527.55499" x2="118.931" y1="616.47699" x1="41.194901"><stop id="stop4238" offset="0" style="stop-opacity:1;stop-color:#bb0000"/><stop id="stop4240" offset="1" style="stop-opacity:1;stop-color:#5f0000"/></linearGradient><clipPath id="clipPath4248" clipPathUnits="userSpaceOnUse"><path id="path4250" d="m 2397.46,3745.82 c -13.05,0 -25.35,-6.91 -32.26,-17.66 L 1324.57,2019.34 283.91,310.551 c -6.922,-10.75 -6.922,-24.571 0,-35.352 6.91,-10.75 19.211,-17.66 32.262,-17.66 l 4162.578,0 c 13.05,0 25.35,6.91 32.27,17.66 6.91,10.781 6.91,24.602 0,35.352 L 2429.73,3728.16 c -6.92,10.75 -19.22,17.66 -32.27,17.66 z"/></clipPath><linearGradient id="linearGradient4252" spreadMethod="pad" gradientTransform="matrix(7.68005,0,0,-7.68005,93.4456,3921.7)" gradientUnits="userSpaceOnUse" y2="211.23" x2="174.80499" y1="486.63101" x1="530.81"><stop id="stop4254" offset="0" style="stop-opacity:1;stop-color:#9a0000"/><stop id="stop4256" offset="1" style="stop-opacity:1;stop-color:#f22803"/></linearGradient><clipPath id="clipPath4264" clipPathUnits="userSpaceOnUse"><path id="path4266" d="m 90,20 4710,0 0,3910 -4710,0 0,-3910 z"/></clipPath><linearGradient id="linearGradient4268" spreadMethod="pad" gradientTransform="matrix(7.68005,0,0,7.68005,93.4456,-3521.7)" gradientUnits="userSpaceOnUse" y2="483.10001" x2="581.83698" y1="224.599" x1="187.87399"><stop id="stop4270" offset="0" style="stop-opacity:1;stop-color:#ec6c60"/><stop id="stop4272" offset="1" style="stop-opacity:1;stop-color:#d11412"/></linearGradient><clipPath id="clipPath4280" clipPathUnits="userSpaceOnUse"><path id="path4282" d="m 2398.01,3684.3 c -12.35,-0.63 -23.91,-7.54 -30.47,-17.78 L 1326.88,1957.7 1181.91,1719.61 c 353.09,-211.91 766.21,-334.06 1207.7,-334.06 447.77,0 866.44,125.43 1222.81,342.97 l -1180.31,1938 c -6.91,10.75 -19.14,17.78 -32.19,17.78 -0.58,0 -1.29,0 -1.91,0 z"/></clipPath><linearGradient id="linearGradient4284" spreadMethod="pad" gradientTransform="matrix(7.68005,0,0,-7.68005,93.4456,3921.7)" gradientUnits="userSpaceOnUse" y2="264.54199" x2="412.09399" y1="101.536" x1="250.39799"><stop id="stop4286" offset="0" style="stop-opacity:1;stop-color:#ffd9d9"/><stop id="stop4288" offset="1" style="stop-opacity:1;stop-color:#ff2727"/></linearGradient><clipPath id="clipPath4296" clipPathUnits="userSpaceOnUse"><path id="path4298" d="M 2291.48,2834.22 1034.26,770.59 c -21.53,-36.102 -21.53,-80.668 0,-115.981 21.48,-36.089 62.19,-58.359 105.97,-58.359 l 2513.68,0 c 43.79,0 84.49,22.27 105.97,58.359 21.53,36.09 21.53,79.879 0,115.981 L 2503.44,2834.22 c -21.49,36.09 -62.19,58.36 -105.98,58.36 -43.79,0 -84.49,-22.27 -105.98,-58.36 z"/></clipPath><radialGradient id="radialGradient4300" spreadMethod="pad" gradientTransform="matrix(1e-7,-12.2501,-7.01203,1.733e-4,3701.99,5960.02)" gradientUnits="userSpaceOnUse" r="179.55" cy="186.09599" cx="295.47101" fy="186.09599" fx="295.47101"><stop id="stop4302" offset="0" style="stop-opacity:1;stop-color:#ffffff"/><stop id="stop4304" offset="0.5" style="stop-opacity:1;stop-color:#ffffff"/><stop id="stop4306" offset="1" style="stop-opacity:1;stop-color:#d5d5d5"/></radialGradient><clipPath id="clipPath4314" clipPathUnits="userSpaceOnUse"><path id="path4316" d="m 90,20 4710,0 0,3910 -4710,0 0,-3910 z"/></clipPath></defs><g transform="matrix(1.25,0,0,-1.25,0,500)" id="g4214"><g transform="scale(0.1,0.1)" id="g4216"><g id="g4218"><g clip-path="url(#clipPath4222)" id="g4220"><path id="path4226" style="fill:#d2d2d2;fill-opacity:1;fill-rule:nonzero;stroke:none" d="M 2296.37,3754.53 215.078,336.91 c -39.957,-65.269 -39.957,-145.93 0,-211.211 C 254.219,61.1719 327.969,20.4688 407.809,20.4688 l 4162.621,0 c 79.1,0 152.81,40.7031 192.73,105.2302 39.18,65.281 39.18,145.942 0,211.211 L 2681.88,3754.53 c -39.93,65.27 -113.64,105.98 -192.78,105.98 -79.1,0 -152.81,-40.71 -192.73,-105.98 z"/></g></g><g id="g4228"><g clip-path="url(#clipPath4232)" id="g4230"><path id="path4242" style="fill:url(#linearGradient4236);fill-opacity:1;fill-rule:nonzero;stroke:none" d="M 2204.69,3815.7 123.398,398.09 c -39.9175,-65.281 -39.9175,-145.899 0,-211.211 39.18,-64.5 112.891,-105.1993 192.774,-105.1993 l 4162.578,0 c 79.1,0 152.85,40.6993 192.77,105.1993 39.18,65.312 39.18,145.93 0,211.211 L 2590.23,3815.7 c -39.96,65.28 -113.67,106.02 -192.77,106.02 -79.1,0 -152.85,-40.74 -192.77,-106.02 z"/></g></g><g id="g4244"><g clip-path="url(#clipPath4248)" id="g4246"><path id="path4258" style="fill:url(#linearGradient4252);fill-opacity:1;fill-rule:nonzero;stroke:none" d="m 2397.46,3745.82 c -13.05,0 -25.35,-6.91 -32.26,-17.66 L 1324.57,2019.34 283.91,310.551 c -6.922,-10.75 -6.922,-24.571 0,-35.352 6.91,-10.75 19.211,-17.66 32.262,-17.66 l 4162.578,0 c 13.05,0 25.35,6.91 32.27,17.66 6.91,10.781 6.91,24.602 0,35.352 L 2429.73,3728.16 c -6.92,10.75 -19.22,17.66 -32.27,17.66 z"/></g></g><g id="g4260"><g clip-path="url(#clipPath4264)" id="g4262"><path id="path4274" style="fill:none;stroke:url(#linearGradient4268);stroke-width:92.16000366;stroke-linecap:butt;stroke-linejoin:round;stroke-miterlimit:4;stroke-dasharray:none;stroke-opacity:1" d="m 2397.19,3745.82 c -13.09,0 -25.35,-6.91 -32.27,-17.66 L 1324.26,2019.34 283.629,310.551 c -6.91,-10.75 -6.91,-24.571 0,-35.352 6.922,-10.75 19.18,-17.66 32.23,-17.66 l 4162.621,0 c 13.04,0 25.31,6.91 32.22,17.66 6.92,10.781 6.92,24.602 0,35.352 L 2429.41,3728.16 c -6.91,10.75 -19.18,17.66 -32.22,17.66 z"/></g></g><g id="g4276"><g clip-path="url(#clipPath4280)" id="g4278"><path id="path4290" style="fill:url(#linearGradient4284);fill-opacity:1;fill-rule:nonzero;stroke:none" d="m 2398.01,3684.3 c -12.35,-0.63 -23.91,-7.54 -30.47,-17.78 L 1326.88,1957.7 1181.91,1719.61 c 353.09,-211.91 766.21,-334.06 1207.7,-334.06 447.77,0 866.44,125.43 1222.81,342.97 l -1180.31,1938 c -6.91,10.75 -19.14,17.78 -32.19,17.78 -0.58,0 -1.29,0 -1.91,0 z"/></g></g><g id="g4292"><g clip-path="url(#clipPath4296)" id="g4294"><path id="path4308" style="fill:url(#radialGradient4300);fill-opacity:1;fill-rule:nonzero;stroke:none" d="M 2291.48,2834.22 1034.26,770.59 c -21.53,-36.102 -21.53,-80.668 0,-115.981 21.48,-36.089 62.19,-58.359 105.97,-58.359 l 2513.68,0 c 43.79,0 84.49,22.27 105.97,58.359 21.53,36.09 21.53,79.879 0,115.981 L 2503.44,2834.22 c -21.49,36.09 -62.19,58.36 -105.98,58.36 -43.79,0 -84.49,-22.27 -105.98,-58.36 z"/></g></g><g id="g4310"><g clip-path="url(#clipPath4314)" id="g4312"><path id="path4318" style="fill:#000000;fill-opacity:1;fill-rule:nonzero;stroke:none" d="m 2331.17,669.449 c -72.03,34.5 -126.87,117.461 -126.87,191.879 0,138.594 144.8,242.972 281.79,203.162 92.43,-26.87 155.24,-110.271 154.5,-205.111 -0.67,-80.551 -35.55,-139.891 -106.72,-181.609 -54.49,-31.911 -145.63,-35.661 -202.7,-8.321 z m 16.37,547.191 c -8.99,4.96 -30.2,22.19 -47.11,38.28 -59.1,56.29 -59.02,55.78 -97.54,658.01 -34.26,535.35 -34.53,543.67 -19.84,582.15 33.04,86.48 106.72,124.37 229.33,117.97 77.97,-4.1 137.97,-31.49 177,-80.75 33.35,-42.07 40.58,-65.82 40.54,-133.04 0,-73.01 -46.68,-968.64 -53.28,-1023.52 -8.71,-71.87 -50.66,-130.19 -112.19,-155.9 -35.15,-14.64 -93.12,-16.25 -116.91,-3.2 z"/></g></g></g></g></svg>