<svg xmlns="http://www.w3.org/2000/svg" viewBox="0 0 600 500" height="500" width="600"><defs><clipPath id="a"><path d="M90 20h4710v3910H90V20z"/></clipPath><clipPath id="b"><path d="M2204.69 3815.7L123.398 398.09c-39.917-65.281-39.917-145.899 0-211.211 39.18-64.5 112.891-105.2 192.774-105.2H4478.75c79.1 0 152.85 40.7 192.77 105.2 39.18 65.312 39.18 145.93 0 211.211L2590.23 3815.7c-39.96 65.28-113.67 106.02-192.77 106.02-79.1 0-152.85-40.74-192.77-106.02z"/></clipPath><linearGradient id="c" gradientTransform="matrix(36.4541 0 0 34.5202 299.981 -18068.2)" gradientUnits="userSpaceOnUse" y2="527.555" x2="118.931" y1="616.477" x1="41.195"><stop offset="0" stop-color="#b00"/><stop offset="1" stop-color="#5f0000"/></linearGradient><clipPath id="d"><path d="M2397.46 3745.82c-13.05 0-25.35-6.91-32.26-17.66L1324.57 2019.34 283.91 310.551c-6.922-10.75-6.922-24.571 0-35.352 6.91-10.75 19.211-17.66 32.262-17.66H4478.75c13.05 0 25.35 6.91 32.27 17.66 6.91 10.781 6.91 24.602 0 35.352L2429.73 3728.16c-6.92 10.75-19.22 17.66-32.27 17.66z"/></clipPath><linearGradient id="e" gradientTransform="matrix(7.68005 0 0 -7.68005 93.446 3921.7)" gradientUnits="userSpaceOnUse" y2="211.23" x2="174.805" y1="486.631" x1="530.81"><stop offset="0" stop-color="#9a0000"/><stop offset="1" stop-color="#f22803"/></linearGradient><clipPath id="f"><path d="M90 20h4710v3910H90V20z"/></clipPath><linearGradient id="g" gradientTransform="translate(93.446 -3521.7) scale(7.68005)" gradientUnits="userSpaceOnUse" y2="483.1" x2="581.837" y1="224.599" x1="187.874"><stop offset="0" stop-color="#ec6c60"/><stop offset="1" stop-color="#d11412"/></linearGradient><clipPath id="h"><path d="M2398.01 3684.3c-12.35-.63-23.91-7.54-30.47-17.78L1326.88 1957.7l-144.97-238.09c353.09-211.91 766.21-334.06 1207.7-334.06 447.77 0 866.44 125.43 1222.81 342.97l-1180.31 1938c-6.91 10.75-19.14 17.78-32.19 17.78h-1.91z"/></clipPath><linearGradient id="i" gradientTransform="matrix(7.68005 0 0 -7.68005 93.446 3921.7)" gradientUnits="userSpaceOnUse" y2="264.542" x2="412.094" y1="101.536" x1="250.398"><stop offset="0" stop-color="#ffd9d9"/><stop offset="1" stop-color="#ff2727"/></linearGradient><clipPath id="j"><path d="M2291.48 2834.22L1034.26 770.59c-21.53-36.102-21.53-80.668 0-115.981 21.48-36.089 62.19-58.359 105.97-58.359h2513.68c43.79 0 84.49 22.27 105.97 58.359 21.53 36.09 21.53 79.879 0 115.981L2503.44 2834.22c-21.49 36.09-62.19 58.36-105.98 58.36-43.79 0-84.49-22.27-105.98-58.36z"/></clipPath><radialGradient id="k" spreadMethod="pad" gradientTransform="matrix(0 -12.2501 -7.01203 .00017 3701.99 5960.02)" gradientUnits="userSpaceOnUse" r="179.55" cy="186.096" cx="295.471" fy="186.096" fx="295.471"><stop offset="0" stop-color="#fff"/><stop offset=".5" stop-color="#fff"/><stop offset="1" stop-color="#d5d5d5"/></radialGradient><clipPath id="l"><path d="M90 20h4710v3910H90V20z"/></clipPath></defs><g clip-path="url(#a)" transform="matrix(.13 0 0 -.13 0 500)"><path d="M2296.37 3754.53L215.078 336.91c-39.957-65.269-39.957-145.93 0-211.211 39.141-64.527 112.891-105.23 192.731-105.23H4570.43c79.1 0 152.81 40.703 192.73 105.23 39.18 65.281 39.18 145.942 0 211.211L2681.88 3754.53c-39.93 65.27-113.64 105.98-192.78 105.98-79.1 0-152.81-40.71-192.73-105.98z" fill="#d2d2d2"/></g><g clip-path="url(#b)" transform="matrix(.13 0 0 -.13 0 500)"><path d="M2204.69 3815.7L123.398 398.09c-39.917-65.281-39.917-145.899 0-211.211 39.18-64.5 112.891-105.2 192.774-105.2H4478.75c79.1 0 152.85 40.7 192.77 105.2 39.18 65.312 39.18 145.93 0 211.211L2590.23 3815.7c-39.96 65.28-113.67 106.02-192.77 106.02-79.1 0-152.85-40.74-192.77-106.02z" fill="url(#c)"/></g><g clip-path="url(#d)" transform="matrix(.13 0 0 -.13 0 500)"><path d="M2397.46 3745.82c-13.05 0-25.35-6.91-32.26-17.66L1324.57 2019.34 283.91 310.551c-6.922-10.75-6.922-24.571 0-35.352 6.91-10.75 19.211-17.66 32.262-17.66H4478.75c13.05 0 25.35 6.91 32.27 17.66 6.91 10.781 6.91 24.602 0 35.352L2429.73 3728.16c-6.92 10.75-19.22 17.66-32.27 17.66z" fill="url(#e)"/></g><g clip-path="url(#f)" transform="matrix(.13 0 0 -.13 0 500)"><path d="M2397.19 3745.82c-13.09 0-25.35-6.91-32.27-17.66L1324.26 2019.34 283.629 310.551c-6.91-10.75-6.91-24.571 0-35.352 6.922-10.75 19.18-17.66 32.23-17.66H4478.48c13.04 0 25.31 6.91 32.22 17.66 6.92 10.781 6.92 24.602 0 35.352L2429.41 3728.16c-6.91 10.75-19.18 17.66-32.22 17.66z" fill="none" stroke="url(#g)" stroke-width="92.16" stroke-linejoin="round"/></g><g clip-path="url(#h)" transform="matrix(.13 0 0 -.13 0 500)"><path d="M2398.01 3684.3c-12.35-.63-23.91-7.54-30.47-17.78L1326.88 1957.7l-144.97-238.09c353.09-211.91 766.21-334.06 1207.7-334.06 447.77 0 866.44 125.43 1222.81 342.97l-1180.31 1938c-6.91 10.75-19.14 17.78-32.19 17.78h-1.91z" fill="url(#i)"/></g><g clip-path="url(#j)" transform="matrix(.13 0 0 -.13 0 500)"><path d="M2291.48 2834.22L1034.26 770.59c-21.53-36.102-21.53-80.668 0-115.981 21.48-36.089 62.19-58.359 105.97-58.359h2513.68c43.79 0 84.49 22.27 105.97 58.359 21.53 36.09 21.53 79.879 0 115.981L2503.44 2834.22c-21.49 36.09-62.19 58.36-105.98 58.36-43.79 0-84.49-22.27-105.98-58.36z" fill="url(#k)"/></g><g clip-path="url(#l)" transform="matrix(.13 0 0 -.13 0 500)"><path d="M2331.17 669.449c-72.03 34.5-126.87 117.461-126.87 191.879 0 138.594 144.8 242.972 281.79 203.162 92.43-26.87 155.24-110.271 154.5-205.111-.67-80.551-35.55-139.891-106.72-181.609-54.49-31.911-145.63-35.661-202.7-8.321zm16.37 547.191c-8.99 4.96-30.2 22.19-47.11 38.28-59.1 56.29-59.02 55.78-97.54 658.01-34.26 535.35-34.53 543.67-19.84 582.15 33.04 86.48 106.72 124.37 229.33 117.97 77.97-4.1 137.97-31.49 177-80.75 33.35-42.07 40.58-65.82 40.54-133.04 0-73.01-46.68-968.64-53.28-1023.52-8.71-71.87-50.66-130.19-112.19-155.9-35.15-14.64-93.12-16.25-116.91-3.2z"/></g></svg>