<?xml version="1.0" encoding="UTF-8" standalone="no"?>
<svg id="svg2" stroke-linejoin="round" xmlns:rdf="http://www.w3.org/1999/02/22-rdf-syntax-ns#" xmlns="http://www.w3.org/2000/svg" stroke-linecap="round" height="151.43mm" width="147.71mm" version="1.1" xmlns:cc="http://creativecommons.org/ns#" xmlns:dc="http://purl.org/dc/elements/1.1/" viewBox="0 0 147.70698 151.427" fill="none">
 <metadata id="metadata447">
  <rdf:RDF>
   <cc:Work rdf:about="">
    <dc:format>image/svg+xml</dc:format>
    <dc:type rdf:resource="http://purl.org/dc/dcmitype/StillImage"/>
    <dc:title/>
   </cc:Work>
  </rdf:RDF>
 </metadata>
 <desc id="desc4">Composer Export</desc>
 <script id="script6" type="text/ecmascript"><![CDATA[
if(typeof(top) != "undefined")
{
	top.ShowPaper = ShowPaper;
}
function ShowHotSpot(evt,hotspotid)
{
	var svgDocument = evt.target.ownerDocument;
	var strId = "hotspot."+hotspotid;
	var hotspot = svgDocument.getElementById(strId);
	if(hotspot)
		hotspot.setAttribute("opacity",".5");
}
function HideHotSpot(evt,hotspotid)
{
	var svgDocument = evt.target.ownerDocument;
	var strId = "hotspot."+hotspotid;
	var hotspot = svgDocument.getElementById(strId);
	if(hotspot)
		hotspot.setAttribute("opacity","0");
	var toolTip = svgDocument.getElementById('ToolTip');
	if(toolTip)
		toolTip.setAttribute("visibility","hidden");
}
function ShowToolTip(evt,hotspotid,strTooltip)
{
	if(strTooltip=="")
	return;
	// change text
	var svgDocument = evt.target.ownerDocument;
	var tiptext = svgDocument.getElementById('ToolTipText');
	if( !tiptext )
	return;
	tiptext.firstChild.nodeValue = " " + strTooltip + "  " ;
	// show tooltip before, else some refresh issue
	var toolTip = svgDocument.getElementById('ToolTip');
	if(!toolTip)
	return;
	toolTip.setAttribute("visibility","visible");
	toolTip.setAttribute("opacity",".95");
	// move tooltip
	// get viewbox
	var root = svgDocument.documentElement;
	var vbox = (root.getAttribute("viewBox")).split(' ');
	var x0 = parseFloat(vbox[0]);
	var y0 = parseFloat(vbox[1]);
	var vboxW = parseFloat(vbox[2]);
	var vboxH = parseFloat(vbox[3]);
	// get default width of svg
	var strW = root.getAttribute("width");
	var svgW = parseFloat(strW);
	if(strW.indexOf('mm') != -1)
	svgW *= 3.779;
	var strH = root.getAttribute("height");
	var svgH = parseFloat(strH);
	if(strH.indexOf('mm') != -1)
	svgH *= 3.779;  	// 96 dpi  -> 96/25.4 = 3.779
	// update the viewbox / width / height if svg is embedded in html with zoom fit all
	var realx0 = x0;
	var realy0 = y0;
	var realvboxW = vboxW;
	var realvboxH = vboxH;
	var realsvgW = svgW;
	var realsvgH = svgH;
	if ((typeof(top) == "undefined") || (typeof(top.svgctl1) != "undefined")) // embedded in html
	{
		// get window size in pxl
		svgW = window.innerWidth;
		svgH = window.innerHeight;
		// calculate real viewbox
		realsvgW = svgW;
		realsvgH = svgH;
		if((svgW / svgH) > (vboxW / vboxH))
		{
			realvboxW = (vboxH * svgW) / svgH;
			realvboxH = vboxH;
			realx0 = x0 - (realvboxW - vboxW)/2 ;
		}
		else
		{
			realvboxH = (vboxW * svgH) / svgW;
			realvboxW = vboxW;
			realy0 = y0 - (realvboxH - vboxH)/2 ;
		}
	}
	// get user zoom/pan
	var newScale = root.currentScale;
	var translation = root.currentTranslate;
	// transform pxl to user unit
	var xPos = (((evt.clientX+10- translation.x)/newScale) * realvboxW)/realsvgW  + realx0 ;
	var yPos = (((evt.clientY+5- translation.y)/newScale) * realvboxH)/ realsvgH  + realy0 ;
	var scaleForWidth = ( (1 / newScale) * realvboxH) / realsvgH;
	// move tooltip
	toolTip.setAttribute("transform", "translate(" + xPos + "," + yPos + ")" );
	// resize tooltip
	var fontsize = 12;
	tiptext.setAttribute("font-size",fontsize*scaleForWidth);
	tiptext.setAttribute("y", fontsize*scaleForWidth);
	var tipBG = svgDocument.getElementById('ToolTipBG');
	var outline = tiptext.getBBox();
	if(tipBG)
	{
		tipBG.setAttribute("stroke-width", 1*scaleForWidth);
		tipBG.setAttribute("width", Number(outline.width) );
		tipBG.setAttribute("height", Number(outline.height) + fontsize*.5*scaleForWidth );
	}
	var ToolTipShadow = svgDocument.getElementById('ToolTipShadow');
	if(ToolTipShadow)
	{
		ToolTipShadow.setAttribute("width", Number(outline.width) );
		ToolTipShadow.setAttribute("height", Number(outline.height) + fontsize*.5*scaleForWidth );
		ToolTipShadow.setAttribute("x", 3*scaleForWidth);
		ToolTipShadow.setAttribute("y", 3*scaleForWidth);
	}
}
function ShowPaper()
{
  var svgDocument = getDocument();
  var paper = svgDocument.getElementById("paperID");
  if(paper)
  {
    paper.setAttribute("transform","scale(1)");
    paper.setAttribute("opacity","1");
    paper.setAttribute("visibility","visible");
  }
  var svg = svgDocument.getRootElement();
  if(svg)
  {
    svg.setAttribute("width","307.000mm");
    svg.setAttribute("height","220.000mm");
    svg.setAttribute("viewBox","-5.000000 -5.000000 307.000000 220.000000");
  }
}
]]></script>
 <g id="g10" stroke-linejoin="round" stroke-linecap="round" transform="translate(-38.267 -9.3096)">
  <path id="path12" d="m135.13 16.138 1.67 2.24 0.98 2.42 0.25 3.19-0.25 2.26-0.31999 0.89-1.36 2.04-1.94 1.71-3.28 1.84-5.28 1.78-6.32 1.22-6.41 0.4-0.13 38.57-1.01 0.47-0.21999-39.04-5.85-0.23-3.25-0.27-1.19 0.77-1.99-0.02 1.5-0.22 1.04-0.91 0.24999-0.48-0.03-2.94 0.50001-0.1 1.21 0.77 0.51001 0.95 0.13999 1.32 5.85-0.09 4.72-0.4 0.15001-1.79 7.3-2.18 5.32-2.47 3.54-2.31 2.18-1.71 1.87-2.51 0.56-1.9-0.23999-1.78-1.05-1.72zm-42.62 16.36 4.17 1.19 0.28 0.26-0.04 0.32-1.02-0.06-3.63-1.23-3.4-1.72-0.31-0.51zm7.53 0.97-1.67 1.29-0.27-0.28 0.01-1.67 0.4-0.34 0.82 0.01zm36.69 29.2-1.46 0.34v-1.08l1.55-0.73zm-61.08 0.93 0.58 0.05 0.01 0.31-0.54-0.08zm2.53 1.6-0.57 0.4-0.99 0.08v-1.08l1.56-0.47zm35.51 12.9 1.14-0.87 0.56001 0.02001v0.82l-0.56001 0.17-1.22 0.94 0.32 0.76 0.28 1.31-0.59 0.42-0.91-0.01-0.24-1.48-0.74-0.23-0.08-4.4 1.26-0.2 0.55-0.52zm56.44 0.2-0.32-0.08 0.36-0.2zm-63.76 0.27 0.41-0.35 1.08 0.01v0.82l-1.5-0.09zm-5.78 1.32-0.14-0.45 0.59 0.01 0.04 0.55zm71.67 0.07-1.4 0.31-0.06-1.06 1.53-0.51zm-55.74 0 2.18-1.75 0.36-0.46v0.82l-2.06 1.87h-0.41zm68.06 1.34-0.24 0.76 0.16-0.92zm-67.94 1.01-0.13999-0.41 0.85999-0.01v0.56zm-63.62 1.27 0.61-0.21-0.04 0.54-0.51-0.06zm71.39-0.14-0.36 0.38-1.42 1-1.02 0.06 0.01-0.54 1.95-0.76 0.73-1 0.11 0.03zm-18.28 1.22 1.88-1.59 0.57001 0.01v0.82l-0.57001 0.18-1.24 0.97-0.64 0.01zm-50.92 0.64-1.22 0.34 0.01-1.08 1.31-0.48zm58.74-1.41-1.31 0.43-3.15 2.45-1.02 0.06 0.01-0.54 1.59-0.64 2.4-1.98 0.64-0.34 0.85 0.02001zm34.09 14.37h-0.89v-0.3h0.89zm1.41 1.47-0.28 0.19-1.02 0.06 0.09-0.99 1.23-0.56zm-60.06 1.2h-0.89v-0.29h0.89zm1.68 1.25-0.33 0.39-1.24 0.08 0.01-0.8 1.56-0.74zm-26.05 9.64 6.57 3.16 4.61 1.71 4.88 1.21 4.62 0.73 4.87 0.49 9.25 0.23-0.74 0.82-28.92 25.09-0.84 0.39-3.64 2.43-0.15 1.07-1.46 1.46-1.79 1.38-0.74 0.08v-39.03l1.31-0.62999 1.94-1.57zm23.01 40.36 0.24-0.24 0.62 0.02v0.58l-0.54-0.04zm96.32-69.87-0.35 1.1-0.23 47.71-0.31 1.16-2.13 2.73-14.57 12.68-2.77 2.1-5.04 2.5-5.12 1.45-6.32 1.23-6.42 0.49v-49.74l7.15-0.63999 6.32-1.22 5.04-1.53 3.38-1.49 1.95-1.21 2.07-1.58 12.39-10.73 3.79-3.51 1.16-1.75zm-67.73 74.37-1.25 0.21-2.74 2.37-0.97 0.10001v-39.03l1.09-0.37 2.62-2.24 1.25-0.07zm68.86-20.68-0.26 0.71-1.21 2.68-2.19 2.92-2.17 1.97-3.04 2.31-3.62 2.22-6.02 2.75-6.08 2.19-5.41 1.64-9.92 2.25-11.43 1.71-11.45 0.98-0.08-1.32 12.74-1.12 10.95-1.71 8.94-2.01 9.97-3.17 5.43-2.36 4.4-2.41 4.51-3.04 3.25-3.31 1.95-3.16 0.74-2.04zm-120.69-15.22v19.36l-0.61 0.65-0.45 0.09 0.08-19.98 0.77-0.34zm50.12 26.41-0.26999 0.7-1.2 0.77v-19.97l0.39999-0.33 1.1-0.23z" fill-rule="evenodd" fill-opacity="0.098" fill="#000"/>
  <g fill="none">
   <g id="Actor_.0" transform="translate(-37.104 -17.722)" stroke="#000">
    <g id="g15" stroke-width=".106">
     <path id="path17" d="m75.53 149.23 0.1 2.39 0.67 2.37 1.23 2.31 1.82 2.33 2.35 2.22 2.88 2.14 3.39 2.04 3.87 1.92 4.31 1.79"/>
     <path id="path19" d="m145.6 176.93-3.42-0.06-6.46-0.33-6.35-0.54-6.2-0.75-5.99-0.94-5.74-1.13-5.45-1.31-5.11-1.49-1.69-0.58"/>
     <path id="path21" d="m125.22 169.79 0.17-0.13 0.28-0.1 0.35-0.07 0.39-0.02 0.38 0.03 0.34 0.08 0.25 0.11 0.15 0.13 0.02 0.14-0.12 0.14-0.22 0.12-0.32 0.08-0.38 0.04h-0.39l-0.37-0.05-0.3-0.1-0.2-0.12-0.08-0.14 0.05-0.14"/>
     <path id="path23" d="m222.92 149.62-0.19 2.38-0.76 2.37-1.34 2.34-1.89 2.28-2.44 2.21-2.97 2.13-3.13 1.83-0.33 0.19-3.94 1.9-4.38 1.77-4.8 1.61-5.16 1.46-5.5 1.28-5.78 1.1-6.03 0.91-6.23 0.72-6.37 0.5-3.23 0.18-3.24 0.12-5.46 0.08"/>
    </g>
    <g id="g25" stroke-width=".317">
     <path id="path27" d="m221.02 144.03 0.56 0.84 0.96 2.36 0.38 2.39v1.32l-0.19 2.37-0.76 2.37-1.34 2.33-1.89 2.29-2.54 2.28-2.87 2.05-3.46 2.02-3.94 1.91-4.38 1.76-4.8 1.62-5.16 1.46-5.5 1.28-5.78 1.1-6.03 0.91-6.23 0.71-6.37 0.51-3.23 0.17-3.24 0.13-6.52 0.09-6.51-0.13-6.46-0.33-6.35-0.54-5.98-0.72-6.21-0.96-5.74-1.13-5.45-1.31-5.11-1.49-4.73-1.64-4.31-1.79-3.87-1.92-3.39-2.04-2.88-2.14-2.35-2.23-1.81-2.29-1.23-2.33-0.68-2.38-0.1-2.39v-1.31l0.48-2.38 1.05-2.35 0.35-0.5"/>
    </g>
   </g>
   <g id="Actor_.1" transform="translate(-37.104 -17.722)" stroke="#000">
    <g id="g30" stroke-width=".106">
     <path id="path32" d="m80.44 117.56 1.12 0.84 2.27 1.26 1.38 0.67"/>
     <path id="path34" d="m148.62 135.44-0.94 0.04v0.14"/>
     <path id="path36" d="m201.83 127.85-0.83 0.61-2.32 1.26-2.74 1.13-3.12 0.99-3.45 0.83-3.71 0.66-3.92 0.48-4.32 0.3"/>
    </g>
    <g id="g38" stroke-width=".317">
     <path id="path40" d="m80.44 117.56-0.69-0.52-1.31-1.43-0.78-1.48-0.25-1.51v-7.42"/>
     <path id="path42" d="m85.21 120.33 16.91 8.15v1.04l6.22 3 2.71 1.14 3.09 1.01 3.43 0.84 3.69 0.68 3.91 0.49 4.05 0.31 4.12 0.1 4.13-0.09 9.1-0.42"/>
     <path id="path44" d="m148.62 135.44 28.8-1.33"/>
     <path id="path46" d="m221.02 101.49v7.53l-0.29 1.51-0.83 1.48-1.35 1.43-15.7 13.67-1.02 0.74"/>
    </g>
   </g>
   <g id="Actor_.2" transform="translate(-37.104 -17.722)" stroke="#000">
    <g id="g49" stroke-width=".106">
     <path id="path51" d="m96.15 164.8v-35.2l0.1-0.13 2.36-2.05 0.14-0.19 0.01-0.2-0.15-0.2-0.27-0.17-14.5-7-2.28-1.26-1.81-1.36-1.31-1.43-0.78-1.48-0.25-1.51"/>
     <path id="path53" d="m102.02 128.43-2.2 1.91-0.22 0.13-0.31 0.11-0.38 0.06-0.42 0.02-0.41-0.03-0.37-0.07-0.3-0.11-0.98-0.47-0.18-0.11-0.1-0.13"/>
     <path id="path55" d="m100.84 138.86-0.06 0.15-0.02 0.17 0.01 19.79"/>
     <path id="path57" d="m100.78 159.01-0.02-0.07"/>
     <path id="path59" d="m102.09 137.78-1.27 1.13"/>
     <path id="path61" d="m102.64 129.77v36.16"/>
     <path id="path63" d="m102.62 137-0.04 0.21"/>
     <path id="path65" d="m145.54 137.54 0.02 0.15 0.14 0.15 0.26 0.12 0.34 0.09 0.4 0.05h0.41l1.61-0.08 0.36-0.03 0.31-0.07 0.26-0.09 0.19-0.12 2.36-2.05 0.27-0.17 0.39-0.14 0.48-0.1 0.53-0.05 23.81-1.1 4.06-0.29 3.92-0.48 3.71-0.66 3.45-0.83 3.12-0.99 2.79-1.16 2.27-1.23 1.85-1.35 15.7-13.67 1.35-1.43 0.83-1.48 0.29-1.51"/>
     <path id="path67" d="m150.47 166.59v-19.75l0.01-0.17 0.06-0.16"/>
     <path id="path69" d="m150.47 166.57 0.01 0.06"/>
     <path id="path71" d="m151.65 145.54-1.12 0.99"/>
     <path id="path73" d="m151.51 145.66 0.1-0.04"/>
     <path id="path75" d="m151.86 145.32 0.07 0.13 0.08 0.26 0.04 0.36v18.65l-0.03 0.34-0.08 0.46-0.09 0.29"/>
     <path id="path77" d="m152.03 145.84 0.17-10.18"/>
    </g>
    <g id="g79" stroke-width=".317">
     <path id="path81" d="m137.21 137.01-29.76 25.89-0.42 0.27-0.6 0.22-3.79 2.54v1.1l-0.15 0.19-2.67 2.33-0.22 0.13-0.31 0.1-0.38 0.06-0.42 0.02-0.41-0.03-0.37-0.07-0.3-0.1-0.98-0.47-0.18-0.12-0.1-0.13v-4.14l-12.32-5.93-2.27-1.26-1.81-1.36-1.31-1.44-0.78-1.48-0.25-1.51v-39.2"/>
     <path id="path83" d="m147.84 135.48-2.2 1.91-0.1 0.15v39.2l0.02 0.16 0.14 0.14 0.26 0.12 0.34 0.09 0.4 0.05h0.41l1.61-0.07 0.36-0.04 0.31-0.06 0.26-0.1 0.19-0.11 2.36-2.05 0.27-0.18 0.39-0.14 0.48-0.1 0.53-0.05 23.81-1.1 4.06-0.29 3.92-0.47 3.71-0.67 3.45-0.83 3.12-0.99 2.74-1.13 0.33-0.18 1.99-1.08 1.85-1.35 15.7-13.67 1.35-1.43 0.83-1.48 0.29-1.51v-39.2"/>
    </g>
   </g>
   <g id="Actor_.3" transform="translate(-37.104 -17.722)" stroke="#000">
    <g id="g86" stroke-width=".106">
     <path id="path88" d="m173.11 80.67-0.06 0.02-0.59 0.08-0.64 0.01-0.61-0.06-0.19-0.06"/>
     <path id="path90" d="m171.43 78.88-0.17-0.13 0.45-0.24 0.81 0.02v0.46l-0.1 0.05-0.81-0.02-0.18-0.14"/>
     <path id="path92" d="m171.71 79.02v-0.51"/>
     <path id="path94" d="m172.52 78.99 0.36-0.19-0.36-0.27"/>
    </g>
    <g id="g96" stroke-width=".317">
     <path id="path98" d="m171.02 80.66-0.32-0.08-0.37-0.19-0.18-0.22v-1.11l0.03-0.24 0.01-0.06 0.03-0.05 0.23-0.21 0.04-0.03 0.39-0.17 0.04-0.02 0.5-0.1 0.58-0.05 0.58 0.03 0.53 0.09 0.03 0.01 0.43 0.16 0.27 0.2 0.04 0.04 0.03 0.05 0.08 0.23 0.01 0.06v1.11l-0.14 0.23-0.32 0.2-0.43 0.13"/>
    </g>
   </g>
   <g id="Actor_.4" transform="translate(-37.104 -17.722)" stroke="#000">
    <g id="g101" stroke-width=".106">
     <path id="path103" d="m127.41 120.45-0.52 0.09-0.63 0.03-0.62-0.05-0.33-0.08"/>
     <path id="path105" d="m125.75 118.7 0.46 0.15 0.76-0.1 0.16-0.29-0.62-0.2-0.76 0.1-0.16 0.29 0.16 0.05v-0.34"/>
     <path id="path107" d="m126.51 118.26v0.55"/>
    </g>
    <g id="g109" stroke-width=".317">
     <path id="path111" d="m127.41 120.45 0.06-0.01 0.45-0.16 0.29-0.21 0.08-0.23v-1.11l-0.01-0.06-0.15-0.28-0.05-0.04-0.3-0.19-0.49-0.15-0.55-0.08-0.58-0.01-0.57 0.05-0.48 0.13-0.04 0.01-0.36 0.18-0.04 0.04-0.18 0.21-0.03 0.06-0.01 0.06v1.11l0.02 0.23 0.22 0.22 0.41 0.18 0.21 0.04"/>
    </g>
   </g>
   <g id="Actor_.5" transform="translate(-37.104 -17.722)" stroke="#000">
    <g id="g114" stroke-width=".106">
     <path id="path116" d="m135.23 98.58v-0.01"/>
     <path id="path118" d="m135.33 98.8 0.27 0.2 0.41 0.17 0.51 0.11 5.43 0.84 0.56 0.12 0.42 0.19 0.06 0.05-0.01 0.01-2.06 1.79-0.14 0.2 0.02 0.2 0.18 0.2 0.33 0.17 0.45 0.13 1.47 0.27 1.56 0.2 0.54 0.03 0.57-0.04 0.42-0.07 0.1-0.02 0.42-0.14 0.29-0.18 2.28-1.98 0.36-0.21 0.54-0.17 0.65-0.1 0.71-0.02 0.69 0.06 5.42 0.84 0.53 0.05 0.57-0.01 0.55-0.07 0.46-0.12 0.36-0.16 0.72-0.54 0.55-0.57 0.07-0.2-0.08-0.21"/>
     <path id="path120" d="m135.99 96.96-0.54 0.57-0.08 0.2 0.09 0.2 0.25 0.19 0.38 0.16 0.49 0.11 5.42 0.83 0.6 0.13 0.45 0.2 0.27 0.24 0.05 0.26-0.17 0.25-0.23 0.2"/>
     <path id="path122" d="m135.23 97.86 0.1 0.22 0.26 0.2 0.41 0.17 0.52 0.11 5.43 0.84 0.56 0.12 0.42 0.19 0.25 0.22 0.05 0.24-0.16 0.24-0.08 0.07"/>
     <path id="path124" d="m135.6 99 0.11 0.11"/>
     <path id="path126" d="m137.43 97.42-0.03-0.12 0.08-0.11 0.17-0.1 0.25-0.08 0.3-0.05 0.33-0.01 0.32 0.03 3.9 0.6 0.28 0.07 0.21 0.09 0.12 0.11 0.02 0.12-0.07 0.11-0.18 0.1-0.25 0.08-0.3 0.05-0.32 0.01-0.32-0.03-3.9-0.6-0.28-0.07-0.21-0.09-0.12-0.11"/>
     <path id="path128" d="m140.64 102.6 0.02 0.22 0.19 0.22 0.36 0.18 0.48 0.14 1.49 0.27 1.57 0.2 0.59 0.03 0.6-0.04 0.56-0.09 0.45-0.15 0.31-0.19 2.28-1.99 0.34-0.2 0.5-0.16 0.62-0.09 0.66-0.02 0.64 0.06 5.42 0.83 0.58 0.06 0.61-0.01 0.58-0.07 0.5-0.13 0.38-0.17 0.73-0.55 0.55-0.57 0.08-0.22"/>
     <path id="path130" d="m140.85 103.76 0.36 0.18 0.48 0.14 1.49 0.27 1.57 0.2 0.59 0.03 0.6-0.04 0.55-0.09 0.46-0.16 0.31-0.19"/>
     <path id="path132" d="m143.85 102.9-0.27-0.06-0.21-0.09-0.12-0.11-0.03-0.12 0.08-0.12 1.64-1.42 0.17-0.1 0.25-0.08 0.3-0.05 0.33-0.01 0.33 0.04 0.26 0.06 0.22 0.09 0.12 0.11 0.02 0.12-0.08 0.11-0.55 0.48"/>
     <path id="path134" d="m145.56 98.52 0.09-0.07 0.04-0.08 0.5-1.41"/>
     <path id="path136" d="m146.19 97.03 0.02-0.1v-0.03"/>
     <path id="path138" d="m146.2 92.49 0.14 0.27 0.36 0.24 0.57 0.18 0.51 0.08 0.18 0.03 0.75 0.02 0.72-0.07 0.62-0.16 0.46-0.22 0.23-0.26"/>
     <path id="path140" d="m150.35 91.96 0.24 0.24 0.01 0.26-0.22 0.25-0.42 0.2-0.59 0.15-0.68 0.06-0.7-0.01-0.65-0.1-0.53-0.17-0.34-0.23-0.13-0.25 0.11-0.26"/>
     <path id="path142" d="m147.12 92.26-0.04 0.05 0.05 0.17 0.19 0.15 0.32 0.13 0.41 0.07 0.46 0.03 0.45-0.03 0.4-0.08 0.31-0.13 0.18-0.16 0.03-0.17-0.04-0.05"/>
     <path id="path144" d="m149.42 102.23 0.12-0.11 0.34-0.2 0.5-0.16 0.62-0.09 0.66-0.02 0.64 0.06 5.42 0.83 0.58 0.06 0.61-0.01 0.58-0.07 0.5-0.13 0.38-0.18 0.73-0.54"/>
     <path id="path146" d="m151.39 98.55-0.05-0.08-0.54-1.47"/>
     <path id="path148" d="m150.76 96.89-0.01-0.02 0.01 0.07 0.01 0.11"/>
     <path id="path150" d="m150.75 96.87v-2.7"/>
     <path id="path152" d="m150.75 95.92 0.99-0.86 0.18-0.1 0.24-0.08 0.31-0.05h0.32l0.32 0.02 0.28 0.07 0.21 0.09 0.12 0.11 0.02 0.12-0.07 0.11-0.56 0.48"/>
     <path id="path154" d="m153.96 99.53-0.13 0.04-0.17 0.11-0.08 0.11 0.03 0.12 0.12 0.11 0.21 0.09 0.28 0.07 3.9 0.6 0.32 0.02 0.32-0.01 0.3-0.04 0.25-0.08 0.18-0.1 0.07-0.11-0.02-0.12-0.12-0.11-0.21-0.1-0.28-0.06-3.9-0.6-0.32-0.03-0.33 0.01-0.3 0.05-0.12 0.03"/>
     <path id="path156" d="m155.99 94.88 0.18 0.19 0.02 0.21-0.14 0.2-2.28 1.98-0.17 0.25 0.05 0.26 0.28 0.24-0.14-0.12-0.05-0.24 0.16-0.24 2.28-1.98 0.15-0.21"/>
     <path id="path158" d="m153.93 98.21 0.07 0.03"/>
     <path id="path160" d="m156.11 94.98"/>
     <path id="path162" d="m161.64 99.94"/>
    </g>
    <g id="g164" stroke-width=".317">
     <path id="path166" d="m147.12 91.75-0.35 0.12-0.39 0.28-0.06 0.07-0.12 0.27 0.01 4.41-0.02 0.06-0.19 0.03-0.7 0.02-0.69-0.06-5.42-0.84-0.55-0.05-0.57 0.01-0.54 0.07-0.47 0.12-0.34 0.16-0.73 0.54-0.13 0.11-0.55 0.57-0.08 0.22v0.72l0.1 0.22 0.13 0.12 0.25 0.19 0.39 0.15 0.48 0.11 5.42 0.83 0.6 0.14 0.37 0.16-2.18 1.89-0.15 0.21v0.72l0.02 0.22 0.19 0.22 0.13 0.1 0.33 0.17 0.45 0.13 1.47 0.27 1.56 0.2 0.54 0.03 0.57-0.04 0.52-0.09 0.42-0.14 0.29-0.18 2.29-1.98 0.35-0.21 0.54-0.17 0.65-0.1 0.71-0.02 0.69 0.06 5.42 0.84 0.53 0.05 0.57-0.01 0.55-0.07 0.46-0.12 0.36-0.16 0.72-0.54 0.13-0.11 0.55-0.57 0.08-0.22v-0.72l-0.09-0.22-0.13-0.12-0.25-0.18-0.38-0.16-0.49-0.11-5.42-0.83-0.59-0.13-0.38-0.17 2.18-1.89 0.15-0.21v-0.72l-0.02-0.22-0.2-0.22-0.12-0.1-0.33-0.18-0.45-0.12-1.48-0.27-1.55-0.2-0.55-0.03-0.56 0.03-0.32 0.06"/>
     <path id="path168" d="m144.13 102.93-0.28-0.03 1.09-0.94 0.17-0.1 0.25-0.08 0.3-0.05 0.33-0.01 0.32 0.03-1.09 0.95-0.17 0.1-0.25 0.08-0.3 0.04-0.32 0.01h-0.05"/>
     <path id="path170" d="m149.84 91.75 0.07 0.01 0.44 0.2 0.12 0.11 0.26 0.26 0.01 0.27 0.01 1.57"/>
     <path id="path172" d="m150.98 97.01-0.18-0.01l-0.04-0.11 0.98-0.85 0.18-0.1 0.24-0.08 0.31-0.05h0.32l0.32 0.02-1.08 0.95-0.18 0.1-0.25 0.08-0.3 0.04-0.32 0.01"/>
    </g>
   </g>
   <g id="Actor_.6" transform="translate(-37.104 -17.722)">
    <g id="g175" stroke-width=".317" stroke="#000">
     <path id="path177" d="m147.12 53.87v38.56"/>
     <path id="path179" d="m149.84 53.87v38.6"/>
    </g>
   </g>
   <g id="Actor_.7" transform="translate(-37.104 -17.722)" stroke="#000">
    <g id="g182" stroke-width=".106">
     <path id="path184" d="m122.1 42.49 0.02 0.05"/>
     <path id="path186" d="m122.93 43.85 0.04 0.06 0.04 0.03"/>
     <path id="path188" d="m122.87 43.75 0.04 0.06"/>
     <path id="path190" d="m123.96 44.84 0.43 0.4 0.09 0.06"/>
     <path id="path192" d="m126.27 46.46 0.14 0.07"/>
     <path id="path194" d="m127.75 47.16 1 0.46 0.08 0.03"/>
     <path id="path196" d="m131.03 48.41 0.64 0.22"/>
     <path id="path198" d="m134.51 49.48-0.17-0.11-0.04-0.02-0.31-0.1-2.28-0.61"/>
     <path id="path200" d="m141.59 50.49-0.4 0.01-0.39 0.05-0.37 0.1-0.26 0.15-0.43 0.36-0.13 0.07-0.19 0.05-0.22 0.02h-0.24l-0.16-0.02-0.68-0.11 0.13 0.54-0.05 0.53-0.21 0.45-0.36 0.34-0.46 0.18-0.52 0.01-0.53-0.18-0.46-0.33-0.36-0.45-0.21-0.52-0.05-0.54 0.13-0.5-0.68-0.11-0.17-0.04-0.17-0.07-0.07-0.05-0.03-0.08-0.07 0.55 0.11 0.9 0.18 0.45"/>
     <path id="path202" d="m134.05 50.35 0.04-0.09 0.05-0.04"/>
     <path id="path204" d="m137.13 51.19-0.02-0.02 0.31 0.19 0.27 0.11 0.36 0.12 0.18 0.04"/>
     <path id="path206" d="m136.55 50.19 0.01 0.01-0.01-0.04 0.06 0.33 0.08 0.19 0.07 0.13 0.18 0.22 0.17 0.14"/>
     <path id="path208" d="m136.55 50.06-0.01 0.03"/>
     <path id="path210" d="m136.54 50.07v-0.02"/>
     <path id="path212" d="m136.55 50.16v-0.03"/>
     <path id="path214" d="m139.7 53.17-0.09 0.05 0.23-0.15"/>
     <path id="path216" d="m139.54 53.28 0.07-0.06 0.05-0.01h-0.04"/>
     <path id="path218" d="m144.6 50.71-2.81-0.21"/>
     <path id="path220" d="m146.32 50.76-1.67-0.05"/>
     <path id="path222" d="m148.6 50.81 0.99-0.02"/>
     <path id="path224" d="m152.43 50.7 0.24-0.01"/>
     <path id="path226" d="m152.87 50.67-0.17 0.02"/>
     <path id="path228" d="m158.33 50.1-1.96 0.28"/>
     <path id="path230" d="m156.26 50.39 0.1-0.01"/>
     <path id="path232" d="m159.93 49.87 0.24-0.05"/>
     <path id="path234" d="m160.51 49.75-0.27 0.06"/>
     <path id="path236" d="m163.34 49.16 0.14-0.03"/>
     <path id="path238" d="m163.79 49.04-0.3 0.08"/>
     <path id="path240" d="m167.06 48.03-0.54 0.22-0.08 0.02"/>
     <path id="path242" d="m169.26 47.17-0.12 0.06"/>
     <path id="path244" d="m169.53 47.03-0.23 0.12"/>
     <path id="path246" d="m171.39 46.05 0.06-0.03 0.16-0.12"/>
     <path id="path248" d="m172.52 45.23-0.89 0.66"/>
     <path id="path250" d="m173.15 44.76 0.08-0.07"/>
     <path id="path252" d="m174.4 43.36-0.02 0.04"/>
     <path id="path254" d="m175.04 41.98 0.01-0.07"/>
    </g>
    <g id="g256" stroke-width=".317">
     <path id="path258" d="m175.13 40.87 0.03 1.43-0.13 1.03-0.14 0.8-0.41 1-0.39 0.7-0.7 0.97-0.96 0.94-0.57 0.48-1.2 0.88-1.44 0.82-1.67 0.76-1.88 0.7-2.53 0.76-2.16 0.52-2.31 0.43-2.41 0.35-2.49 0.25-2.56 0.15-2.58 0.06-2.59-0.05-2.56-0.14-2.51-0.24-1.43-0.19-0.7 0.58-0.7 0.35-0.1 0.04-0.79 0.11-0.82-0.13-0.83-0.38-0.67-0.55-0.52-0.7-0.14-0.35-0.21-0.05-2.54-0.75-1.9-0.69-1.7-0.75-1.46-0.82-1.23-0.87-0.57-0.48-0.99-0.94-0.73-0.96-0.39-0.7-0.45-1-0.29-1.82v-1.34"/>
    </g>
   </g>
   <g id="Actor_.8" transform="translate(-37.104 -17.722)" stroke="#000">
    <g id="g261" stroke-width=".106">
     <path id="path263" d="m121.81 41.21v-0.01"/>
     <path id="path265" d="m126.39 46.62-0.01-0.01"/>
     <path id="path267" d="m127.75 47.25-1.07-0.49"/>
     <path id="path269" d="m128.81 47.74 1.13 0.39"/>
     <path id="path271" d="m134.34 49.46-0.35-0.11-2.34-0.63"/>
     <path id="path273" d="m134.17 50.59"/>
     <path id="path275" d="m134.3 50.64-0.02-0.01"/>
     <path id="path277" d="m136.01 50.1-0.13 0.02-0.42 0.27-0.29 0.41"/>
     <path id="path279" d="m134.49 50.69-0.02-0.01"/>
     <path id="path281" d="m134.31 50.64 0.01 0.01"/>
     <path id="path283" d="m134.38 49.49 0.08 0.05 0.48-0.55 0.59-0.48"/>
     <path id="path285" d="m134.46 49.54-0.09 0.12"/>
     <path id="path287" d="m136.67 50.07-0.29-0.04-0.16 0.03"/>
     <path id="path289" d="m138.96 51.4-0.01-0.01"/>
     <path id="path291" d="m139.19 51.4h0.01"/>
     <path id="path293" d="m139.02 51.4h0.02"/>
     <path id="path295" d="m138.8 51.38h0.02"/>
     <path id="path297" d="m140.69 50.68 0.01-0.01"/>
     <path id="path299" d="m141.14 50.6-0.12 0.02"/>
     <path id="path301" d="m144.68 50.81-2.86-0.21"/>
     <path id="path303" d="m141.58 50.59h-0.23"/>
     <path id="path305" d="m146.32 50.85 2.25 0.06"/>
     <path id="path307" d="m152.57 50.79-0.14 0.01-1.75 0.05"/>
     <path id="path309" d="m156.32 50.48-1.27 0.11"/>
     <path id="path311" d="m160.04 49.95-0.11 0.02-2.43 0.34"/>
     <path id="path313" d="m161.6 49.62 1.78-0.37"/>
     <path id="path315" d="m164.88 48.82 1.59-0.46"/>
     <path id="path317" d="m169.16 47.32-1.01 0.39"/>
     <path id="path319" d="m171.44 46.12-0.01 0.01"/>
     <path id="path321" d="m173.17 44.84 0.02-0.01"/>
     <path id="path323" d="m174.39 43.48v-0.01"/>
     <path id="path325" d="m175.04 42.08v-0.01"/>
    </g>
    <g id="g327" stroke-width=".317">
     <path id="path329" d="m122.12 42.63 0.17 0.29"/>
     <path id="path331" d="m121.88 41.56-0.07-0.35v-0.66l0.27-2.17 0.41-1.09 0.41-0.99 0.66-0.94 0.67-0.95 0.94-0.91 0.82-0.7 1.15-0.84 1.39-0.79 2.4-1.1 1.73-0.64 1.9-0.57 2.06-0.49 2.18-0.41 2.29-0.33 2.38-0.24 2.42-0.15 2.46-0.05 2.46 0.04 2.43 0.14 2.38 0.23 2.3 0.32 2.2 0.4 2.07 0.48 1.92 0.57 1.75 0.63 2.41 1.09 1.42 0.78 1.18 0.84 0.81 0.69 0.97 0.91 0.7 0.94 0.65 0.94 0.45 0.99 0.41 1.09 0.16 1.01 0.14 1.16-0.11 1.57"/>
     <path id="path333" d="m123.86 44.84-0.86-0.81"/>
     <path id="path335" d="m125.57 46.1-1.15-0.73"/>
     <path id="path337" d="m126.39 46.62 0.29 0.14"/>
     <path id="path339" d="m134.28 50.63-0.11-0.04"/>
     <path id="path341" d="m134.3 50.64h0.01"/>
     <path id="path343" d="m134.37 49.66-0.03 0.04-0.26 0.65"/>
     <path id="path345" d="m136.22 50.06-0.21 0.04-0.84 0.7-0.68-0.11"/>
     <path id="path347" d="m134.32 50.65 0.15 0.03"/>
     <path id="path349" d="m138.8 51.38-0.68-0.11-0.29-0.5-0.42-0.4-0.5-0.26-0.24-0.04v0.08l-0.12-0.02"/>
     <path id="path351" d="m139.02 51.4h-0.06"/>
     <path id="path353" d="m139.19 51.4h-0.15"/>
     <path id="path355" d="m138.95 51.39-0.13-0.01"/>
     <path id="path357" d="m171.43 46.13-1.09 0.57"/>
     <path id="path359" d="m173.17 44.84-0.65 0.49"/>
     <path id="path361" d="m173.61 44.35 0.78-0.87"/>
     <path id="path363" d="m174.71 42.8 0.33-0.72v-0.02"/>
    </g>
   </g>
   <g id="Actor_.9" transform="translate(-37.104 -17.722)" stroke="#000">
    <g id="g366" stroke-width=".106">
     <path id="path368" d="m112.51 83.37 0.45 0.09 0.62 0.03 0.63-0.04 0.4-0.08"/>
     <path id="path370" d="m114.13 81.27v0.36l0.21-0.07-0.21-0.29-0.78-0.08v0.53"/>
     <path id="path372" d="m113.35 81.19-0.57 0.21 0.21 0.29 0.78 0.08 0.36-0.14"/>
    </g>
    <g id="g374" stroke-width=".317">
     <path id="path376" d="m112.51 83.37-0.12-0.02-0.43-0.17-0.27-0.21-0.06-0.23v-1.11l0.01-0.06 0.03-0.06 0.15-0.22 0.04-0.04 0.32-0.18 0.05-0.02 0.46-0.13 0.55-0.07 0.59-0.01 0.56 0.07 0.46 0.13 0.05 0.01 0.34 0.19 0.04 0.03 0.16 0.22 0.03 0.06 0.01 0.06v1.11l-0.04 0.23-0.25 0.21-0.43 0.18-0.15 0.03"/>
    </g>
   </g>
   <g id="Actor_.10" transform="translate(-37.104 -17.722)" stroke="#000">
    <g id="g379" stroke-width=".106">
     <path id="path381" d="m206.67 97.85 0.2 0.05 0.61 0.07 0.63-0.01 0.59-0.08 0.07-0.02"/>
     <path id="path383" d="m207.37 95.69 0.81 0.03v0.45l-0.1 0.06-0.81-0.02-0.36-0.27 0.46-0.25v0.52"/>
     <path id="path385" d="m208.18 95.72 0.35 0.26-0.35 0.19"/>
    </g>
    <g id="g387" stroke-width=".317">
     <path id="path389" d="m208.77 97.86 0.42-0.13 0.33-0.2 0.13-0.23v-1.11l-0.01-0.06-0.08-0.23-0.02-0.05-0.05-0.04-0.26-0.2-0.43-0.16-0.04-0.01-0.52-0.1-0.59-0.02-0.57 0.04-0.51 0.11-0.03 0.01-0.4 0.17-0.04 0.04-0.23 0.21-0.03 0.05-0.01 0.06-0.02 0.23v1.11l0.17 0.23 0.37 0.19 0.32 0.08"/>
    </g>
   </g>
   <g id="Actor_.11" transform="translate(-37.104 -17.722)" stroke="#000">
    <g id="g392" stroke-width=".106">
     <path id="path394" d="m185.92 117.74-0.26 0.06-0.62 0.06-0.63-0.02-0.58-0.09"/>
     <path id="path396" d="m184.37 115.62-0.3 0.27 0.3 0.14v-0.41l0.8-0.05 0.5 0.24-0.3 0.27-0.8 0.05-0.2-0.1"/>
     <path id="path398" d="m185.17 115.57v0.52"/>
    </g>
    <g id="g400" stroke-width=".317">
     <path id="path402" d="m183.83 117.75-0.48-0.16-0.3-0.2-0.11-0.23v-1.11l0.01-0.06 0.1-0.23 0.03-0.05 0.04-0.04 0.29-0.19 0.44-0.15 0.03-0.01 0.54-0.09 0.58-0.02 0.57 0.05 0.5 0.12 0.04 0.01 0.37 0.17 0.05 0.04 0.2 0.21 0.03 0.06 0.01 0.06 0.01 0.23v1.11l-0.21 0.22-0.38 0.18-0.27 0.07"/>
    </g>
   </g>
   <g id="Actor_.12" transform="translate(-37.104 -17.722)" stroke="#000">
    <g id="g405" stroke-width=".106">
     <path id="path407" d="m89.66 103.26 0.41 0.08 0.63 0.04 0.62-0.04 0.43-0.08"/>
     <path id="path409" d="m89.95 101.48 0.12-0.29v0.32l-0.12-0.03"/>
     <path id="path411" d="m90.07 101.19 0.75-0.11v0.55"/>
     <path id="path413" d="m90.82 101.08 0.64 0.18-0.12 0.29-0.75 0.11-0.52-0.15"/>
    </g>
    <g id="g415" stroke-width=".317">
     <path id="path417" d="m89.66 103.26-0.15-0.03-0.43-0.17-0.25-0.21-0.05-0.24v-1.11l0.01-0.06 0.03-0.05 0.16-0.22 0.04-0.04 0.33-0.18 0.05-0.02 0.46-0.13 0.56-0.07h0.59l0.55 0.08 0.46 0.13 0.05 0.01 0.33 0.19 0.04 0.03 0.15 0.23 0.03 0.05 0.01 0.06v1.11l-0.06 0.23-0.25 0.21-0.44 0.17-0.13 0.03"/>
    </g>
   </g>
   <g id="Actor_.13" transform="translate(-37.104 -17.722)" stroke="#000">
    <g id="g420" stroke-width=".106">
     <path id="path422" d="m221.72 98.17-0.3 1.55-0.84 1.51-1.38 1.46-5.66 4.93-10.05 8.74-1.89 1.38-2.36 1.28-2.8 1.16-3.19 1.01-3.53 0.86-3.8 0.67-4 0.49-4.15 0.3-40.22 1.85-4.21 0.1-4.22-0.11-4.14-0.31-3.99-0.51-3.78-0.69-3.5-0.86-3.16-1.03-2.77-1.16-21.4-10.32-3.1-1.5-2.33-1.29-1.85-1.39-1.34-1.46-0.8-1.52-0.26-1.54"/>
     <path id="path424" d="m146.21 95.88-0.34-0.07-0.57-0.05-0.57 0.03-0.52 0.09-0.41 0.15-0.25 0.19-0.07 0.21 0.12 0.21 0.3 0.18 0.1 0.03"/>
     <path id="path426" d="m145.25 102.68-0.05-0.09 0.05-0.12 0.14-0.11 0.35-0.11"/>
    </g>
    <g id="g428" stroke-width=".317">
     <path id="path430" d="m149.84 75.09 11.03-0.51 4.22-0.09 4.21 0.1 4.14 0.31 4 0.51 3.78 0.69 3.5 0.87 3.16 1.02 2.77 1.17 24.5 11.81 2.33 1.29 1.85 1.39 1.34 1.46 0.8 1.52 0.25 1.54v1.05l-0.3 1.54-0.84 1.52-1.38 1.46-15.71 13.67-1.89 1.38-2.36 1.28-2.8 1.16-3.19 1.01-3.53 0.85-3.8 0.68-4 0.49-4.15 0.29-40.22 1.86-4.21 0.09-4.22-0.11-4.14-0.31-3.99-0.5-3.78-0.69-3.5-0.87-3.16-1.02-2.77-1.17-21.3-10.27-3.2-1.54-2.33-1.29-1.85-1.39-1.34-1.47-0.8-1.51-0.26-1.55v-1.04l0.3-1.54 0.85-1.52 1.38-1.46 15.7-13.67 1.89-1.38 2.37-1.28 2.8-1.16 3.19-1.01 3.53-0.85 3.79-0.68 4.01-0.49 4.15-0.29 26.46-1.23"/>
     <path id="path432" d="m144.34 96.9 0.39-0.07 0.57-0.02 0.57 0.04 0.33 0.08-0.28 0.06"/>
    </g>
   </g>
  </g>
 </g>
</svg>
