<?xml version="1.0" encoding="UTF-8" standalone="no"?>
<svg id="svg4171" xmlns:rdf="http://www.w3.org/1999/02/22-rdf-syntax-ns#" xmlns="http://www.w3.org/2000/svg" height="310mm" width="310mm" version="1.1" xmlns:cc="http://creativecommons.org/ns#" xmlns:dc="http://purl.org/dc/elements/1.1/">
 <metadata id="metadata4209">
  <rdf:RDF>
   <cc:Work rdf:about="">
    <dc:format>image/svg+xml</dc:format>
    <dc:type rdf:resource="http://purl.org/dc/dcmitype/StillImage"/>
    <dc:title/>
   </cc:Work>
  </rdf:RDF>
 </metadata>
 <g id="g4189" transform="translate(177.16 347.22)">
  <path id="path4191" d="m159.54 95.73v0" stroke="#000" stroke-linecap="round" fill="none"/>
  <path id="path4195" d="m212.64 201.95v0" stroke="#000" stroke-linecap="round" fill="none"/>
  <path id="path4193" d="m478.36 95.73h-212.62l-53.1 106.22-53.1-106.22 212.4-425.32 212.62 425.32-53.1 106.22-53.12-106.18"/>
 </g>
 <g id="layer1" transform="translate(177.16 347.22)">
  <path id="path4197" d="m690.99 733.49-53.336-106.23h-212.4l-53.319 106.23-53.101-106.23h-212.42l-53.31 106.23-53.1-106.23 212.64-425.31 159.3 318.88 159.52-318.88 212.63 425.31-53.1 106.23z"/>
 </g>
 <g id="g4199" transform="translate(177.16 347.22)">
  <path id="path4201" fill="#f60" d="m265.74 95.73-53.1 106.22 159.3 318.88 159.52-318.88-53.12-106.18-212.6-0.04z"/>
 </g>
</svg>
