<?xml version="1.0" encoding="UTF-8" standalone="no"?>
<svg xmlns:rdf="http://www.w3.org/1999/02/22-rdf-syntax-ns#" xmlns="http://www.w3.org/2000/svg" height="1323.3" width="926.2" version="1.1" xmlns:cc="http://creativecommons.org/ns#" xmlns:dc="http://purl.org/dc/elements/1.1/">
 <metadata>
  <rdf:RDF>
   <cc:Work rdf:about="">
    <dc:format>image/svg+xml</dc:format>
    <dc:type rdf:resource="http://purl.org/dc/dcmitype/StillImage"/>
    <dc:title/>
   </cc:Work>
  </rdf:RDF>
 </metadata>
 <desc>/home/syakupov/devel/airmast/www/airmast.github.io/img/logo2.dxf - scale = 88.920317, origin = (0.394205, 0.393420), method = auto</desc>
 <g fill="#4b4b4b">
  <path d="m462.95 328.68h-264.66l-66.1 132.22-66.094-132.22 264.38-529.4 264.66 529.4-66.1 132.22-66.12-132.17" transform="translate(132.48,200.72)"/>
  <path d="m727.62 1122.5-66.39-132.2h-264.38l-66.37 132.2-66.1-132.2h-264.4l-66.367 132.2-66.093-132.2 264.67-529.4 198.29 396.92 198.56-396.92 264.68 529.4z" transform="translate(132.48,200.72)"/>
 </g>
 <g fill="#323232">
  <path d="m330.55 63.841 132.4 264.84h-264.66z" transform="translate(132.48,200.72)"/>
  <path d="m529.11 725.46 132.4 264.84h-264.66z" transform="translate(132.48,200.72)"/>
  <path d="m132.26 725.46 132.4 264.84h-264.66z" transform="translate(132.48,200.72)"/>
 </g>
 <g fill="#191919">
  <path d="m330.48-200.72 0.0696 264.56 198.49 397.06 66.093-132.22z" transform="translate(132.48,200.72)"/>
  <path d="m529.04 460.9 0.0696 264.56 198.49 397.06 66.093-132.22z" transform="translate(132.48,200.72)"/>
  <path d="m132.19 460.9 0.0696 264.56 198.49 397.06-0.20696-264.8z" transform="translate(132.48,200.72)"/>
 </g>
 <g>
  <g transform="translate(132.48,200.72)">
   <path fill="#f60" d="m198.29 328.68-66.1 132.22 198.29 396.92 198.56-396.92-66.12-132.17z"/>
  </g>
 </g>
 <g>
  <g opacity=".3" transform="translate(-.559 -1.1186)">
   <path fill="#fc0" d="m463.59 1059.6 132.4-529.18h-264.66z"/>
  </g>
 </g>
</svg>
