<svg xmlns="http://www.w3.org/2000/svg" height="1323.3" width="926.2"><g fill="#4b4b4b"><path d="M595.43 529.4H330.77l-66.1 132.22-66.094-132.22L462.956 0l264.66 529.4-66.1 132.22-66.12-132.17"/><path d="M860.1 1323.22l-66.39-132.2H529.33l-66.37 132.2-66.1-132.2h-264.4l-66.367 132.2L0 1191.02l264.67-529.4 198.29 396.92 198.56-396.92 264.68 529.4z"/></g><path d="M463.03 264.561l132.4 264.84H330.77zM661.59 926.18l132.4 264.84H529.33zm-396.85 0l132.4 264.84H132.48z" fill="#323232"/><path d="M462.96 0l.07 264.56 198.49 397.06 66.093-132.22zm198.56 661.62l.07 264.56 198.49 397.06 66.093-132.22zm-396.85 0l.07 264.56 198.49 397.06-.207-264.8z" fill="#191919"/><path fill="#f60" d="M330.77 529.4l-66.1 132.22 198.29 396.92 198.56-396.92-66.12-132.17z"/><path fill="#fc0" d="M463.031 1058.481l132.4-529.18h-264.66z" opacity=".3"/></svg>