<svg xmlns="http://www.w3.org/2000/svg" width="926.2" height="1323.3"><g fill="#646464"><path d="M595.43 529.4H330.77l-66.1 132.22-66.094-132.22L462.956 0l264.66 529.4-66.1 132.22-66.12-132.17"/><path d="M860.1 1323.22l-66.39-132.2H529.33l-66.37 132.2-66.1-132.2h-264.4l-66.367 132.2L0 1191.02l264.67-529.4 198.29 396.92 198.56-396.92 264.68 529.4z"/></g><path d="M462.956 0L595.43 529.401H330.77zm198.56 661.62l132.474 529.4H529.33zm-396.846 0l132.47 529.4H132.48z" fill="#3c3c3c"/><path d="M462.96 0l132.471 529.301L661.52 661.62l66.093-132.22zm198.56 661.62l132.47 529.4 66.09 132.22 66.093-132.22z" fill="#141414"/><path d="M264.67 661.62l132.19 529.4 66.37 132.22-.207-264.8z" fill="#191919"/><path d="M330.77 529.4l-66.1 132.22 198.29 396.92 198.56-396.92-66.12-132.17z" fill="#f60"/><path d="M463.031 1058.481l132.4-529.18h-264.66z" fill="#fc0" opacity=".3"/></svg>