<?xml version="1.0" encoding="UTF-8" standalone="no"?>
<svg
   xmlns:dc="http://purl.org/dc/elements/1.1/"
   xmlns:cc="http://creativecommons.org/ns#"
   xmlns:rdf="http://www.w3.org/1999/02/22-rdf-syntax-ns#"
   xmlns:svg="http://www.w3.org/2000/svg"
   xmlns="http://www.w3.org/2000/svg"
   xmlns:sodipodi="http://sodipodi.sourceforge.net/DTD/sodipodi-0.dtd"
   xmlns:inkscape="http://www.inkscape.org/namespaces/inkscape"
   width="10mm"
   height="10mm"
   viewBox="0 0 35.433071 35.433071"
   id="svg2"
   version="1.1"
   sodipodi:docname="q.svg"
   inkscape:version="0.92.2 (5c3e80d, 2017-08-06)">
  <sodipodi:namedview
     pagecolor="#ffffff"
     bordercolor="#666666"
     borderopacity="1"
     objecttolerance="10"
     gridtolerance="10"
     guidetolerance="10"
     inkscape:pageopacity="0"
     inkscape:pageshadow="2"
     inkscape:window-width="1865"
     inkscape:window-height="1025"
     id="namedview9"
     showgrid="false"
     inkscape:zoom="6.2441667"
     inkscape:cx="18.897638"
     inkscape:cy="18.897638"
     inkscape:window-x="55"
     inkscape:window-y="27"
     inkscape:window-maximized="1"
     inkscape:current-layer="text4157" />
  <defs
     id="defs4" />
  <metadata
     id="metadata7">
    <rdf:RDF>
      <cc:Work
         rdf:about="">
        <dc:format>image/svg+xml</dc:format>
        <dc:type
           rdf:resource="http://purl.org/dc/dcmitype/StillImage" />
        <dc:title />
      </cc:Work>
    </rdf:RDF>
  </metadata>
  <g
     id="layer1"
     transform="translate(0,-1016.9291)">
    <circle
       style="fill:#ffb901;fill-opacity:1;stroke:none;stroke-width:5.31496048;stroke-miterlimit:4;stroke-dasharray:none"
       id="path4136"
       cx="17.716536"
       cy="1034.6456"
       r="17.716536" />
    <g
       aria-label="?"
       transform="scale(0.99099394,1.0090879)"
       style="font-style:normal;font-weight:normal;font-size:45.76651001px;line-height:125%;font-family:sans-serif;letter-spacing:0px;word-spacing:0px;fill:#000000;fill-opacity:1;stroke:none;stroke-width:1px;stroke-linecap:butt;stroke-linejoin:miter;stroke-opacity:1"
       id="text4157">
      <path
         d="m 15.280157,1029.561 q -0.14302,-1.4874 0.143021,-2.5172 0.28604,-1.0583 0.772309,-1.802 0.514874,-0.7723 1.144163,-1.3158 0.657894,-0.5721 1.201371,-1.087 0.572081,-0.5149 0.943934,-1.0583 0.371853,-0.5721 0.371853,-1.3444 0,-1.0012 -0.572081,-1.6019 -0.543478,-0.6006 -1.973681,-0.6006 -0.457665,0 -0.972538,0.1144 -0.514873,0.086 -1.029747,0.286 -0.514873,0.1716 -1.001142,0.4291 -0.457665,0.2288 -0.829518,0.4863 l -1.430203,-2.746 q 1.086954,-0.7437 2.488554,-1.23 1.430203,-0.4863 3.432488,-0.4863 2.688782,0 4.204797,1.3158 1.516016,1.2872 1.516016,3.4897 0,1.4588 -0.400457,2.4313 -0.371853,0.944 -0.943934,1.6305 -0.572082,0.6579 -1.258579,1.1727 -0.686498,0.5149 -1.258579,1.1156 -0.572081,0.5721 -0.972538,1.3444 -0.400457,0.7723 -0.400457,1.9737 z m -0.572081,4.0618 q 0,-1.0012 0.629289,-1.5733 0.62929,-0.6007 1.659036,-0.6007 1.086955,0 1.716244,0.6007 0.62929,0.5721 0.62929,1.5733 0,1.0011 -0.62929,1.6018 -0.629289,0.6007 -1.716244,0.6007 -1.029746,0 -1.659036,-0.6007 -0.629289,-0.6007 -0.629289,-1.6018 z"
         style="font-style:normal;font-variant:normal;font-weight:bold;font-stretch:normal;font-size:28.60406685px;font-family:'PT Sans';-inkscape-font-specification:'PT Sans Bold';text-align:center;text-anchor:middle;fill:#ffffff"
         id="path3700" />
    </g>
  </g>
</svg>
